<svg width="64" height="64" viewBox="0 0 64 64" fill="none" xmlns="http://www.w3.org/2000/svg">
<path d="M0 21.4667C0 13.8735 0 10.0769 1.50115 7.18701C2.76616 4.75177 4.75177 2.76616 7.18701 1.50115C10.0769 0 13.8735 0 21.4667 0H42.5333C50.1265 0 53.9231 0 56.813 1.50115C59.2482 2.76616 61.2338 4.75177 62.4988 7.18701C64 10.0769 64 13.8735 64 21.4667V42.5333C64 50.1265 64 53.9231 62.4988 56.813C61.2338 59.2482 59.2482 61.2338 56.813 62.4988C53.9231 64 50.1265 64 42.5333 64H21.4667C13.8735 64 10.0769 64 7.18701 62.4988C4.75177 61.2338 2.76616 59.2482 1.50115 56.813C0 53.9231 0 50.1265 0 42.5333V21.4667Z" fill="white"/>
<path fill-rule="evenodd" clip-rule="evenodd" d="M53.7591 32.5192C53.7591 30.9119 53.6148 29.3665 53.3469 27.8828H31.999V36.6507H44.1978C43.6724 39.484 42.0754 41.8847 39.6748 43.4919V49.1792H47.0003C51.2863 45.2331 53.7591 39.4222 53.7591 32.5192Z" fill="#4285F4"/>
<path fill-rule="evenodd" clip-rule="evenodd" d="M31.998 54.6686C38.118 54.6686 43.2489 52.6389 46.9992 49.1771L39.6737 43.4898C37.644 44.8498 35.0477 45.6535 31.998 45.6535C26.0943 45.6535 21.0974 41.6662 19.3149 36.3086H11.7422V42.1813C15.4719 49.5892 23.1374 54.6686 31.998 54.6686Z" fill="#34A853"/>
<path fill-rule="evenodd" clip-rule="evenodd" d="M19.3167 36.3142C18.8633 34.9542 18.6058 33.5015 18.6058 32.0075C18.6058 30.5136 18.8633 29.0609 19.3167 27.7009V21.8281H11.7439C10.2088 24.8881 9.33301 28.35 9.33301 32.0075C9.33301 35.6651 10.2088 39.1269 11.7439 42.1869L19.3167 36.3142Z" fill="#FBBC05"/>
<path fill-rule="evenodd" clip-rule="evenodd" d="M31.998 18.3511C35.3259 18.3511 38.3137 19.4947 40.6628 21.7408L47.1641 15.2396C43.2386 11.582 38.1077 9.33594 31.998 9.33594C23.1374 9.33594 15.4719 14.4153 11.7422 21.8232L19.3149 27.696C21.0974 22.3384 26.0943 18.3511 31.998 18.3511Z" fill="#EA4335"/>
</svg>
