<svg width="58" height="54" viewBox="0 0 58 54" fill="none" xmlns="http://www.w3.org/2000/svg">
<g clip-path="url(#clip0_606_7100)">
<path d="M47.2098 11.7422H2.87951C2.09228 11.7422 1.4541 12.3787 1.4541 13.164V51.1261C1.4541 51.9113 2.09228 52.5479 2.87951 52.5479H47.2098C47.997 52.5479 48.6352 51.9113 48.6352 51.1261V13.164C48.6352 12.3787 47.997 11.7422 47.2098 11.7422Z" fill="#F8F8F8" stroke="#4832D9" stroke-width="2.05" stroke-miterlimit="10" stroke-linecap="square"/>
<path fill-rule="evenodd" clip-rule="evenodd" d="M34.9934 22.2226C32.3707 19.6065 28.8784 18.1562 25.1723 18.1562C17.5179 18.1562 11.2888 24.3695 11.2888 32.0046C11.2888 34.4501 11.9303 36.8245 13.1419 38.9288L11.1748 46.1089L18.5442 44.1894C20.5683 45.2984 22.8632 45.8814 25.1866 45.8814C32.8411 45.8814 39.0701 39.6681 39.0701 32.033C39.0701 28.3363 37.6304 24.8529 35.0077 22.2368L34.9934 22.2226ZM25.1723 43.3079C23.1483 43.3079 21.1527 42.7676 19.4137 41.7297L19.0003 41.488L14.7241 42.6112L15.8644 38.4454L15.5936 38.0188C14.4675 36.2273 13.8688 34.1515 13.8688 32.0188C13.8688 25.7913 18.9433 20.7297 25.1866 20.7297C28.2085 20.7297 31.045 21.9098 33.1832 24.0425C35.3213 26.1752 36.4901 29.0188 36.4901 32.033C36.4901 38.2605 31.4156 43.3221 25.1723 43.3221V43.3079ZM31.5012 34.9193C31.1591 34.7487 29.4486 33.9098 29.135 33.7961C28.8214 33.6823 28.5791 33.6254 28.351 33.9667C28.1229 34.3079 27.453 35.0899 27.2535 35.3174C27.0539 35.5449 26.8543 35.5733 26.498 35.4027C26.1559 35.2321 25.0298 34.8624 23.7042 33.6823C22.6779 32.7581 21.9794 31.6349 21.7799 31.2795C21.5803 30.9382 21.7656 30.7392 21.9367 30.5686C22.0935 30.4122 22.2788 30.1705 22.4641 29.9572C22.6351 29.7581 22.6921 29.616 22.8062 29.3743C22.9202 29.1468 22.8632 28.9477 22.7777 28.7629C22.6921 28.5923 21.9937 26.8861 21.7086 26.1894C21.4235 25.5212 21.1384 25.6065 20.9246 25.5923C20.7251 25.5923 20.497 25.5923 20.2547 25.5923C20.0124 25.5923 19.6418 25.6776 19.3282 26.0188C19.0146 26.36 18.1166 27.1989 18.1166 28.9051C18.1166 30.6112 19.3567 32.2605 19.5277 32.488C19.6988 32.7155 21.9794 36.2131 25.4574 37.7202C26.2842 38.0757 26.9256 38.289 27.4388 38.4454C28.2655 38.7155 29.021 38.6728 29.6196 38.5875C30.2896 38.488 31.6722 37.7487 31.9573 36.9382C32.2424 36.1278 32.2424 35.4311 32.1569 35.2889C32.0713 35.1468 31.8433 35.0615 31.4869 34.8908L31.5012 34.9193Z" fill="#4832D9"/>
<path d="M46.2262 22.0369C51.9258 22.0369 56.5462 17.4282 56.5462 11.7431C56.5462 6.05793 51.9258 1.44922 46.2262 1.44922C40.5267 1.44922 35.9062 6.05793 35.9062 11.7431C35.9062 17.4282 40.5267 22.0369 46.2262 22.0369Z" fill="#F2B705" stroke="#F2B705" stroke-width="2.05" stroke-miterlimit="10"/>
<path d="M46.6307 16.1193C46.1307 16.1193 45.6804 16.0199 45.2798 15.821C44.8793 15.6222 44.5582 15.3494 44.3168 15.0028C44.0753 14.6562 43.9432 14.2614 43.9205 13.8182H44.9432C44.983 14.2131 45.1619 14.5398 45.4801 14.7983C45.8011 15.054 46.1847 15.1818 46.6307 15.1818C46.9886 15.1818 47.3068 15.098 47.5852 14.9304C47.8665 14.7628 48.0866 14.5327 48.2457 14.2401C48.4077 13.9446 48.4886 13.6108 48.4886 13.2386C48.4886 12.858 48.4048 12.5185 48.2372 12.2202C48.0724 11.919 47.8452 11.6818 47.5554 11.5085C47.2656 11.3352 46.9347 11.2472 46.5625 11.2443C46.2955 11.2415 46.0213 11.2827 45.7401 11.3679C45.4588 11.4503 45.2273 11.5568 45.0455 11.6875L44.0568 11.5682L44.5852 7.27273H49.1193V8.21023H45.4716L45.1648 10.7841H45.2159C45.3949 10.642 45.6193 10.5241 45.8892 10.4304C46.1591 10.3366 46.4403 10.2898 46.733 10.2898C47.267 10.2898 47.7429 10.4176 48.1605 10.6733C48.581 10.9261 48.9105 11.2727 49.1491 11.7131C49.3906 12.1534 49.5114 12.6562 49.5114 13.2216C49.5114 13.7784 49.3864 14.2756 49.1364 14.7131C48.8892 15.1477 48.5483 15.4915 48.1136 15.7443C47.679 15.9943 47.1847 16.1193 46.6307 16.1193Z" fill="#4832D9"/>
</g>
<defs>
<clipPath id="clip0_606_7100">
<rect width="58" height="54" fill="white"/>
</clipPath>
</defs>
</svg>
