<svg width="456" height="291" viewBox="0 0 456 291" fill="none" xmlns="http://www.w3.org/2000/svg">
<mask id="mask0_776_3575" style="mask-type:luminance" maskUnits="userSpaceOnUse" x="0" y="0" width="322" height="291">
<path d="M321.12 0H0V291H321.12V0Z" fill="white"/>
</mask>
<g mask="url(#mask0_776_3575)">
<path d="M309.64 0H11.48C5.14 0 0 5.14 0 11.48V279.51C0 285.85 5.14 290.99 11.48 290.99H309.63C315.97 290.99 321.11 285.85 321.11 279.51V11.48C321.11 5.14 315.97 0 309.63 0H309.64Z" fill="white"/>
<path d="M0 11.48C0 5.13 5.13 0 11.48 0H309.64C315.98 0 321.12 5.13 321.12 11.48V17.22H0V11.48Z" fill="#6262E9"/>
<path d="M19.9896 10.9086C21.2896 10.9086 22.3496 9.87859 22.3496 8.60859C22.3496 7.33859 21.2996 6.30859 19.9896 6.30859C18.6796 6.30859 17.6396 7.33859 17.6396 8.60859C17.6396 9.87859 18.6896 10.9086 19.9896 10.9086Z" fill="#C24639"/>
<path d="M28.82 10.9086C30.12 10.9086 31.18 9.87859 31.18 8.60859C31.18 7.33859 30.13 6.30859 28.82 6.30859C27.51 6.30859 26.46 7.33859 26.46 8.60859C26.46 9.87859 27.51 10.9086 28.82 10.9086Z" fill="#ECCD6A"/>
<path d="M37.6295 10.9086C38.9295 10.9086 39.9895 9.87859 39.9895 8.60859C39.9895 7.33859 38.9395 6.30859 37.6295 6.30859C36.3195 6.30859 35.2695 7.33859 35.2695 8.60859C35.2695 9.87859 36.3195 10.9086 37.6295 10.9086Z" fill="#ADCA5E"/>
<path d="M28.8203 213.118V102.238" stroke="#E6E8EC"/>
<path d="M74.0801 213.118V102.238" stroke="#E6E8EC"/>
<path d="M119.34 213.118V102.238" stroke="#E6E8EC"/>
<path d="M164.6 213.118V102.238" stroke="#E6E8EC"/>
<path d="M209.86 213.118V102.238" stroke="#E6E8EC"/>
<path d="M255.12 213.118V102.238" stroke="#E6E8EC"/>
<path d="M300.38 213.118V102.238" stroke="#E6E8EC"/>
<path d="M29.3203 191.718L58.1403 174.268L128.93 169.368L150.88 146.978L168.84 149.698L199.38 120.158C199.98 119.958 223.13 128.238 223.13 128.238L300.08 105.738L298.93 205.928C298.93 209.238 296.24 211.928 292.93 211.928H35.3203C32.0103 211.928 29.3203 209.238 29.3203 205.928V195.028C29.3203 192.968 30.3703 191.058 32.1103 189.958" fill="url(#paint0_linear_776_3575)" fill-opacity="0.5"/>
<path d="M29.3203 191.718L58.1403 174.268L128.93 169.368L150.88 146.978L168.84 149.698L199.38 120.158C199.98 119.958 223.13 128.238 223.13 128.238L300.08 105.738" stroke="#4437D0" stroke-linecap="round"/>
<path d="M29.3203 191.72L51.3603 159.84L70.1803 165.47C70.5203 165.38 70.8503 165.26 71.1703 165.11L95.7503 147.29L138.97 148.73L156.2 124.6L164.29 113.66C164.82 112.94 189.6 99.7102 190.22 99.6102L212.94 63.4102L300.38 98.7202" stroke="#4269D5" stroke-linecap="round" stroke-linejoin="round"/>
<path d="M302.91 95.0397L268.14 79.1497C267.83 79.0097 267.48 79.0397 267.2 79.2297L216.59 113.69C216.16 113.98 215.58 113.88 215.28 113.47L190.7 80.2297C190.27 79.6397 189.36 79.7397 189.05 80.3997L167.48 127.3C167.25 127.81 166.64 128.01 166.15 127.74L144.15 115.76C143.99 115.67 143.82 115.63 143.64 115.64C140.9 115.79 121.91 119.09 119.43 119.68C119.25 119.72 119.06 119.71 118.88 119.64L79.8798 105.12C79.4398 104.96 78.9498 105.13 78.7198 105.53L29.3398 191.7" stroke="#CF4431" stroke-linecap="round" stroke-linejoin="round"/>
<path d="M29.3203 191.721L57.7803 131.711C58.8303 129.491 61.5803 128.671 63.6703 129.951L109.86 158.141C111.99 159.441 114.79 158.571 115.8 156.291C120.62 145.391 133.15 116.991 136.97 108.311C137.65 106.761 139.21 105.791 140.9 105.851C149.04 106.141 172.34 106.971 175.65 107.031C175.94 107.031 176.22 107.071 176.5 107.141L223.13 117.921C224.9 118.331 226.73 117.541 227.64 115.961L258.59 62.6309C259.8 60.5409 262.55 59.9309 264.53 61.3109L297.27 84.0609" stroke="#9CEAE8" stroke-linecap="round"/>
<path d="M29.5303 192.992L53.5803 159.852L62.7203 170.362L93.7603 141.112L130.57 176.902L149.27 159.852L173.68 161.582L196.9 181.792L209.59 116.582L238.4 141.112L304.54 90.0117" stroke="#E7B840" stroke-linecap="round" stroke-linejoin="round"/>
</g>
<g filter="url(#filter0_d_776_3575)">
<path d="M430.93 59.8594H204.34C200.7 59.8594 197.75 62.8098 197.75 66.4494V204.349C197.75 207.989 200.7 210.939 204.34 210.939H430.93C434.57 210.939 437.52 207.989 437.52 204.349V66.4494C437.52 62.8098 434.57 59.8594 430.93 59.8594Z" fill="white"/>
</g>
<path d="M389.631 72.7368V73.7788C389.631 73.9972 389.699 74.1742 389.835 74.3096C389.974 74.445 390.154 74.5128 390.372 74.5128H392.751C392.93 74.5128 393.061 74.4647 393.144 74.3686C393.227 74.2681 393.269 74.1349 393.269 73.9688V71.8849H393.898V74.2244C393.898 74.3992 393.856 74.5565 393.773 74.6963C393.695 74.8361 393.585 74.9475 393.446 75.0305C393.306 75.1091 393.151 75.1484 392.98 75.1484H390.372C390.114 75.1484 389.881 75.0895 389.671 74.9715C389.461 74.8535 389.297 74.6897 389.179 74.48C389.061 74.2703 389.002 74.0366 389.002 73.7788V72.7368H389.631ZM390.811 71.8783C390.702 71.8783 390.608 71.839 390.529 71.7604C390.455 71.6817 390.418 71.59 390.418 71.4851C390.418 71.3803 390.455 71.2885 390.529 71.2099C390.608 71.1312 390.702 71.0919 390.811 71.0919C390.916 71.0919 391.006 71.1312 391.08 71.2099C391.158 71.2885 391.198 71.3803 391.198 71.4851C391.198 71.59 391.158 71.6817 391.08 71.7604C391.006 71.839 390.916 71.8783 390.811 71.8783ZM391.984 71.8783C391.879 71.8783 391.788 71.839 391.709 71.7604C391.63 71.6817 391.591 71.59 391.591 71.4851C391.591 71.3803 391.63 71.2885 391.709 71.2099C391.788 71.1312 391.879 71.0919 391.984 71.0919C392.093 71.0919 392.185 71.1312 392.259 71.2099C392.338 71.2885 392.377 71.3803 392.377 71.4851C392.377 71.59 392.338 71.6817 392.259 71.7604C392.185 71.839 392.093 71.8783 391.984 71.8783ZM395.37 70.5873V74.2048C395.37 74.3052 395.399 74.3817 395.455 74.4341C395.512 74.4866 395.582 74.5128 395.665 74.5128H396.052V75.1484H395.468C395.333 75.1484 395.208 75.1179 395.095 75.0567C394.986 74.9912 394.898 74.9038 394.833 74.7946C394.767 74.681 394.734 74.5565 394.734 74.421V70.5873H395.37ZM400.087 74.5128V75.1484H398.842C398.676 75.1484 398.523 75.1179 398.383 75.0567C398.243 74.9912 398.121 74.895 398.016 74.7683C397.745 75.0217 397.45 75.1484 397.131 75.1484H395.991V74.5128H396.981C397.077 74.5128 397.195 74.4975 397.334 74.4669C397.474 74.4363 397.594 74.3926 397.695 74.3358L396.522 72.6778V72.1929C396.815 72.0749 397.079 71.9875 397.315 71.9308C397.555 71.874 397.804 71.8456 398.062 71.8456C398.355 71.8456 398.61 71.8849 398.829 71.9635C399.051 72.0378 399.222 72.147 399.34 72.2912C399.462 72.431 399.523 72.5992 399.523 72.7958C399.523 72.9181 399.499 73.0514 399.451 73.1955C399.381 73.3921 399.294 73.5647 399.189 73.7133C399.084 73.8574 398.949 74.0147 398.783 74.1851L398.612 74.3489C398.7 74.4014 398.794 74.4429 398.894 74.4734C398.999 74.4997 399.11 74.5128 399.228 74.5128H400.087ZM398.088 74.0475L398.206 73.923C398.328 73.7919 398.433 73.663 398.521 73.5363C398.612 73.4053 398.687 73.2589 398.743 73.0972L398.75 73.0776C398.763 73.0383 398.774 72.9989 398.783 72.9596C398.791 72.9203 398.796 72.8832 398.796 72.8482C398.796 72.7172 398.732 72.6167 398.606 72.5468C398.479 72.4725 398.291 72.4354 398.042 72.4354C397.889 72.4354 397.73 72.4528 397.564 72.4878C397.402 72.5184 397.247 72.5642 397.098 72.6254V72.6647L398.088 74.0475ZM395.722 75.0436V74.6176L395.998 74.5128V75.1484L395.722 75.0436ZM400.628 74.5128C400.807 74.5128 400.936 74.4647 401.015 74.3686C401.098 74.2681 401.139 74.1349 401.139 73.9688V72.0487H401.775V73.7395C401.775 74.1021 401.688 74.4276 401.513 74.7159C401.343 75.0043 401.046 75.1484 400.622 75.1484H400.039V74.5128H400.628ZM402.201 75.1484C402.009 75.1484 401.832 75.0916 401.67 74.9781C401.509 74.8645 401.38 74.7203 401.284 74.5455C401.192 74.3664 401.146 74.1895 401.146 74.0147L401.139 72.0487H401.769V73.9688C401.769 74.1349 401.81 74.2681 401.893 74.3686C401.98 74.4647 402.112 74.5128 402.286 74.5128H402.804V75.1484H402.201ZM400.039 74.5128V75.1484L399.763 75.0436V74.6176L400.039 74.5128ZM400.766 76.5377C400.661 76.5377 400.569 76.4984 400.491 76.4198C400.412 76.3411 400.373 76.2494 400.373 76.1445C400.373 76.0397 400.412 75.9479 400.491 75.8693C400.569 75.7907 400.661 75.7513 400.766 75.7513C400.875 75.7513 400.967 75.7907 401.041 75.8693C401.12 75.9479 401.159 76.0397 401.159 76.1445C401.159 76.2494 401.12 76.3411 401.041 76.4198C400.967 76.4984 400.875 76.5377 400.766 76.5377ZM401.939 76.5377C401.834 76.5377 401.742 76.4984 401.664 76.4198C401.585 76.3411 401.546 76.2494 401.546 76.1445C401.546 76.0397 401.585 75.9479 401.664 75.8693C401.742 75.7907 401.834 75.7513 401.939 75.7513C402.048 75.7513 402.14 75.7907 402.214 75.8693C402.293 75.9479 402.332 76.0397 402.332 76.1445C402.332 76.2494 402.293 76.3411 402.214 76.4198C402.14 76.4984 402.048 76.5377 401.939 76.5377ZM403.09 74.5128C403.269 74.5128 403.398 74.4647 403.477 74.3686C403.56 74.2681 403.602 74.1349 403.602 73.9688V72.0487H404.231V73.7395C404.231 74.1021 404.145 74.4276 403.975 74.7159C403.805 75.0043 403.508 75.1484 403.084 75.1484H402.717V74.5128H403.09ZM404.663 75.1484C404.471 75.1484 404.294 75.0916 404.132 74.9781C403.971 74.8645 403.842 74.7203 403.746 74.5455C403.654 74.3664 403.606 74.1895 403.602 74.0147L403.595 72.0487H404.231V73.9688C404.231 74.1349 404.272 74.2681 404.355 74.3686C404.438 74.4647 404.569 74.5128 404.748 74.5128H405.089V75.1484H404.663ZM402.717 74.5128V75.1484L402.442 75.0436V74.6176L402.717 74.5128ZM403.903 76.6426C403.798 76.6426 403.706 76.6033 403.628 76.5246C403.549 76.446 403.51 76.3543 403.51 76.2494C403.51 76.1445 403.549 76.0528 403.628 75.9742C403.706 75.8955 403.798 75.8562 403.903 75.8562C404.012 75.8562 404.104 75.8955 404.178 75.9742C404.257 76.0528 404.296 76.1445 404.296 76.2494C404.296 76.3543 404.257 76.446 404.178 76.5246C404.104 76.6033 404.012 76.6426 403.903 76.6426ZM409.252 74.5128V75.1484H409.036C408.84 75.1484 408.665 75.1047 408.512 75.0174C408.359 74.9256 408.241 74.8033 408.158 74.6504C408.045 74.7946 407.903 74.9103 407.732 74.9977C407.566 75.0807 407.387 75.1222 407.195 75.1222C406.981 75.1222 406.778 75.0851 406.585 75.0108C406.393 74.9365 406.225 74.8317 406.081 74.6963C405.993 74.8361 405.873 74.9475 405.72 75.0305C405.567 75.1091 405.399 75.1484 405.216 75.1484H404.967L404.691 75.0436V74.6176L404.967 74.5128H405.216C405.36 74.5128 405.478 74.4669 405.57 74.3751C405.661 74.2834 405.707 74.1654 405.707 74.0213V73.2021C405.707 72.9443 405.766 72.7106 405.884 72.5009C406.006 72.2868 406.172 72.1208 406.382 72.0028C406.596 71.8805 406.832 71.8193 407.09 71.8193H407.162C407.42 71.8193 407.653 71.8805 407.863 72.0028C408.077 72.1208 408.243 72.2868 408.361 72.5009C408.484 72.7106 408.545 72.9443 408.545 73.2021V74.0213C408.545 74.1654 408.591 74.2834 408.682 74.3751C408.774 74.4669 408.892 74.5128 409.036 74.5128H409.252ZM407.195 74.4931C407.321 74.4931 407.439 74.4603 407.549 74.3948C407.662 74.3249 407.75 74.2332 407.811 74.1196C407.876 74.0016 407.909 73.8749 407.909 73.7395V73.2021C407.909 72.9793 407.839 72.798 407.699 72.6582C407.56 72.5184 407.38 72.4485 407.162 72.4485H407.09C406.946 72.4485 406.817 72.4812 406.703 72.5468C406.59 72.6079 406.5 72.6975 406.435 72.8155C406.373 72.929 406.343 73.0579 406.343 73.2021V74.0868C406.439 74.2135 406.561 74.314 406.71 74.3883C406.858 74.4582 407.02 74.4931 407.195 74.4931ZM409.181 74.5128H409.574C409.653 74.5128 409.72 74.4866 409.777 74.4341C409.834 74.3817 409.862 74.3052 409.862 74.2048V70.5873H410.498V74.421C410.498 74.5565 410.465 74.681 410.4 74.7946C410.334 74.9038 410.247 74.9912 410.138 75.0567C410.028 75.1179 409.906 75.1484 409.771 75.1484H409.181V74.5128ZM408.912 75.0436V74.6176L409.187 74.5128V75.1484L408.912 75.0436ZM411.416 75.1484V70.5873H412.052V75.1484H411.416ZM417.318 74.5128V75.1484H416.787V74.5128H417.318ZM414.618 75.9479C415.037 76.0091 415.372 76.0244 415.621 75.9938C415.87 75.9632 416.047 75.889 416.151 75.771C416.261 75.6574 416.315 75.5001 416.315 75.2992V74.2506L416.944 73.9951V75.4433C416.944 75.7492 416.855 76.0026 416.676 76.2035C416.501 76.4045 416.241 76.5356 415.896 76.5967C415.551 76.6579 415.125 76.6382 414.618 76.5377V75.9479ZM415.457 75.1419C415.216 75.1419 414.994 75.0807 414.788 74.9584C414.583 74.8317 414.419 74.6613 414.297 74.4472C414.174 74.2332 414.113 74.0016 414.113 73.7526V73.2087C414.113 72.9465 414.172 72.7106 414.29 72.5009C414.413 72.2868 414.579 72.1208 414.788 72.0028C415.002 71.8805 415.238 71.8193 415.496 71.8193H415.568C415.826 71.8193 416.06 71.8805 416.269 72.0028C416.483 72.1208 416.649 72.2868 416.767 72.5009C416.885 72.7106 416.944 72.9465 416.944 73.2087V74.0868L416.315 74.3293V73.2087C416.315 72.9858 416.245 72.8045 416.105 72.6647C415.966 72.5249 415.787 72.455 415.568 72.455H415.496C415.352 72.455 415.223 72.4878 415.109 72.5533C414.996 72.6145 414.906 72.7019 414.841 72.8155C414.78 72.929 414.749 73.0601 414.749 73.2087V73.7526C414.749 73.888 414.78 74.0147 414.841 74.1327C414.906 74.2463 414.994 74.338 415.103 74.4079C415.216 74.4734 415.334 74.5062 415.457 74.5062V75.1419ZM416.617 74.5062V75.1419H415.45V74.5062H416.617ZM421.559 74.5128V75.1484H421.343C421.146 75.1484 420.972 75.1047 420.819 75.0174C420.666 74.9256 420.548 74.8033 420.465 74.6504C420.351 74.7946 420.209 74.9103 420.039 74.9977C419.873 75.0807 419.694 75.1222 419.501 75.1222C419.287 75.1222 419.084 75.0851 418.892 75.0108C418.7 74.9365 418.532 74.8317 418.387 74.6963C418.3 74.8361 418.18 74.9475 418.027 75.0305C417.874 75.1091 417.706 75.1484 417.522 75.1484H417.273L416.998 75.0436V74.6176L417.273 74.5128H417.522C417.667 74.5128 417.784 74.4669 417.876 74.3751C417.968 74.2834 418.014 74.1654 418.014 74.0213V73.2021C418.014 72.9443 418.073 72.7106 418.191 72.5009C418.313 72.2868 418.479 72.1208 418.689 72.0028C418.903 71.8805 419.139 71.8193 419.397 71.8193H419.469C419.726 71.8193 419.96 71.8805 420.17 72.0028C420.384 72.1208 420.55 72.2868 420.668 72.5009C420.79 72.7106 420.851 72.9443 420.851 73.2021V74.0213C420.851 74.1654 420.897 74.2834 420.989 74.3751C421.081 74.4669 421.199 74.5128 421.343 74.5128H421.559ZM419.501 74.4931C419.628 74.4931 419.746 74.4603 419.855 74.3948C419.969 74.3249 420.056 74.2332 420.117 74.1196C420.183 74.0016 420.216 73.8749 420.216 73.7395V73.2021C420.216 72.9793 420.146 72.798 420.006 72.6582C419.866 72.5184 419.687 72.4485 419.469 72.4485H419.397C419.252 72.4485 419.124 72.4812 419.01 72.5468C418.896 72.6079 418.807 72.6975 418.741 72.8155C418.68 72.929 418.65 73.0579 418.65 73.2021V74.0868C418.746 74.2135 418.868 74.314 419.017 74.3883C419.165 74.4582 419.327 74.4931 419.501 74.4931ZM422.595 71.5834C422.49 71.5834 422.398 71.5463 422.32 71.472C422.241 71.3934 422.202 71.2994 422.202 71.1902C422.202 71.0854 422.241 70.9958 422.32 70.9215C422.398 70.8429 422.49 70.8036 422.595 70.8036C422.704 70.8036 422.796 70.8429 422.87 70.9215C422.949 70.9958 422.988 71.0854 422.988 71.1902C422.988 71.2994 422.949 71.3934 422.87 71.472C422.796 71.5463 422.704 71.5834 422.595 71.5834ZM421.396 74.5128H422.045C422.123 74.5128 422.191 74.4866 422.248 74.4341C422.309 74.3817 422.339 74.3052 422.339 74.2048V72.0422H422.969V74.421C422.969 74.5565 422.936 74.681 422.87 74.7946C422.809 74.9038 422.722 74.9912 422.608 75.0567C422.499 75.1179 422.377 75.1484 422.241 75.1484H421.396V74.5128Z" fill="black"/>
<path d="M218.19 190.199H394.02" stroke="#E6E8EC" stroke-width="0.77"/>
<path d="M218.19 171.18H394.02" stroke="#E6E8EC" stroke-width="0.77"/>
<path d="M218.19 151.211H394.02" stroke="#E6E8EC" stroke-width="0.77"/>
<path d="M218.19 132.188H394.02" stroke="#E6E8EC" stroke-width="0.77"/>
<path d="M218.19 114.098H394.02" stroke="#E6E8EC" stroke-width="0.77"/>
<path d="M218.19 96.9492H394.02" stroke="#E6E8EC" stroke-width="0.77"/>
<path d="M409.93 96.9575V97.6075H409.43V97.9875C409.43 99.1575 408.48 99.6975 406.6 99.3775V98.7675C408.22 98.9775 408.77 98.6775 408.77 97.8575V97.6075H407.57C406.66 97.6075 405.93 96.8275 405.93 95.9075V95.0975C405.93 94.1275 406.65 93.3875 407.63 93.3875H407.71C408.69 93.3875 409.41 94.1275 409.41 95.0975V96.9575H409.91H409.93ZM407.59 96.9575H408.77V95.1075C408.77 94.4875 408.33 94.0475 407.72 94.0475H407.64C407.02 94.0475 406.59 94.4875 406.59 95.1075V95.9175C406.59 96.4975 407.04 96.9675 407.59 96.9675V96.9575ZM412.56 96.9575H413.14V97.6075H412.48C412.1 97.6075 411.78 97.4175 411.55 97.1375C411.35 97.4175 411.03 97.6075 410.56 97.6075H409.88L409.59 97.4975V97.0575L409.88 96.9475H410.57C411.02 96.9475 411.23 96.6475 411.24 96.2575V93.6275H411.89V96.2375C411.89 96.6275 412.11 96.9375 412.57 96.9375L412.56 96.9575ZM410.77 98.3875C411 98.3875 411.19 98.5775 411.19 98.8075C411.19 99.0375 411.01 99.2375 410.77 99.2375C410.53 99.2375 410.35 99.0475 410.35 98.8075C410.35 98.5675 410.54 98.3875 410.77 98.3875ZM412.13 98.3875C412.36 98.3875 412.55 98.5775 412.55 98.8075C412.55 99.0375 412.36 99.2375 412.13 99.2375C411.9 99.2375 411.71 99.0475 411.71 98.8075C411.71 98.5675 411.9 98.3875 412.13 98.3875ZM414.44 93.0375C414.21 93.0375 414.02 92.8475 414.02 92.6175C414.02 92.3875 414.21 92.1875 414.44 92.1875C414.67 92.1875 414.86 92.3875 414.86 92.6175C414.86 92.8475 414.67 93.0375 414.44 93.0375ZM412.92 97.6175V96.9675H413.78C413.98 96.9675 414.17 96.8275 414.17 96.5575V93.6475H414.82V96.7575C414.82 97.2475 414.44 97.6175 413.96 97.6175H412.91H412.92ZM419.78 96.9675V97.6175H419.28V97.9975C419.28 99.1675 418.33 99.7075 416.45 99.3875V98.7775C418.07 98.9875 418.62 98.6875 418.62 97.8675V97.6175H417.42C416.51 97.6175 415.78 96.8375 415.78 95.9175V95.1075C415.78 94.1375 416.5 93.3975 417.48 93.3975H417.56C418.54 93.3975 419.26 94.1375 419.26 95.1075V96.9675H419.76H419.78ZM417.44 96.9675H418.62V95.1175C418.62 94.4975 418.18 94.0575 417.57 94.0575H417.49C416.87 94.0575 416.44 94.4975 416.44 95.1175V95.9275C416.44 96.5075 416.89 96.9775 417.44 96.9775V96.9675ZM419.64 97.6275V96.9775H420.94C421.15 96.9775 421.33 96.8375 421.33 96.5675V93.6575H421.98V96.7675C421.98 97.2575 421.61 97.6275 421.12 97.6275H419.63H419.64ZM420.34 99.2675C420.11 99.2675 419.92 99.0875 419.92 98.8475C419.92 98.6075 420.11 98.4275 420.34 98.4275C420.57 98.4275 420.76 98.6175 420.76 98.8475C420.76 99.0775 420.58 99.2675 420.34 99.2675ZM421.7 99.2675C421.47 99.2675 421.27 99.0875 421.27 98.8475C421.27 98.6075 421.47 98.4275 421.7 98.4275C421.93 98.4275 422.12 98.6175 422.12 98.8475C422.12 99.0775 421.93 99.2675 421.7 99.2675Z" fill="#828C9B"/>
<path d="M412.62 114.598V115.248H412.12V115.628C412.12 116.798 411.17 117.338 409.29 117.018V116.408C410.91 116.618 411.46 116.318 411.46 115.498V115.248H410.26C409.35 115.248 408.62 114.468 408.62 113.548V112.738C408.62 111.768 409.34 111.028 410.32 111.028H410.4C411.38 111.028 412.1 111.768 412.1 112.738V114.598H412.6H412.62ZM410.28 114.598H411.46V112.748C411.46 112.128 411.02 111.688 410.41 111.688H410.33C409.71 111.688 409.28 112.128 409.28 112.748V113.558C409.28 114.138 409.73 114.608 410.28 114.608V114.598ZM412.48 115.258V114.608H413.78C413.99 114.608 414.17 114.468 414.17 114.198V111.288H414.82V114.398C414.82 114.888 414.45 115.258 413.96 115.258H412.47H412.48ZM413.18 116.898C412.95 116.898 412.76 116.718 412.76 116.478C412.76 116.238 412.95 116.058 413.18 116.058C413.41 116.058 413.6 116.248 413.6 116.478C413.6 116.708 413.42 116.898 413.18 116.898ZM414.54 116.898C414.31 116.898 414.11 116.718 414.11 116.478C414.11 116.238 414.31 116.058 414.54 116.058C414.77 116.058 414.96 116.248 414.96 116.478C414.96 116.708 414.77 116.898 414.54 116.898ZM416.03 109.418H416.68V114.188C416.68 114.458 416.87 114.598 417.08 114.598H417.62V115.248H416.89C416.4 115.248 416.03 114.878 416.03 114.388V109.418ZM420.43 111.028C421.41 111.028 422.13 111.758 422.13 112.728V113.518C422.13 114.448 421.39 115.218 420.48 115.218C419.92 115.218 419.4 115.008 419.03 114.628C418.82 115.008 418.42 115.248 417.93 115.248H417.56L417.27 115.138V114.698L417.56 114.588H417.93C418.35 114.588 418.64 114.298 418.64 113.868V112.718C418.64 111.748 419.37 111.018 420.34 111.018H420.42L420.43 111.028ZM421.49 113.518V112.728C421.49 112.118 421.05 111.678 420.43 111.678H420.35C419.73 111.678 419.3 112.118 419.3 112.728V113.998C419.56 114.358 420 114.568 420.48 114.568C421.03 114.568 421.49 114.098 421.49 113.518Z" fill="#828C9B"/>
<path d="M412.64 132.509V133.159H411.59C411.53 134.449 410.55 135.399 409.23 135.399H409.2C407.86 135.399 406.87 134.399 406.87 133.049V131.339H407.52V133.049C407.52 134.049 408.22 134.739 409.21 134.739H409.24C410.24 134.739 410.94 134.039 410.94 133.049V127.319H411.59V132.499H412.64V132.509ZM412.53 133.159V132.509H413.83C414.04 132.509 414.22 132.369 414.22 132.099V129.189H414.87V132.299C414.87 132.789 414.5 133.159 414.01 133.159H412.52H412.53ZM413.23 134.799C413 134.799 412.81 134.619 412.81 134.379C412.81 134.139 413 133.959 413.23 133.959C413.46 133.959 413.65 134.149 413.65 134.379C413.65 134.609 413.47 134.799 413.23 134.799ZM414.59 134.799C414.36 134.799 414.16 134.619 414.16 134.379C414.16 134.139 414.36 133.959 414.59 133.959C414.82 133.959 415.01 134.149 415.01 134.379C415.01 134.609 414.82 134.799 414.59 134.799ZM418.64 132.499V133.149H417.8V133.329C417.8 134.289 417.07 135.019 416.11 135.019H415.69V134.369H416.11C416.71 134.369 417.15 133.939 417.15 133.329V129.129H417.8V132.489H418.64V132.499ZM418.43 133.149V132.499H419.29C419.49 132.499 419.68 132.359 419.68 132.089V129.179H420.33V132.289C420.33 132.779 419.95 133.149 419.47 133.149H418.42H418.43ZM419.58 134.889C419.35 134.889 419.16 134.709 419.16 134.469C419.16 134.229 419.35 134.049 419.58 134.049C419.81 134.049 420 134.239 420 134.469C420 134.699 419.82 134.889 419.58 134.889ZM422.13 133.149H421.48V127.309H422.13V133.149Z" fill="#828C9B"/>
<path d="M411.72 148.658H412.37V151.328C412.37 152.108 411.74 152.738 410.96 152.738C410.47 152.738 410.06 152.578 409.81 152.308C409.58 152.568 409.24 152.738 408.86 152.738H407.95C407.89 154.008 406.88 154.978 405.6 154.978H405.56C404.24 154.978 403.22 153.948 403.22 152.628V150.918H403.87V152.628C403.87 153.628 404.57 154.318 405.56 154.318H405.59C406.59 154.318 407.3 153.618 407.3 152.628V149.378H407.95V152.078H408.83C409.2 152.078 409.48 151.788 409.48 151.428V149.368H410.13V151.448C410.13 151.838 410.42 152.068 410.96 152.068C411.38 152.068 411.71 151.728 411.71 151.318V148.648L411.72 148.658ZM412.74 154.608V153.958H413.17C413.77 153.958 414.2 153.528 414.2 152.918V148.718H414.85V152.918C414.85 153.878 414.13 154.608 413.16 154.608H412.73H412.74ZM416.04 146.898H416.69V151.668C416.69 151.938 416.88 152.078 417.09 152.078H417.63V152.728H416.9C416.41 152.728 416.04 152.358 416.04 151.868V146.898ZM420.44 148.508C421.42 148.508 422.14 149.238 422.14 150.208V150.998C422.14 151.928 421.4 152.698 420.49 152.698C419.93 152.698 419.41 152.488 419.04 152.108C418.83 152.488 418.43 152.728 417.94 152.728H417.57L417.28 152.618V152.178L417.57 152.068H417.94C418.36 152.068 418.65 151.778 418.65 151.348V150.198C418.65 149.228 419.38 148.498 420.35 148.498H420.43L420.44 148.508ZM421.5 150.998V150.208C421.5 149.598 421.06 149.158 420.44 149.158H420.36C419.74 149.158 419.31 149.598 419.31 150.208V151.478C419.57 151.838 420.01 152.048 420.49 152.048C421.04 152.048 421.5 151.578 421.5 150.998Z" fill="#828C9B"/>
<path d="M408.34 171.6V172.25H407.5V172.43C407.5 173.39 406.77 174.12 405.81 174.12H405.39V173.47H405.81C406.41 173.47 406.85 173.04 406.85 172.43V168.23H407.5V171.59H408.34V171.6ZM408.16 172.25V171.6H409.46C409.67 171.6 409.85 171.46 409.85 171.19V168.28H410.5V171.39C410.5 171.88 410.13 172.25 409.64 172.25H408.15H408.16ZM408.86 173.89C408.63 173.89 408.44 173.71 408.44 173.47C408.44 173.23 408.63 173.05 408.86 173.05C409.09 173.05 409.28 173.24 409.28 173.47C409.28 173.7 409.1 173.89 408.86 173.89ZM410.22 173.89C409.99 173.89 409.79 173.71 409.79 173.47C409.79 173.23 409.99 173.05 410.22 173.05C410.45 173.05 410.64 173.24 410.64 173.47C410.64 173.7 410.45 173.89 410.22 173.89ZM412.41 172.25H411.76V166.41H412.41V172.25ZM415.47 171.6V172.25H414.63V172.43C414.63 173.39 413.9 174.12 412.94 174.12H412.52V173.47H412.94C413.54 173.47 413.98 173.04 413.98 172.43V168.23H414.63V171.59H415.47V171.6ZM417.84 171.6H418.25V172.25H417.75C417.37 172.25 417.05 172.06 416.83 171.78C416.63 172.06 416.31 172.25 415.84 172.25H415.37L415.08 172.14V171.7L415.37 171.59H415.84C416.31 171.59 416.51 171.28 416.51 170.89V168.28H417.16V170.89C417.16 171.28 417.37 171.59 417.84 171.59V171.6ZM416.82 173.13C417.05 173.13 417.24 173.32 417.24 173.55C417.24 173.78 417.06 173.98 416.82 173.98C416.58 173.98 416.4 173.79 416.4 173.55C416.4 173.31 416.59 173.13 416.82 173.13ZM420.4 167.24C420.19 167.24 420.01 167.06 420 166.85C419.98 166.62 420.18 166.41 420.42 166.41C420.65 166.41 420.83 166.59 420.84 166.82C420.84 167.05 420.65 167.26 420.4 167.25V167.24ZM420.43 168.03C421.38 168.03 422.13 168.79 422.13 169.74V170.65C422.13 171.53 421.42 172.24 420.53 172.24H418.13L417.84 172.14V171.7L418.13 171.59H419.15C418.85 171.36 418.65 170.97 418.65 170.54V169.73C418.65 168.77 419.4 168.02 420.35 168.02H420.43V168.03ZM421.48 170.59V169.74C421.48 169.14 421.03 168.68 420.43 168.68H420.35C419.75 168.68 419.3 169.14 419.3 169.74V170.55C419.3 171.13 419.75 171.6 420.3 171.6H420.48C421.03 171.6 421.49 171.16 421.49 170.59H421.48Z" fill="#828C9B"/>
<path d="M412.3 190.651V191.301H407.71V191.481C407.71 192.441 406.98 193.171 406.02 193.171H405.6V192.521H406.02C406.62 192.521 407.06 192.091 407.06 191.481V187.281H407.71V190.641H412.3V190.651ZM412.12 191.301V190.651H413.42C413.63 190.651 413.81 190.511 413.81 190.241V187.331H414.46V190.441C414.46 190.931 414.09 191.301 413.6 191.301H412.11H412.12ZM412.82 192.941C412.59 192.941 412.4 192.761 412.4 192.521C412.4 192.281 412.59 192.101 412.82 192.101C413.05 192.101 413.24 192.291 413.24 192.521C413.24 192.751 413.06 192.941 412.82 192.941ZM414.18 192.941C413.95 192.941 413.75 192.761 413.75 192.521C413.75 192.281 413.95 192.101 414.18 192.101C414.41 192.101 414.6 192.291 414.6 192.521C414.6 192.751 414.41 192.941 414.18 192.941ZM415.67 185.461H416.32V190.231C416.32 190.501 416.51 190.641 416.72 190.641H417.26V191.291H416.53C416.04 191.291 415.67 190.921 415.67 190.431V185.461ZM418.48 186.621C418.25 186.621 418.06 186.431 418.06 186.201C418.06 185.971 418.25 185.781 418.48 185.781C418.71 185.781 418.9 185.971 418.9 186.201C418.9 186.431 418.72 186.621 418.48 186.621ZM419.55 190.651H419.84V191.301H419.46C419.08 191.301 418.76 191.111 418.54 190.831C418.33 191.111 418.01 191.301 417.54 191.301H417.19L416.9 191.191V190.751L417.19 190.641H417.55C418.02 190.641 418.22 190.331 418.22 189.941V187.331H418.87V189.721C418.87 189.781 418.87 189.851 418.87 189.911V189.941C418.87 190.331 419.09 190.641 419.55 190.641V190.651ZM419.66 191.301V190.651H420.96C421.17 190.651 421.35 190.511 421.35 190.241V187.331H422V190.441C422 190.931 421.63 191.301 421.14 191.301H419.65H419.66ZM420.36 192.941C420.13 192.941 419.94 192.761 419.94 192.521C419.94 192.281 420.13 192.101 420.36 192.101C420.59 192.101 420.78 192.291 420.78 192.521C420.78 192.751 420.6 192.941 420.36 192.941ZM421.72 192.941C421.49 192.941 421.29 192.761 421.29 192.521C421.29 192.281 421.49 192.101 421.72 192.101C421.95 192.101 422.14 192.291 422.14 192.521C422.14 192.751 421.95 192.941 421.72 192.941Z" fill="#828C9B"/>
<path d="M369.76 221.898H268.51C262.7 221.898 257.99 226.608 257.99 232.418V253.638C257.99 259.448 262.7 264.158 268.51 264.158H369.76C375.57 264.158 380.28 259.448 380.28 253.638V232.418C380.28 226.608 375.57 221.898 369.76 221.898Z" fill="white"/>
<path d="M280.06 229.969C286.92 229.969 292.47 235.529 292.47 242.379C292.47 249.239 286.91 254.789 280.06 254.789C273.2 254.789 267.65 249.229 267.65 242.379C267.65 235.519 273.21 229.969 280.06 229.969Z" fill="#F7F7F7"/>
<mask id="mask1_776_3575" style="mask-type:luminance" maskUnits="userSpaceOnUse" x="283" y="229" width="27" height="27">
<path d="M296.61 229.508C303.72 229.508 309.48 235.268 309.48 242.378C309.48 249.488 303.72 255.248 296.61 255.248C289.5 255.248 283.74 249.488 283.74 242.378C283.74 235.268 289.5 229.508 296.61 229.508Z" fill="white"/>
</mask>
<g mask="url(#mask1_776_3575)">
<path d="M296.61 229.508C303.72 229.508 309.48 235.268 309.48 242.378C309.48 249.488 303.72 255.248 296.61 255.248C289.5 255.248 283.74 249.488 283.74 242.378C283.74 235.268 289.5 229.508 296.61 229.508Z" fill="#F7F7F7"/>
</g>
<path d="M296.61 229.969C303.47 229.969 309.02 235.529 309.02 242.379C309.02 249.239 303.46 254.789 296.61 254.789C289.75 254.789 284.2 249.229 284.2 242.379C284.2 235.519 289.76 229.969 296.61 229.969Z" stroke="white" stroke-width="0.92"/>
<path d="M313.16 229.969C320.02 229.969 325.57 235.529 325.57 242.379C325.57 249.239 320.01 254.789 313.16 254.789C306.3 254.789 300.75 249.229 300.75 242.379C300.75 235.519 306.31 229.969 313.16 229.969Z" fill="#4437D0"/>
<path d="M313.16 229.969C320.02 229.969 325.57 235.529 325.57 242.379C325.57 249.239 320.01 254.789 313.16 254.789C306.3 254.789 300.75 249.229 300.75 242.379C300.75 235.519 306.31 229.969 313.16 229.969Z" stroke="white" stroke-width="0.92"/>
<path d="M351.83 234.962L350.717 235.744L350.424 234.786L352.133 233.947H352.358H352.875V240.656H351.811L351.83 234.962ZM356.575 240.754C356.022 240.754 355.553 240.611 355.169 240.324C354.785 240.038 354.492 239.637 354.29 239.123C354.095 238.602 353.997 237.99 353.997 237.287C353.997 236.597 354.095 235.998 354.29 235.49C354.492 234.975 354.785 234.578 355.169 234.298C355.553 234.012 356.022 233.868 356.575 233.868C357.129 233.868 357.598 234.012 357.982 234.298C358.372 234.578 358.665 234.975 358.861 235.49C359.056 235.998 359.154 236.597 359.154 237.287C359.154 237.99 359.056 238.602 358.861 239.123C358.665 239.637 358.372 240.038 357.982 240.324C357.598 240.611 357.129 240.754 356.575 240.754ZM356.575 239.865C357.103 239.865 357.487 239.627 357.728 239.152C357.969 238.677 358.089 238.055 358.089 237.287C358.089 236.525 357.969 235.916 357.728 235.46C357.487 234.998 357.103 234.767 356.575 234.767C356.048 234.767 355.664 234.998 355.423 235.46C355.188 235.916 355.071 236.525 355.071 237.287C355.071 238.055 355.192 238.677 355.433 239.152C355.674 239.627 356.054 239.865 356.575 239.865ZM362.813 240.754C362.26 240.754 361.791 240.611 361.407 240.324C361.022 240.038 360.729 239.637 360.528 239.123C360.332 238.602 360.235 237.99 360.235 237.287C360.235 236.597 360.332 235.998 360.528 235.49C360.729 234.975 361.022 234.578 361.407 234.298C361.791 234.012 362.26 233.868 362.813 233.868C363.366 233.868 363.835 234.012 364.219 234.298C364.61 234.578 364.903 234.975 365.098 235.49C365.294 235.998 365.391 236.597 365.391 237.287C365.391 237.99 365.294 238.602 365.098 239.123C364.903 239.637 364.61 240.038 364.219 240.324C363.835 240.611 363.366 240.754 362.813 240.754ZM362.813 239.865C363.34 239.865 363.725 239.627 363.965 239.152C364.206 238.677 364.327 238.055 364.327 237.287C364.327 236.525 364.206 235.916 363.965 235.46C363.725 234.998 363.34 234.767 362.813 234.767C362.286 234.767 361.901 234.998 361.661 235.46C361.426 235.916 361.309 236.525 361.309 237.287C361.309 238.055 361.429 238.677 361.67 239.152C361.911 239.627 362.292 239.865 362.813 239.865Z" fill="black"/>
<path d="M337.431 251.24H338.141V252.72C338.141 253.54 338.711 254.12 339.541 254.12H339.581C340.401 254.12 340.981 253.55 340.981 252.72V247.84H341.691V252.72C341.691 253.93 340.791 254.82 339.581 254.82H339.541C338.331 254.82 337.441 253.92 337.441 252.72V251.24H337.431ZM342.681 247.83H343.391V251.89C343.391 252.13 343.551 252.24 343.721 252.24H344.151V252.95H343.501C343.041 252.95 342.681 252.6 342.681 252.13V247.83ZM344.011 252.95V252.24H345.261C345.421 252.24 345.591 252.13 345.591 251.89V249.46H346.301V252.13C346.301 252.59 345.951 252.95 345.481 252.95H344.011ZM344.691 254.53C344.451 254.53 344.251 254.33 344.251 254.09C344.251 253.85 344.451 253.66 344.691 253.66C344.931 253.66 345.121 253.86 345.121 254.09C345.121 254.32 344.921 254.53 344.691 254.53ZM346.011 254.53C345.771 254.53 345.571 254.33 345.571 254.09C345.571 253.85 345.771 253.66 346.011 253.66C346.251 253.66 346.441 253.86 346.441 254.09C346.441 254.32 346.241 254.53 346.011 254.53ZM347.021 254.61V253.9H347.391C347.881 253.9 348.211 253.56 348.211 253.08V249.42H348.921V253.08C348.921 253.96 348.261 254.62 347.381 254.62H347.011L347.021 254.61ZM353.211 249.64C352.971 249.64 352.771 249.44 352.771 249.2C352.771 248.96 352.971 248.76 353.211 248.76C353.451 248.76 353.641 248.97 353.641 249.2C353.641 249.43 353.441 249.64 353.211 249.64ZM351.301 251.39H352.011V252.87C352.011 253.69 352.581 254.27 353.411 254.27H353.451C354.271 254.27 354.851 253.7 354.851 252.87V249.43H355.561V252.87C355.561 254.08 354.661 254.97 353.451 254.97H353.411C352.201 254.97 351.311 254.07 351.311 252.87V251.39H351.301ZM360.011 252.23V252.94H359.591V253.27C359.591 254.3 358.691 254.85 356.981 254.51V253.85C358.411 254.07 358.891 253.78 358.891 253.11V252.93H357.921C357.091 252.93 356.421 252.22 356.421 251.37V250.76C356.421 249.87 357.081 249.2 357.971 249.2H358.051C358.931 249.2 359.591 249.87 359.591 250.76V252.22H360.011V252.23ZM357.921 252.23H358.881V250.77C358.881 250.27 358.531 249.92 358.041 249.92H357.961C357.471 249.92 357.121 250.27 357.121 250.77V251.38C357.121 251.84 357.491 252.23 357.911 252.23H357.921ZM362.471 252.23H363.051V252.94H362.371C362.041 252.94 361.741 252.77 361.531 252.53C361.331 252.77 361.041 252.94 360.601 252.94H359.951L359.641 252.82V252.34L359.951 252.22H360.611C361.041 252.22 361.181 251.95 361.181 251.61V249.45H361.891V251.35C361.891 251.41 361.891 251.47 361.891 251.53V251.6C361.891 251.94 362.051 252.21 362.471 252.21V252.23ZM360.761 253.63C361.001 253.63 361.201 253.83 361.201 254.06C361.201 254.29 361.001 254.5 360.761 254.5C360.521 254.5 360.321 254.3 360.321 254.06C360.321 253.82 360.531 253.63 360.761 253.63ZM362.081 253.63C362.321 253.63 362.521 253.83 362.521 254.06C362.521 254.29 362.321 254.5 362.081 254.5C361.841 254.5 361.641 254.3 361.641 254.06C361.641 253.82 361.851 253.63 362.081 253.63ZM365.081 252.23H365.331V252.94H364.981C364.641 252.94 364.351 252.77 364.141 252.53C363.941 252.77 363.641 252.94 363.211 252.94H362.971L362.671 252.82V252.34L362.971 252.24L363.221 252.23C363.641 252.23 363.791 251.96 363.791 251.62V247.82H364.501V251.36C364.501 251.42 364.501 251.48 364.501 251.54V251.61C364.501 251.95 364.661 252.22 365.081 252.22V252.23ZM367.791 249.21C368.671 249.21 369.341 249.88 369.341 250.76V251.36C369.341 252.21 368.661 252.91 367.821 252.91C367.341 252.91 366.891 252.74 366.571 252.43C366.371 252.74 366.031 252.94 365.611 252.94H365.291L364.981 252.82V252.34L365.291 252.22H365.611C365.931 252.22 366.151 251.99 366.151 251.67V250.75C366.151 249.87 366.821 249.2 367.701 249.2H367.781L367.791 249.21ZM368.631 251.37V250.77C368.631 250.27 368.281 249.92 367.791 249.92H367.711C367.221 249.92 366.871 250.27 366.871 250.77V251.76C367.081 252.05 367.441 252.22 367.831 252.22C368.261 252.22 368.631 251.84 368.631 251.37Z" fill="#767B88"/>
<path d="M58.6602 234.83C58.6602 232.38 58.6602 231.16 59.1402 230.24C59.5402 229.45 60.1902 228.82 60.9702 228.41C61.8902 227.93 63.1302 227.93 65.5602 227.93H72.3402C74.7902 227.93 76.0102 227.93 76.9302 228.41C77.7202 228.81 78.3502 229.46 78.7602 230.24C79.2402 231.16 79.2402 232.4 79.2402 234.83V241.61C79.2402 244.06 79.2402 245.28 78.7602 246.2C78.3602 246.99 77.7102 247.62 76.9302 248.03C76.0102 248.51 74.7702 248.51 72.3402 248.51H65.5602C63.1102 248.51 61.8902 248.51 60.9702 248.03C60.1802 247.63 59.5502 246.98 59.1402 246.2C58.6602 245.28 58.6602 244.04 58.6602 241.61V234.83Z" fill="url(#paint1_linear_776_3575)"/>
<path d="M72.9599 241.341L73.4199 238.481H70.6799V236.481C70.6799 235.681 70.9699 235.051 72.2199 235.051H73.5299V232.421C72.7899 232.311 71.9899 232.191 71.2499 232.191C68.9099 232.191 67.2399 233.621 67.2399 236.201V238.481H64.6699V241.341H67.2399V248.781H70.6699V241.341H72.9499V241.361L72.9599 241.341Z" fill="white"/>
<path d="M50.0204 233.289H39.9004V243.409H50.0204V233.289Z" stroke="#4437D0" stroke-width="2.38" stroke-linecap="round"/>
<path d="M50.0204 262.969H39.9004V273.089H50.0204V262.969Z" stroke="#E7B840" stroke-width="2.38" stroke-linecap="round"/>
<path d="M123.46 233.289H113.34V243.409H123.46V233.289Z" stroke="#9CEAE8" stroke-width="3" stroke-linecap="round"/>
<path d="M123.46 262.969H113.34V273.089H123.46V262.969Z" stroke="#CF4431" stroke-width="2.38" stroke-linecap="round"/>
<path d="M196.89 233.289H186.77V243.409H196.89V233.289Z" stroke="#4269D5" stroke-width="2.38" stroke-linecap="round"/>
<path fill-rule="evenodd" clip-rule="evenodd" d="M78.7299 268.118C78.7299 267.388 78.6599 266.688 78.5499 266.008H68.8799V269.968H74.3999C74.1699 271.248 73.4399 272.338 72.3399 273.068V275.638H75.6599C77.5999 273.848 78.7099 271.228 78.7099 268.088L78.7299 268.108V268.118Z" fill="#6082E2"/>
<path fill-rule="evenodd" clip-rule="evenodd" d="M68.8997 278.138C71.6697 278.138 73.9897 277.228 75.6797 275.648L72.3597 273.078C71.4497 273.688 70.2697 274.058 68.8897 274.058C66.2197 274.058 63.9597 272.248 63.1497 269.828H59.7197V272.478C61.4097 275.828 64.8797 278.138 68.8897 278.138H68.8997Z" fill="#6FA063"/>
<path fill-rule="evenodd" clip-rule="evenodd" d="M63.1596 269.84C62.9396 269.23 62.8396 268.56 62.8396 267.88C62.8396 267.2 62.9596 266.55 63.1596 265.92V263.27H59.7296C59.0296 264.66 58.6396 266.22 58.6396 267.88C58.6396 269.54 59.0396 271.1 59.7296 272.49L63.1596 269.84Z" fill="#E4BC5A"/>
<path fill-rule="evenodd" clip-rule="evenodd" d="M68.9 261.699C70.41 261.699 71.75 262.209 72.81 263.239L75.75 260.299C73.98 258.639 71.65 257.629 68.88 257.629C64.87 257.629 61.4 259.939 59.71 263.289L63.14 265.939C63.95 263.519 66.21 261.709 68.88 261.709L68.9 261.689V261.699Z" fill="#C25947"/>
<path d="M136.79 241.111C136.9 240.131 137.31 239.581 138.08 239.011C139.17 238.251 140.53 238.681 140.53 238.681V236.121C140.86 236.121 141.19 236.121 141.51 236.191V239.491C141.51 239.491 140.16 239.051 139.06 239.821C138.3 240.391 137.9 240.931 137.77 241.921C137.77 242.441 137.86 243.141 138.34 243.751C138.23 243.681 138.1 243.621 137.99 243.551C136.96 242.871 136.79 241.851 136.79 241.131V241.111ZM147.12 231.371C146.38 230.541 146.09 229.731 145.98 229.141H146.92C146.92 229.141 146.72 230.671 148.1 232.151C147.73 231.931 147.4 231.671 147.1 231.371H147.12ZM151.66 233.681V236.911C151.66 236.911 150.46 236.871 149.56 236.631C148.32 236.321 147.53 235.821 147.53 235.821C147.53 235.821 146.98 235.471 146.94 235.451V242.131C146.94 242.501 146.83 243.441 146.53 244.211C146.12 245.211 145.5 245.891 145.39 246.021C145.39 246.021 144.63 246.921 143.29 247.531C142.09 248.071 141.02 248.051 140.69 248.071C140.69 248.071 138.86 248.141 137.2 247.071C136.85 246.831 136.5 246.571 136.2 246.261C137.86 247.331 139.69 247.261 139.69 247.261C140.02 247.261 141.06 247.261 142.29 246.711C143.62 246.101 144.39 245.201 144.39 245.201C144.5 245.071 145.13 244.391 145.53 243.391C145.84 242.631 145.94 241.691 145.94 241.321V234.641L146.53 235.011C146.53 235.011 147.34 235.491 148.56 235.821C149.46 236.041 150.66 236.101 150.66 236.101V233.571C151.08 233.661 151.42 233.681 151.64 233.661L151.66 233.681Z" fill="#CF5561"/>
<path d="M150.661 233.6V236.13C150.661 236.13 149.46 236.09 148.56 235.85C147.32 235.54 146.53 235.04 146.53 235.04C146.53 235.04 145.981 234.69 145.941 234.67V241.35C145.941 241.72 145.83 242.66 145.53 243.42C145.11 244.42 144.5 245.1 144.39 245.23C144.39 245.23 143.63 246.13 142.29 246.74C141.09 247.29 140.021 247.26 139.691 247.29C139.691 247.29 137.86 247.36 136.2 246.29C136.03 246.12 135.85 245.94 135.7 245.74C135.18 245.11 134.85 244.34 134.76 244.13C134.63 243.76 134.34 242.84 134.39 241.97C134.46 240.42 135 239.48 135.15 239.24C135.52 238.58 136.02 238.02 136.61 237.51C137.13 237.09 137.72 236.77 138.36 236.53C139.04 236.25 139.781 236.11 140.521 236.09V238.65C140.521 238.65 139.171 238.21 138.071 238.98C137.311 239.55 136.91 240.09 136.78 241.08C136.78 241.8 136.95 242.83 137.98 243.5C138.09 243.57 138.22 243.63 138.33 243.7C138.51 243.94 138.721 244.14 138.961 244.29C139.941 244.92 140.77 244.97 141.84 244.55C142.54 244.27 143.08 243.65 143.33 242.98C143.48 242.57 143.48 242.13 143.48 241.69V229.09H145.95C146.06 229.68 146.34 230.51 147.09 231.32C147.4 231.63 147.72 231.91 148.09 232.13C148.2 232.24 148.75 232.81 149.47 233.13C149.84 233.31 150.231 233.44 150.631 233.52L150.65 233.61L150.661 233.6Z" fill="white"/>
<path d="M133.8 243.359L133.87 243.529C133.87 243.529 133.85 243.439 133.8 243.359Z" fill="#9CEAE8"/>
<path d="M138.36 236.548C137.73 236.788 137.14 237.118 136.61 237.528C136.02 238.008 135.52 238.598 135.15 239.258C135 239.498 134.45 240.438 134.39 241.988C134.35 242.858 134.63 243.778 134.76 244.148C134.85 244.368 135.17 245.128 135.7 245.758C135.85 245.958 136.03 246.128 136.2 246.278C135.63 245.908 135.15 245.468 134.72 244.948C134.2 244.318 133.87 243.548 133.78 243.328C133.65 242.958 133.37 242.038 133.41 241.168C133.48 239.618 134.02 238.678 134.17 238.438C134.54 237.778 135.04 237.218 135.63 236.708C136.15 236.298 136.74 235.948 137.38 235.728C137.77 235.578 138.19 235.448 138.6 235.378C139.23 235.268 139.89 235.268 140.52 235.358V236.078C139.78 236.078 139.03 236.228 138.36 236.518V236.538V236.548Z" fill="#9CEAE8"/>
<path d="M145.98 229.139H143.51V241.739C143.51 242.179 143.51 242.609 143.36 243.029C143.12 243.709 142.58 244.319 141.88 244.599C140.81 245.009 139.98 244.969 139 244.339C138.76 244.189 138.54 243.969 138.37 243.749C139.22 244.189 139.96 244.159 140.9 243.819C141.6 243.559 142.14 242.919 142.38 242.249C142.53 241.839 142.53 241.399 142.53 240.959V228.359H145.94C145.94 228.359 145.9 228.669 145.98 229.149V229.139ZM150.65 232.899V233.599C150.26 233.509 149.86 233.379 149.49 233.209C148.77 232.859 148.22 232.309 148.11 232.209C148.24 232.299 148.37 232.359 148.5 232.429C149.37 232.839 150.22 232.979 150.64 232.929V232.909L150.65 232.899Z" fill="#9CEAE8"/>
<path d="M132.18 264.04C132.18 261.66 132.18 260.48 132.64 259.58C133.03 258.82 133.66 258.2 134.42 257.8C135.32 257.34 136.51 257.34 138.88 257.34H145.46C147.84 257.34 149.02 257.34 149.92 257.8C150.68 258.19 151.3 258.82 151.7 259.58C152.16 260.48 152.16 261.67 152.16 264.04V270.62C152.16 273 152.16 274.18 151.7 275.08C151.31 275.84 150.68 276.46 149.92 276.86C149.02 277.32 147.83 277.32 145.46 277.32H138.88C136.5 277.32 135.32 277.32 134.42 276.86C133.66 276.47 133.04 275.84 132.64 275.08C132.18 274.18 132.18 272.99 132.18 270.62V264.04Z" fill="#CF4431"/>
<path fill-rule="evenodd" clip-rule="evenodd" d="M148.04 262.251C148.68 262.431 149.19 262.921 149.36 263.571C149.67 264.741 149.67 267.191 149.67 267.191C149.67 267.191 149.67 269.631 149.36 270.801C149.18 271.441 148.69 271.951 148.04 272.121C146.87 272.431 142.18 272.431 142.18 272.431C142.18 272.431 137.5 272.431 136.31 272.121C135.67 271.941 135.16 271.451 134.99 270.801C134.68 269.631 134.68 267.191 134.68 267.191C134.68 267.191 134.68 264.751 134.99 263.581C135.17 262.941 135.68 262.411 136.31 262.251C137.48 261.941 142.18 261.941 142.18 261.941C142.18 261.941 146.88 261.941 148.04 262.251ZM144.58 267.101L140.67 269.351V264.851L144.58 267.091V267.101Z" fill="white"/>
<path d="M205.53 234.959C205.53 232.509 205.53 231.289 206.01 230.369C206.43 229.579 207.06 228.949 207.84 228.539C208.76 228.059 209.98 228.059 212.43 228.059H219.21C221.66 228.059 222.88 228.059 223.8 228.539C224.59 228.939 225.22 229.589 225.63 230.369C226.11 231.289 226.11 232.529 226.11 234.959V241.739C226.11 244.189 226.11 245.409 225.63 246.329C225.21 247.119 224.58 247.749 223.8 248.159C222.88 248.639 221.66 248.639 219.21 248.639H212.43C209.98 248.639 208.76 248.639 207.84 248.159C207.05 247.759 206.42 247.109 206.01 246.329C205.53 245.409 205.53 244.169 205.53 241.739V234.959Z" fill="#FAF772"/>
<path d="M222.16 241.78C219.87 240.67 219.51 238.96 219.5 238.84C219.48 238.69 219.45 238.56 219.62 238.41C219.77 238.26 220.51 237.81 220.71 237.67C221.05 237.44 221.19 237.21 221.08 236.92C221 236.72 220.82 236.64 220.63 236.64C220.57 236.64 220.51 236.64 220.45 236.66C220.08 236.74 219.73 236.92 219.53 236.97H219.45C219.34 236.97 219.3 236.92 219.31 236.79C219.34 236.39 219.39 235.6 219.33 234.88C219.24 233.88 218.91 233.39 218.54 232.94C218.36 232.72 217.49 231.82 215.83 231.82C214.17 231.82 213.32 232.73 213.12 232.94C212.74 233.39 212.41 233.88 212.33 234.88C212.27 235.6 212.33 236.39 212.35 236.79C212.35 236.91 212.32 236.97 212.21 236.97H212.13C211.93 236.92 211.58 236.74 211.21 236.66C211.15 236.66 211.09 236.64 211.02 236.64C210.82 236.64 210.65 236.72 210.57 236.92C210.46 237.21 210.62 237.44 210.94 237.67C211.14 237.81 211.86 238.26 212.03 238.41C212.2 238.56 212.17 238.69 212.15 238.84C212.13 238.96 211.77 240.67 209.49 241.78C209.35 241.84 209.12 241.98 209.54 242.21C210.17 242.56 210.59 242.52 210.91 242.73C211.19 242.91 211.03 243.3 211.22 243.44C211.47 243.61 212.21 243.44 213.15 243.73C213.94 243.99 214.43 244.73 215.83 244.73C217.23 244.73 217.72 243.99 218.51 243.73C219.45 243.42 220.19 243.61 220.44 243.44C220.64 243.3 220.49 242.92 220.75 242.73C221.07 242.51 221.49 242.56 222.12 242.21C222.52 241.99 222.29 241.86 222.17 241.79V241.77L222.16 241.78Z" fill="white"/>
<path d="M235.48 153.379C237.35 153.379 238.86 154.899 238.86 156.759V186.229C238.86 188.099 237.34 189.609 235.48 189.609C233.61 189.609 232.1 188.089 232.1 186.229V156.759C232.1 154.889 233.62 153.379 235.48 153.379Z" fill="#E7B840"/>
<path d="M255.92 129.09C257.79 129.09 259.3 130.61 259.3 132.47V186.23C259.3 188.1 257.78 189.61 255.92 189.61C254.05 189.61 252.54 188.09 252.54 186.23V132.47C252.54 130.6 254.06 129.09 255.92 129.09Z" fill="#E7B840"/>
<path d="M362.76 129.09C364.63 129.09 366.14 130.61 366.14 132.47V186.23C366.14 188.1 364.62 189.61 362.76 189.61C360.89 189.61 359.38 188.09 359.38 186.23V132.47C359.38 130.6 360.9 129.09 362.76 129.09Z" fill="#4437D0"/>
<path d="M279.1 105.988C280.97 105.988 282.48 107.508 282.48 109.368V186.228C282.48 188.098 280.96 189.608 279.1 189.608C277.23 189.608 275.72 188.088 275.72 186.228V109.368C275.72 107.498 277.24 105.988 279.1 105.988Z" fill="#4437D0"/>
<path d="M299.359 129.09C301.339 129.09 302.939 130.69 302.939 132.67V186.03C302.939 188.01 301.339 189.61 299.359 189.61C297.379 189.61 295.779 188.01 295.779 186.03V132.67C295.779 130.69 297.379 129.09 299.359 129.09Z" fill="#E7B840"/>
<path d="M340.58 129.09C342.56 129.09 344.16 130.69 344.16 132.67V186.03C344.16 188.01 342.56 189.61 340.58 189.61C338.6 189.61 337 188.01 337 186.03V132.67C337 130.69 338.6 129.09 340.58 129.09Z" fill="#E7B840"/>
<path d="M320.249 156.957C322.119 156.957 323.629 158.477 323.629 160.337V186.217C323.629 188.087 322.109 189.597 320.249 189.597C318.379 189.597 316.869 188.077 316.869 186.217V160.337C316.869 158.467 318.389 156.957 320.249 156.957Z" fill="#4437D0"/>
<defs>
<filter id="filter0_d_776_3575" x="195.28" y="57.3894" width="256.25" height="167.558" filterUnits="userSpaceOnUse" color-interpolation-filters="sRGB">
<feFlood flood-opacity="0" result="BackgroundImageFix"/>
<feColorMatrix in="SourceAlpha" type="matrix" values="0 0 0 0 0 0 0 0 0 0 0 0 0 0 0 0 0 0 127 0" result="hardAlpha"/>
<feOffset dx="5.77" dy="5.77"/>
<feGaussianBlur stdDeviation="4.12"/>
<feColorMatrix type="matrix" values="0 0 0 0 0.819608 0 0 0 0 0.811765 0 0 0 0 0.811765 0 0 0 0.31 0"/>
<feBlend mode="normal" in2="BackgroundImageFix" result="effect1_dropShadow_776_3575"/>
<feBlend mode="normal" in="SourceGraphic" in2="effect1_dropShadow_776_3575" result="shape"/>
</filter>
<linearGradient id="paint0_linear_776_3575" x1="29.3203" y1="158.828" x2="300.06" y2="158.828" gradientUnits="userSpaceOnUse">
<stop stop-color="#AAAAAA"/>
<stop offset="0.06" stop-color="#B7B7B7" stop-opacity="0.84"/>
<stop offset="0.15" stop-color="#CACACA" stop-opacity="0.62"/>
<stop offset="0.24" stop-color="#DADADA" stop-opacity="0.42"/>
<stop offset="0.35" stop-color="#E8E8E8" stop-opacity="0.27"/>
<stop offset="0.46" stop-color="#F2F2F2" stop-opacity="0.15"/>
<stop offset="0.59" stop-color="#F9F9F9" stop-opacity="0.06"/>
<stop offset="0.74" stop-color="#FDFDFD" stop-opacity="0.01"/>
<stop offset="1" stop-color="white" stop-opacity="0"/>
</linearGradient>
<linearGradient id="paint1_linear_776_3575" x1="68.9502" y1="247.91" x2="68.9502" y2="227.93" gradientUnits="userSpaceOnUse">
<stop stop-color="#3B63CE"/>
<stop offset="1" stop-color="#6EA9EF"/>
</linearGradient>
</defs>
</svg>
