<svg width="556" height="416" viewBox="0 0 556 416" fill="none" xmlns="http://www.w3.org/2000/svg">
<path d="M0 10.1391C0 4.53943 4.53942 0 10.1391 0H545.861C551.461 0 556 4.53942 556 10.1391V15.2086H0V10.1391Z" fill="#655CFE"/>
<circle cx="24.0488" cy="8.07422" r="2.5" fill="#EE1F1F"/>
<circle cx="35.3223" cy="8.07422" r="2.5" fill="#FFCE31"/>
<circle cx="45.6006" cy="8.07422" r="2.5" fill="#9AD122"/>
<path d="M0 15.207H556V399.207C556 408.044 548.837 415.207 540 415.207H16C7.16346 415.207 0 408.044 0 399.207V15.207Z" fill="white"/>
<path d="M415.568 88.335H416.744V90.207H415.352C414.272 90.207 413.336 89.655 412.688 88.863C412.112 89.655 411.2 90.207 409.832 90.207H400.784C398.024 90.207 395.96 88.143 395.96 85.383V81.327H397.832V85.383C397.832 87.111 399.056 88.335 400.784 88.335H409.832C411.152 88.335 411.752 87.471 411.776 86.367L411.752 78.855H413.648V85.695C413.648 85.863 413.648 86.055 413.624 86.247V86.319C413.624 87.447 414.224 88.335 415.568 88.335ZM405.032 92.823C405.704 92.823 406.232 93.375 406.232 94.023C406.232 94.695 405.704 95.247 405.032 95.247C404.384 95.247 403.832 94.695 403.832 94.023C403.832 93.375 404.384 92.823 405.032 92.823ZM432.354 78.255H434.226V86.223C434.226 88.431 432.426 90.207 430.242 90.207C428.682 90.207 427.554 89.703 426.93 88.863C426.234 89.799 424.914 90.231 423.69 90.231C422.394 90.231 421.314 89.751 420.618 88.887C419.994 89.679 418.962 90.207 417.834 90.207H416.562L415.746 89.895V88.647L416.562 88.335H417.93C418.938 88.335 419.706 87.567 419.706 86.559V80.607H421.554V86.559C421.554 87.663 422.25 88.335 423.714 88.383C425.082 88.407 425.994 87.639 425.994 86.559V80.607H427.866V86.559C427.866 87.663 428.706 88.335 430.242 88.335C431.394 88.335 432.354 87.399 432.354 86.223V78.255ZM437.836 73.503H439.708V87.159C439.708 87.927 440.26 88.335 440.86 88.335H442.396V90.207H440.308C438.916 90.207 437.836 89.151 437.836 87.735V73.503ZM456.123 88.335H458.907V90.207H442.035L441.219 89.895V88.647L442.035 88.335H454.275V85.791C454.275 83.919 452.955 82.599 451.059 82.599H443.739L443.523 82.263L448.011 73.503H449.883L446.211 80.727H451.059C453.963 80.727 456.123 82.887 456.123 85.791V88.335ZM466.793 78.111C469.601 78.111 471.665 80.199 471.665 82.983V85.239C471.665 87.903 469.553 90.111 466.937 90.111C465.329 90.111 463.841 89.511 462.785 88.431C462.185 89.511 461.033 90.207 459.641 90.207H458.585L457.769 89.895V88.647L458.585 88.335H459.641C460.841 88.335 461.681 87.495 461.681 86.271V82.983C461.681 80.199 463.769 78.111 466.553 78.111H466.793ZM469.817 85.239V82.983C469.817 81.231 468.569 79.983 466.793 79.983H466.553C464.777 79.983 463.553 81.231 463.553 82.983V86.607C464.297 87.639 465.545 88.239 466.937 88.239C468.497 88.239 469.817 86.895 469.817 85.239ZM488.955 88.335H491.619V90.207H479.403V88.335H487.083V83.199C487.083 81.327 485.763 80.007 483.891 80.007H480.555V78.135H483.891C486.795 78.135 488.955 80.319 488.955 83.199V88.335ZM498.981 88.335H502.821V90.207H491.421L490.605 89.895V88.647L491.421 88.335H494.397C493.341 87.447 492.741 86.079 492.741 84.183C492.741 78.159 497.805 76.959 501.765 78.495V80.223C498.333 78.855 494.805 79.767 494.805 84.231C494.805 87.519 496.653 88.335 498.981 88.335ZM509.618 78.111C512.426 78.111 514.49 80.223 514.49 83.007V91.287C514.49 94.647 511.778 96.183 506.402 95.271V93.519C511.034 94.119 512.618 93.255 512.618 90.903V90.183H509.186C506.594 90.159 504.506 87.951 504.506 85.311V83.007C504.506 80.223 506.57 78.111 509.378 78.111H509.618ZM512.618 83.007C512.618 81.231 511.37 79.983 509.618 79.983H509.378C507.602 79.983 506.378 81.231 506.378 83.007V85.311C506.378 86.967 507.674 88.311 509.234 88.311H512.618V83.007Z" fill="#4832D9"/>
<path d="M176.183 160.047H183.687V170.855C183.687 176.343 187.439 180.095 192.927 180.095H193.319C198.807 180.095 202.615 176.343 202.615 170.855V134.231H210.063V165.703H215.551V173.207H209.895C208.831 181.607 202.111 187.599 193.319 187.599H192.927C183.295 187.599 176.183 180.431 176.183 170.855V160.047ZM213.76 173.207L210.512 172.031V166.879L213.76 165.703H222.496V157.919C222.496 150.135 227.984 144.423 235.488 144.423C243.216 144.423 248.592 150.359 248.592 159.151C248.592 161.559 248.032 163.743 247.08 165.703H254.976V173.207H247.584V174.439C247.584 181.999 244.112 187.319 235.04 187.319C226.696 187.319 222.496 181.215 222.496 173.263V173.207H213.76ZM229.384 173.263C229.384 177.519 230.896 180.431 235.04 180.431C238.96 180.431 240.696 177.519 240.696 173.263V171.919C238.848 172.759 236.776 173.207 234.536 173.207H229.384V173.263ZM229.384 165.703H234.536C238.736 165.703 241.704 163.351 241.704 159.151C241.704 154.111 239.24 151.311 235.544 151.311C232.016 151.311 229.384 154.447 229.384 158.703V165.703ZM252.458 173.207L249.21 172.031V166.879L252.458 165.703V173.207ZM252.514 173.207V165.703H254.922C257.106 165.703 258.562 164.247 258.562 162.119V150.807H266.01V162.119C266.01 164.471 267.354 165.871 269.762 165.871C272.058 165.927 273.682 164.527 273.682 162.119V150.807H281.13V162.119C281.13 164.359 282.642 165.703 285.106 165.703H288.802V144.983H296.306V173.207H285.106C281.858 173.207 279.226 172.143 277.378 170.351C275.194 172.367 272.45 173.319 269.594 173.319C266.682 173.319 264.33 172.255 262.258 170.351C260.354 172.087 257.778 173.207 254.866 173.207H252.514ZM312.007 173.207H304.503V134.231H312.007V173.207ZM301.871 129.863V125.719H303.887C303.103 124.823 302.543 123.647 302.543 122.135C302.543 118.999 304.615 116.703 308.199 116.703C311.727 116.703 314.023 118.943 314.247 123.031H310.495C310.327 121.631 309.431 120.791 308.311 120.791C307.191 120.791 306.407 121.407 306.407 122.639C306.407 123.423 306.855 124.767 308.423 125.719H314.583V129.863H301.871ZM342.568 173.039C335.736 173.039 330.192 167.271 330.192 160.271V157.079C330.192 149.799 335.624 144.311 342.848 144.311H356.176V162.623C356.176 164.471 357.352 165.703 359.2 165.703H361.16V173.207H359.2C355.896 173.207 353.096 171.863 351.192 169.679C349.176 171.751 346.432 173.039 342.568 173.039ZM333.832 135.855C333.832 133.503 335.848 131.431 338.256 131.431C340.664 131.431 342.68 133.503 342.68 135.855C342.68 138.263 340.664 140.279 338.256 140.279C335.848 140.279 333.832 138.263 333.832 135.855ZM337.696 160.271C337.696 163.183 339.936 165.535 342.568 165.535C345.032 165.535 347.272 164.583 348.672 162.791V151.815H342.848C339.768 151.815 337.696 153.887 337.696 157.079V160.271ZM345.816 135.855C345.816 133.503 347.832 131.431 350.24 131.431C352.592 131.431 354.608 133.503 354.608 135.855C354.608 138.263 352.592 140.279 350.24 140.279C347.832 140.279 345.816 138.263 345.816 135.855ZM360.738 173.207L357.49 172.031V166.879L360.738 165.703H366.17C365.162 164.247 364.49 162.455 364.49 160.383V157.191C364.49 149.911 369.754 144.423 377.314 144.423C384.93 144.423 390.194 149.855 390.194 157.191V160.383C390.194 162.455 389.522 164.247 388.458 165.703H393.778V173.207H360.738ZM366.002 136.303C366.002 133.951 368.074 131.879 370.426 131.879C372.834 131.879 374.85 133.951 374.85 136.303C374.85 138.711 372.834 140.727 370.426 140.727C368.074 140.727 366.002 138.711 366.002 136.303ZM371.938 160.383C371.938 163.351 374.682 165.703 377.482 165.703C380.618 165.703 382.69 163.351 382.69 160.383V157.191C382.69 153.999 380.73 151.927 377.37 151.927C373.954 151.927 371.938 153.943 371.938 157.191V160.383ZM377.986 136.303C377.986 133.951 380.002 131.879 382.41 131.879C384.818 131.879 386.834 133.951 386.834 136.303C386.834 138.711 384.818 140.727 382.41 140.727C380.002 140.727 377.986 138.711 377.986 136.303ZM399.096 187.319C396.744 187.319 394.672 185.359 394.672 182.895C394.672 180.543 396.744 178.527 399.096 178.527C401.504 178.527 403.52 180.543 403.52 182.895C403.52 185.359 401.504 187.319 399.096 187.319ZM393.048 173.207V165.703H404.192C405.144 165.703 406.376 165.031 406.376 163.295V146.663H413.88V166.039C413.88 170.071 410.688 173.207 406.712 173.207H393.048ZM406.656 182.895C406.656 180.543 408.672 178.527 411.08 178.527C413.488 178.527 415.504 180.543 415.504 182.895C415.504 185.359 413.488 187.319 411.08 187.319C408.672 187.319 406.656 185.359 406.656 182.895ZM418.604 186.087V178.583H421.348C424.316 178.583 426.332 176.567 426.332 173.543V146.159H433.836V165.703H439.94V173.207H433.836L433.78 174.719C433.276 181.215 428.068 186.087 421.348 186.087H418.604ZM470.796 144.647C480.82 144.647 485.748 151.759 485.748 159.599V173.207H441.62V165.703H447.612V134.231H455.116V153.327C459.428 148.623 464.692 144.647 470.796 144.647ZM455.116 165.703H478.468V160.327C478.468 155.511 474.884 151.983 469.9 151.983C464.804 151.983 460.044 154.727 455.116 160.663V165.703ZM493.557 140.503C493.949 135.799 495.909 130.703 496.749 128.519H501.453C500.949 130.703 499.437 135.631 499.213 140.447L499.101 142.463H493.389L493.557 140.503ZM503.917 142.463L504.085 140.503C504.477 135.799 506.437 130.703 507.277 128.519H511.981C511.477 130.703 509.965 135.631 509.741 140.447L509.629 142.463H503.917ZM80.0221 253.359C91.2781 255.599 94.4701 252.911 94.4701 248.823V248.095H88.4221H88.3101C81.5341 248.039 76.0461 242.327 76.0461 235.383V232.079C76.0461 224.855 81.4781 219.367 88.7581 219.367H89.3181C96.5421 219.367 101.974 224.855 101.974 232.079V240.703H104.718V248.207H101.974V250.671C101.974 258.567 94.1341 263.999 80.0221 260.303V253.359ZM83.4941 235.383C83.4941 238.239 85.7901 240.647 88.4221 240.647H94.4701V232.079C94.4701 228.943 92.3981 226.815 89.3181 226.815H88.7581C85.6221 226.815 83.4941 228.943 83.4941 232.079V235.383ZM138.414 240.703H140.318V248.207H138.414C135.278 248.207 132.59 246.863 130.91 244.735C128.894 246.751 126.038 248.039 122.958 248.039C119.542 248.039 116.294 246.919 113.774 244.959C112.038 246.975 109.406 248.207 106.326 248.207H104.31L101.118 247.031V241.879L104.31 240.703H106.326C108.174 240.703 109.406 239.471 109.406 237.623V232.079C109.406 224.799 114.838 219.311 122.118 219.311H122.678C129.902 219.311 135.39 224.799 135.39 232.079V237.623C135.39 239.471 136.566 240.703 138.414 240.703ZM116.854 237.791C118.254 239.583 120.55 240.535 122.958 240.535C125.646 240.535 127.886 238.183 127.886 235.271V232.079C127.886 228.887 125.758 226.815 122.678 226.815H122.118C118.982 226.815 116.854 228.887 116.854 232.079V237.791ZM149.382 218.023C146.974 218.023 144.958 216.063 144.958 213.599C144.958 211.247 146.974 209.231 149.382 209.231C151.79 209.231 153.806 211.247 153.806 213.599C153.806 216.063 151.79 218.023 149.382 218.023ZM138.854 248.207V240.703H144.062C145.014 240.703 146.246 240.031 146.246 238.295V221.663H153.75V241.039C153.75 245.071 150.558 248.207 146.582 248.207H138.854ZM186.729 231.799C186.729 224.799 192.049 219.479 199.105 219.479H199.945C207.001 219.479 212.321 224.799 212.321 231.799V240.703H215.793V248.207H211.817C209.745 257.503 201.793 263.999 191.657 263.999H191.489C179.673 263.999 170.769 255.151 170.769 243.279V237.119H178.329V243.279C178.329 251.007 183.761 256.439 191.489 256.439H191.657C198.321 256.439 202.521 253.191 204.145 248.207H199.105C192.049 248.207 186.729 242.887 186.729 235.831V231.799ZM189.361 211.303C189.361 208.951 191.377 206.935 193.785 206.935C196.193 206.935 198.209 208.951 198.209 211.303C198.209 213.767 196.193 215.727 193.785 215.727C191.377 215.727 189.361 213.767 189.361 211.303ZM194.233 235.831C194.233 238.743 196.249 240.703 199.105 240.703H204.873V231.799C204.873 228.943 202.857 226.983 199.945 226.983H199.105C196.249 226.983 194.233 228.943 194.233 231.799V235.831ZM201.345 211.303C201.345 208.951 203.361 206.935 205.769 206.935C208.121 206.935 210.137 208.951 210.137 211.303C210.137 213.767 208.121 215.727 205.769 215.727C203.361 215.727 201.345 213.767 201.345 211.303ZM221.204 240.703C224.62 240.703 225.348 238.631 225.348 236.167V229.167L225.292 221.663H232.852V233.143C232.852 233.703 232.852 234.263 232.796 234.935V236.167C232.796 238.631 233.636 240.703 237.052 240.703H242.484V248.207H235.988C233.356 248.207 231.004 246.919 229.156 245.071C227.42 246.919 224.844 248.207 221.148 248.207H215.268L212.02 247.031V241.935L215.268 240.703H221.204ZM217.452 257.839C217.452 255.487 219.468 253.471 221.876 253.471C224.228 253.471 226.244 255.487 226.244 257.839C226.244 260.247 224.228 262.263 221.876 262.263C219.468 262.263 217.452 260.247 217.452 257.839ZM229.38 257.839C229.38 255.487 231.396 253.471 233.804 253.471C236.212 253.471 238.228 255.487 238.228 257.839C238.228 260.247 236.212 262.263 233.804 262.263C231.396 262.263 229.38 260.247 229.38 257.839ZM241.738 248.207L238.49 247.031V241.879L241.738 240.703H247.17C246.162 239.247 245.49 237.455 245.49 235.383V232.191C245.49 224.911 250.754 219.423 258.314 219.423C265.93 219.423 271.194 224.855 271.194 232.191V235.383C271.194 237.455 270.522 239.247 269.458 240.703H274.778V248.207H241.738ZM247.002 211.303C247.002 208.951 249.074 206.879 251.426 206.879C253.834 206.879 255.85 208.951 255.85 211.303C255.85 213.711 253.834 215.727 251.426 215.727C249.074 215.727 247.002 213.711 247.002 211.303ZM252.938 235.383C252.938 238.351 255.682 240.703 258.482 240.703C261.618 240.703 263.69 238.351 263.69 235.383V232.191C263.69 228.999 261.73 226.927 258.37 226.927C254.954 226.927 252.938 228.943 252.938 232.191V235.383ZM258.986 211.303C258.986 208.951 261.002 206.879 263.41 206.879C265.818 206.879 267.834 208.951 267.834 211.303C267.834 213.711 265.818 215.727 263.41 215.727C261.002 215.727 258.986 213.711 258.986 211.303ZM301.936 233.927C304.904 240.311 306.528 240.591 307.48 240.703H312.352V248.207H274.664L271.416 247.031V241.935L274.664 240.703H296.952C296.168 239.751 294.992 237.399 293.704 234.991C289.84 228.159 285.528 224.631 277.128 227.823V220.935C287.544 217.183 296.28 222.335 301.936 233.927ZM317.721 240.703C321.137 240.703 321.865 238.631 321.865 236.167V229.167L321.809 221.663H329.369V233.143C329.369 233.703 329.369 234.263 329.313 234.879V236.167C329.313 238.631 330.153 240.703 333.513 240.703H341.297V248.207H332.505C329.873 248.207 327.465 246.919 325.617 245.015C323.881 246.919 321.305 248.207 317.609 248.207H312.065L308.817 247.031V241.935L312.065 240.703H317.721ZM315.593 213.263C315.593 210.911 317.609 208.895 320.017 208.895C322.425 208.895 324.441 210.911 324.441 213.263C324.441 215.671 322.425 217.687 320.017 217.687C317.609 217.687 315.593 215.671 315.593 213.263ZM327.577 213.263C327.577 210.911 329.593 208.895 332.001 208.895C334.353 208.895 336.369 210.911 336.369 213.263C336.369 215.671 334.353 217.687 332.001 217.687C329.593 217.687 327.577 215.671 327.577 213.263ZM339.157 248.207V240.703H342.965C343.917 240.703 345.205 240.031 345.205 238.295V209.231H352.653V241.039C352.653 245.071 349.517 248.207 345.485 248.207H339.157ZM397.99 226.647C389.702 223.287 381.582 225.583 381.582 233.199C381.582 238.911 385.11 240.647 389.758 240.647H398.102V248.207H385.894C381.19 248.207 377.718 250.671 377.718 255.487C377.718 262.319 387.686 265.623 396.982 261.535V268.367C384.158 274.639 370.214 268.143 370.214 255.487C370.214 249.495 373.238 244.959 377.83 242.607C374.806 240.311 373.294 237.007 373.294 233.031C373.294 219.311 386.846 215.503 397.99 219.703V226.647ZM401.651 261.087V253.583H404.395C407.363 253.583 409.379 251.567 409.379 248.543V221.159H416.883V240.703H422.987V248.207H416.883L416.827 249.719C416.323 256.215 411.115 261.087 404.395 261.087H401.651ZM420.95 248.207L417.702 247.031V241.879L420.95 240.703V248.207ZM421.006 248.207V240.703H423.415C425.599 240.703 427.055 239.247 427.055 237.119V225.807H434.503V237.119C434.503 239.471 435.846 240.871 438.255 240.871C440.551 240.927 442.175 239.527 442.175 237.119V225.807H449.623V237.119C449.623 239.359 451.135 240.703 453.599 240.703H457.295V219.983H464.799V248.207H453.599C450.351 248.207 447.719 247.143 445.871 245.351C443.687 247.367 440.943 248.319 438.087 248.319C435.175 248.319 432.823 247.255 430.751 245.351C428.847 247.087 426.271 248.207 423.359 248.207H421.006ZM480.5 248.207H472.996V209.231H480.5V248.207ZM470.364 204.863V200.719H472.38C471.596 199.823 471.035 198.647 471.035 197.135C471.035 193.999 473.108 191.703 476.692 191.703C480.22 191.703 482.516 193.943 482.74 198.031H478.988C478.82 196.631 477.924 195.791 476.804 195.791C475.684 195.791 474.9 196.407 474.9 197.639C474.9 198.423 475.348 199.767 476.916 200.719H483.076V204.863H470.364ZM491.053 253.359C502.309 255.599 505.501 252.911 505.501 248.823V248.095H499.453H499.341C492.565 248.039 487.077 242.327 487.077 235.383V232.079C487.077 224.855 492.509 219.367 499.789 219.367H500.349C507.573 219.367 513.005 224.855 513.005 232.079V250.671C513.005 258.567 505.165 263.999 491.053 260.303V253.359ZM494.525 235.383C494.525 238.239 496.821 240.647 499.453 240.647H505.501V232.079C505.501 228.943 503.429 226.815 500.349 226.815H499.789C496.653 226.815 494.525 228.943 494.525 232.079V235.383ZM58.256 282.439C57.864 287.143 55.904 292.239 55.064 294.423H50.36C50.864 292.239 52.376 287.311 52.6 282.495L52.712 280.479H58.424L58.256 282.439ZM60.944 294.423C61.448 292.239 62.96 287.311 63.184 282.495L63.24 280.479H69.008L68.84 282.439C68.448 287.143 66.432 292.239 65.648 294.423H60.944ZM87.5602 323.039C80.7282 323.039 75.1842 317.271 75.1842 310.271V307.079C75.1842 299.799 80.6162 294.311 87.8402 294.311H101.168V312.623C101.168 314.471 102.344 315.703 104.192 315.703H106.152V323.207H104.192C100.888 323.207 98.0882 321.863 96.1842 319.679C94.1682 321.751 91.4242 323.039 87.5602 323.039ZM78.8242 285.855C78.8242 283.503 80.8402 281.431 83.2482 281.431C85.6562 281.431 87.6722 283.503 87.6722 285.855C87.6722 288.263 85.6562 290.279 83.2482 290.279C80.8402 290.279 78.8242 288.263 78.8242 285.855ZM82.6882 310.271C82.6882 313.183 84.9282 315.535 87.5602 315.535C90.0242 315.535 92.2642 314.583 93.6642 312.791V301.815H87.8402C84.7602 301.815 82.6882 303.887 82.6882 307.079V310.271ZM90.8082 285.855C90.8082 283.503 92.8242 281.431 95.2322 281.431C97.5842 281.431 99.6002 283.503 99.6002 285.855C99.6002 288.263 97.5842 290.279 95.2322 290.279C92.8242 290.279 90.8082 288.263 90.8082 285.855ZM111.61 315.703C115.026 315.703 115.754 313.631 115.754 311.167V304.167L115.698 296.663H123.258V308.143C123.258 308.703 123.258 309.263 123.202 309.935V311.167C123.202 313.631 124.042 315.703 127.458 315.703H132.89V323.207H126.394C123.762 323.207 121.41 321.919 119.562 320.071C117.826 321.919 115.25 323.207 111.554 323.207H105.674L102.426 322.031V316.935L105.674 315.703H111.61ZM107.858 332.839C107.858 330.487 109.874 328.471 112.282 328.471C114.634 328.471 116.65 330.487 116.65 332.839C116.65 335.247 114.634 337.263 112.282 337.263C109.874 337.263 107.858 335.247 107.858 332.839ZM119.786 332.839C119.786 330.487 121.802 328.471 124.21 328.471C126.618 328.471 128.634 330.487 128.634 332.839C128.634 335.247 126.618 337.263 124.21 337.263C121.802 337.263 119.786 335.247 119.786 332.839ZM141.945 293.023C139.537 293.023 137.521 291.063 137.521 288.599C137.521 286.247 139.537 284.231 141.945 284.231C144.353 284.231 146.369 286.247 146.369 288.599C146.369 291.063 144.353 293.023 141.945 293.023ZM131.416 323.207V315.703H136.625C137.577 315.703 138.809 315.031 138.809 313.295V296.663H146.312V316.039C146.312 320.071 143.121 323.207 139.145 323.207H131.416ZM156.092 328.359C167.348 330.599 170.54 327.911 170.54 323.823V323.095H164.492H164.38C157.604 323.039 152.116 317.327 152.116 310.383V307.079C152.116 299.855 157.548 294.367 164.828 294.367H165.388C172.612 294.367 178.044 299.855 178.044 307.079V325.671C178.044 333.567 170.204 338.999 156.092 335.303V328.359ZM159.564 310.383C159.564 313.239 161.86 315.647 164.492 315.647H170.54V307.079C170.54 303.943 168.468 301.815 165.388 301.815H164.828C161.692 301.815 159.564 303.943 159.564 307.079V310.383ZM181.151 336.087V328.583H183.895C186.863 328.583 188.879 326.567 188.879 323.543V296.159H196.383V315.703H202.487V323.207H196.383L196.327 324.719C195.823 331.215 190.615 336.087 183.895 336.087H181.151ZM205.995 315.703C209.411 315.703 210.139 313.631 210.139 311.167V304.167L210.083 296.663H217.643V308.143C217.643 308.703 217.643 309.263 217.587 309.879V311.167C217.587 313.631 218.427 315.703 221.787 315.703H229.571V323.207H220.779C218.147 323.207 215.739 321.919 213.891 320.015C212.155 321.919 209.579 323.207 205.883 323.207H200.338L197.09 322.031V316.935L200.338 315.703H205.995ZM203.867 288.263C203.867 285.911 205.883 283.895 208.291 283.895C210.699 283.895 212.715 285.911 212.715 288.263C212.715 290.671 210.699 292.687 208.291 292.687C205.883 292.687 203.867 290.671 203.867 288.263ZM215.851 288.263C215.851 285.911 217.867 283.895 220.275 283.895C222.627 283.895 224.643 285.911 224.643 288.263C224.643 290.671 222.627 292.687 220.275 292.687C217.867 292.687 215.851 290.671 215.851 288.263ZM265.231 315.703H272.007V323.207H228.215L224.967 322.031V316.879L228.215 315.703H257.727V312.343C257.727 309.039 255.487 306.799 252.183 306.799H233.143L232.303 305.455L243.503 284.231H251.063L243.111 299.351H252.183C259.631 299.351 265.231 304.951 265.231 312.343V315.703ZM269.595 323.207V315.703H273.403C274.355 315.703 275.643 315.031 275.643 313.295V284.231H283.091V316.039C283.091 320.071 279.955 323.207 275.923 323.207H269.595ZM289.493 323.207V315.703H296.661V287.927H304.221V315.703H311.893C312.845 315.703 314.133 315.031 314.133 313.295V284.231H321.581V316.039C321.581 320.071 318.445 323.207 314.413 323.207H289.493ZM293.301 340.119V335.975H295.317C294.533 335.079 293.973 333.903 293.973 332.391C293.973 329.255 295.989 326.959 299.629 326.959C303.157 326.959 305.453 329.199 305.677 333.287H301.925C301.757 331.887 300.861 331.047 299.685 331.047C298.621 331.047 297.837 331.663 297.837 332.895C297.837 333.679 298.285 335.023 299.853 335.975H306.013V340.119H293.301ZM336.562 323.207H329.058V284.231H336.562V323.207ZM351.667 336.087V328.583H354.411C357.379 328.583 359.395 326.567 359.395 323.543V296.159H366.899V315.703H373.003V323.207H366.899L366.843 324.719C366.339 331.215 361.131 336.087 354.411 336.087H351.667ZM398.294 308.927C401.262 315.311 402.886 315.591 403.782 315.703V323.207H371.022L367.774 322.031V316.935L371.022 315.703H393.31C392.526 314.751 391.35 312.399 390.062 309.991C386.198 303.159 381.886 299.631 373.43 302.823V295.935C383.902 292.183 392.638 297.335 398.294 308.927ZM382.39 331.775C382.39 329.423 384.406 327.407 386.814 327.407C389.222 327.407 391.238 329.423 391.238 331.775C391.238 334.239 389.222 336.199 386.814 336.199C384.406 336.199 382.39 334.239 382.39 331.775ZM409.391 284.231H416.839V313.295C416.839 315.031 418.127 315.703 419.079 315.703H421.823V323.207H416.559C412.583 323.207 409.391 320.071 409.391 316.039V284.231ZM426.768 315.703C430.184 315.703 430.912 313.631 430.912 311.167V304.167L430.856 296.663H438.416V308.143C438.416 308.703 438.416 309.263 438.36 309.879V311.167C438.36 313.631 439.2 315.703 442.56 315.703H450.344V323.207H441.552C438.92 323.207 436.512 321.919 434.664 320.015C432.928 321.919 430.352 323.207 426.656 323.207H421.112L417.864 322.031V316.935L421.112 315.703H426.768ZM424.64 288.263C424.64 285.911 426.656 283.895 429.064 283.895C431.472 283.895 433.488 285.911 433.488 288.263C433.488 290.671 431.472 292.687 429.064 292.687C426.656 292.687 424.64 290.671 424.64 288.263ZM436.624 288.263C436.624 285.911 438.64 283.895 441.048 283.895C443.4 283.895 445.416 285.911 445.416 288.263C445.416 290.671 443.4 292.687 441.048 292.687C438.64 292.687 436.624 290.671 436.624 288.263ZM483.82 315.703H485.724V323.207H483.82C480.684 323.207 477.996 321.863 476.316 319.735C474.3 321.751 471.444 323.039 468.364 323.039C464.948 323.039 461.7 321.919 459.18 319.959C457.444 321.975 454.812 323.207 451.732 323.207H449.716L446.524 322.031V316.879L449.716 315.703H451.732C453.58 315.703 454.812 314.471 454.812 312.623V307.079C454.812 299.799 460.244 294.311 467.524 294.311H468.084C475.308 294.311 480.796 299.799 480.796 307.079V312.623C480.796 314.471 481.972 315.703 483.82 315.703ZM462.26 312.791C463.66 314.583 465.956 315.535 468.364 315.535C471.052 315.535 473.292 313.183 473.292 310.271V307.079C473.292 303.887 471.164 301.815 468.084 301.815H467.524C464.388 301.815 462.26 303.887 462.26 307.079V312.791ZM483.532 323.207V315.703H487.34C488.292 315.703 489.58 315.031 489.58 313.295V284.231H497.028V316.039C497.028 320.071 493.892 323.207 489.86 323.207H483.532ZM512.054 323.207H504.55V284.231H512.054V323.207Z" fill="#4832D9"/>
</svg>
