<svg width="160" height="90" viewBox="0 0 160 90" fill="none" xmlns="http://www.w3.org/2000/svg">
<g clip-path="url(#clip0_1283_3994)">
<rect width="160" height="90" rx="16" fill="white"/>
<path d="M79.0832 33.2376C79.0832 33.2376 64.9708 32.851 60.3327 40.149C60.0489 40.595 60.004 41.1786 60.2183 41.6709C61.1523 43.8082 64.9331 49.3657 79.0832 49.7798C79.0832 49.7798 95.1708 50.4995 99.4671 37.0893C100.235 34.6928 99.8088 32.0574 99.2499 29.6667C98.8082 27.7771 98.1262 25.1373 98.5519 22.9609C98.5519 22.9609 97.8612 23.85 97.98 27.0965C98.0379 28.6633 97.6933 30.2373 96.7506 31.4174C95.2186 33.3317 92.7309 33.8776 90.5487 34.021C89.2542 34.1049 87.9524 33.963 86.6579 33.8501C84.1368 33.63 81.6158 33.1883 79.0818 33.2376H79.0832Z" fill="url(#paint0_linear_1283_3994)"/>
<path style="mix-blend-mode:color-burn" d="M79.0832 33.2376C79.0832 33.2376 64.9708 32.851 60.3327 40.149C60.0489 40.595 60.004 41.1786 60.2183 41.6709C61.1523 43.8082 64.9331 49.3657 79.0832 49.7798C79.0832 49.7798 95.1708 50.4995 99.4671 37.0893C100.235 34.6928 99.8088 32.0574 99.2499 29.6667C98.8082 27.7771 98.1262 25.1373 98.5519 22.9609C98.5519 22.9609 97.8612 23.85 97.98 27.0965C98.0379 28.6633 97.6933 30.2373 96.7506 31.4174C95.2186 33.3317 92.7309 33.8776 90.5487 34.021C89.2542 34.1049 87.9524 33.963 86.6579 33.8501C84.1368 33.63 81.6158 33.1883 79.0818 33.2376H79.0832Z" fill="url(#paint1_radial_1283_3994)"/>
<path style="mix-blend-mode:color-burn" d="M79.0832 33.2376C79.0832 33.2376 64.9708 32.851 60.3327 40.149C60.0489 40.595 60.004 41.1786 60.2183 41.6709C61.1523 43.8082 64.9331 49.3657 79.0832 49.7798C79.0832 49.7798 95.1708 50.4995 99.4671 37.0893C100.235 34.6928 99.8088 32.0574 99.2499 29.6667C98.8082 27.7771 98.1262 25.1373 98.5519 22.9609C98.5519 22.9609 97.8612 23.85 97.98 27.0965C98.0379 28.6633 97.6933 30.2373 96.7506 31.4174C95.2186 33.3317 92.7309 33.8776 90.5487 34.021C89.2542 34.1049 87.9524 33.963 86.6579 33.8501C84.1368 33.63 81.6158 33.1883 79.0818 33.2376H79.0832Z" fill="url(#paint2_radial_1283_3994)"/>
<path d="M60.0357 61.5956V61.5725C60.0357 61.4045 59.9315 61.2293 59.7331 61.0381C59.5651 61.2119 59.3262 61.3002 59.012 61.3002H58.0708C57.6754 61.3002 57.3728 61.1381 57.1759 60.8123C56.9789 60.4864 56.879 60.0622 56.879 59.5452C56.879 59.0283 56.9833 58.6098 57.1817 58.2782C57.3844 57.9466 57.6812 57.7786 58.0708 57.7786H58.1518C58.7774 57.7786 59.1814 58.3434 59.6013 58.7184C59.7172 58.8212 59.8866 58.9342 60.0473 58.8864C60.1371 58.8589 60.2153 58.798 60.279 58.73C60.5107 58.4853 60.6164 58.1291 60.6815 57.8076C60.6772 57.8279 60.5628 57.8539 60.5483 57.8583C60.447 57.8872 60.3384 57.9003 60.2327 57.8829C60.0459 57.8525 59.93 57.7048 59.8011 57.5817C59.5912 57.3804 59.3378 57.2284 59.0656 57.1285C58.7528 57.0141 58.4096 56.9721 58.078 56.9648C57.3395 56.9648 56.7531 57.2096 56.323 57.7033C55.8871 58.1913 55.6728 58.8024 55.6728 59.5336C55.6728 60.2649 55.8871 60.8818 56.3114 61.3755C56.7357 61.8635 57.3105 62.114 58.0432 62.114H58.7064C58.5501 62.6252 58.288 63.0437 57.9158 63.3695C57.5437 63.7011 57.102 63.8632 56.5909 63.8632C55.9161 63.8632 55.3702 63.5896 54.9459 63.0552C54.2827 62.2183 54.2205 61.1366 54.4073 60.1201C54.4492 59.8884 54.5159 59.6625 54.5419 59.4294C54.568 59.1948 54.5796 58.9153 54.4232 58.7199C54.2205 58.4636 53.5573 58.3767 52.5176 58.953C52.5379 58.9414 52.6479 59.0196 52.6638 59.0297C52.7724 59.0963 52.8738 59.1789 52.9549 59.2773C53.1431 59.5061 53.1359 59.7813 53.1272 60.0607C53.104 60.7413 53.0519 61.4291 53.2126 62.0981C53.3227 62.5557 53.5269 62.9857 53.8136 63.3579C53.8961 63.465 53.9844 63.5693 54.08 63.6649C54.7302 64.3396 55.5671 64.6698 56.5851 64.6698H56.6083C57.5263 64.6698 58.2995 64.3845 58.9265 63.8155C59.5535 63.2464 59.9199 62.5311 60.0256 61.6651C60.0314 61.642 60.0372 61.6188 60.0372 61.5956H60.0357Z" fill="#502D16"/>
<path d="M57.4718 65.6016C57.2821 65.6016 57.1155 65.6667 56.9751 65.797C56.8346 65.9274 56.7637 66.091 56.7637 66.2879C56.7637 66.4849 56.8317 66.647 56.9693 66.7716C57.1069 66.8961 57.269 66.9598 57.4558 66.9598C57.6426 66.9598 57.8077 66.8961 57.9525 66.7672C58.0973 66.6383 58.1683 66.4776 58.1683 66.2836C58.1683 66.0895 58.1002 65.9274 57.9626 65.797C57.8251 65.6667 57.6614 65.6016 57.4718 65.6016Z" fill="#502D16"/>
<path d="M55.689 65.6016C55.5007 65.6016 55.3342 65.6653 55.185 65.7913C55.0446 65.9245 54.9736 66.091 54.9736 66.2879C54.9736 66.4849 55.0417 66.647 55.1807 66.7716C55.3183 66.8961 55.4819 66.9598 55.6687 66.9598C55.8555 66.9598 56.022 66.8961 56.1639 66.7672C56.3058 66.6383 56.3782 66.4776 56.3782 66.2836C56.3782 66.0895 56.3102 65.9274 56.174 65.797C56.0379 65.6667 55.8758 65.6016 55.689 65.6016Z" fill="#502D16"/>
<path d="M66.2745 62.6797C66.0848 62.6797 65.9183 62.7434 65.7778 62.8723C65.6374 63.0011 65.5664 63.1619 65.5664 63.3559C65.5664 63.5499 65.633 63.7121 65.7677 63.8425C65.9024 63.9728 66.0631 64.0379 66.2542 64.0379C66.4454 64.0379 66.609 63.9728 66.748 63.8425C66.887 63.7121 66.9565 63.5485 66.9565 63.3516C66.9565 63.1546 66.8914 62.9925 66.761 62.865C66.6278 62.742 66.4656 62.6797 66.2745 62.6797Z" fill="#502D16"/>
<path d="M69.4966 55.2312C69.3735 55.3586 69.3112 55.5961 69.3112 55.9465V59.5376C69.304 60.7105 68.9029 61.297 68.1079 61.297H68.0674C67.6663 61.297 67.3665 61.1348 67.1696 60.8076C66.9727 60.4818 66.8742 60.0589 66.8742 59.5376V58.7716C66.8742 58.1026 66.9582 57.551 67.1261 57.1151C66.8959 57.0195 66.6584 56.9717 66.4108 56.9717C66.1632 56.9717 65.9764 57.034 65.8504 57.1571C65.7273 57.2845 65.6651 57.5249 65.6651 57.8768V59.5391C65.6651 60.712 65.264 61.2984 64.4618 61.2984H63.3294V58.7731C63.3294 58.1041 63.4177 57.5524 63.5915 57.1165C63.3555 57.021 63.1137 56.9732 62.8675 56.9732C62.6213 56.9761 62.436 57.0398 62.3086 57.1629C62.1811 57.286 62.1189 57.5249 62.1189 57.8782V62.1122C62.1189 63.2779 61.7221 63.8615 60.9315 63.8615H60.8909C60.5883 63.8615 60.3508 63.7702 60.1756 63.5892C59.97 63.7977 59.8672 63.986 59.8672 64.1496C59.8672 64.2003 59.8773 64.2495 59.8976 64.293C60.0105 64.5464 60.2842 64.6738 60.7201 64.6738H60.9315C61.6758 64.6738 62.2593 64.4305 62.6822 63.944C63.1064 63.4574 63.3207 62.8464 63.328 62.1122H64.4907C65.2379 62.105 65.8287 61.8472 66.2602 61.3303C66.7033 61.8516 67.2999 62.1122 68.05 62.1122H68.1166C68.8609 62.1122 69.4502 61.8603 69.8861 61.3564C70.3002 60.8901 70.5116 60.2877 70.5189 59.5507V56.8443C70.5189 56.1753 70.6029 55.6236 70.7708 55.1878C70.5406 55.0922 70.3031 55.043 70.0555 55.043C69.8079 55.043 69.6211 55.1067 69.4951 55.2327L69.4966 55.2312Z" fill="#502D16"/>
<path d="M72.1193 55.2302C71.989 55.3576 71.9238 55.5951 71.9238 55.9455V60.3084C71.9238 60.9745 71.8398 61.5248 71.6719 61.9592C71.9021 62.0591 72.1396 62.1083 72.3872 62.1083C72.6348 62.1083 72.8202 62.0446 72.9447 61.9186C73.0692 61.7912 73.1329 61.5537 73.1329 61.2033V56.8404C73.1329 56.1714 73.2227 55.6197 73.4008 55.1839C73.1677 55.0883 72.9288 55.0391 72.6826 55.0391C72.4364 55.0391 72.2496 55.1028 72.1193 55.2288V55.2302Z" fill="#502D16"/>
<path d="M103.548 55.2302C103.426 55.3576 103.362 55.5966 103.362 55.9455V59.5366C103.357 60.711 102.955 61.2974 102.159 61.2974L98.9575 61.2916C98.5795 61.2801 98.2943 61.1237 98.1031 60.8094C97.9062 60.4836 97.8063 60.0594 97.8063 59.5424C97.8063 59.0255 97.9048 58.607 98.1089 58.2754C98.2856 57.98 98.5723 57.8077 98.9155 57.7802C99.3383 57.7469 99.8075 57.8381 100.096 58.1711C100.206 58.2986 100.287 58.4477 100.39 58.5824C100.547 58.788 100.825 58.9922 101.083 58.8358C101.283 58.7156 101.393 58.4709 101.473 58.2609C101.528 58.1132 101.571 57.9597 101.603 57.8033C101.6 57.8178 101.518 57.8395 101.506 57.8439C101.423 57.8714 101.337 57.8873 101.25 57.8873C100.993 57.8859 100.879 57.7338 100.718 57.5644C100.617 57.4573 100.495 57.3689 100.365 57.2994C99.9639 57.0851 99.5048 56.9736 98.9995 56.962C98.261 56.962 97.6803 57.2068 97.2445 57.7005C96.8144 58.1885 96.6001 58.7996 96.6001 59.5308C96.6001 60.2621 96.797 60.8152 97.1808 61.2916H95.0999C94.722 61.2801 94.4252 61.1179 94.2166 60.7921C94.0371 60.4836 93.943 60.0652 93.9314 59.5482V58.7692C93.9314 58.1002 94.0183 57.5485 94.1993 57.1126C93.9661 57.02 93.7287 56.9678 93.4839 56.9678C93.2392 56.9736 93.0481 57.0373 92.9207 57.159C92.7932 57.2806 92.7237 57.5195 92.7237 57.8743V59.5366C92.7237 60.711 92.3284 61.2974 91.5378 61.2974C91.1367 61.2974 90.8398 61.1353 90.6429 60.8094C90.446 60.4836 90.3403 60.0594 90.3403 59.525C90.3403 58.8619 90.4272 58.3044 90.6082 57.8627C90.375 57.77 90.1376 57.7237 89.887 57.7237C89.6365 57.7237 89.4512 57.7874 89.3238 57.9148C89.1963 58.0423 89.1326 58.2812 89.1326 58.6302V59.5366C89.1326 60.711 88.7315 61.2974 87.9293 61.2974C87.5282 61.2974 87.2314 61.1353 87.0344 60.8094C86.8317 60.4836 86.7318 60.0594 86.7376 59.525C86.7376 58.8619 86.8245 58.3044 86.9881 57.8627C86.7608 57.77 86.5233 57.7237 86.2728 57.7237C86.0223 57.7237 85.8427 57.7874 85.7153 57.9148C85.5936 58.0423 85.5299 58.2812 85.5299 58.6302V59.5366C85.5299 60.711 85.1288 61.2974 84.3266 61.2974H82.9322V56.8404C82.9322 56.1714 83.0191 55.6197 83.2001 55.1839C82.9611 55.0912 82.7237 55.0391 82.4731 55.0391C82.2226 55.0391 82.0431 55.1028 81.9157 55.2302C81.7882 55.3576 81.7245 55.5966 81.7245 55.9455V61.1816C81.7245 61.9143 81.5623 62.5239 81.2307 63.0119C80.8586 63.5752 80.3417 63.8604 79.6785 63.8604C79.0153 63.8604 78.5041 63.5926 78.1551 63.064C77.6005 62.2227 77.5296 61.1961 77.7106 60.2273C77.7613 59.9609 77.8206 59.6945 77.8539 59.4251C77.8844 59.1804 77.9003 58.9227 77.7367 58.717C77.5339 58.4607 76.8707 58.3739 75.8311 58.9502C75.8513 58.9386 75.9672 59.0197 75.9845 59.0298C76.0975 59.0993 76.2003 59.1862 76.2814 59.2905C76.558 59.6452 76.4305 60.2013 76.4175 60.614C76.4001 61.1657 76.4349 61.7232 76.5739 62.2589C76.9591 63.7403 78.1436 64.6684 79.6712 64.6684H79.6886C80.5198 64.6684 81.2047 64.4353 81.7578 63.9589C82.3095 63.4883 82.6701 62.8729 82.8381 62.1112C82.8381 62.1112 84.4077 62.1112 84.4077 62.0996C85.1288 62.0881 85.7037 61.8318 86.128 61.3264C86.5696 61.8491 87.1677 62.1112 87.9177 62.1112H87.9351C88.691 62.1112 89.2948 61.8491 89.7364 61.3264C90.1781 61.8491 90.7761 62.1112 91.5378 62.1112C92.2995 62.1112 92.8917 61.8491 93.3333 61.3264C93.7808 61.8491 94.373 62.1112 95.1289 62.1112C95.1289 62.1112 95.1868 62.1112 95.1868 62.1054L102.172 62.1112C102.916 62.1112 103.503 61.8549 103.939 61.3496C104.351 60.8847 104.566 60.2867 104.571 59.5482V56.8404C104.571 56.1714 104.653 55.6197 104.822 55.1839C104.595 55.0912 104.357 55.0391 104.107 55.0391C103.856 55.0391 103.677 55.1028 103.549 55.2302H103.548Z" fill="#502D16"/>
<path d="M106.729 55.0405C106.485 55.0405 106.297 55.1042 106.166 55.2302C106.036 55.3562 105.971 55.5951 105.971 55.9455V60.3084C105.971 60.9745 105.887 61.5248 105.719 61.9592C105.949 62.0591 106.186 62.1083 106.434 62.1083C106.682 62.1083 106.867 62.0446 106.992 61.9186C107.116 61.7912 107.18 61.5537 107.18 61.2033V56.8404C107.18 56.1714 107.27 55.6197 107.448 55.1839C107.215 55.0883 106.976 55.0391 106.729 55.0391V55.0405Z" fill="#502D16"/>
</g>
<defs>
<linearGradient id="paint0_linear_1283_3994" x1="74.422" y1="23.6705" x2="96.3205" y2="61.9925" gradientUnits="userSpaceOnUse">
<stop stop-color="#F8EE64"/>
<stop offset="0.2" stop-color="#FBEC57"/>
<stop offset="0.4" stop-color="#F5C02B"/>
<stop offset="0.6" stop-color="#EC9E24"/>
<stop offset="0.8" stop-color="#EAB61F"/>
<stop offset="1" stop-color="#E19028"/>
</linearGradient>
<radialGradient id="paint1_radial_1283_3994" cx="0" cy="0" r="1" gradientUnits="userSpaceOnUse" gradientTransform="translate(80.0033 36.374) scale(16.4147 18.4435)">
<stop stop-color="#F8EE64"/>
<stop offset="0.2" stop-color="#FBEC57"/>
<stop offset="0.67" stop-color="#EC9E24"/>
<stop offset="1" stop-color="#E19028"/>
</radialGradient>
<radialGradient id="paint2_radial_1283_3994" cx="0" cy="0" r="1" gradientUnits="userSpaceOnUse" gradientTransform="translate(97.9955 21.4724) scale(60.2204 67.6634)">
<stop stop-color="#F8EE64"/>
<stop offset="1" stop-color="#E19028"/>
</radialGradient>
<clipPath id="clip0_1283_3994">
<rect width="160" height="90" fill="white"/>
</clipPath>
</defs>
</svg>
