<svg width="160" height="90" viewBox="0 0 160 90" fill="none" xmlns="http://www.w3.org/2000/svg">
<g clip-path="url(#clip0_1283_4329)">
<rect width="160" height="90" rx="16" fill="white"/>
<path d="M62.6539 70.2488C62.3144 70.2646 62.1674 70.3346 62.1394 70.6093C62.1184 70.8018 62.1026 71.0714 62.1026 71.6279V74.0202H61.9066L59.2203 70.9051H59.2115L59.208 72.3646C59.208 72.9159 59.2325 73.1994 59.2483 73.3709C59.2763 73.6824 59.4163 73.7559 59.8363 73.7874V73.9589H58.3732V73.7874C58.725 73.7629 58.8807 73.6859 58.9087 73.3867C58.9332 73.1994 58.9577 72.9159 58.9577 72.3646V71.0801C58.9577 70.6426 58.9367 70.6093 58.8265 70.4676C58.7005 70.3206 58.5692 70.2716 58.2822 70.2506V70.0703H59.222L61.8261 73.0227H61.8418V71.6279C61.8418 71.0714 61.8173 70.8018 61.8016 70.6303C61.7736 70.3486 61.6301 70.2716 61.1926 70.2506V70.0703H62.6521V70.2506L62.6539 70.2488Z" fill="#00AAAD"/>
<path d="M66.8687 73.9605V73.789C67.2485 73.7365 67.3027 73.6823 67.2205 73.4407C67.1347 73.2045 67.0245 72.9052 66.8932 72.5622H65.5807C65.4792 72.8352 65.3969 73.0697 65.3182 73.306C65.1869 73.67 65.2359 73.74 65.6979 73.789V73.9605H64.3486V73.789C64.7459 73.7278 64.8316 73.6875 65.0487 73.1555L66.3314 70.0369L66.5432 69.9844C66.9352 71.0432 67.329 72.1054 67.7332 73.1572C67.9292 73.684 68.015 73.7505 68.4123 73.7908V73.9623H66.867L66.8687 73.9605ZM66.2684 70.8052H66.2562C66.0602 71.3004 65.8677 71.8114 65.6839 72.2927H66.804L66.2684 70.8052Z" fill="#00AAAD"/>
<path d="M74.5393 74.9423C74.2277 74.9545 73.9022 74.9143 73.7132 74.86C73.5172 74.8075 73.0272 74.5783 72.2694 74.0428C71.9054 74.0305 71.3542 73.8905 70.9534 73.5282C70.5736 73.18 70.3076 72.669 70.3076 72.0809C70.3076 70.9644 71.1161 69.9844 72.4742 69.9844C73.5452 69.9844 74.5025 70.7824 74.5025 71.9829C74.5025 73.033 73.8077 73.7295 73.0675 73.95C73.4315 74.1863 74.0037 74.5468 74.5883 74.8093L74.5393 74.944V74.9423ZM72.6877 73.67C72.7489 73.7033 72.8067 73.74 72.8592 73.7803C73.337 73.649 73.8322 73.1222 73.8322 72.1492C73.8322 70.9189 73.1655 70.2066 72.3202 70.2066C71.6219 70.2066 70.9796 70.8034 70.9796 71.9164C70.9796 72.9262 71.5152 73.6578 72.2467 73.8048L72.6877 73.67Z" fill="#00AAAD"/>
<path d="M78.7893 71.0099C78.6825 70.6249 78.4953 70.1926 77.979 70.1926C77.5205 70.1926 77.3052 70.5164 77.3052 70.8419C77.3052 71.2637 77.587 71.4667 78.0858 71.7082C78.6055 71.9619 79.1445 72.2437 79.1445 72.9017C79.1445 73.5597 78.5968 74.055 77.762 74.055C77.5082 74.055 77.3035 74.0095 77.1495 73.957C76.9937 73.908 76.908 73.859 76.8467 73.831C76.8065 73.712 76.7155 73.1677 76.6787 72.879L76.8625 72.8265C76.964 73.2062 77.2632 73.8328 77.888 73.8328C78.3343 73.8328 78.595 73.558 78.595 73.1292C78.595 72.7005 78.2678 72.4922 77.8023 72.2455C77.377 72.0337 76.7925 71.7344 76.7925 71.0764C76.7925 70.4796 77.2755 69.9844 78.0718 69.9844C78.3623 69.9844 78.6353 70.0544 78.8645 70.1279C78.889 70.3396 78.917 70.5864 78.9713 70.9784L78.7875 71.0117L78.7893 71.0099Z" fill="#00AAAD"/>
<path d="M85.5499 70.2506C85.0424 70.2908 84.9934 70.3206 84.9934 70.8263V73.2064C84.9934 73.7139 85.0459 73.7454 85.5499 73.7874V73.9589H83.8523V73.7874C84.3791 73.7472 84.4281 73.7139 84.4281 73.2064V72.0374H82.3315V73.2064C82.3315 73.7087 82.3805 73.7454 82.8881 73.7874V73.9589H81.2238V73.7874C81.7138 73.7472 81.7593 73.7139 81.7593 73.2064V70.8263C81.7593 70.3188 81.7138 70.2908 81.208 70.2506V70.0703H82.8548V70.2506C82.3805 70.2908 82.3315 70.3206 82.3315 70.8263V71.7661H84.4281V70.8263C84.4281 70.3241 84.3791 70.2908 83.8926 70.2506V70.0703H85.5482V70.2506H85.5499Z" fill="#00AAAD"/>
<path d="M89.8599 73.9605V73.789C90.2397 73.7365 90.2939 73.6823 90.2117 73.4407C90.1259 73.2045 90.0157 72.9052 89.8844 72.5622H88.5719C88.4704 72.8352 88.3881 73.0697 88.3094 73.306C88.1781 73.67 88.2271 73.74 88.6891 73.789V73.9605H87.3398V73.789C87.7371 73.7278 87.8229 73.6875 88.0381 73.1555L89.3227 70.0369L89.5344 69.9844C89.9264 71.0432 90.3202 72.1054 90.7245 73.1572C90.9205 73.684 91.0062 73.7505 91.4035 73.7908V73.9623H89.8582L89.8599 73.9605ZM89.2597 70.8052H89.2474C89.0514 71.3004 88.8589 71.8114 88.6751 72.2927H89.7952L89.2597 70.8052Z" fill="#00AAAD"/>
<path d="M96.3035 71.0345C96.2388 70.7352 96.1723 70.576 96.0953 70.4745C95.9937 70.3362 95.887 70.2907 95.4215 70.2907H95.005V73.2063C95.005 73.6806 95.0575 73.7506 95.6385 73.7873V73.9589H93.8272V73.7873C94.3872 73.7506 94.4397 73.6858 94.4397 73.2063V70.2907H94.0844C93.5524 70.2907 93.4264 70.3485 93.3442 70.4745C93.2672 70.576 93.2129 70.7527 93.1359 71.0345H92.9521C92.9801 70.646 93.0099 70.2487 93.0221 69.918H93.1534C93.2427 70.0702 93.3214 70.0702 93.5017 70.0702H95.9797C96.1478 70.0702 96.2055 70.0335 96.2983 69.918H96.4295C96.4295 70.1927 96.4628 70.6547 96.4908 71.0135L96.307 71.0345H96.3035Z" fill="#00AAAD"/>
<path d="M102.373 70.2523C101.948 70.2978 101.866 70.3748 101.63 70.7388C101.355 71.1484 101.159 71.4704 100.861 72.0146C100.772 72.1739 100.755 72.2439 100.755 72.4066V73.1924C100.755 73.7034 100.8 73.7524 101.372 73.7892V73.9607H99.5943V73.7892C100.133 73.7524 100.188 73.7122 100.188 73.1924V72.4311C100.188 72.3051 100.16 72.2509 100.056 72.0671C99.8603 71.7276 99.6345 71.3356 99.288 70.7633C99.0465 70.3591 98.9695 70.2856 98.6055 70.2523V70.0721H100.123V70.2523C99.6818 70.3101 99.7063 70.3871 99.8113 70.5831C100.065 71.0416 100.368 71.5316 100.629 71.9814C100.849 71.5964 101.189 70.9961 101.357 70.6356C101.488 70.3573 101.467 70.2961 100.993 70.2506V70.0703H102.375V70.2506L102.373 70.2523Z" fill="#00AAAD"/>
<path d="M100.648 73.0298C103.16 72.9772 105.668 72.8162 108.179 72.762C108.632 72.7515 109.075 72.7182 109.437 72.4155C109.759 72.1477 110.244 71.3287 110.734 71.6997C110.856 71.7925 110.977 71.5842 110.855 71.4914C110.536 71.2499 110.156 71.3952 109.882 71.6315C109.518 71.9447 109.283 72.363 108.781 72.4732C108.322 72.573 107.813 72.5292 107.346 72.5415C106.954 72.552 106.562 72.5625 106.172 72.5765C105.204 72.6097 104.24 72.6727 103.272 72.713C102.398 72.7497 101.523 72.7707 100.648 72.79C100.494 72.7935 100.493 73.0333 100.648 73.0298Z" fill="#AA7455"/>
<path d="M108.099 72.8185C108.346 72.8395 108.554 73.0057 108.754 73.1387C108.971 73.2857 109.198 73.4082 109.445 73.4992C109.916 73.6725 110.424 73.704 110.914 73.6007C111.064 73.5692 111.001 73.3365 110.851 73.3697C110.35 73.4765 109.828 73.417 109.359 73.2087C108.936 73.0197 108.579 72.6225 108.101 72.5787C107.947 72.5647 107.949 72.8062 108.101 72.8185H108.099Z" fill="#AA7455"/>
<path d="M107.659 72.6384C107.953 71.9402 108.499 71.2576 109.26 71.0599C109.409 71.0214 109.346 70.7886 109.197 70.8289C108.349 71.0511 107.755 71.7984 107.428 72.5754C107.404 72.6349 107.456 72.7067 107.512 72.7224C107.58 72.7417 107.635 72.6979 107.659 72.6384Z" fill="#AA7455"/>
<path d="M59.9604 72.791C58.6811 72.7647 57.4018 72.7227 56.1225 72.6544C54.8432 72.5862 53.4904 72.5827 52.1761 72.5162C51.9118 72.5022 51.6493 72.4602 51.4253 72.3114C51.2013 72.1627 51.0403 71.9439 50.8548 71.7567C50.5661 71.4662 50.1338 71.2036 49.7523 71.4924C49.6298 71.5852 49.7505 71.7934 49.873 71.7007C50.3193 71.3629 50.7586 72.0227 51.0386 72.2974C51.3396 72.5932 51.6878 72.7227 52.1061 72.7525C52.9216 72.8085 53.7459 72.7927 54.5649 72.8225C55.496 72.8557 56.427 72.917 57.358 72.9555C58.2243 72.9922 59.0923 73.0132 59.9604 73.0307C60.1144 73.0342 60.1144 72.7945 59.9604 72.791Z" fill="#AA7455"/>
<path d="M52.5135 72.5805C52.034 72.6225 51.6788 73.0197 51.2553 73.2105C50.788 73.4187 50.2665 73.4782 49.7642 73.3715C49.6137 73.34 49.5489 73.571 49.7012 73.6025C50.1912 73.7058 50.6987 73.6743 51.1695 73.501C51.4075 73.4135 51.6298 73.2945 51.8415 73.1527C52.0533 73.011 52.2615 72.8412 52.5153 72.8185C52.6675 72.8045 52.6693 72.5647 52.5153 72.5787L52.5135 72.5805Z" fill="#AA7455"/>
<path d="M53.1812 72.5751C52.8557 71.7981 52.2607 71.0508 51.4119 70.8285C51.2614 70.79 51.1984 71.021 51.3489 71.0595C52.1102 71.259 52.6562 71.9398 52.9502 72.6381C52.9747 72.6976 53.0289 72.7396 53.0972 72.7221C53.1532 72.7063 53.2057 72.6346 53.1812 72.5751Z" fill="#AA7455"/>
<path d="M93.7189 32.8981C93.5982 32.9506 93.4704 32.9488 93.3374 32.8981C93.2044 32.8456 93.1099 32.7581 93.0592 32.6373C93.0014 32.5061 93.0014 32.3748 93.0574 32.2471C93.1134 32.1193 93.2009 32.0283 93.3217 31.9758C93.4529 31.918 93.5824 31.9145 93.7084 31.9653C93.8344 32.0143 93.9254 32.1053 93.9832 32.2383C94.0357 32.3591 94.0374 32.4851 93.9902 32.6163C93.9429 32.7476 93.8537 32.8421 93.7207 32.8998L93.7189 32.8981Z" fill="#00AAAD"/>
<path d="M94.4554 34.5831C94.3347 34.6356 94.2069 34.6339 94.0739 34.5831C93.9409 34.5306 93.8464 34.4431 93.7956 34.3224C93.7379 34.1911 93.7361 34.0581 93.7904 33.9234C93.8429 33.7904 93.9304 33.6959 94.0512 33.6451C94.1824 33.5873 94.3137 33.5873 94.4414 33.6433C94.5692 33.6976 94.6619 33.7921 94.7197 33.9234C94.7722 34.0441 94.7739 34.1701 94.7267 34.3014C94.6794 34.4326 94.5902 34.5271 94.4572 34.5849L94.4554 34.5831Z" fill="#00AAAD"/>
<path d="M99.1496 35.4566C99.1793 35.5564 99.2091 35.6562 99.2388 35.7577C99.6781 37.2977 99.9126 38.9218 99.9126 40.6018C99.9126 50.3339 92.0233 58.2232 82.2913 58.2232C72.5592 58.2232 64.6699 50.3339 64.6699 40.6018C64.6699 34.1984 68.086 28.5929 73.1945 25.5076C75.8493 23.9045 78.9626 22.9805 82.2913 22.9805" stroke="#AA7455" stroke-width="0.0711436" stroke-miterlimit="10"/>
<path d="M57.3497 44.9693C57.4774 44.9396 57.6034 44.9641 57.7242 45.0411C57.8467 45.1181 57.9219 45.2213 57.9499 45.3491C57.9814 45.4891 57.9587 45.6203 57.8817 45.7411C57.8047 45.8636 57.7014 45.9388 57.5737 45.9668C57.4337 45.9983 57.3059 45.9756 57.1887 45.8968C57.0732 45.8198 56.9997 45.7096 56.9682 45.5696C56.9384 45.4418 56.9594 45.3158 57.0312 45.1968C57.1029 45.0761 57.2079 45.0008 57.3479 44.9693H57.3497Z" fill="#00AAAD"/>
<path d="M57.7377 46.7435C57.8672 46.7138 57.9915 46.7348 58.1105 46.8066C58.2313 46.8783 58.3065 46.9833 58.338 47.1233C58.3695 47.2633 58.3468 47.3911 58.268 47.5066C58.191 47.6221 58.086 47.6956 57.9582 47.7236C57.8182 47.7551 57.6905 47.7341 57.5767 47.6623C57.463 47.5906 57.3895 47.4838 57.358 47.3438C57.3265 47.2038 57.3475 47.0761 57.4192 46.9623C57.491 46.8486 57.5977 46.775 57.7377 46.7435Z" fill="#00AAAD"/>
<path d="M64.9061 41.6172L64.3268 41.7064L64.3881 43.4197C64.059 43.2115 63.6723 43.075 63.2278 43.0102C62.7833 42.9455 62.316 42.9682 61.826 43.0785C61.4165 43.1712 61.0454 43.3165 60.7094 43.5143C60.3734 43.712 60.0917 43.9448 59.8642 44.2108C59.6366 44.4768 59.4739 44.7655 59.3776 45.0753C59.2814 45.3851 59.2691 45.6983 59.3409 46.0133C59.4126 46.3283 59.5579 46.6066 59.7767 46.8446C59.9954 47.0844 60.2667 47.2751 60.5869 47.4169C60.9072 47.5586 61.2625 47.6479 61.651 47.6829C62.0395 47.7179 62.4385 47.6899 62.8463 47.5971C63.3363 47.4869 63.7685 47.3066 64.1413 47.0564C64.5141 46.8061 64.9201 46.3213 65.1283 45.9923L65.5886 46.4439M64.192 46.2163C63.8105 46.5909 63.3153 46.8464 62.708 46.9846C62.3807 47.0581 62.0622 47.0844 61.749 47.0634C61.4375 47.0424 61.1574 46.9829 60.9072 46.8849C60.6587 46.7869 60.4504 46.6539 60.2824 46.4824C60.1144 46.3108 60.0042 46.1096 59.9517 45.8751C59.9009 45.6528 59.9149 45.4271 59.9919 45.1943C60.0689 44.9616 60.1984 44.7498 60.3804 44.5538C60.5642 44.3595 60.7917 44.1845 61.0629 44.0305C61.336 43.8765 61.6352 43.7628 61.9625 43.6893C62.5697 43.5528 63.1263 43.5703 63.632 43.7453C64.1378 43.9203 64.4773 44.202 64.6523 44.5923L64.7468 45.0123C64.7573 45.4393 64.5718 45.8401 64.1903 46.2146L64.192 46.2163Z" fill="#AA7455"/>
<path d="M81.2832 58.6502L81.075 58.5977C80.7004 58.5155 80.4554 58.5102 80.3382 58.5785C80.2227 58.6485 80.1317 58.8112 80.0669 59.0667L79.0361 63.1601L78.4271 63.0061L79.4579 58.9127C79.5244 58.645 79.6294 58.4315 79.7677 58.2687L77.8164 57.7769L76.6141 62.5493L76.005 62.3953L77.2056 57.6229L75.6025 57.2204L74.402 61.9928L73.793 61.8388L74.9935 57.0664" fill="#AA7455"/>
<path d="M74.7173 63.4497C74.7523 63.3097 74.8275 63.2064 74.9448 63.1364C75.062 63.0664 75.1898 63.0489 75.328 63.0839C75.4558 63.1154 75.5573 63.1907 75.6326 63.3097C75.7078 63.4269 75.7271 63.5564 75.6921 63.6947C75.6606 63.8224 75.5818 63.9239 75.4593 63.9974C75.3368 64.0709 75.2108 64.0919 75.083 64.0604C74.943 64.0254 74.8398 63.9467 74.7715 63.8242C74.7033 63.7017 74.6858 63.5774 74.7173 63.4497Z" fill="#00AAAD"/>
<path d="M75.261 64.9659C75.2925 64.8381 75.3713 64.7366 75.4938 64.6631C75.618 64.5896 75.7423 64.5686 75.87 64.6001C76.01 64.6351 76.1133 64.7139 76.1816 64.8364C76.2498 64.9589 76.2673 65.0831 76.2358 65.2109C76.2008 65.3509 76.1255 65.4541 76.0083 65.5241C75.8928 65.5941 75.765 65.6116 75.625 65.5749C75.4973 65.5434 75.3958 65.4681 75.3205 65.3509C75.2453 65.2336 75.226 65.1041 75.261 64.9659Z" fill="#00AAAD"/>
<path d="M76.4517 63.902C76.4867 63.762 76.5654 63.6587 76.6879 63.5905C76.8104 63.5222 76.9399 63.5065 77.0799 63.5415C77.2077 63.573 77.3092 63.6482 77.3845 63.7672C77.4597 63.8845 77.479 64.014 77.444 64.1522C77.4125 64.28 77.3337 64.3815 77.2112 64.455C77.0887 64.5285 76.9627 64.5495 76.8349 64.518C76.6949 64.483 76.5899 64.4043 76.5147 64.28C76.4412 64.1557 76.4202 64.0297 76.4517 63.9037V63.902Z" fill="#00AAAD"/>
<path d="M96.6222 51.0195L100.409 54.1609L100.009 54.6457L96.2197 51.5025" fill="#AA7455"/>
<path d="M101.118 55.8104C101.016 55.7264 100.959 55.6126 100.946 55.4691C100.932 55.3256 100.969 55.2031 101.053 55.1016C101.144 54.9913 101.261 54.9318 101.4 54.9231C101.54 54.9143 101.659 54.9528 101.76 55.0368C101.87 55.1278 101.932 55.2416 101.946 55.3764C101.958 55.5111 101.918 55.6336 101.827 55.7439C101.743 55.8454 101.631 55.9049 101.492 55.9224C101.354 55.9399 101.23 55.9031 101.118 55.8104Z" fill="#00AAAD"/>
<path d="M102.159 54.5472C102.057 54.4632 102 54.3495 101.987 54.206C101.973 54.0625 102.01 53.94 102.094 53.8385C102.178 53.737 102.292 53.6792 102.435 53.667C102.579 53.653 102.701 53.6897 102.803 53.7737C102.913 53.8647 102.973 53.9802 102.981 54.1202C102.99 54.2602 102.953 54.3792 102.868 54.4825C102.784 54.584 102.672 54.6435 102.533 54.661C102.395 54.6785 102.269 54.6417 102.159 54.549V54.5472Z" fill="#00AAAD"/>
<path d="M101.418 55.6328C101.425 55.6416 101.421 55.6731 101.404 55.7273C101.386 55.7816 101.364 55.8446 101.332 55.9198" fill="#AA7455"/>
<path d="M98.8791 35.9477L98.6078 35.3212L102.969 31.695C102.797 31.3905 102.549 31.1595 102.22 31.002C101.891 30.8445 101.501 30.862 101.051 31.058C100.897 31.1245 100.713 31.2733 100.5 31.5025C100.286 31.7318 100.06 31.996 99.8241 32.2936C99.5878 32.5911 99.3551 32.9043 99.1241 33.2316C98.8931 33.5588 98.6971 33.8494 98.5326 34.1031C98.4748 34.1801 98.3855 34.2449 98.2648 34.2974C98.067 34.3831 97.808 34.4321 97.4878 34.4479C97.1675 34.4619 96.8402 34.4216 96.5042 34.3254C96.1682 34.2291 95.8515 34.0664 95.5505 33.8371C95.2494 33.6078 95.0149 33.2998 94.8487 32.9131C94.6999 32.5701 94.6177 32.2288 94.5984 31.8893C94.5792 31.5498 94.6352 31.2243 94.7629 30.9128C94.8924 30.6012 95.1007 30.3107 95.3895 30.043C95.6782 29.7752 96.058 29.5372 96.5305 29.3325L97.5368 28.8984L97.787 29.476L96.7982 29.903C96.3922 30.0797 96.072 30.2757 95.841 30.4927C95.6082 30.7097 95.4455 30.9408 95.3475 31.1858C95.2512 31.429 95.2127 31.674 95.2337 31.919C95.2547 32.164 95.3159 32.4021 95.4157 32.6331C95.5487 32.9411 95.7395 33.1808 95.9897 33.3541C96.24 33.5273 96.4937 33.6446 96.7545 33.7094C97.0153 33.7724 97.2655 33.7986 97.5053 33.7864C97.745 33.7741 97.9253 33.7409 98.046 33.6901C98.2963 33.3348 98.5448 32.9813 98.7933 32.6331C99.0401 32.2848 99.2833 31.9645 99.5231 31.6723C99.7611 31.38 99.9921 31.128 100.213 30.9145C100.433 30.701 100.638 30.554 100.825 30.4735C101.144 30.3352 101.448 30.2705 101.739 30.2792C102.029 30.288 102.297 30.3475 102.542 30.4612C102.787 30.5732 103 30.7307 103.186 30.9303C103.37 31.1315 103.517 31.3573 103.627 31.611L103.685 31.7423C103.704 31.786 103.72 31.8385 103.732 31.898L99.3796 35.5014L99.4653 35.6992L98.8878 35.9494L98.8791 35.9477Z" fill="#AA7455"/>
<path d="M69.4055 29.0607C69.3793 29.0852 69.3303 29.1115 69.2568 29.1395C69.185 29.1675 69.108 29.1902 69.0258 29.2095C68.9453 29.2287 68.8753 29.241 68.8158 29.248C68.7563 29.255 68.723 29.255 68.7143 29.2462C68.7055 29.2375 68.709 29.206 68.723 29.1517C68.737 29.0975 68.758 29.031 68.7843 28.9557C68.8123 28.8805 68.8438 28.8087 68.8788 28.7422C68.9138 28.6757 68.9453 28.6302 68.9715 28.6039L69.948 27.6747L66.5547 24.1098L67.0097 23.6758L70.8353 27.6957L69.4038 29.0572L69.4055 29.0607Z" fill="#AA7455"/>
<path d="M80.1331 23.5215C80.0876 23.4778 79.8583 23.2363 79.9126 22.769C80.0473 21.586 81.8726 19.9584 85.336 17.9336L85.735 18.6144C81.2076 21.2622 80.7333 22.531 80.6966 22.8583C80.6878 22.9335 80.7001 22.9703 80.7053 22.979C80.7106 22.9878 80.6808 22.9563 80.6738 22.9458L80.1331 23.5198V23.5215Z" fill="#AA7455"/>
<path d="M82.3069 27.7661C78.3938 25.8568 73.3554 25.8935 73.3064 25.8953L73.2959 25.106C73.5112 25.1025 78.5688 25.0658 82.6535 27.0573L82.3069 27.7679V27.7661Z" fill="#AA7455"/>
<path d="M72.649 26.2073L71.8877 25.999C72.4827 23.8237 74.3185 21.4296 77.3426 18.8833C79.5722 17.0072 81.6635 15.7349 81.6845 15.7227L82.094 16.3982C82.0135 16.4472 73.9755 21.3613 72.649 26.2073Z" fill="#AA7455"/>
<path d="M66.0436 28.3159C66.1346 28.4122 66.1783 28.5312 66.1748 28.6747C66.1713 28.8182 66.1223 28.9354 66.0261 29.0264C65.9228 29.1262 65.8003 29.1717 65.6603 29.1629C65.5203 29.1559 65.4066 29.1034 65.3156 29.0089C65.2158 28.9057 65.1686 28.7849 65.1721 28.6502C65.1756 28.5154 65.2298 28.3982 65.3331 28.2984C65.4293 28.2074 65.5466 28.1619 65.6866 28.1602C65.8266 28.1602 65.9456 28.2109 66.0453 28.3159H66.0436Z" fill="#00AAAD"/>
<path d="M92.0086 47.291C91.501 46.3564 91.1668 45.6092 90.9655 45.1192C90.6838 44.4296 90.1377 43.8731 89.443 43.6036C87.9922 43.0383 87.0559 44.0971 87.0559 44.0971C86.5361 44.7411 86.3121 44.6659 86.3121 44.6659C85.0241 45.1612 85.1973 45.8297 85.1973 45.8297C86.6586 45.3589 87.0541 45.9539 87.0541 45.9539C83.9443 47.9053 83.6608 51.5506 83.6608 51.5506L79.3031 54.9685C78.4859 55.588 79.2034 56.281 79.2034 56.281C79.1299 56.9741 80.1204 56.7763 80.1204 56.7763C81.0864 57.5446 83.3143 55.266 83.3143 55.266C83.883 54.0777 85.0223 53.8292 85.0223 53.8292L84.8246 54.944V55.3395L86.5081 57.0476C86.5081 57.0476 86.8546 57.5428 86.2106 57.4938C86.2106 57.4938 85.4668 56.9496 85.1711 57.7668C85.1711 57.7668 85.5123 57.4693 85.7136 57.6426L86.8809 57.7668L87.4252 58.2621H87.7472L88.2914 58.5596L88.1917 58.2621L87.8697 58.0643L87.9187 57.8911H88.6992C88.6992 57.8911 89.009 57.8176 89.0825 57.9908C89.0825 57.9908 89.1822 57.7931 88.8847 57.6198L88.2407 57.7441C88.2407 57.7441 88.0674 57.5218 88.4892 57.4466L88.6992 57.5953L88.8357 57.5586L88.5749 57.2978C88.5749 57.2978 88.2162 57.2103 88.0674 57.4343L87.4357 57.4466L85.3181 55.2555L85.3548 54.9457H85.4161C86.3331 54.1775 86.3821 53.5597 86.3821 53.5597L87.7437 53.4354C93.5381 52.3959 92.0033 47.2945 92.0033 47.2945L92.0086 47.291Z" fill="#545456"/>
<path d="M90.9019 55.5801L89.8869 55.7779L87.6836 54.0698L87.7571 53.4258L87.0605 53.4888V54.1188L89.2411 55.8024C89.2411 55.8024 88.3766 56.2486 88.7108 56.5706L89.4161 56.0754L89.7626 56.3239L90.9264 56.5724L90.7042 56.0771L91.4217 56.4236L90.9754 55.9284H91.4217L90.9019 55.5819V55.5801Z" fill="#545456"/>
<path d="M88.0945 45.144C88.2723 45.144 88.4165 44.9999 88.4165 44.822C88.4165 44.6442 88.2723 44.5 88.0945 44.5C87.9166 44.5 87.7725 44.6442 87.7725 44.822C87.7725 44.9999 87.9166 45.144 88.0945 45.144Z" fill="#00AAAD"/>
<path d="M88.1145 44.9438C88.1831 44.9438 88.2387 44.8882 88.2387 44.8196C88.2387 44.7509 88.1831 44.6953 88.1145 44.6953C88.0459 44.6953 87.9902 44.7509 87.9902 44.8196C87.9902 44.8882 88.0459 44.9438 88.1145 44.9438Z" fill="black"/>
</g>
<defs>
<clipPath id="clip0_1283_4329">
<rect width="160" height="90" fill="white"/>
</clipPath>
</defs>
</svg>
