<svg width="161" height="90" viewBox="0 0 161 90" fill="none" xmlns="http://www.w3.org/2000/svg">
<g clip-path="url(#clip0_1283_4490)">
<rect x="0.5" width="160" height="90" rx="16" fill="white"/>
<path d="M36.1158 30.8047C35.6304 30.8047 35.234 30.9597 34.9266 31.2697C34.6191 31.5797 34.4641 31.9304 34.4641 32.3191V38.0136L34.4209 38.0263L30.0427 31.4933C29.7378 31.0334 29.2906 30.8047 28.7011 30.8047C28.2208 30.8047 27.827 30.9597 27.5144 31.2672C27.2044 31.5746 27.0469 31.9253 27.0469 32.3217V43.8198C27.0469 44.2086 27.2019 44.5567 27.5144 44.8642C27.8244 45.1716 28.2208 45.3266 28.7011 45.3266C29.1813 45.3266 29.5726 45.1742 29.8827 44.8642C30.1901 44.5567 30.3451 44.2086 30.3451 43.8198V38.1254L30.3883 38.1127L34.7665 44.6355C35.0765 45.0954 35.5288 45.3266 36.1183 45.3266C36.5986 45.3266 36.9924 45.1742 37.2999 44.8642C37.6073 44.5567 37.7623 44.2086 37.7623 43.8198V32.3217C37.7623 31.9329 37.6073 31.5822 37.2999 31.2722C36.9924 30.9622 36.5986 30.8072 36.1183 30.8072" fill="#4D4239"/>
<path d="M53.9902 31.7957C53.8733 31.5035 53.6776 31.2672 53.4007 31.0817C53.1262 30.8962 52.8061 30.8047 52.4452 30.8047C52.0844 30.8047 51.7642 30.8962 51.4873 31.0817C51.2103 31.2672 51.0146 31.5035 50.9003 31.7957L46.3036 43.2938C46.2375 43.4615 46.207 43.6343 46.207 43.8096C46.207 44.206 46.3595 44.5567 46.6695 44.8642C46.977 45.1716 47.3708 45.3266 47.8511 45.3266C48.2119 45.3266 48.5321 45.2326 48.809 45.0446C49.0835 44.8565 49.2791 44.6202 49.396 44.3356L50.2168 42.2901L50.2396 42.2749H54.4247L54.4476 42.2901L55.2759 44.356C55.5351 45.0039 56.0865 45.3266 56.9276 45.3266C57.4002 45.3266 57.8119 45.1818 58.1625 44.8947C58.5132 44.6075 58.686 44.2492 58.686 43.8198C58.686 43.6394 58.6529 43.4641 58.5894 43.2938L53.9927 31.7957H53.9902ZM51.439 39.2993L51.4161 39.2663L52.3258 37.0048L53.2355 39.2663L53.2152 39.2993H51.439Z" fill="#4D4239"/>
<path d="M73.9463 45.0395C74.5917 44.8489 75.1711 44.5643 75.692 44.1832C76.2104 43.8046 76.6195 43.3395 76.9218 42.7881C77.2217 42.2367 77.3741 41.6091 77.3741 40.9027C77.3741 40.1963 77.2191 39.6042 76.9066 39.1062C76.5966 38.6082 76.19 38.1838 75.692 37.8382C75.1939 37.4927 74.6603 37.2004 74.0937 36.9641C73.527 36.7278 72.9756 36.5169 72.4369 36.3365C71.9846 36.1815 71.5806 36.029 71.2274 35.8842C70.8742 35.7394 70.6099 35.592 70.4321 35.4471C70.2542 35.3023 70.1653 35.132 70.1653 34.9364C70.1653 34.5222 70.3406 34.2351 70.6887 34.0724C71.0572 33.9098 71.4866 33.8285 71.9719 33.8285C72.3658 33.8285 72.7901 33.8844 73.2399 33.9988C73.6897 34.1131 74.081 34.2808 74.4113 34.507C74.7162 34.7153 75.0542 34.8195 75.4226 34.8195C75.9029 34.8195 76.2967 34.6645 76.6042 34.357C76.9117 34.0496 77.0667 33.7015 77.0667 33.3127C77.0667 32.8477 76.8329 32.4411 76.3679 32.0981C75.7784 31.6712 75.0872 31.3485 74.2919 31.1299C73.4991 30.914 72.7266 30.8047 71.9745 30.8047C70.5286 30.8047 69.3369 31.1452 68.3967 31.8236C67.3015 32.6215 66.7552 33.7091 66.7552 35.0888C66.7552 35.7495 66.9026 36.3187 67.1974 36.7939C67.4921 37.2716 67.8784 37.6731 68.3586 38.0034C68.8389 38.3337 69.3521 38.6132 69.8985 38.8394C70.4448 39.0655 70.9809 39.2688 71.5069 39.4518C71.9872 39.6144 72.4166 39.7745 72.7952 39.932C73.1738 40.0896 73.4635 40.2547 73.6642 40.4275C73.865 40.5978 73.9666 40.8036 73.9666 41.045C73.9666 41.4668 73.7557 41.7768 73.3339 41.9776C72.8994 42.191 72.4496 42.2977 71.9846 42.2977C70.798 42.2977 69.8146 41.9903 69.0294 41.3753C68.7118 41.1289 68.3561 41.0069 67.9622 41.0069C67.4769 41.0069 67.0805 41.1619 66.7705 41.4694C66.463 41.7768 66.3105 42.1249 66.3105 42.5137C66.3105 42.9559 66.5215 43.3446 66.9407 43.68C68.3002 44.7752 69.9823 45.3215 71.9846 45.3215C72.6529 45.3215 73.3085 45.2275 73.9539 45.0344" fill="#4D4239"/>
<path d="M133.523 42.6103C133.206 42.3155 132.807 42.1681 132.329 42.1681H127.969L127.946 42.1427V32.2912C127.946 31.8592 127.771 31.5009 127.417 31.224C127.064 30.9444 126.655 30.8047 126.187 30.8047C125.72 30.8047 125.301 30.9444 124.947 31.224C124.594 31.5035 124.419 31.8592 124.419 32.2912V43.6826C124.419 44.0714 124.574 44.4195 124.881 44.7269C125.189 45.0344 125.583 45.1894 126.06 45.1894H132.329C132.809 45.1894 133.206 45.042 133.523 44.7473C133.841 44.4525 133.999 44.0993 133.999 43.6826C133.999 43.2659 133.841 42.905 133.523 42.6077" fill="#4D4239"/>
<path d="M86.8555 43.6735C86.8555 44.3139 87.2442 44.8627 87.7982 45.099C87.9837 45.1778 88.1895 45.2235 88.4055 45.2235H88.4309H94.8012C95.4873 45.2235 96.1531 44.8221 96.3538 44.1665C96.679 43.1043 95.8939 42.1337 94.8825 42.1337H89.9758L89.9504 42.1082V39.6511L89.9758 39.6282H94.8012C95.4873 39.6282 96.1531 39.2267 96.3538 38.5711C96.679 37.509 95.8939 36.5358 94.8825 36.5358H89.9758L89.9504 36.5129V34.0176L89.9758 33.9922H95.4365C95.9828 33.9922 96.4275 33.5475 96.4275 33.0012V31.8933C96.4275 31.3445 95.9828 30.9023 95.4365 30.9023H88.4055H88.3852H87.8465C87.2976 30.9023 86.8555 31.347 86.8555 31.8933V33.0241L86.8605 33.0698V38.0325L86.8555 38.0807L86.8605 38.129V43.6278L86.8555 43.6761V43.6735Z" fill="#4D4239"/>
<path d="M114.474 54.3634C114.138 54.155 113.726 54.1347 113.373 54.3075C112.982 54.5006 112.738 54.8894 112.738 55.3264V58.4925L112.715 58.5154H107.196C107.285 58.2181 107.331 57.9056 107.331 57.5803L107.321 57.3948L107.356 54.2948C107.361 53.939 107.201 53.6112 106.919 53.3927C106.637 53.1767 106.276 53.1081 105.936 53.2047C105.458 53.3393 105.13 53.7637 105.12 54.2617L105.062 57.6413C105.051 57.8928 104.96 58.0885 104.777 58.2588C104.589 58.4341 104.381 58.5129 104.121 58.5129H102.592C102.333 58.5129 102.127 58.4265 101.941 58.2359C101.753 58.0453 101.664 57.8369 101.664 57.5778V55.4814C101.664 55.0901 101.466 54.7293 101.133 54.5209C100.8 54.3125 100.391 54.2897 100.035 54.4599C99.6441 54.648 99.3926 55.0494 99.3926 55.484V57.5803C99.3926 57.8471 99.3062 58.058 99.1207 58.2435C98.9352 58.429 98.7268 58.5154 98.4702 58.5154H96.7753C96.5085 58.5154 96.3002 58.429 96.1147 58.241C95.9266 58.0504 95.8402 57.842 95.8402 57.5803V55.9236C95.8402 55.5297 95.642 55.1714 95.3092 54.9605C94.9763 54.7521 94.5672 54.7293 94.2114 54.8995C93.8201 55.0876 93.5686 55.489 93.5686 55.9236V57.5803C93.5686 57.8446 93.4822 58.0555 93.2941 58.241C93.1035 58.429 92.8952 58.5154 92.6335 58.5154H88.9846L88.9617 58.4925V55.3264C88.9617 54.9326 88.761 54.5717 88.4255 54.3634C88.0901 54.155 87.6785 54.1347 87.3253 54.3075C86.9314 54.5006 86.69 54.8894 86.69 55.3264V58.4925L86.6672 58.5154H79.3312L79.3084 58.4925V50.7856C79.3084 50.3613 79.0848 49.9877 78.7112 49.787C78.3377 49.5862 77.9032 49.604 77.55 49.8378C77.2298 50.0487 77.0367 50.4019 77.0367 50.7856V59.3895C77.0367 59.979 76.8283 60.472 76.3989 60.9014C75.9695 61.3283 75.474 61.5367 74.8845 61.5367H74.4703C73.9417 61.5367 73.4056 61.3842 73.0092 61.0361C72.4883 60.5787 72.2342 60.0426 72.2342 59.3895V58.1978C72.2342 57.7734 72.0106 57.3999 71.637 57.1991C71.2635 56.9959 70.829 57.0162 70.4732 57.25C70.1531 57.4609 69.96 57.8166 69.96 58.2003V59.2447C69.96 60.3195 70.2801 61.3995 70.984 62.2151C71.8962 63.2747 73.0473 63.8109 74.3915 63.8109H74.7828C75.784 63.8109 76.7877 63.5314 77.5728 62.9063C78.3072 62.3193 78.8154 61.6129 79.0822 60.8074L79.1025 60.7921H87.3863C87.8055 60.7921 88.1994 60.6295 88.4967 60.3322C88.8169 60.6244 89.2361 60.7921 89.6757 60.7921H92.6309C93.4237 60.7921 94.1149 60.5457 94.6892 60.0553H94.7171C95.2914 60.5457 95.98 60.7921 96.7728 60.7921H98.4676C99.2503 60.7921 99.9338 60.5457 100.503 60.0629H100.531C101.087 60.5482 101.781 60.7921 102.599 60.7921H104.126C104.891 60.7921 105.562 60.5609 106.129 60.101C106.457 60.5279 106.97 60.7921 107.521 60.7921H113.439C113.859 60.7921 114.252 60.6295 114.55 60.3348C114.847 60.04 115.017 59.6309 115.017 59.2142V55.329C115.017 54.9351 114.817 54.5743 114.484 54.3659" fill="#4D4239"/>
<path d="M82.9204 62.0156H82.9179C82.5494 62.0156 82.2013 62.1605 81.9421 62.4222C81.6804 62.6839 81.5381 63.032 81.5381 63.4005C81.5381 63.7689 81.6829 64.1171 81.9446 64.3762C82.2064 64.638 82.552 64.7803 82.9229 64.7803C83.2914 64.7803 83.6395 64.6354 83.8987 64.3737C84.1604 64.112 84.3027 63.7638 84.3027 63.3954C84.3027 63.0269 84.1579 62.6788 83.8961 62.4196C83.6344 62.1605 83.2888 62.0156 82.9204 62.0156Z" fill="#F3A726"/>
<path d="M87.3258 62.4196C87.0641 62.1605 86.7185 62.0156 86.3501 62.0156C85.9816 62.0156 85.6335 62.1605 85.3718 62.4222C85.1126 62.6839 84.9678 63.032 84.9678 63.4005C84.9678 63.7715 85.1126 64.117 85.3743 64.3788C85.6361 64.638 85.9816 64.7828 86.3526 64.7828C86.7211 64.7828 87.0667 64.638 87.3284 64.3762C87.5901 64.1145 87.7324 63.7664 87.7324 63.3979C87.7324 63.0295 87.5876 62.6814 87.3258 62.4222" fill="#F3A726"/>
<path d="M115.974 36.5625H104.999C104.313 36.5625 103.65 36.964 103.447 37.6196C103.121 38.6817 103.904 39.6524 104.918 39.6524H115.893C116.579 39.6524 117.244 39.2509 117.445 38.5953C117.77 37.5332 116.988 36.5625 115.974 36.5625Z" fill="#F3A726"/>
<path d="M107.186 34.0075H113.615C114.303 34.0075 114.972 33.6034 115.175 32.9453C115.503 31.8806 114.715 30.9023 113.698 30.9023H107.27C106.581 30.9023 105.913 31.3064 105.712 31.9645C105.384 33.0292 106.172 34.0075 107.188 34.0075H107.186Z" fill="#F3A726"/>
<path d="M113.997 28.2147C114.851 27.9834 115.298 27.2542 115.234 26.4309C115.173 25.6635 114.594 24.9799 113.847 24.7919C113.031 24.5861 112.239 24.9367 111.868 25.7753C111.479 26.6596 111.209 27.5997 110.798 28.7889L110.826 28.822C112.051 28.5984 113.044 28.4764 114 28.2172L113.997 28.2147Z" fill="#F3A726"/>
<path d="M106.91 28.2161C107.866 28.4752 108.859 28.5972 110.084 28.8208L110.112 28.7878C109.698 27.5986 109.431 26.6609 109.042 25.7741C108.674 24.9381 107.878 24.5875 107.063 24.7908C106.316 24.9788 105.736 25.6623 105.675 26.4297C105.609 27.2505 106.059 27.9823 106.913 28.2135L106.91 28.2161Z" fill="#F3A726"/>
<path d="M113.694 42.1641H107.217C106.203 42.1641 105.418 43.1373 105.743 44.1994C105.947 44.855 106.61 45.2539 107.299 45.2539H108.648H108.643C110.574 45.3022 109.928 49.5381 109.928 49.5381C109.928 49.5381 109.659 50.0438 109.522 50.2953C109.339 50.6257 109.113 50.9382 108.986 51.2863C108.625 52.3002 109.39 53.342 110.46 53.3471C111.527 53.3446 112.292 52.3002 111.933 51.2863C111.806 50.9382 111.58 50.6257 111.397 50.2953C111.26 50.0438 110.991 49.5381 110.991 49.5381C110.991 49.5381 110.345 45.3022 112.276 45.2565H112.271L113.621 45.2539C114.309 45.2539 114.972 44.855 115.176 44.1994C115.501 43.1373 114.716 42.1641 113.702 42.1641H113.694Z" fill="#F3A726"/>
</g>
<defs>
<clipPath id="clip0_1283_4490">
<rect width="160" height="90" fill="white" transform="translate(0.5)"/>
</clipPath>
</defs>
</svg>
