<svg width="161" height="90" viewBox="0 0 161 90" fill="none" xmlns="http://www.w3.org/2000/svg">
<g clip-path="url(#clip0_1283_4384)">
<rect x="0.5" width="160" height="90" rx="16" fill="white"/>
<path d="M80.3562 19C65.9294 19 54.2324 30.6956 54.2324 45.1238C54.2324 59.5521 65.928 71.2462 80.3562 71.2462C94.7844 71.2462 106.479 59.5506 106.479 45.1238C106.479 30.697 94.783 19 80.3562 19ZM80.3562 65.4543C69.1276 65.4543 60.0243 56.3525 60.0243 45.1238C60.0243 33.8952 69.1276 24.7919 80.3562 24.7919C91.5849 24.7919 100.688 33.8937 100.688 45.1238C100.688 56.3539 91.5849 65.4543 80.3562 65.4543Z" fill="url(#paint0_linear_1283_4384)"/>
<path d="M93.3214 32.1602V41.9279L90.5314 44.7179L88.1267 42.3132V37.3534H83.1684L80.7637 34.9487L83.5522 32.1602H93.3214Z" fill="url(#paint1_linear_1283_4384)"/>
<path d="M77.5261 52.9139L79.9308 55.32L77.1423 58.1085H67.373V48.3408L70.163 45.5508L72.5677 47.9569V52.9139H77.5261Z" fill="url(#paint2_linear_1283_4384)"/>
<path d="M79.9308 34.9487L77.5261 37.3534H72.5677V42.3118L70.163 44.7179L67.373 41.9279V32.1602H77.1423L79.9308 34.9487Z" fill="url(#paint3_linear_1283_4384)"/>
<path d="M93.3214 48.3408V58.1085H83.5522L80.7637 55.32L83.1684 52.9139H88.1267V47.9555L90.5314 45.5508L93.3214 48.3408Z" fill="url(#paint4_linear_1283_4384)"/>
<path fill-rule="evenodd" clip-rule="evenodd" d="M77.5151 46.8095C77.6082 46.4586 77.7471 46.1393 77.9305 45.8485C78.1811 45.4518 78.5119 45.1138 78.923 44.8345C79.049 44.7486 79.2495 44.6497 79.503 44.5366C78.5363 44.1127 77.4392 43.5827 76.6902 42.9611C76.2877 42.6274 75.9798 42.2722 75.8237 41.8984C75.7263 42.2035 75.6618 42.5358 75.6203 42.8824C75.5659 43.3364 75.5501 43.8033 75.5702 44.2702C75.5888 44.6741 75.6346 45.0808 75.7091 45.4776C75.7162 45.5162 75.7377 45.6337 75.7578 45.7382C75.6446 45.7024 75.5329 45.6638 75.4241 45.6208C75.2837 45.5664 75.1477 45.4976 75.0188 45.4146C74.9586 45.0479 74.9199 44.6727 74.9027 44.3003C74.8841 43.8964 74.8913 43.4954 74.9242 43.1044C74.5347 43.2533 74.231 43.4352 74.0162 43.6501C73.9933 43.6744 73.9732 43.7002 73.9532 43.7274C73.7985 43.9322 73.7312 44.1757 73.7412 44.4292C73.7527 44.6956 73.8501 44.9749 74.0262 45.2355C74.2754 45.6079 74.6807 45.9402 75.2164 46.1507C75.5959 46.2997 76.0184 46.4057 76.4495 46.5145C76.8033 46.6033 77.1614 46.6935 77.5166 46.8095H77.5151Z" fill="url(#paint5_linear_1283_4384)"/>
<path fill-rule="evenodd" clip-rule="evenodd" d="M77.1145 42.4488C77.9466 43.1391 79.3058 43.7321 80.3456 44.1746C81.5816 43.6505 83.2688 42.91 83.9777 42.055C84.8757 40.9693 83.5695 40.246 82.64 39.9925C82.6758 40.0412 82.7073 40.0899 82.736 40.1386C82.8821 40.3979 82.9236 40.6743 82.8806 40.9464C82.8391 41.2056 82.7188 41.4577 82.5326 41.6811C82.0743 42.2383 81.1935 42.6493 80.1623 42.5777C79.154 42.5075 78.5782 42.148 78.3376 41.727C78.2216 41.5236 78.1801 41.3059 78.203 41.0939C78.2259 40.8863 78.3118 40.6872 78.4508 40.5182C78.7372 40.1687 79.2557 39.9353 79.9016 40.0069V40.6814C79.4662 40.6113 79.1339 40.7387 78.9692 40.9407C78.9119 41.0123 78.8761 41.0896 78.8675 41.167C78.8589 41.2414 78.8747 41.3188 78.9177 41.3947C79.0594 41.6425 79.4576 41.8587 80.2052 41.9103C81.0101 41.9662 81.679 41.6668 82.0156 41.2572C82.4366 40.7459 82.1502 40.3406 81.5988 40.1C80.8297 39.7634 79.565 39.729 79.0924 39.7906C78.7114 39.8393 78.3462 39.9123 78.0082 40.0069C76.6891 40.375 75.7238 41.293 77.1159 42.4488H77.1145Z" fill="url(#paint6_linear_1283_4384)"/>
<path fill-rule="evenodd" clip-rule="evenodd" d="M81.641 48.5542C81.4476 48.7805 81.2758 49.0269 81.1225 49.289C81.038 49.4322 80.9592 49.5811 80.8848 49.7344C81.303 49.7086 81.6897 49.6456 82.042 49.541C82.5218 49.3992 82.9386 49.1801 83.288 48.8793C83.6103 48.6015 83.8867 48.2664 84.1216 47.8911C84.2691 47.6548 84.4009 47.4027 84.5155 47.1406L84.4367 47.1607C83.4413 47.4113 82.3972 47.672 81.6395 48.5557L81.641 48.5542Z" fill="url(#paint7_linear_1283_4384)"/>
<path fill-rule="evenodd" clip-rule="evenodd" d="M86.9757 44.4221C86.9642 44.6885 86.8668 44.9678 86.6907 45.2285C86.4415 45.6023 86.0361 45.9331 85.5005 46.1437C85.1209 46.2926 84.6984 46.3986 84.2673 46.5075C83.2734 46.7581 82.2336 47.013 81.3843 47.8423C80.7011 48.5083 80.6925 48.769 80.6925 49.9033V52.5644C80.7083 52.5357 80.724 52.5085 80.7412 52.4813C80.9131 52.2106 81.1508 51.9743 81.4473 51.8038C81.7452 51.632 82.0674 51.5432 82.3868 51.5303C82.6389 51.5203 82.8895 51.5561 83.1258 51.6348C83.0757 51.8783 82.9812 52.1132 82.848 52.3266C82.6747 52.5973 82.4369 52.8336 82.1419 53.0041C81.844 53.1745 81.5218 53.2647 81.2024 53.2776C81.0305 53.2848 80.8586 53.2704 80.6925 53.2346V55.2125L80.3574 54.8774L80.0222 55.2125V52.2106C79.8561 52.245 79.6842 52.2593 79.5138 52.2521C79.193 52.2378 78.8707 52.1504 78.5742 51.9786C78.2778 51.8081 78.0414 51.5733 77.8682 51.3011C77.7335 51.0892 77.639 50.8543 77.5889 50.6094C77.8252 50.5306 78.0758 50.4948 78.3279 50.5048C78.6487 50.5191 78.971 50.6065 79.2689 50.7798C79.5639 50.9502 79.8017 51.1851 79.9735 51.4558C79.9907 51.4816 80.0065 51.5088 80.0222 51.536V49.8818C80.0222 48.8005 79.9091 48.3851 79.3333 47.8423C78.9595 47.4914 78.5613 47.2336 78.1431 47.0431C78.219 46.7309 78.3365 46.4473 78.4955 46.1967C78.6945 45.8802 78.9624 45.608 79.2961 45.3817C79.4751 45.2614 79.9076 45.0781 80.4433 44.8504C81.7538 44.2961 83.6543 43.4898 84.4951 42.4729C84.6655 42.2681 84.7958 42.0561 84.8775 41.8398L84.8832 41.857C84.9877 42.1736 85.0551 42.5187 85.098 42.8753C85.1524 43.3294 85.1682 43.7963 85.1467 44.2632C85.1281 44.6785 85.0794 45.0967 85.0021 45.5035C84.9963 45.5336 84.9777 45.6352 84.962 45.7298C85.0737 45.694 85.184 45.6553 85.2928 45.6138C85.4317 45.5593 85.5692 45.4906 85.6981 45.4075C85.7583 45.0394 85.797 44.6671 85.8141 44.2918C85.8328 43.8879 85.8256 43.4855 85.7927 43.0945C86.0189 43.179 86.2152 43.2721 86.3827 43.3809C86.3827 43.3824 86.3827 43.3838 86.3827 43.3866C86.4271 43.4139 86.4672 43.4396 86.5059 43.4683C86.5761 43.5227 86.6405 43.58 86.6993 43.6416C86.7222 43.6659 86.7422 43.6917 86.7623 43.7189C86.917 43.9237 86.9843 44.1672 86.9742 44.4207L86.9757 44.4221Z" fill="url(#paint8_linear_1283_4384)"/>
<path fill-rule="evenodd" clip-rule="evenodd" d="M79.8372 49.7358C79.7627 49.5826 79.684 49.4336 79.5995 49.2904C79.4462 49.0297 79.2743 48.782 79.081 48.5557C78.3233 47.672 77.2807 47.4099 76.2839 47.1607L76.2051 47.1406C76.3197 47.4027 76.45 47.6548 76.5989 47.8911C76.8338 48.2664 77.1102 48.6015 77.4325 48.8793C77.7805 49.1801 78.1987 49.3992 78.6785 49.541C79.0309 49.6456 79.4176 49.71 79.8358 49.7344L79.8372 49.7358Z" fill="url(#paint9_linear_1283_4384)"/>
<path d="M64.3215 30.8479C64.2485 30.8493 64.1883 30.8765 64.1411 30.9281C64.0924 30.9825 64.0695 31.0455 64.0738 31.1186C64.078 31.1916 64.1067 31.2532 64.1611 31.3019C64.2127 31.3492 64.2757 31.3706 64.3473 31.3678C64.4204 31.3649 64.4805 31.3363 64.5292 31.2818C64.5765 31.2303 64.5979 31.1687 64.5937 31.0971C64.5894 31.0255 64.5607 30.9653 64.5091 30.9181C64.4547 30.8694 64.3917 30.845 64.3201 30.8479H64.3215Z" fill="white"/>
<path d="M64.7659 30.3518C64.6928 30.3532 64.6327 30.3804 64.5854 30.432C64.5367 30.4864 64.5138 30.5494 64.5181 30.6225C64.5224 30.6955 64.551 30.7571 64.6055 30.8058C64.657 30.8531 64.72 30.8746 64.7916 30.8717C64.8647 30.8688 64.9248 30.8402 64.9735 30.7858C65.0208 30.7342 65.0423 30.6726 65.038 30.601C65.0337 30.5294 65.005 30.4692 64.9535 30.422C64.8991 30.3733 64.836 30.3489 64.7644 30.3518H64.7659Z" fill="white"/>
<path d="M80.1987 20.3581C80.2732 20.3553 80.3376 20.3266 80.3892 20.2722C80.4408 20.2178 80.4651 20.1519 80.4622 20.0731C80.4594 19.9958 80.4293 19.9299 80.3734 19.8769C80.3176 19.8239 80.2517 19.7981 80.1772 19.801C80.0999 19.8039 80.0354 19.8339 79.9824 19.8912C79.9309 19.9485 79.9065 20.0158 79.9094 20.0932C79.9123 20.1705 79.9423 20.235 79.9982 20.2851C80.0541 20.3352 80.1214 20.3596 80.1987 20.3567V20.3581Z" fill="white"/>
<path d="M81.0265 21.0462C80.9592 20.933 80.8661 20.8471 80.7458 20.7855C80.6255 20.7254 80.4808 20.6981 80.3133 20.7039C80.1586 20.7096 80.0068 20.7483 79.8578 20.8184C79.7103 20.8886 79.5685 20.9832 79.4325 21.0992C79.2964 21.2166 79.1689 21.3498 79.0529 21.4988C78.9541 21.6262 78.8639 21.7566 78.7822 21.8926C78.7522 21.8869 78.7235 21.8826 78.7006 21.8754C78.6347 21.8568 78.5903 21.8296 78.566 21.7938C78.5416 21.758 78.5287 21.7165 78.5273 21.6692C78.5273 21.6463 78.5273 21.6176 78.533 21.5804C78.5373 21.5432 78.5445 21.5002 78.5545 21.4501C78.5645 21.3999 78.576 21.3398 78.5917 21.2725L78.1105 21.1736C78.0804 21.3126 78.0547 21.43 78.0332 21.526C78.0117 21.6219 77.9873 21.6993 77.9616 21.758C77.9344 21.8167 77.9 21.8597 77.8556 21.8855C77.8112 21.9127 77.751 21.927 77.6723 21.9299V21.9914L76.6697 22.1304C76.6482 22.1304 76.6267 22.1332 76.6024 22.1375L75.6027 22.3252C75.5812 22.3266 75.5597 22.3309 75.5354 22.3366L74.5443 22.5715C74.5242 22.5744 74.5013 22.5787 74.4784 22.5858L73.5002 22.8665C73.4801 22.8708 73.4572 22.8751 73.4343 22.8837L72.4704 23.2103C72.4504 23.2146 72.4289 23.2217 72.406 23.2303L71.4593 23.6013C71.4392 23.607 71.4177 23.6142 71.3962 23.6242L70.4667 24.0395C70.4467 24.0467 70.4266 24.0553 70.4051 24.0653L69.4971 24.5236C69.4771 24.5308 69.457 24.5408 69.437 24.5523L68.5518 25.0521C68.5332 25.0607 68.5132 25.0707 68.4917 25.0836L67.6281 25.625C67.6094 25.6336 67.5908 25.6451 67.5708 25.6594L66.7358 26.2394C66.7172 26.2495 66.6985 26.2623 66.6799 26.2767L65.8722 26.8954C65.855 26.9068 65.8363 26.9197 65.8177 26.9355L65.04 27.59C65.0228 27.6015 65.0057 27.6158 64.987 27.6316L64.3382 28.2317C64.2795 28.2345 64.2208 28.2675 64.1621 28.3319C64.1162 28.382 64.0633 28.4322 64.0031 28.4823C63.9429 28.5324 63.8742 28.5826 63.7997 28.6327C63.7252 28.6828 63.6422 28.7329 63.5519 28.7816C63.4617 28.8303 63.3643 28.879 63.2583 28.9292L63.5677 29.3774C63.645 29.3359 63.7138 29.303 63.7725 29.2757C63.8312 29.2485 63.8799 29.2299 63.9215 29.2185C63.963 29.207 63.9959 29.2013 64.0217 29.2027C64.0475 29.2041 64.069 29.2127 64.0862 29.2271C64.1234 29.2614 64.142 29.3058 64.1449 29.3617C64.1463 29.4175 64.1306 29.482 64.0976 29.555C64.0647 29.6281 64.016 29.7097 63.9515 29.7985C63.8871 29.8873 63.8097 29.9833 63.7167 30.085C63.6279 30.1838 63.5391 30.2611 63.4517 30.3198C63.3643 30.3786 63.2813 30.4172 63.1996 30.4387C63.118 30.4588 63.0406 30.4616 62.9676 30.443C62.8946 30.4258 62.8272 30.3886 62.7657 30.3327C62.727 30.2969 62.6912 30.2583 62.6568 30.2139C62.6239 30.1709 62.5895 30.1193 62.5565 30.062C62.5222 30.0048 62.4864 29.9389 62.4477 29.8658L62.0166 30.0993C62.071 30.2225 62.124 30.3284 62.1799 30.4144C62.2343 30.5017 62.2873 30.5748 62.3389 30.6349C62.389 30.6951 62.4362 30.7438 62.4792 30.7825C62.6439 30.9328 62.8158 31.0173 62.9919 31.0374C63.1681 31.0574 63.3471 31.0188 63.529 30.9214C63.7109 30.824 63.8928 30.675 64.0747 30.4745C64.2437 30.2883 64.3726 30.1136 64.4628 29.9503C64.5531 29.7856 64.6104 29.6367 64.6361 29.5006C64.6619 29.3645 64.6619 29.2471 64.6361 29.1483C64.6104 29.0495 64.5674 28.9721 64.5072 28.9163C64.4943 28.9048 64.4815 28.8919 64.4671 28.879C64.4528 28.8661 64.4356 28.8532 64.4127 28.8404C64.4256 28.826 64.4399 28.8117 64.4514 28.7974C64.4628 28.7831 64.4772 28.7702 64.4886 28.7559C64.4915 28.753 64.4944 28.7487 64.4972 28.7458L64.523 28.7773L65.3122 28.0483L66.1228 27.3666L66.9649 26.7221L67.8357 26.1177L68.7337 25.5548L69.6575 25.0335L70.6028 24.5566L71.5695 24.124L72.5578 23.7373L73.5618 23.3979L74.5801 23.1057L75.6127 22.8622L76.6539 22.6675L77.7138 22.5199C77.8026 22.507 77.8685 22.4755 77.9143 22.4254C77.9172 22.4254 77.9215 22.4254 77.9243 22.424C78.0117 22.4025 78.0933 22.3624 78.1721 22.3022C78.2265 22.2607 78.2752 22.202 78.3196 22.1289C78.3468 22.1647 78.3783 22.1977 78.4127 22.2292C78.47 22.2793 78.5459 22.3223 78.6433 22.3567C78.7393 22.391 78.8653 22.4154 79.02 22.4297C79.1747 22.444 79.3694 22.4469 79.6015 22.4383C79.9796 22.424 80.2818 22.3724 80.5081 22.2836C80.7344 22.1948 80.8962 22.0788 80.995 21.9342C81.0938 21.7895 81.1397 21.6262 81.1325 21.4429C81.1268 21.2925 81.091 21.1608 81.0237 21.0476L81.0265 21.0462ZM80.5596 21.6606C80.5238 21.7079 80.4637 21.7494 80.3777 21.7838C80.2918 21.8181 80.1772 21.8468 80.0326 21.8683C79.8879 21.8898 79.706 21.9055 79.4883 21.9127C79.4468 21.9141 79.4081 21.9155 79.3694 21.917C79.4124 21.8582 79.4568 21.7995 79.5055 21.7394C79.5814 21.6491 79.6616 21.5661 79.7461 21.4916C79.8306 21.4171 79.918 21.3555 80.0082 21.3083C80.0984 21.261 80.1887 21.2352 80.2789 21.2324C80.3534 21.2295 80.4164 21.241 80.4651 21.2667C80.5138 21.2925 80.5496 21.3255 80.5725 21.3656C80.5954 21.4057 80.6083 21.4501 80.6097 21.4973C80.6126 21.5575 80.5954 21.6119 80.5596 21.6592V21.6606Z" fill="white"/>
<path d="M82.1744 19.6721L81.6503 19.6406L81.5586 22.3934L82.0842 22.4249L82.1744 19.6721Z" fill="white"/>
<path d="M98.064 29.4016L99.3558 28.1169L98.9978 27.7259L97.7288 28.9791C97.6386 29.0693 97.5641 29.1323 97.5083 29.171C97.4524 29.2082 97.3994 29.2168 97.3479 29.1953C97.3035 29.1767 97.2476 29.1338 97.1831 29.0664C97.1746 29.0564 97.1645 29.045 97.1545 29.0349L96.4327 28.3174C96.4198 28.3016 96.404 28.2844 96.3854 28.2687L95.6321 27.5869C95.6177 27.5712 95.602 27.5554 95.5834 27.5397L94.7985 26.8923C94.7842 26.878 94.767 26.8622 94.7484 26.8479L93.9349 26.2378C93.9191 26.2235 93.9019 26.2091 93.8819 26.1963L93.0412 25.6248C93.0254 25.6119 93.0068 25.5976 92.9867 25.5861L92.1202 25.0548C92.103 25.0419 92.0844 25.0304 92.0644 25.0175L91.1721 24.5263C91.1549 24.5148 91.1363 24.5034 91.1134 24.4919L90.2011 24.0436C90.1839 24.0322 90.1638 24.0221 90.1409 24.0121L89.2085 23.6068C89.1899 23.5968 89.1699 23.5867 89.1469 23.5781L88.1959 23.2172C88.1773 23.2072 88.1558 23.1986 88.1329 23.1914L87.1662 22.8749C87.1476 22.8663 87.1261 22.8592 87.1032 22.852L86.1221 22.5813C86.102 22.5742 86.0805 22.567 86.0576 22.5613L85.0665 22.3378C85.0465 22.3307 85.025 22.3249 85.0006 22.3206L84.0539 22.1531C84.021 22.1373 83.9809 22.1259 83.9336 22.1201C83.7961 22.1044 83.7002 22.0729 83.6443 22.0256C83.5885 21.9783 83.5498 21.8938 83.5283 21.7692C83.524 21.7435 83.514 21.6948 83.4997 21.6217C83.4853 21.5501 83.4667 21.467 83.4438 21.3754C83.4209 21.2837 83.3908 21.1964 83.355 21.1133L82.838 21.2923C82.8895 21.4298 82.9325 21.563 82.9655 21.6933C82.9984 21.8237 83.0084 21.9411 82.997 22.0457C82.9855 22.1459 82.9526 22.2361 82.8967 22.3164C82.8423 22.3966 82.7692 22.4682 82.679 22.5312C82.5888 22.5942 82.4842 22.6486 82.3668 22.6959C82.2493 22.7432 82.1219 22.7804 81.9844 22.8105L82.1204 23.296C82.2751 23.2688 82.4269 23.2258 82.5745 23.1671C82.722 23.1084 82.858 23.0353 82.9826 22.9494C83.1058 22.8635 83.2104 22.7646 83.2949 22.6544C83.3479 22.5856 83.3894 22.5126 83.4209 22.4352C83.4596 22.4868 83.5097 22.5298 83.5727 22.5627C83.64 22.5985 83.7188 22.6214 83.8076 22.6343L83.8047 22.6429L84.8617 22.8305L85.8958 23.064L86.9155 23.3461L87.9238 23.6755L88.9163 24.0522L89.886 24.4733L90.8384 24.9416L91.7665 25.4529L92.6688 26.0058L93.5467 26.603L94.3946 27.2389L95.211 27.9135L95.9973 28.6253L96.7563 29.3801C96.7563 29.3801 96.7563 29.3801 96.7578 29.3815C96.8924 29.5262 97.017 29.6293 97.1316 29.6895C97.2505 29.7525 97.3607 29.7783 97.4639 29.7682C97.567 29.7582 97.6658 29.7195 97.7632 29.6522C97.8606 29.5849 97.9609 29.5018 98.064 29.3987V29.4016Z" fill="white"/>
<path d="M99.7577 28.5625L97.6953 30.3872L98.0319 30.791L100.094 28.9664L99.7577 28.5625Z" fill="white"/>
<path d="M63.4436 63.3239L63.3877 63.278L66.4512 61.5909L66.5601 61.207L66.8394 61.4333C67.09 61.6453 67.1358 61.8172 67.047 62.1337L66.096 65.4765L65.8167 65.2502C65.5632 65.044 65.5203 64.8664 65.6091 64.5498L65.8526 63.7106L64.5922 62.688L63.4436 63.3239ZM64.6538 62.6536L65.8683 63.6389L66.4226 61.6782L64.6538 62.6536Z" fill="white"/>
<path d="M69.6606 63.4609L69.7881 63.5268C70.0301 63.6428 70.2793 63.8305 70.0946 64.1914L68.6838 66.9398L69.261 67.2363C69.6577 67.4397 70.139 67.5757 70.4569 67.4153L70.2507 67.8178L68.5263 66.9327C68.2871 66.8095 68.0379 66.6233 68.2198 66.2681L69.6606 63.4609Z" fill="white"/>
<path d="M75.625 67.6001L75.6279 67.58C75.6365 67.5356 75.668 67.5399 75.7138 67.5485L77.0544 67.7848L77.0515 67.7977C77.0429 67.8493 77.01 67.8435 76.9656 67.835L75.625 67.5986V67.6001Z" fill="white"/>
<path d="M82.9414 69.7774L82.7981 69.796C82.5317 69.8303 82.2195 69.8189 82.168 69.4222L81.7598 66.2942L82.8697 66.1495C84.0513 65.9948 84.7102 66.4961 84.7832 67.0547C84.8405 67.4901 84.5641 67.9541 83.9654 68.1718C84.1559 68.1604 84.2833 68.2363 84.428 68.4282L85.2057 69.4823L84.7961 69.5353C84.4982 69.574 84.3106 69.4594 84.1688 69.2804L83.6116 68.5542C83.4369 68.3322 83.3925 68.2921 83.1591 68.3236L82.7566 68.3766L82.9399 69.7788L82.9414 69.7774ZM82.7494 68.3107L83.3925 68.2262C83.8666 68.1647 84.0699 67.6562 84.0055 67.1564C83.9296 66.5792 83.5157 66.1309 82.8855 66.214L82.483 66.267L82.7509 68.3122L82.7494 68.3107Z" fill="white"/>
<path d="M87.2374 68.9956L87.17 69.0199L87.2989 65.5253L87.0254 65.2346L87.3634 65.1114C87.6728 65.0054 87.8446 65.0555 88.0709 65.2933L90.4484 67.8283L90.1104 67.9515C89.8025 68.0632 89.6292 68.0073 89.4029 67.7696L88.8085 67.1294L87.2832 67.6837L87.2374 68.9956ZM87.2846 67.6135L88.7555 67.0793L87.3591 65.5955L87.2846 67.6149V67.6135Z" fill="white"/>
<path d="M91.5389 63.1142C92.5329 62.4812 93.4939 62.8936 94.0023 63.6799C94.505 64.4691 94.4749 65.5203 93.4767 66.1563L92.4326 66.8208L90.502 63.7745L91.5403 63.1142H91.5389ZM91.1379 63.4465L93.0041 66.3783L93.4409 66.1004C93.9436 65.781 93.7889 64.8071 93.3392 64.101C92.8837 63.3978 92.0702 62.8521 91.5733 63.1686L91.1364 63.4465H91.1379Z" fill="white"/>
<path d="M97.1931 63.3092L97.0857 63.4052C96.8866 63.5842 96.6231 63.7518 96.3552 63.4553L94.2441 61.1107L94.3516 61.0148C94.5506 60.8357 94.8099 60.6639 95.082 60.9646L97.1931 63.3092Z" fill="white"/>
<path d="M75.6016 67.2539L76.6925 67.4506C76.9138 67.4905 77.0605 67.7018 77.0206 67.9231L77.0171 67.9428L75.9261 67.7461C75.7048 67.7062 75.5581 67.4949 75.598 67.2736L75.6016 67.2539Z" fill="white"/>
</g>
<defs>
<linearGradient id="paint0_linear_1283_4384" x1="54.2324" y1="45.1224" x2="106.48" y2="45.1224" gradientUnits="userSpaceOnUse">
<stop stop-color="#AE1C88"/>
<stop offset="1" stop-color="#F15BCA"/>
</linearGradient>
<linearGradient id="paint1_linear_1283_4384" x1="80.7637" y1="38.439" x2="93.3214" y2="38.439" gradientUnits="userSpaceOnUse">
<stop stop-color="#AE1C88"/>
<stop offset="1" stop-color="#F15BCA"/>
</linearGradient>
<linearGradient id="paint2_linear_1283_4384" x1="67.373" y1="51.8297" x2="79.9308" y2="51.8297" gradientUnits="userSpaceOnUse">
<stop stop-color="#AE1C88"/>
<stop offset="1" stop-color="#F15BCA"/>
</linearGradient>
<linearGradient id="paint3_linear_1283_4384" x1="67.373" y1="38.439" x2="79.9308" y2="38.439" gradientUnits="userSpaceOnUse">
<stop stop-color="#AE1C88"/>
<stop offset="1" stop-color="#F15BCA"/>
</linearGradient>
<linearGradient id="paint4_linear_1283_4384" x1="80.7637" y1="51.8297" x2="93.3214" y2="51.8297" gradientUnits="userSpaceOnUse">
<stop stop-color="#AE1C88"/>
<stop offset="1" stop-color="#F15BCA"/>
</linearGradient>
<linearGradient id="paint5_linear_1283_4384" x1="73.7398" y1="44.3533" x2="79.503" y2="44.3533" gradientUnits="userSpaceOnUse">
<stop stop-color="#F7002F"/>
<stop offset="1" stop-color="#B70427"/>
</linearGradient>
<linearGradient id="paint6_linear_1283_4384" x1="76.4342" y1="41.9705" x2="84.2785" y2="41.9705" gradientUnits="userSpaceOnUse">
<stop stop-color="#F7002F"/>
<stop offset="1" stop-color="#B70427"/>
</linearGradient>
<linearGradient id="paint7_linear_1283_4384" x1="80.8848" y1="48.4368" x2="84.5155" y2="48.4368" gradientUnits="userSpaceOnUse">
<stop stop-color="#F7002F"/>
<stop offset="1" stop-color="#B70427"/>
</linearGradient>
<linearGradient id="paint8_linear_1283_4384" x1="77.5889" y1="48.5269" x2="86.9771" y2="48.5269" gradientUnits="userSpaceOnUse">
<stop stop-color="#F7002F"/>
<stop offset="1" stop-color="#B70427"/>
</linearGradient>
<linearGradient id="paint9_linear_1283_4384" x1="76.2065" y1="48.4382" x2="79.8372" y2="48.4382" gradientUnits="userSpaceOnUse">
<stop stop-color="#F7002F"/>
<stop offset="1" stop-color="#B70427"/>
</linearGradient>
<clipPath id="clip0_1283_4384">
<rect width="160" height="90" fill="white" transform="translate(0.5)"/>
</clipPath>
</defs>
</svg>
