<svg width="161" height="90" viewBox="0 0 161 90" fill="none" xmlns="http://www.w3.org/2000/svg">
<g clip-path="url(#clip0_1283_4436)">
<rect x="0.5" width="160" height="90" rx="16" fill="white"/>
<path d="M81.7472 24.3848C81.7472 25.3845 80.9377 26.1954 79.9366 26.1954C78.9355 26.1954 78.126 25.3859 78.126 24.3848C78.126 23.3837 78.9355 22.5742 79.9366 22.5742C80.9377 22.5742 81.7472 23.3837 81.7472 24.3848Z" fill="#767162"/>
<path d="M65.4076 27.3357C65.4305 27.31 65.4405 27.2785 65.4362 27.2428C65.2946 26.0586 65.3733 24.4811 66.0984 23.5358C67.7087 21.4334 70.8909 23.5072 69.957 25.8098C69.4063 27.167 67.3097 27.5016 66.7992 25.8798C66.7849 25.8326 66.782 25.7883 66.7934 25.7454C66.8034 25.7054 66.8149 25.7054 66.8263 25.7454C67.1209 26.7265 68.0606 27.0597 68.9315 26.5906C70.6191 25.681 69.5365 23.0395 67.7474 23.2569C65.1816 23.5701 66.2471 28.2239 66.7806 29.6869C66.822 29.7999 66.802 29.9 66.7176 29.9873C66.373 30.3477 66.054 30.1746 65.8881 29.7685C65.2403 28.1753 63.8373 26.3461 62.144 25.7583C60.2619 25.1047 59.1106 26.8552 60.3148 28.3755C60.3434 28.4127 60.3434 28.4327 60.3148 28.4398C60.2933 28.4456 60.269 28.4341 60.249 28.4127C59.4352 27.536 59.1892 26.3117 60.1832 25.4379C61.7278 24.0807 64.3364 26.0972 65.3332 27.3243C65.3547 27.35 65.389 27.3543 65.4062 27.3343L65.4076 27.3357Z" fill="#767162"/>
<path d="M75.6283 37.1474C75.9844 37.1746 76.741 37.1631 77.898 37.1116C78.7389 37.0744 80.192 37.0744 82.26 37.1088C83.2425 37.1245 83.9404 37.1031 84.3537 37.0416C86.6148 36.7055 88.7 35.168 89.4823 32.9827C90.4262 30.3484 88.9646 27.1519 86.1815 26.3839C84.6155 25.952 82.8049 26.6042 81.8509 27.97C80.7755 29.5103 81.1473 31.4525 82.6761 32.5408C83.989 33.4761 86.1057 32.7811 86.4418 31.1507C86.672 30.0337 85.8912 28.6836 84.5697 28.8596C83.2496 29.0355 82.8807 30.3627 83.5657 31.3867C83.5929 31.4281 83.5957 31.4553 83.5729 31.471C83.5528 31.4853 83.5142 31.4811 83.477 31.461C82.6118 30.9919 82.3329 30.0838 82.8034 29.22C83.4384 28.0544 84.8557 27.6782 86.0056 28.3261C87.4415 29.1356 87.8319 30.949 87.0024 32.3334C85.9441 34.1026 83.6673 34.5645 81.9611 33.4361C80.6582 32.5751 79.9231 31.0749 79.9974 29.5232C80.0861 27.6782 81.4162 26.0421 83.0723 25.3084C85.8182 24.0928 88.803 25.3485 90.3204 27.8341C93.125 32.425 89.7898 37.6637 84.9759 38.6762C84.4882 38.7792 83.7917 38.8393 82.8907 38.8593C80.7025 38.9065 78.5129 38.8993 76.3248 38.8364C75.6311 38.8164 75.0619 38.7578 74.6186 38.6619C70.7915 37.8367 67.9483 34.1011 68.5118 30.1839C68.9866 26.8802 71.9413 24.4847 75.265 24.8637C77.5876 25.1297 79.3753 27.0976 79.5155 29.393C79.6342 31.3123 78.5272 32.9355 76.6537 33.4518C74.5199 34.0411 72.5291 32.5322 72.6335 30.3383C72.685 29.2772 73.6418 28.3218 74.7001 28.2145C74.7344 28.2117 74.7344 28.2146 74.7001 28.2217C71.5938 28.9339 72.6421 33.2187 75.6326 33.2101C77.6134 33.2058 79.1222 31.4625 78.9348 29.4817C78.716 27.1705 76.751 25.563 74.4284 25.7246C72.296 25.8734 70.421 27.3564 69.8604 29.4688C69.3627 31.3466 69.9505 33.4533 71.1919 34.9163C72.3332 36.2621 73.8134 37.0044 75.6297 37.1445L75.6283 37.1474Z" fill="#ADA87B"/>
<path d="M92.8927 26.7857C96.5025 22.7054 102.252 25.5901 103.003 30.384C103.446 33.2158 101.973 35.8773 99.6288 37.4534C98.283 38.3587 96.7428 38.8306 95.0051 38.8707C93.5077 38.905 92.0089 38.9164 90.5129 38.9078C89.3059 38.9007 89.2787 37.0615 90.6846 37.0715C92.1147 37.0815 93.5463 37.0915 94.9765 37.1015C95.6215 37.1073 96.1392 37.0658 96.5297 36.9785C100.322 36.1362 103.07 31.9186 100.577 28.3017C99.5287 26.7814 97.7467 25.9248 95.9318 26.3738C94.4702 26.7357 93.1116 28.0099 92.9943 29.5931C92.7769 32.5307 95.959 34.0181 98.2273 32.1403C98.2516 32.1203 98.3074 32.1088 98.3302 32.1203C98.3474 32.1303 98.356 32.1574 98.346 32.1832C97.5765 34.3313 95.0308 34.5587 93.4047 33.2358C91.4025 31.6068 91.1908 28.7107 92.8942 26.7857H92.8927Z" fill="#ADA87B"/>
<path d="M59.5616 36.8966C59.6131 36.9023 59.6503 36.8837 59.6746 36.8394C59.6889 36.8137 59.6846 36.7779 59.6617 36.7507C58.0385 34.7027 58.12 32.1113 59.9006 30.2606C60.9103 29.2123 62.3776 28.7804 63.7863 29.1494C65.4825 29.5956 66.8369 31.3004 66.4593 33.1453C66.189 34.4682 64.929 35.7496 63.4974 35.5537C62.7781 35.455 62.0129 34.953 61.91 34.1736C61.8957 34.0692 61.9357 34.0448 62.0244 34.0978C64.4728 35.5465 66.5637 32.6261 64.4113 30.9557C63.1885 30.006 61.6783 30.3793 60.7601 31.5306C59.942 32.556 59.8376 33.9633 60.5055 35.1146C61.0905 36.1229 61.9915 36.7708 63.2057 37.0582C63.5003 37.1269 64.0895 37.1526 64.9719 37.1354C66.1275 37.1111 67.2817 37.0911 68.4372 37.0782C68.8377 37.0725 69.1209 37.1169 69.2853 37.2098C69.9446 37.5859 69.8631 38.6271 69.1395 38.876C69.0107 38.9203 68.7791 38.9403 68.4444 38.936C66.8898 38.9174 65.3037 38.8788 63.7792 38.9303C62.1345 38.9875 60.4955 39.1248 58.8537 39.1763C57.5479 39.2163 57.2176 37.3986 58.326 36.9438C58.715 36.7836 59.1269 36.8394 59.5616 36.8952V36.8966Z" fill="#ADA87B"/>
<path d="M90.8841 42.136C90.9041 41.9587 91.0028 41.8557 91.1787 41.83C94.6884 41.2894 98.1994 40.7545 101.71 40.2225C101.961 40.1838 102.145 40.181 102.264 40.2153C102.923 40.3984 102.795 41.3208 102.111 41.4052C98.5741 41.84 95.0387 42.279 91.5034 42.7238C91.0386 42.781 90.8312 42.5865 90.8827 42.136H90.8841Z" fill="#767162"/>
<path d="M66.5865 45.1548C69.2537 46.5492 70.3249 49.0963 70.1161 52.011C69.9273 54.6425 68.5444 56.7134 66.2032 57.8361C63.6561 59.0589 60.647 58.7729 57.9211 58.7486C57.891 58.7486 57.8682 58.7242 57.8682 58.6956V44.0908C57.8682 44.0622 57.8896 44.0393 57.9182 44.0393C60.8157 44.0378 63.9163 43.759 66.5865 45.1548ZM66.5064 47.2042C64.6715 45.5839 62.0857 45.6496 59.7717 45.6968C59.7417 45.6968 59.7188 45.7183 59.7188 45.744V57.0438C59.7188 57.0738 59.7517 57.0996 59.7917 57.101C61.9213 57.1182 64.4283 57.2483 66.2304 55.8696C68.7103 53.9718 68.8318 49.2594 66.5064 47.2057V47.2042Z" fill="#767162"/>
<path d="M84.0731 50.4166C82.806 50.4052 82.0251 50.5439 82.1166 48.9106C82.1195 48.8534 82.1638 48.8077 82.2167 48.8091L84.0016 48.8291C84.0817 48.8291 84.1475 48.7648 84.1432 48.6847C83.9959 45.9416 84.3749 44.1096 87.6385 44.0509C88.5967 44.0338 89.3962 44.0309 90.0369 44.0409C90.0669 44.0409 90.0898 44.0638 90.0927 44.0938C90.1842 45.2895 89.442 45.6255 88.4337 45.5984C86.0496 45.534 85.795 46.6438 85.9309 48.7676C85.9323 48.7977 85.9581 48.8191 85.9881 48.8205C86.7489 48.8377 87.5069 48.8434 88.2621 48.8391C88.9071 48.8363 89.2474 48.8377 89.2818 48.8449C90.0154 49.0007 90.0798 49.6901 90.0169 50.3494C90.014 50.3823 89.9868 50.4066 89.9554 50.4066L86.021 50.4095C85.9638 50.4095 85.9166 50.4509 85.9166 50.5024C85.9166 52.9351 85.9166 55.3893 85.9166 57.8606C85.9166 58.9018 84.9913 58.7116 84.2905 58.7802C84.2061 58.7888 84.1346 58.7273 84.1346 58.6487V50.4652C84.1346 50.4395 84.1089 50.4195 84.0774 50.4195L84.0731 50.4166Z" fill="#767162"/>
<path d="M77.4448 45.2229C77.4491 45.7664 76.9471 46.2112 76.3221 46.2155C75.6986 46.2198 75.1908 45.7836 75.1866 45.2387C75.1823 44.6952 75.6842 44.2504 76.3092 44.2461C76.9328 44.2418 77.4405 44.678 77.4448 45.2229Z" fill="#767162"/>
<path d="M101.099 52.7871C101.251 51.4771 100.869 50.579 99.5031 50.2686C98.0243 49.9325 96.4096 50.2314 94.9437 50.7792C94.9222 50.7878 94.9008 50.7706 94.9022 50.7492C94.9794 49.1302 96.0106 48.6397 97.508 48.4938C99.6218 48.2878 102.063 48.6068 102.721 50.958C102.827 51.3341 102.881 51.9391 102.881 52.7685C102.884 54.5906 102.881 56.4141 102.875 58.2347C102.875 58.2676 102.854 58.2947 102.825 58.3047C100.926 58.9412 98.6636 59.2229 96.6113 58.7867C94.978 58.4377 93.7738 57.2993 93.9569 55.5374C94.2987 52.2422 98.7894 52.4754 101.042 52.8329C101.071 52.8372 101.096 52.8172 101.099 52.7886M96.3424 56.8703C97.4236 57.8085 99.709 57.5396 101 57.1034C101.066 57.0805 101.111 57.0262 101.112 56.9675L101.122 54.2903C101.122 54.2259 101.082 54.1701 101.023 54.1544C99.7004 53.7883 97.6367 53.548 96.4897 54.3775C95.7003 54.9496 95.5558 56.1867 96.3424 56.8703Z" fill="#767162"/>
<path d="M75.8332 58.6442C75.5443 58.4497 75.4528 58.2323 75.4528 57.8676C75.4528 54.8843 75.4514 51.8981 75.4528 48.9062C75.4528 48.8504 75.5014 48.809 75.5572 48.8175C75.9076 48.8704 76.3095 48.7775 76.6041 48.8504C77.0117 48.9505 77.2176 49.2266 77.2205 49.6785C77.2405 52.659 77.2434 55.6638 77.2319 58.69C77.2319 58.7386 77.1861 58.7787 77.1318 58.7772L76.2394 58.7572C76.0763 58.7544 75.9419 58.7157 75.8346 58.6442H75.8332Z" fill="#767162"/>
<path d="M60.6312 61.2348C59.7274 61.2248 58.8249 61.232 57.9239 61.2563C57.8939 61.2563 57.871 61.282 57.871 61.3106C57.871 62.9825 57.871 64.653 57.8682 66.322C57.8682 66.5422 57.9568 66.618 58.1385 66.5479C58.1671 66.5365 58.1857 66.5093 58.1857 66.4793V64.0137C58.1857 63.9765 58.2085 63.945 58.2371 63.945L60.494 63.955C60.524 63.955 60.5512 63.9379 60.5597 63.9121C60.637 63.6947 60.554 63.5946 60.3095 63.6104C59.6215 63.6576 58.9322 63.659 58.24 63.6161C58.2085 63.6147 58.1842 63.5932 58.1842 63.5675V61.5738C58.1842 61.5438 58.2071 61.5209 58.2371 61.5209H60.7814C60.8114 61.5209 60.8372 61.5023 60.8486 61.4723C60.9216 61.2792 60.7914 61.2348 60.6298 61.2334L60.6312 61.2348Z" fill="#ADA87B"/>
<path d="M75.7552 63.0359C75.1689 63.0288 74.6554 63.0717 74.2164 63.1646C74.1835 63.1718 74.1592 63.1947 74.1592 63.2176V66.444C74.1592 66.4741 74.1763 66.5041 74.2035 66.5227C74.3794 66.6414 74.4538 66.5127 74.4509 66.3468C74.4438 65.39 74.4452 64.4303 74.4552 63.4678C74.4552 63.4378 74.4767 63.4106 74.5081 63.4063C75.412 63.2276 76.6005 63.0474 76.6934 64.3445C76.7435 65.0396 76.7521 65.7389 76.7192 66.4426C76.7192 66.4755 76.7349 66.5069 76.7621 66.5227C76.9223 66.6071 77.0009 66.5441 76.9981 66.3339C76.9938 65.7761 76.9909 65.2212 76.9895 64.6649C76.9866 63.6895 76.8579 63.0517 75.7552 63.0388V63.0359Z" fill="#ADA87B"/>
<path d="M99.4122 64.7009C99.4022 64.9955 99.4293 65.2172 99.4908 65.3659C100.04 66.686 101.234 66.7818 102.451 66.3213C102.5 66.3027 102.533 66.2784 102.539 66.2598C102.564 66.164 102.543 66.0782 102.473 66.0024C102.456 65.9838 102.417 65.9838 102.377 66.0024C101.296 66.5187 99.8212 66.3842 99.7611 64.8768C99.7597 64.8396 99.7783 64.8096 99.8055 64.8082L102.796 64.7939C102.822 64.7939 102.843 64.771 102.843 64.741C102.82 62.3097 99.4823 62.4498 99.4122 64.7009ZM102.428 64.4993L99.8241 64.5179C99.7869 64.5179 99.7626 64.4721 99.7712 64.4235C100.069 62.8917 102.121 62.7988 102.511 64.3734C102.527 64.4378 102.486 64.4993 102.427 64.4993H102.428Z" fill="#ADA87B"/>
<path d="M65.9848 63.0879C65.9634 63.1094 65.9505 63.1409 65.9491 63.178L65.9276 66.0856C65.9276 66.1156 65.9062 66.1428 65.8747 66.1499C65.1425 66.333 64.0327 66.4989 63.8239 65.4906C63.7609 65.1874 63.7481 64.4466 63.7867 63.271C63.791 63.1423 63.7495 62.9378 63.5722 63.0279C63.545 63.0422 63.5264 63.0736 63.5264 63.108C63.5121 63.7873 63.3676 65.4978 63.6866 66.057C64.1085 66.7978 65.4857 66.579 66.1936 66.3673C66.2237 66.3573 66.2451 66.3301 66.2451 66.2987C66.2551 65.3247 66.2637 64.3522 66.2737 63.3797C66.2737 63.2252 66.2652 62.8219 65.9877 63.0894L65.9848 63.0879Z" fill="#ADA87B"/>
<path d="M71.1896 63.1099C70.7133 63.1042 70.2414 63.1471 69.7723 63.2386C69.6979 63.2529 69.6436 63.3201 69.6436 63.3988V66.4422C69.6436 66.4822 69.665 66.5194 69.7036 66.5394C69.7651 66.5723 69.8323 66.5838 69.9053 66.5723C69.9267 66.5695 69.9425 66.5237 69.9425 66.4679V63.5632C69.9425 63.5232 69.9696 63.4889 70.0082 63.4803C70.3429 63.4145 70.6861 63.3859 71.0351 63.3931C71.1724 63.3959 71.4584 63.3788 71.2697 63.1499C71.2482 63.1256 71.2196 63.1113 71.1896 63.1113V63.1099Z" fill="#ADA87B"/>
<path d="M80.5509 63.0547H80.4666C80.4057 63.0547 80.3564 63.104 80.3564 63.1648V66.4599C80.3564 66.5207 80.4057 66.57 80.4666 66.57H80.5509C80.6118 66.57 80.6611 66.5207 80.6611 66.4599V63.1648C80.6611 63.104 80.6118 63.0547 80.5509 63.0547Z" fill="#ADA87B"/>
<path d="M91.9067 63.0298C91.8338 62.994 91.7623 62.9983 91.6936 63.0412C91.675 63.0526 91.6636 63.0927 91.6636 63.1413V66.0002C91.6636 66.0603 91.6193 66.1132 91.5563 66.1304C90.6124 66.3864 89.4926 66.455 89.4926 65.1078C89.4926 64.4456 89.4855 63.7792 89.474 63.1098C89.474 63.077 89.4554 63.0469 89.4282 63.0326C89.2094 62.9211 89.1708 63.1184 89.1751 63.2815C89.1923 64.008 89.2109 64.7317 89.2309 65.4539C89.2724 66.917 91.0472 66.6023 91.9039 66.342C91.9339 66.332 91.9525 66.3006 91.9525 66.2619V63.1141C91.9525 63.0741 91.9353 63.0412 91.9067 63.0283V63.0298Z" fill="#ADA87B"/>
<path d="M96.9301 63.0717C96.4553 63.066 95.9833 63.1032 95.5142 63.1804C95.4227 63.1947 95.3555 63.272 95.3555 63.3592V66.3754C95.3555 66.4441 95.3898 66.5056 95.4456 66.5356C95.5657 66.5985 95.6272 66.5714 95.6286 66.4541C95.6386 65.4873 95.6429 64.5176 95.6458 63.5451C95.6458 63.5137 95.6672 63.4851 95.6958 63.4765C95.9776 63.3935 96.3537 63.3563 96.8242 63.3678C97.0402 63.3735 97.1017 63.2891 97.0116 63.1161C96.9973 63.0889 96.9658 63.0703 96.9301 63.0703V63.0717Z" fill="#ADA87B"/>
<path d="M86.0706 66.2671H85.4371C84.9837 66.2671 84.6147 65.8996 84.6147 65.4448V63.3052H86.0091C86.0706 63.3052 86.1193 63.2566 86.1193 63.1951V63.1107C86.1193 63.0492 86.0706 63.0006 86.0091 63.0006H84.6147V61.7664C84.6147 61.7049 84.5661 61.6562 84.5032 61.6562H84.4202C84.3587 61.6562 84.3101 61.7049 84.3101 61.7664V63.0006H83.6365C83.575 63.0006 83.5264 63.0492 83.5264 63.1107V63.1951C83.5264 63.2566 83.575 63.3052 83.6365 63.3052H84.3101V65.4362C84.3101 66.0626 84.8178 66.5703 85.4442 66.5703H86.0706C86.1321 66.5703 86.1808 66.5217 86.1808 66.4602V66.3758C86.1808 66.3143 86.1321 66.2657 86.0706 66.2657V66.2671Z" fill="#ADA87B"/>
</g>
<defs>
<clipPath id="clip0_1283_4436">
<rect width="160" height="90" fill="white" transform="translate(0.5)"/>
</clipPath>
</defs>
</svg>
