<svg width="160" height="90" viewBox="0 0 160 90" fill="none" xmlns="http://www.w3.org/2000/svg">
<g clip-path="url(#clip0_1283_4209)">
<rect width="160" height="90" rx="16" fill="white"/>
<path d="M84.968 40.7401C84.5961 39.9892 83.1069 38.5416 83.1069 38.5416C83.0216 37.7471 83.379 37.9883 83.6801 37.7471C83.9812 37.5058 83.076 36.6659 82.9309 36.5752C82.7858 36.4845 82.9744 36.9144 82.793 36.8872C82.6116 36.8618 82.5137 37.1212 82.5137 37.1212C82.5137 37.1212 82.3704 36.8582 82.2416 36.5571C82.1128 36.256 82.1255 35.5467 81.9949 35.5159C81.8661 35.485 81.8987 35.6773 81.8842 35.8097C81.8697 35.9403 81.4108 35.5993 81.1949 35.5775C80.9809 35.5558 81.028 35.3744 81.0317 35.0352L75.0763 37.5457L74.2129 44.5495L79.8997 48.7961L86.4518 46.0352L86.9452 42.0353C86.5861 42.0426 85.9349 42.2984 85.9349 42.2984C85.6845 42.1551 85.3399 41.4893 84.968 40.7365V40.7401Z" fill="#FFB937"/>
<path d="M67.4649 47.5656L67.0313 51.0684L66.5996 54.5712L72.2883 58.8177L78.8404 56.055L79.4263 51.2969L79.7038 49.0512L74.0152 44.8047L67.4649 47.5656Z" fill="#FFB937"/>
<path d="M73.8972 44.5121L74.7606 37.5064L69.0738 33.2617L62.5217 36.0226L62.0899 39.5236L61.6582 43.0264L67.345 47.2729L73.8972 44.5121Z" fill="#FFB937"/>
<path d="M57.4271 24.1565L57.6357 24.0694C57.409 23.9805 57.1913 23.9007 56.9863 23.8281L57.4289 24.1583L57.4271 24.1565Z" fill="#FFB937"/>
<path d="M98.669 47.3636C98.2209 46.658 97.9144 46.4766 97.9144 46.4766L97.4663 47.0117C97.4663 47.0117 91.5563 46.6779 90.936 46.629C90.3156 46.5818 88.5016 43.8717 88.1261 43.2949C87.7506 42.718 87.2282 42.9829 87.2282 42.9829C87.3896 42.4985 87.3733 42.3353 87.2681 42.1992L86.791 46.0721L92.6302 50.4311L91.8303 56.9233C94.6347 55.6681 97.2142 54.2513 97.6586 54.0119C98.4894 53.5638 99.1007 49.3717 99.2059 48.8076C99.3111 48.2434 99.1207 48.0729 98.6708 47.3654L98.669 47.3636Z" fill="#FFB937"/>
<path d="M56.2088 54.6835L59.7316 57.3138L66.2837 54.5529L67.1471 47.5473L61.4603 43.3008L54.9082 46.0617L54.2461 51.4293C55.2057 52.6972 55.9512 53.8019 56.1236 54.4368C56.1453 54.5185 56.1744 54.6019 56.2088 54.6817V54.6835Z" fill="#FFB937"/>
<path d="M80.9291 34.2974C80.882 34.116 80.9473 34.2865 80.4557 34.1541C79.9659 34.0216 80.0548 34.223 79.9441 34.3554C79.8335 34.4878 79.7464 33.7604 79.7373 33.4539C79.7283 33.1473 79.565 33.0784 79.0716 32.799C78.5782 32.5197 79.0426 32.5632 78.6997 31.9047C78.3569 31.2462 77.303 31.6181 76.7588 31.6689C76.2146 31.7197 75.9352 30.6313 75.7629 30.4009C75.616 30.205 71.2497 30.4027 69.5827 30.4644L69.2725 32.9877L74.9611 37.2342L80.9074 34.7291C80.8239 34.6801 80.7133 34.662 80.6135 34.6057C80.4158 34.4951 80.9654 34.428 80.9328 34.301L80.9291 34.2974Z" fill="#FFB937"/>
<path d="M67.8322 30.1095C63.4678 26.8497 60.3114 25.1736 58.0784 24.2539L57.5578 24.4734L56.6943 31.4772L62.3812 35.7237L68.9333 32.9629L69.238 30.4904C69.1256 30.494 69.0403 30.4958 68.9895 30.4958C68.3419 30.494 67.8322 30.1095 67.8322 30.1095Z" fill="#FFB937"/>
<path d="M61.7109 59.4513C62.3893 60.0626 62.3404 60.4435 62.3512 60.9351C62.3603 61.4267 63.2528 61.7569 63.2528 61.7569C63.4342 62.9414 63.7879 63.2461 64.3992 63.4656C65.0105 63.6851 65.7452 64.2729 65.7452 64.2729C65.7452 64.2729 65.7742 65.0946 66.4182 65.6569C67.0622 66.2211 67.0966 66.9557 67.0966 66.9557C67.3742 67.1843 67.5302 67.1317 67.9184 66.5548C68.3047 65.978 68.1959 65.7476 68.0671 65.5245C67.9383 65.3014 68.1197 64.4035 68.1197 64.4035C69.2553 63.5817 70.1242 64.3654 70.1242 64.3654C70.3037 64.1241 70.8316 63.9917 71.4973 63.9246L72.0941 59.0903L66.4073 54.8438L59.8552 57.6046L59.8389 57.7425C60.51 58.0926 60.998 58.2958 60.998 58.2958C60.998 58.2958 61.0361 58.84 61.7145 59.4513H61.7109Z" fill="#FFB937"/>
<path d="M75.2042 63.9445C76.5411 64.0207 77.3901 63.7885 77.3901 63.7885C78.8032 65.314 79.2331 63.8665 79.5904 62.9976C79.8607 62.3427 81.0688 60.3274 83.0406 59.4095L78.9701 56.3711L72.4179 59.132L72.4089 59.2082L71.832 63.8937C72.9875 63.8175 74.4206 63.8973 75.2042 63.9427V63.9445Z" fill="#FFB937"/>
<path d="M62.1853 35.9809L56.4966 31.7344L49.9445 34.4953L49.0811 41.5009L54.7697 45.7456L61.3218 42.9847L61.7535 39.4819L62.1853 35.9809Z" fill="#FFB937"/>
<path d="M59.5368 57.5861V57.5734L56.6943 55.4492C57.4054 56.3109 58.59 57.0673 59.5368 57.5843V57.5861Z" fill="#FFB937"/>
<path d="M48.7364 41.6472L49.6471 34.2643L56.3733 31.4291L57.2386 24.418L56.0141 23.5038C55.7021 23.4094 55.4228 23.3332 55.1706 23.2679C53.1589 22.7455 52.5277 23.4892 52.1921 23.7341C51.8547 23.9772 48.4535 25.0239 47.9601 25.5318C47.4667 26.0397 50.9241 28.2237 50.516 28.3816C50.1078 28.5394 49.7142 29.2632 49.5056 29.7058C49.2988 30.1502 48.7473 30.2717 48.0381 30.4713C47.3288 30.6726 46.6268 31.868 46.2331 32.4195C45.8395 32.9709 44.3067 32.6208 43.5122 32.6136C42.7176 32.6063 42.8464 34.4403 42.7104 35.5287C42.5743 36.6171 42.5453 36.3377 43.2981 36.2869C44.0491 36.2361 44.8799 37.4188 44.8799 37.4188C45.8159 39.563 46.5597 39.5049 46.5597 39.5049C47.5428 41.9212 48.4879 41.8831 48.4879 41.8831C48.4879 41.8831 48.4117 42.5125 48.6403 43.8875C48.7927 44.7999 51.7912 48.2356 53.9535 51.0473L54.5757 46.0081L48.7364 41.6491V41.6472Z" fill="#FFB937"/>
<path d="M85.2337 58.9447C86.683 58.9864 89.1319 58.1066 91.4774 57.0763L92.2792 50.5786L86.5923 46.332L80.0402 49.0929L79.6085 52.5957L79.1768 56.0985L83.4052 59.2549C83.962 59.0444 84.5734 58.9247 85.2355 58.9447H85.2337Z" fill="#FFB937"/>
<path d="M86.7961 46.0868L87.2732 42.2139C87.2423 42.174 87.206 42.1377 87.1625 42.096C87.1244 42.0597 87.0519 42.0452 86.963 42.047L86.4696 46.0469L79.9175 48.8078L74.2306 44.5612L75.0941 37.5574L81.0494 35.0469C81.0494 35.0469 81.0494 35.0396 81.0494 35.036C81.0494 34.8655 80.9931 34.7893 80.9115 34.7421L74.9653 37.2472L69.2766 33.0007L69.5868 30.4774C69.4598 30.4829 69.3474 30.4865 69.2549 30.4883L68.9501 32.9608L62.398 35.7217L56.7112 31.4751L57.5746 24.4713L58.0952 24.2518C57.9447 24.1901 57.7977 24.1303 57.6544 24.0759L57.4458 24.1629L57.0032 23.8328C56.6477 23.7058 56.3212 23.6006 56.0218 23.5117L57.2463 24.426L56.381 31.437L49.6548 34.2723L48.7441 41.6552L54.5834 46.0142L53.9612 51.0535C54.0573 51.1786 54.1534 51.3038 54.246 51.4272L54.9081 46.0596L61.4602 43.2987L67.147 47.5452L66.2836 54.5508L59.7314 57.3117L56.2087 54.6814C56.3175 54.9445 56.4844 55.2021 56.6894 55.4524L59.5337 57.5766V57.5893C59.6389 57.6473 59.7423 57.7035 59.8421 57.7543L59.8584 57.6165L66.4105 54.8556L72.0974 59.1021L71.5006 63.9364C71.6094 63.9255 71.7201 63.9165 71.8343 63.9092L72.4112 59.2237L72.4203 59.1475L78.9724 56.3866L83.043 59.425C83.159 59.3706 83.2788 59.3198 83.4003 59.2745L79.1719 56.1181L79.6036 52.6153L80.0354 49.1125L86.5875 46.3516L92.2743 50.5982L91.4725 57.0959C91.5904 57.0451 91.7065 56.9925 91.8226 56.9399L92.6226 50.4476L86.7834 46.0886L86.7961 46.0868ZM61.3386 42.9921L54.7865 45.753L49.0997 41.5065L49.9631 34.5008L56.5152 31.74L62.2039 35.9865L61.7722 39.4893L61.3404 42.9921H61.3386ZM61.6651 43.032L62.0969 39.5292L62.5286 36.0264L69.0807 33.2655L74.7676 37.5121L73.9041 44.5159L67.352 47.2768L61.6651 43.0302V43.032ZM79.444 51.3183L78.8581 56.0764L72.306 58.8373L66.6191 54.5907L67.0509 51.0879L67.4826 47.5851L74.0347 44.8242L79.7234 49.0708L79.4458 51.3165L79.444 51.3183Z" fill="white"/>
<path d="M58.5559 53.6305C58.7808 53.2931 58.6992 52.7762 58.3273 52.1322C58.8371 52.1322 59.1962 51.9943 59.3795 51.7204C59.6389 51.3322 59.5083 50.7173 59.0148 49.9536C59.3631 49.8955 59.6262 49.7559 59.7803 49.5255C60.0488 49.1228 59.9345 48.5133 59.5173 47.8022C59.7114 47.7387 59.8602 47.6353 59.9581 47.4902C60.2665 47.0294 59.9817 46.2512 59.2724 45.3733C59.394 45.3225 59.4901 45.2499 59.5536 45.152C59.7658 44.8345 59.6262 44.323 59.1582 43.7135C58.721 43.1421 58.0426 42.5344 57.2462 42.0029C56.4499 41.4714 55.6281 41.0778 54.9334 40.8927C54.1915 40.695 53.6654 40.7621 53.4532 41.0796C53.3879 41.1775 53.357 41.2936 53.357 41.4242C52.2759 41.105 51.4469 41.1431 51.1403 41.6038C51.0424 41.7507 51.0043 41.9285 51.0206 42.1317C50.2043 42.0174 49.5985 42.1462 49.3282 42.5507C49.174 42.7811 49.1468 43.0768 49.2266 43.4214C48.3323 43.2582 47.7155 43.3743 47.4561 43.7625C47.2729 44.0364 47.2838 44.4209 47.4797 44.8926C46.7414 44.7964 46.2335 44.918 46.0068 45.2572C45.78 45.5964 45.8671 46.1243 46.2498 46.7809C45.8653 46.8227 45.5859 46.9587 45.4317 47.1909C45.2213 47.5065 45.2612 47.9673 45.5369 48.5314C45.3556 48.6076 45.2141 48.7164 45.1161 48.8634C44.8658 49.2371 44.9474 49.7885 45.2939 50.4343C45.2431 50.4833 45.1995 50.5359 45.1596 50.5939C44.7606 51.1925 45.0798 52.163 45.9124 53.1934C45.7909 53.8246 46.6362 54.8985 48.0221 55.8237C49.408 56.7488 50.7249 57.117 51.2619 56.7633C52.5335 57.137 53.5511 57.0608 53.952 56.4604C53.9901 56.4023 54.0228 56.3406 54.0482 56.2753C54.7774 56.3479 55.318 56.21 55.5665 55.8363C55.6644 55.6894 55.7116 55.5153 55.7116 55.3194C56.3392 55.3575 56.78 55.2178 56.9904 54.9021C57.1446 54.67 57.1646 54.3598 57.0557 53.9897C57.8085 54.0913 58.3273 53.9716 58.5559 53.6305ZM56.7419 54.7371C56.5841 54.9729 56.2159 55.0727 55.6826 55.0364C55.6354 55.0328 55.5864 55.0291 55.5374 55.0237C55.4903 55.0182 55.4413 55.0128 55.3905 55.0055C54.9098 54.9366 54.3239 54.7734 53.6636 54.5158C53.5892 54.4867 53.513 54.4559 53.4368 54.4251C53.357 54.3924 53.2754 54.3579 53.1938 54.3217C52.2795 53.9262 51.2437 53.3639 50.1499 52.6347C49.0561 51.9036 48.14 51.1635 47.4235 50.4706C47.36 50.4089 47.2965 50.3472 47.2348 50.2855C47.1768 50.2275 47.1206 50.1695 47.0643 50.1114C46.5727 49.5999 46.1991 49.1228 45.9505 48.7038C45.9251 48.6602 45.8997 48.6185 45.878 48.575C45.8544 48.5314 45.8308 48.4879 45.8109 48.4462C45.5732 47.9691 45.5243 47.5882 45.6803 47.3523C45.8036 47.1673 46.0594 47.0657 46.4204 47.0476C46.5836 47.2925 46.7832 47.5519 47.0208 47.8258C47.2602 48.1033 47.5287 48.3863 47.8244 48.6747C47.9006 48.7473 47.9768 48.8217 48.0566 48.896C48.1436 48.9777 48.2325 49.0575 48.3214 49.1391C49.1141 49.8538 50.0501 50.5758 51.0696 51.256C52.0891 51.9363 53.1158 52.524 54.079 52.9811C54.1878 53.0337 54.2985 53.0845 54.4055 53.1335C54.5035 53.177 54.6014 53.2206 54.6976 53.2623C55.0767 53.4256 55.4413 53.5652 55.7896 53.6795C56.1324 53.792 56.4499 53.8772 56.7383 53.9353C56.8617 54.2763 56.8653 54.5502 56.7419 54.7353V54.7371ZM55.318 55.6713C55.1275 55.9561 54.6994 56.0595 54.1135 56.0069C54.0663 56.0032 54.0173 55.9978 53.9665 55.9905C53.9194 55.9851 53.8704 55.9778 53.8196 55.9688C52.938 55.8255 51.7752 55.3865 50.5526 54.7135C50.3513 54.6028 50.1481 54.4849 49.9449 54.3616C49.7236 54.2273 49.5005 54.0859 49.2792 53.9389C49.0579 53.792 48.842 53.6396 48.6334 53.4872C48.4411 53.3457 48.2561 53.2043 48.0765 53.061C46.9845 52.1902 46.1337 51.2851 45.6639 50.525C45.6367 50.4815 45.6113 50.4397 45.5877 50.398C45.5623 50.3545 45.5388 50.3109 45.517 50.2692C45.2431 49.7486 45.176 49.3133 45.3646 49.0285C45.4354 48.9214 45.5406 48.8416 45.673 48.7836C45.8326 49.0575 46.0412 49.3513 46.297 49.6634C46.4077 49.7976 46.5256 49.9318 46.6489 50.0679C46.6961 50.1187 46.7432 50.1695 46.7922 50.2221C46.8412 50.2747 46.8956 50.3291 46.9482 50.3835C47.7645 51.2161 48.8184 52.076 49.9975 52.8632C51.1766 53.6505 52.3739 54.2926 53.4568 54.728C53.5275 54.7552 53.5965 54.7842 53.6654 54.8096C53.7307 54.835 53.7978 54.8604 53.8613 54.8822C54.0355 54.9457 54.2042 55.0019 54.3711 55.0527C54.7574 55.1706 55.1093 55.2504 55.4232 55.2922C55.4232 55.4373 55.3869 55.5642 55.3161 55.6713H55.318ZM53.7035 56.2953C53.3897 56.7651 52.5371 56.8177 51.4632 56.5257C51.4161 56.513 51.3671 56.4985 51.3181 56.4858C51.2691 56.4712 51.222 56.4567 51.1712 56.4422C50.344 56.1792 49.408 55.7293 48.4956 55.1198C47.5831 54.5103 46.8067 53.8192 46.2462 53.1553C46.2136 53.1154 46.1809 53.0773 46.1483 53.0374C46.1156 52.9975 46.0848 52.9594 46.0557 52.9195C45.3737 52.0397 45.0943 51.2324 45.4082 50.7626C45.4209 50.7427 45.4354 50.7263 45.4499 50.7082C45.8562 51.3558 46.5038 52.0814 47.3346 52.807C47.4217 52.8832 47.5106 52.9576 47.6013 53.0337C47.7119 53.1263 47.8244 53.217 47.9405 53.3076C48.3105 53.5997 48.706 53.8881 49.1286 54.1693C49.5513 54.4505 49.9685 54.7062 50.3803 54.9348C50.5091 55.0074 50.6379 55.0763 50.7649 55.1416C50.8701 55.196 50.9735 55.2486 51.0769 55.2994C52.0655 55.7892 52.9834 56.1103 53.738 56.2354C53.7271 56.2554 53.7162 56.2771 53.7035 56.2953ZM48.1745 55.5969C47.0897 54.8731 46.4058 54.0786 46.2353 53.5671C46.7868 54.1711 47.5033 54.7824 48.3432 55.3429C49.1831 55.9035 50.0229 56.3298 50.7921 56.6091C50.2533 56.6472 49.2592 56.3207 48.1745 55.5969ZM56.78 53.665C56.722 53.6541 56.6639 53.6414 56.6041 53.6269C55.9565 53.4782 55.1601 53.1934 54.2604 52.7707C54.1389 52.7145 54.0173 52.6546 53.8922 52.5929C53.7507 52.5222 53.6055 52.4478 53.4586 52.3716C52.7548 52.0016 52.002 51.5553 51.2202 51.0329C50.4383 50.5105 49.7381 49.9881 49.125 49.4801C48.998 49.3749 48.8747 49.2697 48.755 49.1645C48.6497 49.0738 48.5482 48.9831 48.4484 48.8924C47.7119 48.2249 47.1441 47.5972 46.7596 47.0567C46.7233 47.0059 46.6888 46.9569 46.6562 46.9079C46.6235 46.8589 46.5945 46.8118 46.5655 46.7664C46.19 46.1624 46.0757 45.6889 46.2553 45.4204C46.4349 45.152 46.9174 45.074 47.6212 45.1919C47.7972 45.5202 48.0493 45.883 48.3758 46.2712C48.7785 46.7519 49.2756 47.2508 49.8433 47.7514C49.9812 47.873 50.1209 47.9927 50.266 48.1142C50.4528 48.2702 50.6469 48.4262 50.8465 48.5804C51.2746 48.9124 51.7299 49.2389 52.2033 49.5563C52.6768 49.8738 53.1539 50.1676 53.6255 50.4361C53.845 50.5613 54.0627 50.681 54.2785 50.7935C54.4454 50.8805 54.6105 50.964 54.7756 51.0456C55.454 51.3776 56.107 51.6442 56.7056 51.8329C57.19 51.9853 57.6217 52.0796 57.9918 52.1159C58.3709 52.7217 58.4852 53.197 58.3056 53.4655C58.126 53.7339 57.6471 53.8101 56.9451 53.6958C56.8907 53.6868 56.8363 53.6777 56.7782 53.665H56.78ZM49.5785 42.7158C49.798 42.3856 50.3404 42.2986 51.075 42.4183C51.2728 43.1167 51.9748 44.0273 53.0214 44.9397C53.2337 45.1248 53.4586 45.308 53.6962 45.4912C53.9575 45.6907 54.235 45.8903 54.5252 46.0844C54.8155 46.2785 55.1057 46.458 55.3905 46.6231C55.6499 46.7737 55.9075 46.9097 56.1578 47.0349C57.4022 47.6516 58.5124 47.951 59.2325 47.8639C59.6243 48.497 59.7513 49.0303 59.5318 49.3604C59.403 49.5527 59.1636 49.6634 58.8407 49.6978C58.7881 49.7033 58.7337 49.7069 58.6774 49.7087C58.6212 49.7087 58.565 49.7087 58.5051 49.7087C57.3278 49.6652 55.3941 48.8979 53.4949 47.6299C51.5957 46.3619 50.1445 44.8726 49.6529 43.8005C49.6275 43.7461 49.6057 43.6935 49.5858 43.6409C49.5658 43.5883 49.5477 43.5375 49.5332 43.4867C49.4406 43.1747 49.4497 42.9117 49.5785 42.7194V42.7158ZM53.7035 41.2465C53.9829 40.8274 55.4467 41.1267 57.0975 42.2296C58.7482 43.3307 59.5863 44.566 59.3069 44.9869C59.2597 45.0576 59.1799 45.1066 59.0729 45.1356C59.0257 45.1483 58.9713 45.1574 58.9133 45.1629C58.8588 45.1683 58.799 45.1683 58.7337 45.1665C58.1006 45.1429 57.0521 44.7638 55.9129 44.0037C54.7738 43.2437 54.0228 42.4201 53.7561 41.8451C53.7289 41.787 53.7071 41.7308 53.6908 41.6782C53.6727 41.622 53.6618 41.5693 53.6545 41.5204C53.64 41.4097 53.6545 41.3172 53.7017 41.2465H53.7035ZM53.4096 41.7272C53.4804 41.963 53.6291 42.2296 53.8504 42.5199C54.2296 43.0169 54.7937 43.5411 55.4576 44.0182C55.5574 44.0908 55.659 44.1597 55.7624 44.2305C55.8658 44.3012 55.971 44.3665 56.0744 44.4318C56.7691 44.8617 57.4693 45.181 58.0752 45.3406C58.4289 45.435 58.7319 45.4676 58.9768 45.444C59.677 46.2785 59.9418 46.9787 59.7096 47.3251C59.6389 47.4303 59.5191 47.5065 59.3595 47.5519C59.3142 47.5646 59.267 47.5755 59.2144 47.5827C59.1654 47.59 59.1128 47.5954 59.0566 47.5972C58.1568 47.6444 56.517 47.0857 54.6758 45.8576C52.8364 44.6295 51.69 43.3307 51.3889 42.48C51.3707 42.4274 51.3544 42.3766 51.3417 42.3294C51.329 42.2786 51.3199 42.2296 51.3145 42.1843C51.2945 42.0192 51.3181 41.8795 51.3889 41.7743C51.6211 41.426 52.3684 41.4043 53.4078 41.729L53.4096 41.7272ZM51.4251 46.38C51.5938 46.5306 51.7698 46.6812 51.9548 46.8317C52.3793 47.1782 52.8455 47.5228 53.3443 47.8566C53.8432 48.1904 54.3402 48.4879 54.8245 48.7473C55.0332 48.8598 55.2399 48.965 55.4431 49.0629C56.731 49.6833 57.8866 50.008 58.7028 49.9844C59.1799 50.6901 59.3359 51.2506 59.1328 51.5572C58.9858 51.7785 58.6448 51.8764 58.1514 51.851C58.0952 51.8474 58.0353 51.8438 57.9754 51.8365C57.9156 51.8311 57.8539 51.822 57.7904 51.8129C56.8127 51.6678 55.4032 51.1381 53.7833 50.2166C53.3226 49.9554 52.8473 49.6615 52.3575 49.335C51.8678 49.0085 51.4143 48.682 50.997 48.3573C49.5241 47.2163 48.4956 46.117 47.9858 45.2699C47.9532 45.2155 47.9223 45.161 47.8933 45.1084C47.8643 45.054 47.8371 45.0032 47.8135 44.9506C47.5994 44.5062 47.5595 44.1525 47.7083 43.933C47.9133 43.6264 48.4883 43.5557 49.3245 43.7262C49.6166 44.4899 50.3603 45.4331 51.427 46.3837L51.4251 46.38Z" fill="#6F4527"/>
<path d="M46.251 53.5625C46.4215 54.074 47.1054 54.8686 48.1901 55.5924C49.2749 56.3161 50.2708 56.6426 50.8077 56.6046C50.0386 56.3252 49.1987 55.8989 48.3588 55.3384C47.519 54.7779 46.8024 54.1666 46.251 53.5625Z" fill="white"/>
<path d="M53.7433 56.2147C52.9886 56.0896 52.0708 55.7685 51.0821 55.2787C50.9788 55.2279 50.8754 55.1753 50.7701 55.1209C50.6432 55.0538 50.5144 54.9848 50.3856 54.9141C49.9738 54.6855 49.5548 54.4298 49.1339 54.1486C48.7131 53.8674 48.3158 53.579 47.9458 53.2869C47.8297 53.1962 47.7172 53.1037 47.6066 53.013C47.5159 52.9368 47.427 52.8625 47.3399 52.7863C46.5073 52.0607 45.8597 51.3351 45.4552 50.6875C45.4407 50.7056 45.4261 50.7238 45.4134 50.7419C45.0996 51.2117 45.379 52.019 46.061 52.8987C46.0919 52.9387 46.1227 52.9767 46.1536 53.0167C46.1862 53.0566 46.217 53.0947 46.2515 53.1346C46.812 53.7985 47.5866 54.4896 48.5008 55.0991C49.4133 55.7086 50.3493 56.1585 51.1765 56.4215C51.2255 56.4378 51.2744 56.4523 51.3234 56.465C51.3724 56.4796 51.4195 56.4923 51.4685 56.505C52.5424 56.797 53.395 56.7444 53.7088 56.2746C53.7215 56.2546 53.7324 56.2347 53.7433 56.2147Z" fill="white"/>
<path d="M55.429 55.2859C55.1152 55.2442 54.7633 55.1644 54.3769 55.0465C54.2118 54.9957 54.0413 54.9395 53.8671 54.876C53.8018 54.8524 53.7365 54.827 53.6712 54.8034C53.6023 54.7762 53.5316 54.749 53.4626 54.7218C52.3797 54.2882 51.1825 53.6443 50.0034 52.857C48.8243 52.0697 47.7703 51.2117 46.9541 50.3773C46.9015 50.3229 46.8488 50.2703 46.7981 50.2158C46.7473 50.1614 46.7019 50.1124 46.6547 50.0616C46.5296 49.9256 46.4117 49.7895 46.3028 49.6571C46.0452 49.3451 45.8366 49.0513 45.6788 48.7773C45.5446 48.8354 45.4412 48.9152 45.3704 49.0222C45.18 49.307 45.2489 49.7424 45.5228 50.263C45.5446 50.3047 45.5682 50.3483 45.5936 50.3918C45.6171 50.4335 45.6425 50.4752 45.6698 50.5188C46.1396 51.2788 46.9921 52.184 48.0824 53.0547C48.2619 53.198 48.447 53.3395 48.6392 53.481C48.8479 53.6334 49.0637 53.7858 49.285 53.9327C49.5063 54.0796 49.7295 54.2211 49.9508 54.3554C50.1539 54.4787 50.3571 54.5948 50.5584 54.7073C51.7811 55.3803 52.9438 55.8192 53.8254 55.9625C53.8744 55.9698 53.9234 55.9771 53.9724 55.9843C54.0232 55.9916 54.0703 55.997 54.1193 56.0006C54.7052 56.0532 55.1333 55.9498 55.3238 55.6651C55.3945 55.558 55.429 55.431 55.4308 55.2859H55.429Z" fill="white"/>
<path d="M56.7489 53.9111C56.4605 53.8531 56.143 53.7697 55.8002 53.6554C55.4519 53.5411 55.0873 53.4014 54.7082 53.2382C54.612 53.1964 54.5141 53.1529 54.4161 53.1094C54.3091 53.0604 54.1985 53.0096 54.0896 52.957C53.1264 52.4981 52.0997 51.9121 51.0802 51.2319C50.0608 50.5516 49.1247 49.8279 48.332 49.115C48.2413 49.0333 48.1524 48.9517 48.0672 48.8719C47.9892 48.7975 47.9112 48.725 47.835 48.6506C47.5393 48.364 47.2708 48.0792 47.0314 47.8016C46.7956 47.5277 46.596 47.2683 46.431 47.0234C46.07 47.0416 45.8142 47.1432 45.6909 47.3282C45.5331 47.564 45.582 47.9431 45.8215 48.422C45.8432 48.4637 45.865 48.5073 45.8886 48.5508C45.9122 48.5925 45.9358 48.6361 45.9612 48.6796C46.2097 49.0968 46.5833 49.5757 47.0749 50.0873C47.1294 50.1453 47.1874 50.2034 47.2455 50.2614C47.3071 50.3231 47.3688 50.3848 47.4341 50.4464C48.1506 51.1394 49.0667 51.8795 50.1605 52.6105C51.2544 53.3416 52.2901 53.9021 53.2044 54.2975C53.286 54.3338 53.3676 54.3665 53.4475 54.4009C53.5237 54.4318 53.5998 54.4626 53.6742 54.4916C54.3345 54.7492 54.9204 54.9107 55.4011 54.9814C55.4519 54.9887 55.4991 54.9941 55.5481 54.9995C55.597 55.005 55.646 55.0086 55.6932 55.0122C56.2247 55.0485 56.5947 54.9487 56.7525 54.7129C56.8759 54.5279 56.8723 54.254 56.7489 53.913V53.9111Z" fill="white"/>
<path d="M58.0037 52.0937C57.6336 52.0575 57.2019 51.9631 56.7176 51.8108C56.119 51.6221 55.4677 51.3555 54.7875 51.0235C54.6224 50.9437 54.4574 50.8602 54.2905 50.7713C54.0746 50.6589 53.8569 50.5392 53.6374 50.414C53.1658 50.1455 52.6905 49.8517 52.2153 49.5342C51.74 49.2168 51.2865 48.8902 50.8584 48.5583C50.6589 48.4041 50.4648 48.2481 50.2779 48.0921C50.1328 47.9706 49.9913 47.8508 49.8553 47.7293C49.2875 47.2286 48.7905 46.7298 48.3878 46.2491C48.0613 45.8591 47.8091 45.4981 47.6332 45.1698C46.9275 45.0537 46.4468 45.1299 46.2672 45.3983C46.0876 45.6668 46.2001 46.1402 46.5774 46.7443C46.6064 46.7915 46.6373 46.8386 46.6681 46.8858C46.7008 46.9348 46.7352 46.9837 46.7715 47.0345C47.1561 47.5751 47.7257 48.2027 48.4603 48.8703C48.5601 48.961 48.6617 49.0499 48.7669 49.1424C48.8866 49.2458 49.01 49.351 49.1369 49.458C49.7501 49.9659 50.4503 50.4884 51.2321 51.0108C52.0139 51.5332 52.7667 51.9795 53.4706 52.3495C53.6175 52.4275 53.7608 52.5001 53.9041 52.5708C54.0293 52.6325 54.1508 52.6924 54.2723 52.7486C55.1721 53.1713 55.9684 53.456 56.616 53.6048C56.6759 53.6193 56.7357 53.632 56.792 53.6429C56.8482 53.6538 56.9044 53.6647 56.9588 53.6737C57.6609 53.7898 58.1416 53.7118 58.3193 53.4434C58.4971 53.1749 58.3846 52.6996 58.0055 52.0937H58.0037Z" fill="white"/>
<path d="M58.705 49.9619C57.8887 49.9855 56.7314 49.6608 55.4453 49.0404C55.2421 48.9424 55.0353 48.8372 54.8267 48.7247C54.3442 48.4653 53.8472 48.1679 53.3465 47.8341C52.8477 47.5003 52.3815 47.1556 51.957 46.8092C51.7738 46.6586 51.596 46.5081 51.4273 46.3575C50.3607 45.407 49.617 44.4637 49.3249 43.7C48.4887 43.5295 47.9136 43.6002 47.7087 43.9068C47.5617 44.1281 47.6016 44.48 47.8139 44.9244C47.8393 44.9752 47.8647 45.0278 47.8937 45.0823C47.9227 45.1349 47.9535 45.1893 47.9862 45.2437C48.4959 46.0908 49.5245 47.1901 50.9974 48.3311C51.4164 48.6558 51.8699 48.9823 52.3579 49.3088C52.8459 49.6354 53.3229 49.9292 53.7837 50.1904C55.4036 51.1138 56.813 51.6416 57.7908 51.7867C57.8543 51.7958 57.9159 51.8049 57.9758 51.8103C58.0357 51.8158 58.0955 51.8212 58.1518 51.8248C58.6434 51.8521 58.9862 51.7523 59.1331 51.531C59.3381 51.2244 59.1821 50.6657 58.7032 49.9583L58.705 49.9619Z" fill="white"/>
<path d="M59.2463 47.8472C58.5261 47.9324 57.4142 47.6349 56.1716 47.0182C55.9213 46.893 55.6637 46.757 55.4043 46.6064C55.1195 46.4413 54.8292 46.2618 54.539 46.0677C54.2488 45.8736 53.9712 45.6758 53.71 45.4745C53.4724 45.2913 53.2456 45.1081 53.0352 44.923C51.9885 44.0106 51.2865 43.1 51.0888 42.4016C50.3541 42.2837 49.8118 42.3708 49.5923 42.6991C49.4635 42.8914 49.4544 43.1544 49.5469 43.4664C49.5614 43.5172 49.5796 43.568 49.5995 43.6206C49.6195 43.6732 49.6413 43.7258 49.6666 43.7802C50.1582 44.8523 51.6094 46.3416 53.5087 47.6096C55.4079 48.8775 57.3416 49.6448 58.5189 49.6884C58.5788 49.6902 58.635 49.6902 58.6912 49.6884C58.7475 49.6884 58.8019 49.6829 58.8545 49.6775C59.1774 49.643 59.4168 49.5342 59.5456 49.3401C59.7651 49.01 59.6381 48.4766 59.2463 47.8436V47.8472Z" fill="white"/>
<path d="M58.972 45.4237C58.7271 45.4473 58.4241 45.4147 58.0704 45.3203C57.4664 45.1607 56.7662 44.8415 56.0696 44.4115C55.9644 44.3462 55.861 44.2809 55.7576 44.2102C55.6542 44.1394 55.5526 44.0705 55.4528 43.998C54.7889 43.5209 54.2266 42.9966 53.8456 42.4996C53.6243 42.2094 53.4756 41.9409 53.4048 41.7069C52.3654 41.3822 51.6181 41.404 51.3859 41.7522C51.3151 41.8574 51.2915 41.9971 51.3115 42.1622C51.3169 42.2094 51.326 42.2565 51.3387 42.3073C51.3514 42.3563 51.3659 42.4071 51.3859 42.4579C51.687 43.3068 52.8334 44.6074 54.6728 45.8355C56.5122 47.0636 58.152 47.6223 59.0536 47.5751C59.108 47.5715 59.1606 47.5679 59.2114 47.5606C59.264 47.5534 59.3112 47.5425 59.3565 47.5298C59.5162 47.4844 59.6359 47.4101 59.7066 47.303C59.9388 46.9547 59.6722 46.2564 58.9738 45.4219L58.972 45.4237Z" fill="white"/>
<path d="M57.1096 42.2149C55.4589 41.1138 53.9968 40.8127 53.7156 41.2317C53.6685 41.3025 53.654 41.395 53.6685 41.5056C53.6739 41.5546 53.6866 41.6072 53.7048 41.6635C53.7211 41.7161 53.7428 41.7723 53.7701 41.8303C54.0349 42.4054 54.7877 43.2289 55.9269 43.989C57.0661 44.749 58.1145 45.1282 58.7476 45.1518C58.8111 45.1536 58.871 45.1518 58.9272 45.1481C58.9853 45.1427 59.0397 45.1336 59.0868 45.1209C59.1939 45.0919 59.2755 45.0411 59.3208 44.9722C59.6002 44.5531 58.7621 43.3178 57.1114 42.2149H57.1096Z" fill="white"/>
<path d="M57.164 43.4696C57.2263 43.3763 56.9958 43.1131 56.6491 42.8817C56.3025 42.6504 55.971 42.5385 55.9087 42.6318C55.8464 42.7251 56.0769 42.9883 56.4236 43.2197C56.7702 43.4511 57.1017 43.563 57.164 43.4696Z" fill="#CD8643"/>
<path d="M56.8554 43.2701C56.8838 43.2276 56.7615 43.0962 56.5824 42.9767C56.4032 42.8571 56.235 42.7946 56.2066 42.8371C56.1783 42.8796 56.3005 43.011 56.4797 43.1306C56.6588 43.2501 56.8271 43.3126 56.8554 43.2701Z" fill="#6F4527"/>
<path d="M56.2045 43.4591C55.6222 43.0582 55.263 42.5793 55.3973 42.3761C55.5315 42.173 56.112 42.3217 56.7069 42.7063C56.2208 42.3961 55.7292 42.3054 55.595 42.5086C55.4607 42.7117 55.731 43.1289 56.2045 43.4591Z" fill="#CD8643"/>
<path d="M47.9383 55.4258C48.02 55.4838 48.1034 55.5419 48.1887 55.5999C49.2734 56.3237 50.2693 56.6502 50.8062 56.6121C50.5305 56.5124 50.2457 56.3945 49.9555 56.2566C49.4439 56.1858 48.722 55.9137 47.9365 55.4258H47.9383Z" fill="#CD8643"/>
<path d="M53.0889 56.0782C52.7116 56.4229 51.9261 56.4392 50.9629 56.1762C50.9157 56.1635 50.8667 56.149 50.8178 56.1345C50.7688 56.1199 50.7216 56.1054 50.6708 56.0909C49.9198 55.8515 49.0818 55.4596 48.251 54.9336C48.3326 54.9916 48.4179 55.0497 48.5031 55.1059C49.4156 55.7154 50.3516 56.1653 51.1787 56.4283C51.2277 56.4428 51.2767 56.4573 51.3257 56.4719C51.3747 56.4864 51.4218 56.4991 51.4708 56.5136C52.5447 56.8056 53.3972 56.753 53.7111 56.2832C53.7238 56.2632 53.7347 56.2433 53.7455 56.2233C53.5387 56.1889 53.3192 56.1399 53.0889 56.0764V56.0782Z" fill="#CD8643"/>
<path d="M54.889 55.186C54.8727 55.2368 54.8491 55.2839 54.8201 55.3293C54.6314 55.6141 54.2015 55.7175 53.6156 55.6649C53.5684 55.6612 53.5195 55.6558 53.4687 55.6485C53.4215 55.6431 53.3725 55.6358 53.3217 55.6268C52.4401 55.4835 51.2774 55.0445 50.0548 54.3715C49.8534 54.2608 49.6502 54.1447 49.4471 54.0214C49.311 53.938 49.1732 53.8527 49.0371 53.7656C49.1206 53.8237 49.204 53.8799 49.2893 53.938C49.5106 54.0867 49.7337 54.2264 49.955 54.3606C50.1582 54.484 50.3613 54.6019 50.5627 54.7125C51.7853 55.3855 52.9481 55.8245 53.8297 55.9678C53.8804 55.9751 53.9276 55.9823 53.9766 55.9896C54.0256 55.995 54.0745 56.0023 54.1235 56.0059C54.7094 56.0585 55.1375 55.9551 55.3262 55.6703C55.3969 55.5633 55.4314 55.4363 55.4332 55.2912C55.2627 55.2676 55.0795 55.235 54.8872 55.1896L54.889 55.186Z" fill="#CD8643"/>
<path d="M56.7554 53.9321C56.6158 53.9049 56.4688 53.8704 56.3165 53.8287C56.3654 54.0609 56.3455 54.2532 56.2511 54.3928C56.0933 54.6286 55.7251 54.7284 55.1918 54.6921C55.1446 54.6885 55.0956 54.6849 55.0467 54.6794C54.9977 54.674 54.9505 54.6686 54.8997 54.6613C54.419 54.5924 53.8349 54.4291 53.1728 54.1733C53.0984 54.1443 53.0241 54.1135 52.9461 54.0826C52.8663 54.05 52.7846 54.0155 52.703 53.9811C51.8595 53.6164 50.9144 53.1103 49.9131 52.4609C49.9965 52.519 50.08 52.5752 50.1652 52.6315C51.2591 53.3625 52.2948 53.923 53.2091 54.3185C53.2907 54.3547 53.3724 54.3874 53.4522 54.4219C53.5284 54.4527 53.6045 54.4835 53.6771 54.5126C54.3374 54.7701 54.9233 54.9316 55.404 55.0005C55.4548 55.0078 55.502 55.0132 55.5509 55.0187C55.5999 55.0241 55.6489 55.0277 55.6961 55.0314C56.2294 55.0676 56.5976 54.9679 56.7554 54.732C56.8788 54.547 56.8752 54.2731 56.7518 53.9321H56.7554Z" fill="#CD8643"/>
<path d="M58.0204 52.0972C57.9116 52.0863 57.7991 52.0718 57.6794 52.05C57.9206 52.5162 57.975 52.8845 57.8245 53.1076C57.6449 53.3761 57.166 53.4541 56.464 53.338C56.4096 53.3289 56.3552 53.3198 56.2971 53.3071C56.2391 53.2963 56.181 53.2836 56.1193 53.269C55.4718 53.1203 54.6754 52.8355 53.7757 52.4128C53.6541 52.3566 53.5326 52.2968 53.4074 52.2351C53.2641 52.1643 53.1208 52.0918 52.9739 52.0138C52.3463 51.6836 51.6805 51.2936 50.9912 50.8438C51.0747 50.9 51.1581 50.958 51.2434 51.0143C52.0252 51.5367 52.778 51.9829 53.4818 52.353C53.6287 52.431 53.772 52.5035 53.9154 52.5743C54.0405 52.636 54.1621 52.6958 54.2836 52.7521C55.1833 53.1747 55.9797 53.4595 56.6254 53.6083C56.6853 53.621 56.7452 53.6355 56.8032 53.6464C56.8594 53.6572 56.9157 53.6681 56.9701 53.6772C57.6721 53.7933 58.1528 53.7153 58.3306 53.4468C58.5084 53.1784 58.3959 52.7031 58.0186 52.0972H58.0204Z" fill="#CD8643"/>
<path d="M53.794 50.2159C55.4121 51.1392 56.8234 51.6671 57.7993 51.8122C57.8628 51.8213 57.9244 51.8285 57.9843 51.8358C58.0442 51.8412 58.104 51.8467 58.1603 51.8503C58.6537 51.8775 58.9929 51.7777 59.1416 51.5582C59.3466 51.2517 59.1906 50.693 58.7135 49.9855C58.6174 49.9891 58.5176 49.9855 58.4124 49.9783C58.7244 50.5279 58.806 50.9614 58.6337 51.2172C58.4868 51.4385 58.1458 51.5365 57.6524 51.5093C57.5961 51.5056 57.5363 51.502 57.4764 51.4948C57.4165 51.4875 57.3549 51.4802 57.2914 51.4712C56.3136 51.3242 54.9042 50.7964 53.2843 49.8731C52.9052 49.6572 52.5133 49.4196 52.1143 49.1602C52.1977 49.2182 52.2811 49.2744 52.3664 49.3307C52.8544 49.6572 53.3314 49.9511 53.7922 50.2123L53.794 50.2159Z" fill="#CD8643"/>
<path d="M57.9417 49.639C58.0451 49.6571 58.143 49.6734 58.2392 49.6843C58.3371 49.697 58.4332 49.7043 58.5221 49.7061C58.582 49.7079 58.6382 49.7079 58.6945 49.7061C58.7507 49.7061 58.8051 49.7007 58.8577 49.6952C59.1824 49.6607 59.4201 49.5519 59.5488 49.3578C59.7683 49.0277 59.6414 48.4944 59.2495 47.8613C59.1516 47.8722 59.0482 47.8776 58.9375 47.874C59.1697 48.351 59.2187 48.7501 59.0409 49.0168C58.9121 49.2109 58.6727 49.3197 58.3498 49.3542C58.2972 49.3596 58.2428 49.3633 58.1865 49.3651C58.1303 49.3651 58.0741 49.3651 58.0142 49.3651C56.8895 49.3233 55.0756 48.6213 53.2598 47.4531C53.3432 47.5112 53.4267 47.5674 53.5119 47.6255C55.1245 48.703 56.7626 49.4195 57.9417 49.6354V49.639Z" fill="#CD8643"/>
<path d="M58.3496 47.523C58.5001 47.5521 58.6398 47.5702 58.7704 47.5793C58.8738 47.5865 58.9718 47.5883 59.0606 47.5829C59.1151 47.5811 59.1677 47.5756 59.2185 47.5684C59.2693 47.5611 59.3182 47.5502 59.3636 47.5375C59.5232 47.4922 59.6429 47.4178 59.7137 47.3108C59.9459 46.9625 59.6792 46.2641 58.9808 45.4297C58.9065 45.4369 58.8285 45.4388 58.7432 45.4369C59.2366 46.1172 59.4053 46.6741 59.2058 46.9734C59.135 47.0804 59.0153 47.1548 58.8557 47.2001C58.8103 47.2128 58.7632 47.2237 58.7106 47.231C58.6616 47.2382 58.609 47.2437 58.5527 47.2455C57.6947 47.2908 56.1637 46.7847 54.4277 45.6728C54.5112 45.729 54.5946 45.787 54.6799 45.8451C56.1057 46.7974 57.4117 47.3471 58.3459 47.5248L58.3496 47.523Z" fill="#CD8643"/>
<path d="M58.4283 44.8198C58.3721 44.8234 58.314 44.8252 58.2487 44.8234C57.6628 44.8016 56.7231 44.4751 55.6855 43.8275C55.7672 43.8856 55.8506 43.9436 55.9359 44.0017C56.8519 44.613 57.71 44.9776 58.3412 45.11C58.4047 45.1227 58.4664 45.1354 58.5244 45.1426C58.6061 45.1535 58.6841 45.1608 58.7548 45.1644C58.8183 45.1662 58.8782 45.1644 58.9326 45.1608C58.9906 45.1553 59.045 45.1463 59.0922 45.1336C59.1992 45.1046 59.2809 45.0538 59.3262 44.9848C59.6056 44.5658 58.7675 43.3305 57.1168 42.2276C57.0315 42.1695 56.9463 42.1151 56.861 42.0625C58.3448 43.1164 59.085 44.2484 58.8201 44.6456C58.7729 44.7164 58.6931 44.7653 58.5843 44.7944C58.5371 44.8071 58.4827 44.8161 58.4247 44.8216L58.4283 44.8198Z" fill="#CD8643"/>
<path d="M44.1926 46.8899C44.0566 47.3307 44.3777 48.2051 44.8366 48.4282C44.5409 47.8894 44.3486 47.4396 44.1926 46.8899ZM46.3023 48.1434C45.8434 48.3883 45.3862 48.4572 44.8203 48.4391C45.281 48.8273 46.0538 48.615 46.3023 48.1434ZM45.2284 47.8677C45.1468 47.3634 45.0688 46.8682 44.9799 46.3203C44.8112 46.8936 44.9092 47.387 45.2284 47.8677ZM45.2665 47.7226C45.6583 47.8894 46.0447 47.7298 46.2388 47.3797C45.9486 47.4813 45.6202 47.5974 45.2665 47.7226ZM45.8887 44.1073C47.0805 45.7435 47.4923 48.1234 46.4402 49.9102C45.9976 50.5778 44.9291 50.5524 44.5155 49.9066C44.4938 49.8721 44.4738 49.8377 44.4557 49.7996C44.4339 49.4458 44.209 49.4477 43.9623 49.4404C43.9441 49.4404 43.9278 49.4404 43.9097 49.4404C42.6235 49.5075 41.9088 47.67 42.8884 46.8446C44.0058 45.9285 45.457 45.6474 45.8905 44.1055L45.8887 44.1073ZM46.2896 49.1411C45.6837 49.4767 45.0452 49.3896 44.4031 49.2608C44.7804 49.7905 45.7182 49.7216 46.2896 49.1411ZM43.2004 47.2056C43.0353 48.2123 43.5977 49.23 44.3414 49.1574C43.6811 48.6259 43.2439 48.0291 43.2004 47.2056Z" fill="#75C447"/>
<path d="M106.903 44.2852C107.257 46.1318 107.493 49.4314 104.732 47.5358C103.33 46.3857 105.985 44.8638 106.903 44.2852Z" fill="#6F4527"/>
<path d="M104.335 48.4731C102.702 49.8898 101.737 51.7655 100.596 53.5922C104.721 55.0778 103.481 47.6876 108.767 48.6001C108.81 48.6073 108.816 48.6672 108.776 48.6817C108.317 48.8631 107.86 48.9901 107.611 49.4653C106.751 50.9256 105.821 52.3369 104.99 53.8135C109.686 54.3812 109.708 40.6439 115.905 43.4066C116.24 43.6769 117.033 42.8461 118.023 42.7808C118.125 42.7736 118.174 42.906 118.09 42.9658C113.048 46.6754 113.254 61.8803 104.433 58.1199C110.655 59.5874 111.874 47.5752 115.279 43.9055C111.428 43.7622 111.261 57.6029 103.956 54.4647C102.643 55.0869 101.36 55.0742 100.128 54.2561C99.956 54.1418 99.8526 54.1853 99.7148 54.2996C97.6269 56.3131 94.0624 55.8089 92.4951 53.3781C91.082 59.9194 81.5786 62.9632 79.4453 55.2792C79.8426 55.1667 80.0784 55.2919 80.1655 55.651C81.0017 58.9688 85.1557 59.8432 87.5103 57.5122C92.243 54.042 91.3777 42.5033 98.2908 42.6937C98.2981 42.7445 98.2962 42.7336 98.3053 42.7862C97.1879 43.189 96.3916 44.2864 95.7839 45.2496C95.0419 46.4233 94.4633 47.6985 93.9536 48.9901C93.6833 49.6776 93.4221 50.3705 93.1881 51.0707C92.9867 51.673 92.6801 52.3931 93.0955 52.979C93.4547 53.4851 94.1096 53.7663 94.6955 53.9005C95.4574 54.0765 96.2501 53.9332 96.9539 53.6176C98.4559 52.9464 99.7003 51.5696 100.362 50.0785C100.366 50.0712 100.368 50.064 100.371 50.0567C99.5279 50.0458 98.7624 50.0875 97.9443 50.2036C96.7598 50.2998 95.8927 52.1373 97.0482 52.7813C94.2638 54.5354 92.72 50.8657 95.7948 49.4762C96.3335 49.2168 96.9104 49.1025 97.5072 49.137C99.8925 49.4127 102.055 49.3801 104.282 48.3933C104.31 48.4368 104.302 48.4241 104.33 48.4677L104.335 48.4731Z" fill="#6F4527"/>
<path d="M80.3214 54.3338C85.9066 55.4984 85.0686 40.9648 91.7604 43.2232C86.4055 43.5515 88.0526 58.3772 79.4815 54.8726C77.3265 55.8594 74.6545 55.3714 73.0727 53.5847C71.9698 57.755 66.2866 59.5962 63.3643 56.1968C63.3878 56.1569 63.4114 56.1152 63.435 56.0753C65.5338 57.8566 68.4906 56.8861 69.9563 54.8073C65.6553 55.7107 65.5828 50.5952 69.2742 49.8206C71.9081 49.4451 73.0237 50.0673 75.5288 48.569C75.5143 48.6669 75.5325 48.7867 75.4817 48.8592C74.6599 50.0492 74.0541 51.3516 73.4645 52.6632C73.4264 52.7466 73.4609 52.9026 73.5171 52.9842C74.3334 54.2032 75.8844 54.127 77.1723 53.9674C78.9681 53.6482 79.828 51.8124 80.4629 50.2578C79.3418 50.2469 77.9106 50.1635 77.3229 51.2863C76.9691 52.0337 77.4897 52.6704 78.2299 52.743C77.009 54.1615 74.5801 53.5248 74.8413 51.4768C75.3601 47.876 80.1037 50.51 83.8097 48.5853C83.7679 48.7123 83.7661 48.7758 83.7335 48.8084C82.841 49.7281 82.4292 50.9108 81.9721 52.0609C81.6311 52.9879 81.0905 53.7225 80.3232 54.332L80.3214 54.3338ZM70.5095 53.8622C71.119 52.7629 71.5435 51.6147 72.1984 50.5317C67.2444 51.1049 69.5336 54.9016 70.5095 53.8622Z" fill="#6F4527"/>
<path d="M81.2871 56.3853C89.4047 57.5154 86.613 43.1504 94.1392 42.8711C88.9693 46.0964 89.9906 60.24 81.2871 56.3853Z" fill="#6F4527"/>
<path d="M77.632 55.9137C81.0949 56.8189 78.49 58.7272 76.7322 59.8192C76.5109 58.8215 76.5853 57.8928 76.5726 56.8933C76.6252 56.3654 77.0388 55.7976 77.632 55.9137Z" fill="#6F4527"/>
<path d="M70.3298 43.0273C65.5772 45.7465 66.9685 56.313 60.7139 56.0608C64.9658 54.2033 63.5401 43.5207 70.3298 43.0273Z" fill="#6F4527"/>
<path d="M46.234 47.4062C46.0399 47.7563 45.6535 47.9142 45.2617 47.7491C45.6154 47.6239 45.9438 47.5096 46.234 47.4062Z" fill="#6F4527"/>
<path d="M46.2945 48.1719C46.0442 48.6453 45.2733 48.8557 44.8125 48.4676C45.3803 48.4857 45.8374 48.4168 46.2945 48.1719Z" fill="#6F4527"/>
<path d="M44.3857 49.2799C45.0279 49.4087 45.6682 49.4976 46.2723 49.1602C45.7009 49.7388 44.7631 49.8078 44.3857 49.2799Z" fill="#6F4527"/>
<path d="M44.9839 46.3516C45.0728 46.8976 45.1508 47.3928 45.2324 47.8989C44.9131 47.42 44.8152 46.9248 44.9839 46.3516Z" fill="#6F4527"/>
<path d="M44.8367 48.4523C44.376 48.2292 44.0567 47.3549 44.1928 46.9141C44.3506 47.4637 44.5429 47.9136 44.8367 48.4523Z" fill="#6F4527"/>
<path d="M44.4568 49.8334C44.4749 49.8697 44.4949 49.906 44.5167 49.9404L44.3951 49.9767C44.3552 49.9132 44.3171 49.8461 44.2845 49.7736C42.6047 56.5561 51.6202 61.579 56.683 57.0749C62.018 53.2872 61.5064 43.3575 66.3425 43.0273C61.2035 49.1006 61.5482 62.154 49.9314 59.2444C49.3455 59.1773 47.8834 60.6103 47.2141 60.9677C47.1379 60.0171 47.1179 59.121 47.0943 58.1759C47.0907 57.9129 47.0054 57.7388 46.795 57.5646C44.4441 55.6654 43.1344 52.5254 43.9598 49.5486L43.9634 49.4724C44.2101 49.4797 44.435 49.4779 44.4568 49.8316V49.8334Z" fill="#6F4527"/>
<path d="M44.3422 49.1784C43.6003 49.251 43.038 48.2333 43.2012 47.2266C43.243 48.0483 43.6819 48.6469 44.3422 49.1784Z" fill="#6F4527"/>
<path d="M43.9537 49.5353C42.3193 49.6714 41.4431 47.7068 42.4662 46.6565C43.5564 45.6226 45.4793 45.1963 45.6951 43.4676C45.6987 43.4313 45.7477 43.4204 45.7677 43.4531C45.9255 43.7143 46.0833 43.9755 46.2411 44.2367C46.7055 45.0058 47.0502 45.8439 47.2424 46.7219C48.0859 50.5856 45.3287 51.431 44.3909 49.9634L44.5124 49.9272C44.926 50.5729 45.9944 50.5983 46.437 49.9308C47.4891 48.144 47.0774 45.7641 45.8856 44.1279C45.452 45.6679 44.0009 45.9509 42.8834 46.867C41.9057 47.6923 42.6186 49.5299 43.9047 49.4628C43.9229 49.4628 43.9392 49.4628 43.9573 49.4628L43.9537 49.539V49.5353Z" fill="#6F4527"/>
<path d="M64.5973 36.88C64.3216 38.2314 66.9664 38.9316 66.9664 38.9316C66.9664 38.9316 64.9002 35.3944 64.5973 36.88Z" fill="white"/>
<path d="M64.1298 39.1115C63.3407 40.2054 66.8998 39.4235 66.8998 39.4235C66.8998 39.4235 64.8482 38.1175 64.1298 39.1115Z" fill="white"/>
<path d="M67.7059 37.0055C67.7059 37.0055 67.7204 37.0019 67.7258 37.0001C67.7258 37.0001 67.8365 37.0817 67.9199 37.2667C67.9744 37.2559 68.0306 37.2486 68.0886 37.245C68.0397 37.1325 67.9707 37.0219 67.8855 36.9366C67.8764 36.9257 67.8655 36.9166 67.8546 36.9076C67.8655 36.8913 67.8782 36.8731 67.8855 36.855C67.8964 36.8296 67.9036 36.8006 67.9036 36.7733C67.9036 36.6609 67.8075 36.5756 67.7041 36.5484C67.6243 36.5285 67.5336 36.5393 67.4683 36.5919C67.3721 36.6681 67.3576 36.806 67.432 36.9021C67.4937 36.9801 67.6061 37.0273 67.7041 37.0073L67.7059 37.0055Z" fill="white"/>
<path d="M69.2479 39.2114C69.1917 38.9883 68.9994 38.8359 68.8017 38.7343C68.9632 38.6999 69.1028 38.6382 69.208 38.5566C69.3259 38.4659 69.4021 38.3498 69.4185 38.2173C69.4674 37.8455 69.0285 37.4809 68.4407 37.4047C67.853 37.3285 67.3378 37.5698 67.2888 37.9416C67.2725 38.074 67.3161 38.2046 67.4068 38.3226C67.4884 38.4296 67.6081 38.5239 67.755 38.6001C67.5392 38.6473 67.3124 38.7452 67.2018 38.9466C67.1474 39.0445 67.1183 39.1534 67.0948 39.2604C67.053 39.4472 67.0222 39.6359 67.0041 39.8264C66.9914 39.9606 66.9823 40.0966 66.9805 40.2309C67.0004 40.2418 67.0222 40.2526 67.0458 40.2635C67.278 40.3724 67.6335 40.4685 68.038 40.5211C68.4425 40.5737 68.8108 40.5701 69.0629 40.5247C69.0883 40.5211 69.1119 40.5157 69.1337 40.5102C69.1663 40.3796 69.1935 40.2454 69.2135 40.113C69.2443 39.9243 69.2625 39.7338 69.2697 39.5434C69.2733 39.4327 69.2733 39.3203 69.2461 39.2114H69.2479ZM68.5677 37.7784C68.6258 37.7022 68.7527 37.7004 68.8507 37.7747C68.9486 37.8491 68.9795 37.9725 68.9214 38.0486C68.8634 38.1248 68.7364 38.1266 68.6385 38.0523C68.5405 37.9779 68.5078 37.8545 68.5677 37.7784ZM67.8167 37.9072C67.7804 37.8183 67.8421 37.7076 67.9564 37.6605C68.0707 37.6133 68.1922 37.6478 68.2285 37.7348C68.2648 37.8237 68.2031 37.9344 68.0888 37.9815C67.9745 38.0287 67.853 37.996 67.8167 37.9072Z" fill="white"/>
<path d="M67.2051 41.6602C67.2232 41.7037 67.2432 41.749 67.2649 41.7908C67.3284 41.9159 67.4082 42.0357 67.5135 42.1282C67.5588 42.1681 67.6078 42.2025 67.6622 42.2279C67.6749 42.2334 67.82 42.286 67.8218 42.2751C67.8218 42.286 67.9742 42.2715 67.9887 42.2697C68.0468 42.2588 68.103 42.2388 68.1574 42.2116C68.2826 42.1481 68.3896 42.0538 68.4839 41.9486C68.5166 41.9123 68.5456 41.876 68.5764 41.8379C68.3733 41.8452 68.1357 41.8325 67.8853 41.7998C67.635 41.7672 67.4028 41.7182 67.2069 41.6602H67.2051Z" fill="white"/>
<path d="M67.0029 40.7383C67.012 40.8507 67.0229 40.965 67.0428 41.0775C67.0483 41.112 67.0537 41.1446 67.061 41.1791C67.2877 41.268 67.5943 41.3423 67.9371 41.3859C68.28 41.4294 68.5956 41.4349 68.8369 41.4076C68.8514 41.3768 68.8659 41.346 68.8804 41.3151C68.9276 41.2099 68.9675 41.1047 69.0056 40.9977C68.7534 41.043 68.3888 41.043 67.9897 40.9922C67.5907 40.9414 67.2387 40.8471 67.0066 40.7383H67.0029Z" fill="white"/>
<path d="M72.3096 37.8751C72.3948 36.3623 69.4961 39.2574 69.4961 39.2574C69.4961 39.2574 72.2316 39.2519 72.3096 37.8751Z" fill="white"/>
<path d="M72.186 40.1626C71.7452 39.018 69.4287 39.7599 69.4287 39.7599C69.4287 39.7599 72.6703 41.4215 72.186 40.1626Z" fill="white"/>
<path d="M69.3944 36.7617C69.2892 36.7617 69.1749 36.8198 69.144 36.9286C69.1368 36.9558 69.135 36.9848 69.1404 37.012C69.144 37.032 69.1513 37.052 69.1567 37.0719C69.144 37.0792 69.1313 37.0846 69.1205 37.0919C69.0171 37.1535 68.9209 37.2424 68.8447 37.3386C68.8991 37.3567 68.9518 37.3803 69.0025 37.4039C69.1295 37.2461 69.2583 37.1953 69.2583 37.1953C69.2638 37.1989 69.271 37.2025 69.2765 37.2061C69.3672 37.2497 69.4887 37.2334 69.5667 37.1735C69.6628 37.1009 69.6846 36.9631 69.612 36.8651C69.5631 36.798 69.476 36.7635 69.3944 36.7635V36.7617Z" fill="white"/>
</g>
<defs>
<clipPath id="clip0_1283_4209">
<rect width="160" height="90" fill="white"/>
</clipPath>
</defs>
</svg>
