<svg width="161" height="90" viewBox="0 0 161 90" fill="none" xmlns="http://www.w3.org/2000/svg">
<g clip-path="url(#clip0_1283_4416)">
<rect x="0.5" width="160" height="90" rx="16" fill="white"/>
<path d="M98.3143 29.2461H64.8623V57.8108H98.3143V29.2461Z" fill="white"/>
<path d="M58.1074 20.4375V69.5593H104V20.4375H58.1074Z" fill="#071642"/>
<path d="M81.05 60.6172H59.2588V68.4346H81.05V60.6172Z" fill="white"/>
<path d="M102.867 60.6172H81.0762V68.4346H102.867V60.6172Z" fill="#FF0000"/>
<path d="M96.2867 51.161C96.2867 51.582 95.9847 51.8521 95.5651 51.8521H83.415C82.9939 51.8521 82.6556 51.4833 82.6556 51.0593C82.6556 50.6354 82.9939 50.2695 83.415 50.2695H94.7041V46.6526H88.3735V33.9928H84.0785V37.9248C84.0611 38.4257 84.0611 38.6464 83.7025 38.7669C83.3932 38.8714 83.1928 38.8177 82.9663 38.6086C82.8574 38.536 82.7834 38.433 82.7239 38.3139C82.6701 38.2398 82.6193 38.1614 82.5612 38.0714C82.5075 37.9901 82.4538 37.9015 82.3957 37.8072C82.3739 37.7723 82.3522 37.736 82.3304 37.7026C82.2708 37.6053 82.2055 37.508 82.1344 37.4108C82.1169 37.3875 82.0995 37.3643 82.0821 37.3411C81.5071 36.5686 80.6388 35.7657 79.7807 35.2183C79.3088 34.925 78.8108 34.6781 78.2866 34.485C78.1327 34.4284 77.9774 34.3776 77.8191 34.3311C77.7871 34.321 77.7552 34.3108 77.7233 34.3021C77.5766 34.26 77.4271 34.2222 77.2775 34.1888C77.2209 34.1758 77.1628 34.1641 77.1047 34.1525C76.9886 34.1293 76.871 34.1075 76.7519 34.0886C76.7054 34.0814 76.6604 34.0727 76.614 34.0669C76.4571 34.0451 76.2974 34.0291 76.1377 34.016C76.0898 34.0117 76.0433 34.0088 75.9954 34.0059C75.8241 33.9957 75.6527 33.987 75.48 33.987C75.3391 33.987 75.1983 33.9914 75.0589 33.9972C72.9637 34.1032 71.0848 35.0005 69.6953 36.3915C68.3087 37.752 67.4099 39.6294 67.3039 41.7013C67.2966 41.8393 67.2937 41.9787 67.2937 42.1181C67.2937 42.2575 67.2981 42.3968 67.3039 42.5348C67.4113 44.6068 68.3101 46.4827 69.6953 47.8447C71.0848 49.2357 72.9637 50.1315 75.0589 50.239C75.1983 50.2462 75.3391 50.2491 75.48 50.2491C75.6527 50.2491 75.8255 50.2419 75.9954 50.2303C76.0433 50.2273 76.0898 50.2244 76.1377 50.2201C76.2974 50.207 76.4557 50.1911 76.614 50.1693C76.6604 50.162 76.7054 50.1548 76.7519 50.1475C76.871 50.1286 76.9886 50.1083 77.1047 50.0836C77.1628 50.072 77.2194 50.0604 77.2775 50.0473C77.4285 50.0139 77.5766 49.9762 77.7233 49.9341C77.7552 49.9253 77.7871 49.9137 77.8191 49.905C77.9774 49.8585 78.1327 49.8063 78.2866 49.7511C78.8093 49.558 79.3088 49.3112 79.7807 49.0179C80.6403 48.469 81.5086 47.6675 82.0821 46.8951C82.0995 46.8718 82.1184 46.8486 82.1344 46.8254C82.2055 46.7266 82.2708 46.6294 82.3304 46.5335C82.3536 46.4987 82.3754 46.4638 82.3972 46.429C82.4552 46.3346 82.5119 46.246 82.5656 46.1647C82.9765 45.5375 83.2538 45.3037 83.746 45.4692C84.1628 45.6101 84.2644 46.0703 84.1279 46.4783C84.1221 46.4972 84.1178 46.5146 84.1105 46.5335C84.0684 46.6105 84.0219 46.6845 83.9769 46.76C83.4194 47.7633 82.6847 48.6592 81.8193 49.4099C80.9394 50.1591 79.9259 50.7588 78.818 51.1653C78.8064 51.1697 78.7948 51.1726 78.7847 51.1769C78.5988 51.2452 78.4086 51.3062 78.2155 51.3628C78.1966 51.3686 78.1763 51.3744 78.1574 51.3802C77.9657 51.4354 77.7697 51.4848 77.5723 51.5283C77.5331 51.537 77.4938 51.5443 77.4546 51.553C77.2688 51.5922 77.0815 51.6256 76.8927 51.6532C76.8768 51.6561 76.8608 51.659 76.8448 51.6604C76.6444 51.688 76.4426 51.7098 76.2393 51.7258C76.1929 51.7301 76.1464 51.7331 76.1 51.736C75.8938 51.749 75.6876 51.7577 75.4785 51.7577C72.7967 51.7577 70.3647 50.6978 68.6034 48.9365C66.8451 47.2029 65.7822 44.7737 65.7822 42.1181C65.7822 39.4624 66.8451 37.0332 68.6034 35.2996C70.3647 33.5383 72.7967 32.4784 75.4785 32.4784C75.6876 32.4784 75.8938 32.4871 76.1 32.5002C76.1464 32.5031 76.1929 32.506 76.2393 32.5103C76.4426 32.5263 76.6459 32.5466 76.8448 32.5757C76.8608 32.5786 76.8782 32.5815 76.8942 32.5829C77.0829 32.6105 77.2702 32.6454 77.4546 32.6831C77.4938 32.6918 77.5331 32.6991 77.5723 32.7078C77.7697 32.7514 77.9643 32.7993 78.1574 32.8559C78.1763 32.8617 78.1966 32.8675 78.2155 32.8733C78.4071 32.93 78.5973 32.9924 78.7847 33.0592C78.7963 33.0635 78.8079 33.0664 78.818 33.0708C79.9259 33.4774 80.9728 34.0756 81.8527 34.8262C82.146 35.0818 82.4944 35.3548 82.7195 35.6423V33.2639C82.7195 32.8704 82.9881 32.4102 83.4092 32.4102H89.2389C89.6599 32.4102 89.9547 32.8443 89.9547 33.2639V45.2964H95.5622C95.9557 45.2964 96.2838 45.6101 96.2838 46.0311V51.161H96.2867Z" fill="white"/>
<path d="M59.5649 64.6607C59.5649 62.9633 60.847 61.6914 62.5647 61.6914C64.0443 61.6914 65.1884 62.6671 65.4178 64.0988H63.8424C63.6493 63.5194 63.1615 63.1448 62.5676 63.1448C61.769 63.1448 61.1824 63.7881 61.1824 64.6607C61.1824 65.5333 61.769 66.1649 62.5676 66.1649C63.1934 66.1649 63.6856 65.7569 63.8439 65.1297H65.4338C65.2189 66.6136 64.0675 67.6213 62.5633 67.6213C60.8456 67.6213 59.5635 66.3493 59.5635 64.6621L59.5649 64.6607Z" fill="#071642"/>
<path d="M65.6641 64.6563C65.6641 62.9314 66.9592 61.6914 68.7727 61.6914C70.5863 61.6914 71.8727 62.9256 71.8727 64.6563C71.8727 66.3871 70.5834 67.6213 68.7727 67.6213C66.9621 67.6213 65.6641 66.3813 65.6641 64.6563ZM70.2538 64.6563C70.2538 63.7735 69.6323 63.139 68.7727 63.139C67.9132 63.139 67.283 63.7779 67.283 64.6563C67.283 65.5348 67.9146 66.1737 68.7727 66.1737C69.6309 66.1737 70.2538 65.5391 70.2538 64.6563Z" fill="#071642"/>
<path d="M76.5103 63.2278H74.977V67.4705H73.4161V63.2278H71.8828V61.8281H76.5103V63.2278Z" fill="#071642"/>
<path d="M81.1919 63.2278H79.6586V67.4705H78.0977V63.2278H76.5645V61.8281H81.1919V63.2278Z" fill="#071642"/>
<path d="M81.2266 64.6563C81.2266 62.9314 82.5217 61.6914 84.3352 61.6914C86.1488 61.6914 87.4352 62.9256 87.4352 64.6563C87.4352 66.3871 86.1459 67.6213 84.3352 67.6213C82.5246 67.6213 81.2266 66.3813 81.2266 64.6563ZM85.8163 64.6563C85.8163 63.7735 85.1948 63.139 84.3352 63.139C83.4757 63.139 82.8455 63.7779 82.8455 64.6563C82.8455 65.5348 83.4771 66.1737 84.3352 66.1737C85.1934 66.1737 85.8163 65.5391 85.8163 64.6563Z" fill="#071642"/>
<path d="M91.5649 66.0476V67.472H87.9814V61.8281H89.5568V66.0476H91.5649Z" fill="#071642"/>
<path d="M92.0312 61.8281H93.6066V67.472H92.0312V61.8281Z" fill="#071642"/>
<path d="M96.0349 63.2351V64.1339H97.8484V65.4944H96.0349V67.472H94.4668V61.8281H98.0575V63.2351H96.0349Z" fill="#071642"/>
<path d="M102.347 66.1231V67.472H98.668V61.8281H102.279V63.1727H100.216V64.0032H102.068V65.278H100.216V66.1231H102.347Z" fill="#071642"/>
<path d="M81.2063 61.8047H71.8643V63.2581H81.2063V61.8047Z" fill="#071642"/>
</g>
<defs>
<clipPath id="clip0_1283_4416">
<rect width="160" height="90" fill="white" transform="translate(0.5)"/>
</clipPath>
</defs>
</svg>
