<svg width="160" height="90" viewBox="0 0 160 90" fill="none" xmlns="http://www.w3.org/2000/svg">
<g clip-path="url(#clip0_1283_4282)">
<rect width="160" height="90" rx="16" fill="white"/>
<path d="M58.9948 51.6793C58.8942 51.6561 58.8277 51.5973 58.7906 51.5014C58.7302 51.339 58.7086 51.1704 58.7271 50.994C58.7287 50.9739 58.7457 50.9584 58.7658 50.9569C59.9229 50.8904 60.6314 50.8579 60.8928 50.8594C61.2331 50.8594 61.2161 51.3235 61.2238 51.5447C61.2238 51.5694 61.2053 51.5896 61.1805 51.5911C60.6221 51.6189 60.0637 51.6483 59.5068 51.6793C59.349 51.6886 59.151 51.7149 58.9948 51.6793Z" fill="#145F1F"/>
<path d="M79.2526 59.7554C78.9184 59.5001 78.8519 59.1366 78.8519 58.6926C78.8488 56.411 78.8488 54.1046 78.8519 51.7719C78.8519 51.7471 78.872 51.7286 78.8952 51.7286C79.5635 51.727 80.3184 51.6249 80.6494 52.335C80.6989 52.4417 80.7237 52.5531 80.7237 52.6691V59.9394C80.7237 59.9626 80.7051 59.9827 80.6819 59.9827C80.2055 59.9889 79.6579 60.0632 79.2526 59.7538V59.7554Z" fill="#145F1F"/>
<path d="M95.1718 58.4219C95.1641 56.2392 95.1656 54.0411 95.1765 51.8275C95.1765 51.7734 95.2213 51.7285 95.2755 51.7285C95.9422 51.7254 96.6367 51.631 96.9693 52.3333C97.0203 52.4432 97.0466 52.5855 97.0482 52.7603C97.0637 55.0234 97.0683 57.2864 97.0606 59.5495C97.0606 59.6841 97.0544 59.8187 97.0436 59.9548C97.042 59.9718 97.0265 59.9858 97.0095 59.9858C96.1881 59.9889 95.3853 60.0832 95.195 59.0406C95.1811 58.9617 95.1734 58.756 95.1718 58.4234V58.4219Z" fill="#145F1F"/>
<path d="M73.7482 58.3011C74.1226 58.2903 74.4985 58.2857 74.8759 58.2903C75.3616 58.2949 75.7561 58.2037 75.7576 57.6514C75.7592 55.6946 75.7592 53.7363 75.7576 51.7779C75.7576 51.764 75.7685 51.7532 75.7808 51.7532C76.4537 51.7362 77.2767 51.6557 77.569 52.4013C77.6294 52.5545 77.6588 52.8236 77.6603 53.2119C77.6634 54.4989 77.6634 55.7874 77.6618 57.0745C77.6618 57.6669 77.6309 58.0815 77.5721 58.3151C77.2751 59.4938 76.2789 59.9888 75.0693 59.9903C72.0668 59.9934 69.0627 59.9934 66.0587 59.9934C66.0417 59.9934 66.0277 60.0073 66.0277 60.0244C66.0277 60.0244 66.0277 60.0244 66.0277 60.0259C66.0865 60.9123 65.7741 61.5635 65.0903 61.9765C64.4329 62.3725 63.1103 62.4561 62.8288 61.5388C62.753 61.2928 62.7855 60.9308 62.7839 60.6539C62.7839 60.5611 62.8273 60.5256 62.9185 60.5441C63.678 60.7096 64.2272 60.6895 64.238 59.7428C64.255 58.2393 64.2597 56.7357 64.2519 55.2321C64.2519 55.2136 64.2643 55.1996 64.2829 55.1981C65.31 55.0991 66.1051 55.1254 66.1097 56.3753C66.1128 57.0064 66.1128 57.6282 66.1113 58.2424C66.1113 58.2686 66.1329 58.2903 66.1592 58.2903H71.9183C71.9368 58.2903 71.9508 58.2764 71.9508 58.2578C71.9508 58.2547 71.9508 58.2516 71.9508 58.2485C71.6166 57.0528 70.9221 55.5322 69.3798 55.8369C68.7874 55.9545 68.2707 56.3258 67.8407 56.7403C67.8237 56.7558 67.8159 56.7527 67.8144 56.7295C67.8082 56.2732 67.7664 55.6962 67.8871 55.3064C68.082 54.6752 68.6435 54.3102 69.2793 54.1833C72.0946 53.6218 73.3151 55.9854 73.7127 58.2717C73.7158 58.2888 73.7312 58.3011 73.7482 58.3011Z" fill="#145F1F"/>
<path d="M59.0545 53.8811C58.6446 53.6182 58.6074 52.9422 58.5873 52.4874C58.5734 52.1378 58.9214 52.0125 59.2138 52.0605C59.2324 52.0636 59.2463 52.0775 59.2478 52.096L59.3453 53.2701C59.353 53.3537 59.3979 53.3892 59.4814 53.3753L59.5619 53.3614C59.5835 53.3583 59.599 53.3397 59.599 53.3181C59.6021 53.0551 59.5912 52.7937 59.5649 52.5338C59.5201 52.0914 59.8341 52.0373 60.1822 52.0481C60.2224 52.0481 60.2564 52.0806 60.2595 52.1223C60.2904 52.4843 60.3214 52.8463 60.3539 53.2052C60.3631 53.3181 60.4204 53.3784 60.524 53.3892C60.5426 53.3908 60.5627 53.3815 60.572 53.3645C60.7731 53.0133 60.1868 51.8516 61.1907 52.1223C61.2217 52.1301 61.2449 52.1579 61.248 52.1889C61.2897 52.5818 61.3996 53.1603 61.3253 53.482C61.1892 54.0652 60.5287 54.1983 60.0553 53.9245C60.0367 53.9136 60.0151 53.9136 59.9965 53.9245C59.6732 54.09 59.3592 54.0745 59.056 53.8796L59.0545 53.8811Z" fill="#145F1F"/>
<path d="M98.856 54.464C99.3703 54.464 99.7873 54.0471 99.7873 53.5328C99.7873 53.0185 99.3703 52.6016 98.856 52.6016C98.3417 52.6016 97.9248 53.0185 97.9248 53.5328C97.9248 54.0471 98.3417 54.464 98.856 54.464Z" fill="#145F1F"/>
<path d="M86.2484 58.2774C87.3235 58.2542 88.3274 58.265 89.3948 58.282C89.4334 58.282 89.4644 58.3145 89.4644 58.3517C89.4644 58.9503 89.5634 59.5969 88.9029 59.8877C88.7683 59.9465 88.5533 59.9774 88.2593 59.9774C87.6514 59.9774 87.0435 59.9774 86.4371 59.9774C85.6946 59.9774 85.0882 60.3471 85.0774 61.1562C85.065 62.0116 85.4023 62.6443 86.2732 62.85C87.1889 63.065 88.1897 62.6133 88.8704 62.024C88.8905 62.0054 88.9013 62.0116 88.9013 62.0379C88.9044 62.8051 89.0065 63.5801 88.2439 64.0024C87.1147 64.6258 85.8215 64.4943 84.7649 63.792C83.8678 63.1949 83.4346 62.3457 83.4687 61.2443C83.498 60.3007 83.7301 59.4283 84.5113 58.8374C84.5252 58.8281 84.5283 58.808 84.5205 58.7941C83.4903 56.9873 84.2096 54.2787 86.5748 54.0714C87.7659 53.9678 88.8286 54.4906 89.2014 55.6864C89.3252 56.0839 88.8797 56.9161 88.7033 57.3183C88.677 57.3787 88.6538 57.3771 88.6368 57.3137C88.4233 56.5696 87.8448 55.7421 87.0311 55.5796C85.5353 55.2826 85.4626 57.5596 86.1974 58.2573C86.2128 58.2712 86.2314 58.279 86.2515 58.279L86.2484 58.2774Z" fill="#145F1F"/>
<path d="M97.3917 62.1957C96.5162 61.9946 96.5905 61.2552 96.6137 60.5683C96.6137 60.5529 96.6276 60.539 96.6446 60.5405C97.6888 60.6364 98.0538 60.7292 98.0569 59.5226C98.06 58.098 98.0012 56.6393 98.0801 55.2192C98.0801 55.2022 98.0956 55.1867 98.1126 55.1852C98.5689 55.1512 98.951 55.1651 99.2588 55.2254C99.8652 55.3445 99.9116 55.9045 99.9163 56.4304C99.9194 57.0414 99.9194 57.6432 99.9163 58.2325C99.9163 58.2588 99.9364 58.279 99.9627 58.2805C100.484 58.2882 100.985 58.2867 101.465 58.2743C102.138 58.2588 102.5 57.7824 102.49 57.1404C102.461 55.2115 103.813 53.7404 105.833 54.1457C106.401 54.2602 106.868 54.52 107.233 54.9238C108.273 56.0746 108.285 58.248 107.088 59.303C106.057 60.211 104.534 60.1708 103.457 59.3169C103.445 59.3076 103.428 59.3076 103.417 59.3169C102.385 60.1507 101.129 59.9914 99.8931 59.9852C99.876 59.9852 99.8621 59.9991 99.8606 60.0161C99.8544 60.3239 99.8467 60.5096 99.8374 60.5745C99.6626 61.761 98.5395 62.4571 97.3902 62.1941L97.3917 62.1957ZM104.224 57.5798C104.394 58.7631 105.887 58.8064 106.201 57.7051C106.435 56.8899 106.317 55.326 105.043 55.5951C104.167 55.7792 104.116 56.8342 104.223 57.5798H104.224Z" fill="#145F1F"/>
<path d="M55.141 58.2611C55.042 57.1118 54.2979 56.0676 53.1007 55.93C52.7696 55.8913 52.3937 55.9625 52.0503 56.0274C52.0271 56.0321 52.0194 56.0228 52.0287 56.0011C52.1122 55.8047 52.1988 55.6082 52.2916 55.4118C52.9924 53.9314 54.6352 54.3568 55.5788 55.2818C56.2981 55.9857 56.575 56.7823 56.8812 57.681C57.0143 58.0724 57.2927 58.2719 57.7166 58.2797C58.2966 58.2905 58.8752 58.2936 59.4537 58.2905C59.9131 58.2874 60.1467 58.0569 60.1544 57.5975C60.1684 56.8086 60.173 56.0181 60.1699 55.2277C60.1699 55.2107 60.1823 55.1967 60.1993 55.1952C60.9898 55.1163 61.989 55.1674 62.0354 56.2285C62.0973 57.6238 62.1932 59.2913 60.5504 59.8374C60.2813 59.9271 59.8698 59.9782 59.316 59.989C58.4498 60.0091 57.2494 60.1205 56.5487 59.593C56.5131 59.5667 56.4636 59.5682 56.4311 59.5992C56.0954 59.9209 55.7984 59.9874 55.305 59.9874C53.7225 59.989 52.7835 59.989 52.4896 59.9874C51.5414 59.9813 51.512 59.0175 51.5785 58.3338C51.5816 58.3075 51.6033 58.2874 51.6311 58.2874H55.1116C55.1271 58.2874 55.1394 58.2766 55.1394 58.2611C55.1394 58.2611 55.1394 58.2596 55.1394 58.258L55.141 58.2611Z" fill="#145F1F"/>
<path d="M91.4201 62.1976C90.5755 62.0042 90.6079 61.3514 90.6404 60.5904C90.6404 60.5733 90.6559 60.5594 90.6729 60.561C91.1633 60.5826 92.0636 60.8317 92.0667 59.9964C92.0713 58.4077 92.0713 56.8191 92.0682 55.2289C92.0682 55.2118 92.0821 55.1964 92.0991 55.1948C92.8339 55.1391 93.9337 55.0664 93.9384 56.1493C93.943 57.4641 93.9446 58.7805 93.943 60.0969C93.943 60.4202 93.9136 60.6723 93.8579 60.8502C93.5362 61.8774 92.4704 62.442 91.4185 62.2007L91.4201 62.1976Z" fill="#145F1F"/>
<path d="M70.3632 62.5233C70.8809 62.5233 71.3006 62.1036 71.3006 61.5858C71.3006 61.0681 70.8809 60.6484 70.3632 60.6484C69.8455 60.6484 69.4258 61.0681 69.4258 61.5858C69.4258 62.1036 69.8455 62.5233 70.3632 62.5233Z" fill="#145F1F"/>
<path d="M59.335 62.5294C59.8545 62.5294 60.2755 62.1084 60.2755 61.5889C60.2755 61.0695 59.8545 60.6484 59.335 60.6484C58.8156 60.6484 58.3945 61.0695 58.3945 61.5889C58.3945 62.1084 58.8156 62.5294 59.335 62.5294Z" fill="#145F1F"/>
<path d="M61.4415 62.5294C61.9609 62.5294 62.382 62.1084 62.382 61.5889C62.382 61.0695 61.9609 60.6484 61.4415 60.6484C60.9221 60.6484 60.501 61.0695 60.501 61.5889C60.501 62.1084 60.9221 62.5294 61.4415 62.5294Z" fill="#145F1F"/>
<path d="M73.6916 70.6294C73.6499 70.3339 73.6592 69.9101 73.6623 69.5311C73.6746 68.4668 73.6762 67.401 73.6684 66.3337C73.6684 66.3151 73.6808 66.2997 73.6994 66.2966C73.9933 66.244 74.3228 66.2795 74.3228 66.657C74.3228 68.0832 74.3228 69.477 74.3243 70.8382C74.3243 70.9341 74.2764 70.9774 74.182 70.9681C73.8835 70.9372 73.721 70.8243 73.6932 70.6294H73.6916Z" fill="#6CBE45"/>
<path d="M94.0363 70.7047C93.6976 70.434 93.6341 70.0844 93.628 69.6249C93.614 68.5205 93.6125 67.4144 93.6233 66.3084C93.6233 66.2899 93.6372 66.2744 93.6543 66.2729C94.0394 66.211 94.2885 66.3347 94.2885 66.7431C94.2885 67.7393 94.29 68.737 94.2947 69.7332C94.2947 69.9699 94.3859 70.1339 94.5669 70.2251C94.7123 70.2978 95.099 70.3102 95.2615 70.2499C95.7333 70.0766 95.5894 69.0696 95.5848 68.3596C95.5848 68.341 95.5971 68.324 95.6142 68.3178C95.8972 68.2312 96.2314 68.3225 96.2406 68.6767C96.2499 69.0325 96.2561 69.3883 96.2607 69.7441C96.2669 70.3814 96.847 70.2793 97.2817 70.2793C97.6669 70.2793 97.8973 70.1323 97.9035 69.7286C97.9113 69.2676 97.9144 68.8051 97.9113 68.3426C97.9113 68.3225 97.9267 68.3039 97.9469 68.3008C98.1046 68.2776 98.2562 68.2962 98.4032 68.3565C98.4898 68.3921 98.5393 68.4555 98.5501 68.5499C98.6105 69.0495 98.5981 69.5461 98.5161 70.0395C98.349 71.0373 97.3142 71.0079 96.5547 70.9321C96.3396 70.9104 96.1385 70.8284 95.9545 70.6846C95.9405 70.6737 95.9204 70.6722 95.905 70.6846C95.4254 71.0233 94.5081 71.0821 94.0379 70.7062L94.0363 70.7047Z" fill="#6CBE45"/>
<path d="M100.682 70.2832C100.994 70.2894 101.765 70.3636 102.014 70.1919C102.162 70.0914 102.236 69.9382 102.239 69.7356C102.244 69.3288 102.246 68.1918 102.242 66.3263C102.242 66.3077 102.255 66.2907 102.273 66.2876C102.807 66.1561 102.915 66.4763 102.915 66.928C102.915 67.7417 102.915 68.5553 102.918 69.3659C102.92 69.9398 102.806 70.6189 102.225 70.8617C102.074 70.9251 101.778 70.9576 101.338 70.9576C100.812 70.9576 100.286 70.9576 99.7613 70.9545C99.3529 70.9514 99.0869 70.7859 99.1951 70.3296C99.1998 70.311 99.2153 70.2987 99.2338 70.2987L99.9376 70.294C99.9701 70.294 99.9964 70.2677 99.9964 70.2352L99.9933 66.3201C99.9933 66.3031 100.006 66.2876 100.024 66.2845C100.181 66.2613 100.334 66.2706 100.482 66.3123C100.594 66.3448 100.651 66.4191 100.651 66.5351V70.2523C100.651 70.2693 100.665 70.2832 100.682 70.2847V70.2832Z" fill="#6CBE45"/>
<path d="M70.7442 70.9831C70.7164 71.1703 70.7473 71.3791 70.7149 71.5385C70.6004 72.0984 69.994 72.4403 69.4696 72.2872C69.2453 72.2222 69.1494 72.0675 69.1834 71.8216C69.185 71.8045 69.2005 71.7906 69.219 71.7922C69.8269 71.8092 70.1069 71.6885 70.1178 71.0063C70.1301 70.1277 70.127 69.2429 70.1054 68.3503C70.1054 68.3302 70.1209 68.3117 70.1425 68.3117C70.4627 68.3008 70.7535 68.2807 70.7752 68.7046C70.7999 69.2104 70.8061 69.6977 70.7922 70.1664C70.7891 70.2468 70.8293 70.2886 70.9098 70.2886C71.3676 70.2948 72.2246 70.4758 72.2293 69.7456C72.2323 69.2862 72.2324 68.1477 72.2308 66.3317C72.2308 66.3146 72.2447 66.2992 72.2617 66.2992C72.5835 66.2914 72.896 66.2791 72.8975 66.7075C72.9021 67.6372 72.9037 68.5669 72.8991 69.4981C72.896 70.1432 72.6964 70.813 71.9601 70.9445C71.7575 70.98 71.3645 70.9847 70.7814 70.9553C70.7644 70.9553 70.7473 70.9677 70.7458 70.9847L70.7442 70.9831Z" fill="#6CBE45"/>
<path d="M65.8328 67.8862C66.0387 67.8862 66.2056 67.7193 66.2056 67.5134C66.2056 67.3075 66.0387 67.1406 65.8328 67.1406C65.6269 67.1406 65.46 67.3075 65.46 67.5134C65.46 67.7193 65.6269 67.8862 65.8328 67.8862Z" fill="#6CBE45"/>
<path d="M66.7156 67.8862C66.9215 67.8862 67.0884 67.7193 67.0884 67.5134C67.0884 67.3075 66.9215 67.1406 66.7156 67.1406C66.5097 67.1406 66.3428 67.3075 66.3428 67.5134C66.3428 67.7193 66.5097 67.8862 66.7156 67.8862Z" fill="#6CBE45"/>
<path d="M95.407 67.8862C95.6129 67.8862 95.7798 67.7193 95.7798 67.5134C95.7798 67.3075 95.6129 67.1406 95.407 67.1406C95.2011 67.1406 95.0342 67.3075 95.0342 67.5134C95.0342 67.7193 95.2011 67.8862 95.407 67.8862Z" fill="#6CBE45"/>
<path d="M96.3074 67.8862C96.5133 67.8862 96.6802 67.7193 96.6802 67.5134C96.6802 67.3075 96.5133 67.1406 96.3074 67.1406C96.1015 67.1406 95.9346 67.3075 95.9346 67.5134C95.9346 67.7193 96.1015 67.8862 96.3074 67.8862Z" fill="#6CBE45"/>
<path d="M70.3738 67.8862C70.5797 67.8862 70.7466 67.7193 70.7466 67.5134C70.7466 67.3075 70.5797 67.1406 70.3738 67.1406C70.1679 67.1406 70.001 67.3075 70.001 67.5134C70.001 67.7193 70.1679 67.8862 70.3738 67.8862Z" fill="#6CBE45"/>
<path d="M79.5476 67.9018C79.7535 67.9018 79.9204 67.7349 79.9204 67.529C79.9204 67.3232 79.7535 67.1562 79.5476 67.1562C79.3417 67.1562 79.1748 67.3232 79.1748 67.529C79.1748 67.7349 79.3417 67.9018 79.5476 67.9018Z" fill="#6CBE45"/>
<path d="M80.4285 67.9018C80.6344 67.9018 80.8013 67.7349 80.8013 67.529C80.8013 67.3232 80.6344 67.1562 80.4285 67.1562C80.2226 67.1562 80.0557 67.3232 80.0557 67.529C80.0557 67.7349 80.2226 67.9018 80.4285 67.9018Z" fill="#6CBE45"/>
<path d="M86.2126 67.8862C86.4185 67.8862 86.5854 67.7193 86.5854 67.5134C86.5854 67.3075 86.4185 67.1406 86.2126 67.1406C86.0068 67.1406 85.8398 67.3075 85.8398 67.5134C85.8398 67.7193 86.0068 67.8862 86.2126 67.8862Z" fill="#6CBE45"/>
<path d="M98.2214 67.8862C98.4273 67.8862 98.5942 67.7193 98.5942 67.5134C98.5942 67.3075 98.4273 67.1406 98.2214 67.1406C98.0155 67.1406 97.8486 67.3075 97.8486 67.5134C97.8486 67.7193 98.0155 67.8862 98.2214 67.8862Z" fill="#6CBE45"/>
<path d="M59.1923 68.2909C59.3999 68.2909 59.5682 68.1226 59.5682 67.915C59.5682 67.7074 59.3999 67.5391 59.1923 67.5391C58.9847 67.5391 58.8164 67.7074 58.8164 67.915C58.8164 68.1226 58.9847 68.2909 59.1923 68.2909Z" fill="#6CBE45"/>
<path d="M63.931 70.9571C62.6703 70.9014 61.5581 70.476 61.7715 68.974C61.8845 68.1758 62.4321 67.6251 63.2535 67.6576C63.9109 67.6839 64.4105 68.0644 64.576 68.6971C64.6828 69.1055 64.6317 69.7505 64.6503 70.2533C64.6503 70.2703 64.6658 70.2842 64.6828 70.2842C65.3046 70.2811 65.9868 70.5039 65.993 69.6005C65.9961 69.1844 65.9961 68.7667 65.9961 68.3491C65.9961 68.3305 66.0085 68.315 66.027 68.3104C66.4648 68.2207 66.6783 68.4063 66.6674 68.8456C66.6551 69.4288 66.6597 69.7722 66.6814 69.8758C66.7927 70.391 67.3156 70.2811 67.7007 70.2811C68.0179 70.2811 68.2715 70.1744 68.3087 69.8434C68.3334 69.6237 68.335 69.1241 68.3179 68.3444C68.3179 68.3259 68.3303 68.3104 68.3489 68.3073C68.6165 68.2686 68.9274 68.2949 68.9661 68.6337C69.0187 69.09 69.0063 69.5464 68.929 70.0011C68.8083 70.7003 68.3551 70.937 67.6899 70.954C67.2398 70.9649 66.7324 70.9973 66.372 70.6802C66.3642 70.6725 66.3534 70.6725 66.3441 70.6771C65.8074 71.002 65.4145 70.9834 64.6766 70.9447C64.658 70.9447 64.641 70.9556 64.6348 70.9741C64.3084 71.8868 63.6371 72.3261 62.6239 72.2936C62.4321 72.2874 62.2789 72.224 62.1598 72.1018C62.1459 72.0863 62.1366 72.0678 62.1351 72.0461L62.1119 71.695C62.1119 71.678 62.1242 71.6625 62.1413 71.6625C62.1413 71.6625 62.1428 71.6625 62.1443 71.6625C62.7368 71.6671 63.7191 71.6563 63.9542 70.9896C63.9588 70.9772 63.9511 70.9633 63.9387 70.9602C63.9372 70.9602 63.9341 70.9602 63.9325 70.9602L63.931 70.9571ZM62.4352 69.6639C62.6393 70.2827 63.4731 70.2997 63.9898 70.2889C64.0161 70.2889 64.0377 70.2672 64.0377 70.2409C64.0563 69.5758 64.18 68.2006 63.1111 68.2578C62.4104 68.2949 62.2604 69.1318 62.4352 69.6639Z" fill="#6CBE45"/>
<path d="M92.2712 70.2481C92.2387 69.6154 91.951 68.6827 91.3307 68.4182C90.797 68.1892 90.169 68.3671 89.7606 68.7678C89.7513 68.777 89.7451 68.7755 89.7436 68.7616C89.6492 67.8412 90.4273 67.6107 91.1698 67.6633C92.9162 67.7855 93.074 70.1228 92.9518 71.3975C92.9503 71.4207 92.941 71.4238 92.924 71.4067C92.6533 71.1376 92.3284 70.9875 91.9479 70.9566C91.2997 70.9025 89.9818 71.0324 90.1009 72.0054C90.186 72.7015 90.6176 72.8979 91.2673 72.8964C91.6942 72.8964 92.0159 72.8624 92.3423 72.5917C92.3563 72.5793 92.3655 72.5839 92.3671 72.6009C92.4707 73.4858 91.4266 73.5848 90.8233 73.4827C89.8843 73.3233 89.3445 72.6705 89.4559 71.6682C89.6152 70.2388 91.1744 70.2419 92.2433 70.2791C92.2588 70.2791 92.2727 70.2682 92.2727 70.2528C92.2727 70.2528 92.2727 70.2512 92.2727 70.2497L92.2712 70.2481Z" fill="#6CBE45"/>
<path d="M82.1154 70.6747C82.0906 70.6545 82.055 70.6545 82.0318 70.6747C81.8276 70.8525 81.5817 70.9438 81.2924 70.9469C80.8052 70.9531 79.959 70.9546 78.7509 70.9515C77.5087 70.9485 76.9967 69.6491 77.3092 68.608C77.4531 68.1285 77.7825 67.915 78.2977 67.9692C78.3178 67.9707 78.3209 67.98 78.3069 67.9955C77.8104 68.492 77.6928 69.0783 77.9542 69.7558C78.1058 70.1487 78.3688 70.2833 78.7957 70.291C79.5769 70.3065 80.3596 70.3065 81.1408 70.291C81.5709 70.2817 81.7472 70.1039 81.7472 69.6877C81.7472 69.2407 81.7503 68.7936 81.7534 68.3466C81.7534 68.328 81.7673 68.3126 81.7843 68.311C83.011 68.1532 82.0117 69.8347 82.6506 70.2199C82.8316 70.3297 83.2075 70.2848 83.4271 70.2848C83.7999 70.2848 84.049 70.1456 84.0567 69.7527C84.0598 69.5918 84.0613 69.12 84.0598 68.3373C84.0598 68.3203 84.0737 68.3048 84.0907 68.3017C84.3398 68.2754 84.6693 68.3064 84.7048 68.608C84.7729 69.1773 84.7497 69.6893 84.6383 70.1425C84.4666 70.8371 83.8742 70.9763 83.2338 70.9593C82.7279 70.9454 82.4541 70.9639 82.1154 70.6747Z" fill="#6CBE45"/>
<path d="M59.3393 72.4463C57.845 72.6334 56.7885 71.481 56.9571 70.0239C57.0329 69.3664 57.3949 68.9813 58.0879 69.1112C58.1173 69.1174 58.1204 69.1282 58.0941 69.1452C57.7909 69.3448 57.613 69.634 57.5635 70.013C57.4428 70.9334 57.961 71.727 58.9217 71.7919C60.6758 71.9126 60.4639 69.3989 60.4546 68.3238C60.4546 68.3022 60.4716 68.2852 60.4933 68.2852C60.4948 68.2852 60.4964 68.2852 60.4979 68.2852C60.6372 68.3053 60.7965 68.2774 60.9125 68.3362C61.2002 68.4832 61.1353 69.1267 61.1275 69.402C61.095 70.6287 60.88 72.2529 59.3362 72.4478L59.3393 72.4463Z" fill="#6CBE45"/>
<path d="M85.1074 72.2012C84.9573 72.1162 84.9078 71.9831 84.9589 71.8021C84.9635 71.7851 84.9805 71.7728 84.9991 71.7743C85.4508 71.813 85.8731 71.6908 85.8746 71.1648C85.8762 70.2243 85.8777 69.2823 85.8762 68.3402C85.8762 68.3217 85.8886 68.3062 85.9056 68.3C85.9474 68.2876 85.9907 68.283 86.0324 68.2861C86.4671 68.317 86.5444 68.4067 86.5444 68.8507C86.546 69.5545 86.5475 70.2568 86.5475 70.9606C86.5475 71.3102 86.5151 71.5562 86.4532 71.7001C86.2474 72.1641 85.5746 72.4658 85.1074 72.1997V72.2012Z" fill="#6CBE45"/>
<path d="M99.4147 72.1516C99.4348 72.1531 99.4534 72.1392 99.4549 72.1191C99.4549 72.1145 99.4549 72.1098 99.4549 72.1052C99.1378 71.0889 100.629 71.1724 100.313 71.8175C100.307 71.8283 100.295 71.8329 100.284 71.8267C100.283 71.8267 100.279 71.8236 100.278 71.8221C100.136 71.6751 100.074 71.522 99.8231 71.57C99.8014 71.5746 99.7813 71.5885 99.7705 71.6071C99.6823 71.7649 99.673 71.9319 99.7442 72.1067C99.7519 72.1253 99.7705 72.1392 99.7906 72.1392H100.403C100.423 72.1392 100.442 72.1531 100.446 72.1732C100.482 72.3279 100.416 72.4192 100.253 72.4192C99.9747 72.4207 99.6978 72.4254 99.4224 72.4331C99.2523 72.4378 99.1749 72.3527 99.1904 72.1763C99.192 72.1516 99.2136 72.1346 99.2384 72.1361L99.4163 72.1531L99.4147 72.1516Z" fill="#6CBE45"/>
<path d="M67.8054 72.1753C68.0113 72.1753 68.1782 72.0084 68.1782 71.8025C68.1782 71.5966 68.0113 71.4297 67.8054 71.4297C67.5995 71.4297 67.4326 71.5966 67.4326 71.8025C67.4326 72.0084 67.5995 72.1753 67.8054 72.1753Z" fill="#6CBE45"/>
<path d="M68.6908 72.1784C68.8975 72.1784 69.0651 72.0108 69.0651 71.804C69.0651 71.5973 68.8975 71.4297 68.6908 71.4297C68.484 71.4297 68.3164 71.5973 68.3164 71.804C68.3164 72.0108 68.484 72.1784 68.6908 72.1784Z" fill="#6CBE45"/>
<path d="M83.53 72.1753C83.7359 72.1753 83.9028 72.0084 83.9028 71.8025C83.9028 71.5966 83.7359 71.4297 83.53 71.4297C83.3241 71.4297 83.1572 71.5966 83.1572 71.8025C83.1572 72.0084 83.3241 72.1753 83.53 72.1753Z" fill="#6CBE45"/>
<path d="M84.4119 72.1753C84.6178 72.1753 84.7847 72.0084 84.7847 71.8025C84.7847 71.5966 84.6178 71.4297 84.4119 71.4297C84.206 71.4297 84.0391 71.5966 84.0391 71.8025C84.0391 72.0084 84.206 72.1753 84.4119 72.1753Z" fill="#6CBE45"/>
<path d="M91.4406 72.2698C91.6456 72.2698 91.8118 72.1036 91.8118 71.8986C91.8118 71.6936 91.6456 71.5273 91.4406 71.5273C91.2355 71.5273 91.0693 71.6936 91.0693 71.8986C91.0693 72.1036 91.2355 72.2698 91.4406 72.2698Z" fill="#6CBE45"/>
<path d="M90.5103 29.3448C89.1258 26.3237 86.6508 24.1256 84.3692 21.8578C82.96 20.4579 81.5214 18.8894 81.3002 16.8057C81.2909 16.7206 81.3296 16.6835 81.4146 16.6928C88.0508 17.4693 93.1091 22.9066 93.5932 29.5087C93.8315 32.7634 92.8817 35.9546 90.9945 38.5889C90.9465 38.657 90.2288 39.5944 90.2009 39.5898C90.1916 39.5898 90.1855 39.5805 90.187 39.5728C90.187 39.5712 90.187 39.5681 90.1886 39.5666C91.8313 36.4063 92 32.5932 90.5103 29.3432V29.3448Z" fill="#145F1F"/>
<path d="M73.7999 23.2399C72.024 24.9508 70.3612 26.756 69.2644 28.9216C67.5412 32.3247 67.6603 36.2894 69.433 39.657C69.4841 39.7529 69.4717 39.7606 69.4005 39.6802C63.6214 33.2591 65.2193 23.0914 72.5686 18.6209C74.267 17.5876 76.1403 16.9441 78.1884 16.6919C78.2239 16.6873 78.258 16.7136 78.2626 16.7492C78.2626 16.7523 78.2626 16.7569 78.2626 16.76C78.1977 17.9604 77.6299 19.0478 76.8813 19.9853C75.9268 21.1794 74.8734 22.2035 73.7983 23.2399H73.7999Z" fill="#145F1F"/>
<path d="M75.9171 46.1423C73.8442 45.3286 72.022 43.839 70.9067 41.8976C70.8959 41.8791 70.899 41.8775 70.916 41.8914C71.0305 41.9904 71.1882 42.142 71.3924 42.3478C75.0524 46.0603 80.5948 46.9853 85.2123 44.5072C86.1884 43.9844 87.2016 43.2465 87.9503 42.4901C88.2906 42.1467 88.5102 41.927 88.6123 41.8296C88.6278 41.8157 88.6309 41.8172 88.6201 41.8358C86.1327 46.2351 80.5144 47.9459 75.9171 46.1438V46.1423Z" fill="#FFCF01"/>
<path d="M85.8766 38.5746L85.821 38.6689C85.8101 38.6875 85.8148 38.6921 85.8333 38.6828L85.9107 38.6504C85.9246 38.6627 85.9401 38.6705 85.9571 38.6767C85.9679 38.6798 85.9787 38.6736 85.9834 38.6627C85.9834 38.6596 85.9834 38.6565 85.9834 38.655C85.9323 38.225 85.7746 37.8382 85.51 37.4979C85.4946 37.4763 85.4977 37.4732 85.5193 37.4886C85.9602 37.781 86.7506 37.6201 87.1869 37.3989C87.2271 37.3788 87.2967 37.3773 87.3926 37.3927C87.4127 37.3974 87.4297 37.4113 87.4344 37.4314C87.4808 37.6062 87.589 37.716 87.7623 37.7609C87.8659 37.7872 87.9046 37.7501 87.8799 37.6449C87.8597 37.5629 87.8133 37.501 87.7406 37.4608C87.7298 37.4546 87.7236 37.4422 87.7236 37.4299V37.4082C87.7236 37.385 87.7375 37.3649 87.7592 37.3572C88.0686 37.2442 88.2898 37.0354 88.4244 36.7338C88.4306 36.7214 88.4244 36.7059 88.412 36.7013C88.4104 36.7013 88.4089 36.7013 88.4058 36.6997C88.0608 36.6348 87.719 36.6518 87.5009 36.9519C87.4885 36.9689 87.4653 36.9751 87.4467 36.9674L87.4282 36.9596C87.4112 36.9519 87.4034 36.9333 87.4096 36.9148C87.4591 36.7956 87.4375 36.6966 87.3446 36.6178C87.3261 36.6023 87.2982 36.6038 87.2828 36.6208C87.1389 36.7786 87.1203 36.9503 87.2271 37.1344C87.2487 37.17 87.2425 37.2164 87.2147 37.2458C87.1466 37.3169 87.0492 37.3618 86.9192 37.3819C85.5812 37.5753 84.8016 36.7338 83.6259 36.395C83.6074 36.3904 83.5965 36.3703 83.6012 36.3517C83.6012 36.3486 83.6027 36.3455 83.6043 36.344C84.4798 34.8357 86.1211 34.2634 87.7669 34.7878L87.9912 34.8713C88.0098 34.8791 88.0253 34.8914 88.0361 34.91C88.0763 34.9827 88.0918 35.0616 88.0825 35.1451C88.0067 35.2936 88.0036 35.4437 88.0701 35.5968C88.1073 35.6803 88.1583 35.6896 88.2217 35.6247C88.279 35.5674 88.3006 35.4792 88.2851 35.3648L88.3733 35.3184C88.562 35.5458 88.9271 35.5813 89.1978 35.552C89.2195 35.5504 89.2349 35.5318 89.2318 35.5102C89.2318 35.5071 89.2318 35.5025 89.2287 35.4994C89.0864 35.1575 88.8436 34.876 88.4367 34.862L88.4058 34.8048C88.5079 34.7754 88.675 34.6749 88.6518 34.5465C88.6409 34.4815 88.5992 34.4521 88.5296 34.4583C88.3424 34.4722 88.2418 34.5836 88.2233 34.7924C88.0949 34.862 87.9572 34.8512 87.8118 34.7599C87.4684 34.6022 87.0523 34.4954 86.5635 34.4382C86.2727 34.4042 86.0901 34.4861 85.7978 34.4243C85.7776 34.4196 85.7776 34.4165 85.7978 34.4134C86.5557 34.3129 87.0863 33.7406 87.4947 33.1435C87.5241 33.1017 87.5829 33.0769 87.671 33.0723C87.6896 33.0723 87.7082 33.08 87.719 33.097C87.8025 33.227 88.166 33.3693 88.2047 33.1342C88.2078 33.1125 88.2016 33.0893 88.1846 33.0738C88.1227 33.012 88.05 32.9764 87.9634 32.9656C87.9464 32.9625 87.9309 32.9563 87.917 32.9455L87.8953 32.9269C87.886 32.9192 87.8845 32.9052 87.8938 32.896C87.8953 32.8944 87.8969 32.8929 87.9 32.8913C88.1923 32.7413 88.3145 32.3282 88.3254 32.0127C88.3254 32.0003 88.3161 31.9895 88.3037 31.9895C88.3022 31.9895 88.3006 31.9895 88.2975 31.9895C87.9263 32.0637 87.6772 32.2772 87.5504 32.6314C87.5457 32.6454 87.5287 32.6531 87.5148 32.6469C87.5133 32.6469 87.5102 32.6454 87.5086 32.6438L87.4947 32.6345C87.4808 32.6252 87.4715 32.6098 87.4684 32.5943C87.4591 32.5232 87.4251 32.4613 87.3647 32.4102C87.2843 32.3406 87.2364 32.3576 87.2193 32.4628C87.1838 32.6778 87.2534 32.8372 87.4282 32.9408C87.4436 32.9501 87.4514 32.9671 87.4498 32.9857C87.4266 33.1249 87.3524 33.1775 87.2688 33.2734C86.8558 33.7436 86.367 34.0731 85.8024 34.2603C85.063 34.5063 84.3406 34.8327 83.8054 35.3679C83.4449 35.7298 83.1665 36.1552 82.9731 36.6441C82.9654 36.6642 82.9623 36.6642 82.9639 36.6425C82.9778 36.4631 83.0335 36.2945 83.1294 36.1367C83.1418 36.1166 83.1356 36.0887 83.1155 36.0763C83.1093 36.0717 83.1015 36.0702 83.0938 36.0702C82.3111 36.0377 81.1803 36.2589 80.6064 36.8451C80.5507 36.9024 80.5121 36.9766 80.4904 37.0694C80.28 37.9806 79.9196 39.0077 79.1353 39.6079C79.1168 39.6218 79.1152 39.6187 79.1261 39.6001C79.2096 39.4687 79.3534 39.3743 79.4323 39.2629C79.9026 38.5947 80.2027 37.8553 80.3326 37.0478C80.4038 36.6038 80.1656 36.2728 80.3249 35.8041C80.5213 35.2302 81.5191 34.6671 82.0497 34.6192C82.3714 34.5898 82.6761 34.7012 82.9639 34.9533C83.0489 35.0276 83.035 35.0755 82.9252 35.0987C82.8788 35.108 82.7086 35.2735 82.7937 35.3416C82.8092 35.354 82.8324 35.3555 82.8494 35.3447L82.9283 35.2936C82.9546 35.2766 82.9685 35.2843 82.9701 35.3153C82.9778 35.5164 83.0598 35.6803 83.2145 35.8072C83.2253 35.8165 83.2423 35.8149 83.2516 35.8041C83.2531 35.8025 83.2547 35.7995 83.2562 35.7964C83.3289 35.6076 83.3227 35.4251 83.2392 35.2457C83.2346 35.2364 83.2392 35.224 83.2485 35.2194C83.2516 35.2194 83.2531 35.2178 83.2562 35.2178L83.4217 35.2116C83.4682 35.2116 83.479 35.19 83.4527 35.1513C83.3908 35.06 83.3042 35.0322 83.1944 35.0662C83.1464 35.0817 83.0954 35.06 83.0737 35.0152C82.9762 34.8156 82.8401 34.6486 82.6653 34.5109C82.6359 34.4877 82.6406 34.4722 82.6746 34.4629C83.052 34.3593 83.3552 34.1505 83.5842 33.8349C83.5965 33.8163 83.6213 33.8117 83.6414 33.8241C83.6631 33.838 83.6847 33.8457 83.7095 33.8504C83.7713 33.8628 83.7791 33.8504 83.7311 33.8133C83.7172 33.804 83.7017 33.7993 83.6863 33.8024C83.6662 33.8055 83.6476 33.7978 83.6352 33.7823C83.6058 33.7436 83.6043 33.7081 83.629 33.6756C83.6894 33.5967 84.09 33.0073 84.1209 32.998C84.141 32.9919 84.1457 32.998 84.1349 33.0166L83.7327 33.688C83.7126 33.722 83.7203 33.7328 83.759 33.7204C84.2261 33.5688 84.4148 33.1435 84.3762 32.6763C84.3762 32.6639 84.3638 32.6531 84.3514 32.6546C84.3499 32.6546 84.3468 32.6546 84.3452 32.6562C84.0359 32.7846 83.694 33.029 83.6631 33.3832L83.6213 33.4296C83.6197 33.3213 83.5656 33.2115 83.4589 33.0986C83.3769 33.012 83.3243 33.0274 83.3042 33.145C83.2872 33.2363 83.4434 33.7251 83.5888 33.5348L83.6228 33.5843C83.595 33.6369 83.5795 33.6957 83.5764 33.7607C83.5764 33.7808 83.5687 33.8009 83.5548 33.8164C83.1108 34.3346 82.5493 34.2572 81.9522 34.2897C81.3783 34.3222 80.6203 34.565 80.2909 35.0693C80.1222 35.3292 80.0356 35.5303 79.7402 35.736C79.7077 35.7592 79.7 35.7546 79.717 35.7237C79.7216 35.7159 79.7293 35.7066 79.7386 35.6974C79.9273 35.5164 80.0898 35.2812 80.2259 34.9889C81.1385 33.0429 83.5563 31.5331 85.7312 31.8998C85.7514 31.9029 85.7699 31.9137 85.7823 31.9292C85.9323 32.1101 85.6523 32.3375 85.8828 32.6098C85.8952 32.6252 85.9153 32.6314 85.9354 32.6268C86.1211 32.5788 86.0004 32.3808 86.0545 32.2509C86.0592 32.2401 86.0716 32.2354 86.0824 32.2385C86.0855 32.2385 86.087 32.2416 86.0901 32.2432C86.3221 32.4737 86.6733 32.4876 86.9873 32.4025C86.9997 32.3994 87.0074 32.3855 87.0043 32.3716C87.0043 32.37 87.0043 32.3685 87.0028 32.3669C86.8574 32.0885 86.6393 31.8889 86.3484 31.7683C86.3268 31.759 86.3113 31.7404 86.3067 31.7172L86.2928 31.6569C86.2897 31.6399 86.2928 31.6213 86.3067 31.6089C86.3515 31.5625 86.3639 31.5099 86.3423 31.4481C86.3361 31.4295 86.3206 31.4171 86.3005 31.4156C85.9339 31.3846 86.0174 31.6909 85.8008 31.7807C85.7591 31.7977 85.6941 31.7915 85.6059 31.7621C85.0042 31.5594 84.3932 31.5471 83.7713 31.7281C83.7095 31.7466 83.6971 31.7281 83.7358 31.677C84.172 31.0799 84.3653 30.407 84.3174 29.6583C84.3174 29.6444 84.305 29.632 84.2911 29.632H84.2663C84.2571 29.632 84.2493 29.6398 84.2493 29.649C84.2725 30.3807 84.0158 30.9886 83.479 31.4697C83.0459 31.858 82.2879 32.1349 81.813 32.4133C81.4015 32.6546 81.0272 32.9919 80.69 33.4281C80.5693 33.5828 80.3976 33.674 80.1764 33.7034C80.1346 33.7081 80.1331 33.7034 80.1733 33.6911C80.3883 33.6183 80.56 33.4884 80.6884 33.3012C80.7008 33.2827 80.7085 33.2626 80.7085 33.2394C80.7224 32.9532 80.7286 32.7119 80.6776 32.4087C80.5801 31.8425 80.625 31.4032 80.9235 30.8974C80.9637 30.9098 80.9931 30.9361 81.0117 30.9747C81.0968 31.1387 81.2314 31.2315 81.417 31.2516C81.434 31.2532 81.4479 31.2408 81.4495 31.2253C81.4495 31.2222 81.4495 31.2191 81.4495 31.216C81.4108 31.0521 81.3226 30.9237 81.1865 30.8324C81.1076 30.8417 81.055 30.8169 81.0272 30.7566C81.2669 30.4194 81.748 30.0172 82.1842 30.0249C82.2322 30.0945 82.2848 30.1023 82.3405 30.0512C82.7133 30.3761 83.0984 30.2585 83.4635 30.0141C83.479 30.0033 83.4836 29.9832 83.4728 29.9677C83.4712 29.9646 83.4697 29.9631 83.4666 29.9615C83.1433 29.6831 82.7287 29.55 82.3606 29.8548C82.308 29.8996 82.3157 29.9228 82.3838 29.9275L83.0567 29.9677C83.1449 29.9723 83.1449 29.9801 83.0567 29.9878C82.8339 30.0079 82.6112 30.0064 82.3884 29.9847C82.3683 29.9832 82.3482 29.9739 82.3327 29.9615C82.209 29.861 81.7171 29.9414 81.5748 29.9909C81.4108 30.0481 81.253 30.1178 81.0983 30.1997C81.0751 30.2121 81.0643 30.2059 81.0658 30.1796C81.0921 29.7898 81.021 29.4186 80.8508 29.0674C80.8152 28.9916 80.8338 28.9359 80.9096 28.9019C81.0983 28.8137 81.1788 28.6606 81.1478 28.4425C81.1355 28.362 81.0999 28.3481 81.0395 28.4038L80.8864 28.5415C80.8663 28.5585 80.8369 28.5569 80.8199 28.5368C80.8153 28.5322 80.8122 28.526 80.8106 28.5198C80.7054 28.1826 80.4858 27.9459 80.1532 27.8113C80.147 27.8098 80.1408 27.8113 80.1393 27.8175C80.1393 27.8175 80.1393 27.8191 80.1393 27.8206C80.1176 28.1285 80.1439 28.526 80.3914 28.7472C80.4053 28.7596 80.4069 28.7797 80.3945 28.7936C80.393 28.7952 80.3914 28.7967 80.3883 28.7983L80.3651 28.8153C80.3496 28.8261 80.3295 28.8323 80.311 28.8323C80.2305 28.8323 80.164 28.8648 80.1099 28.9297C80.0526 28.9978 80.065 29.0489 80.147 29.0844C80.3017 29.1509 80.4486 29.137 80.5879 29.0427C80.6838 28.9777 80.7456 29.0009 80.7735 29.1138C80.8771 29.5299 80.8663 29.9368 80.741 30.3312C80.608 30.7535 80.3141 31.1078 80.2491 31.5842C80.2414 31.6383 80.181 31.9616 80.1222 31.9725C80.1021 31.9771 80.096 31.9694 80.1037 31.9493C80.2197 31.6971 80.2089 31.4898 80 31.2841C79.5221 30.8154 78.9435 30.5509 78.2629 30.489L78.1407 30.4952C78.0881 30.4983 78.085 30.5122 78.1314 30.537L78.1747 30.5602C78.1917 30.5694 78.1995 30.588 78.1948 30.605C78.1825 30.6499 78.1577 30.6824 78.1221 30.7056C77.9303 30.786 77.8452 30.9299 77.8653 31.1371C77.87 31.1758 77.904 31.2052 77.9427 31.2006C77.9535 31.2006 77.9643 31.1959 77.9736 31.1897C78.1345 31.0892 78.2041 30.9438 78.1809 30.7535C78.1871 30.6638 78.2351 30.6174 78.3232 30.6112C79.0564 30.8092 79.6489 31.462 79.898 32.1442C80.048 32.5572 80.0789 32.9996 79.9026 33.4389C79.5716 34.2603 78.6573 36.016 78.959 36.8513C79.1183 37.2953 79.3797 37.8104 79.4045 38.2807C79.4045 38.2853 79.4029 38.2899 79.3983 38.2899C79.3875 38.293 79.3782 38.2961 79.3751 38.2822C79.2405 37.566 78.8662 37.0664 78.3913 36.542C78.1175 36.2403 77.9535 36.0485 77.8978 35.965C77.5297 35.4158 77.4183 34.7893 77.5606 34.0871C77.6782 33.5132 78.102 32.981 78.7146 32.9516C78.8801 32.9455 79.0812 32.9671 79.1848 33.111C79.1338 33.2053 79.1446 33.292 79.2189 33.3693C79.2452 33.3987 79.2637 33.3941 79.273 33.3538L79.3024 33.2254C79.3055 33.2115 79.3194 33.2038 79.3333 33.2069C79.3333 33.2069 79.3364 33.2069 79.338 33.2069C79.4664 33.2657 79.6025 33.278 79.7464 33.244C79.7696 33.2378 79.785 33.2146 79.7788 33.1914C79.7788 33.1868 79.7757 33.1821 79.7727 33.1775C79.6907 33.0568 79.5808 32.9733 79.4416 32.9269C79.4246 32.9207 79.4153 32.9037 79.4184 32.8882L79.437 32.7846C79.4401 32.7645 79.4261 32.7459 79.406 32.7428C79.3117 32.7289 79.2544 32.7784 79.2328 32.8913L78.7053 32.8449C78.3634 32.7923 78.0757 32.8789 77.8421 33.1079C77.8097 33.1388 77.7741 33.1527 77.7354 33.1465C77.7153 33.1435 77.7122 33.1342 77.7261 33.1203L77.8514 32.9872C77.8669 32.9718 77.8746 32.9516 77.8746 32.93C77.8793 32.6252 77.8298 32.3313 77.723 32.0498C77.6844 31.9477 77.7122 31.8719 77.8066 31.8193C77.8762 31.7807 77.9226 31.6909 77.9473 31.5502C77.9551 31.5007 77.9442 31.4682 77.9133 31.4496C77.8978 31.4403 77.8777 31.4403 77.8623 31.4496L77.7199 31.5378C77.7029 31.5486 77.6782 31.544 77.6673 31.5254C77.6643 31.5223 77.6627 31.5177 77.6627 31.513C77.6086 31.2578 77.4632 31.0737 77.2296 30.9639C77.2157 30.9577 77.1986 30.9639 77.1909 30.9778C77.1909 30.9794 77.1894 30.9825 77.1894 30.984C77.1383 31.2377 77.1878 31.4666 77.3379 31.6739C77.3518 31.694 77.3765 31.7049 77.3997 31.7018L77.4678 31.694C77.4833 31.6925 77.4972 31.7033 77.5003 31.7188C77.5003 31.7188 77.5003 31.7203 77.5003 31.7219C77.5003 31.7837 77.4864 31.8425 77.4539 31.8967C77.4446 31.9121 77.4384 31.9121 77.4369 31.8936C77.4291 31.8178 77.3533 31.7776 77.2064 31.7745C77.1584 31.7745 77.1182 31.8116 77.1167 31.8595C77.1167 31.8657 77.1167 31.8719 77.1167 31.8766L77.1244 31.9199C77.129 31.9446 77.1491 31.9616 77.1739 31.9616L77.4941 31.9554C77.5915 31.9539 77.6472 32.0003 77.6596 32.0978C77.7431 32.7304 77.4461 33.261 77.1971 33.8164C76.9945 34.2649 76.6975 34.9471 77.2652 35.2256C77.2868 35.2364 77.2853 35.2441 77.2621 35.2503C77.0996 35.2921 76.9016 34.9193 76.8661 34.7847C76.6959 34.1489 76.3324 33.541 75.808 33.1326C75.5002 32.8929 74.0801 32.2262 74.3648 31.7049C74.3694 31.6956 74.3802 31.6925 74.3895 31.6971C74.3926 31.6971 74.3941 31.7002 74.3957 31.7018C74.5194 31.858 74.7747 31.5022 74.7994 31.397C74.8072 31.363 74.7871 31.3274 74.753 31.3197C74.753 31.3197 74.7515 31.3197 74.7499 31.3197C74.6633 31.3011 74.5891 31.3243 74.5287 31.3893C74.5148 31.4048 74.4947 31.4125 74.473 31.4125C74.4467 31.4125 74.4359 31.3939 74.439 31.3599C74.4746 30.984 74.3756 30.6638 74.142 30.3993C74.1343 30.39 74.1203 30.3885 74.1111 30.3977C74.1095 30.3993 74.108 30.4008 74.1064 30.4039C73.9316 30.7241 73.8141 31.1743 74.0848 31.4867C74.1049 31.5115 74.1203 31.5084 74.1296 31.4775L74.1405 31.4419C74.1466 31.4218 74.1497 31.4218 74.1513 31.4419L74.1575 31.5424C74.1575 31.5625 74.1436 31.5796 74.1219 31.5811H74.1188C74.077 31.578 74.0554 31.6012 74.0538 31.6492C74.0507 31.711 74.0445 31.7095 74.0353 31.643C74.0105 31.4589 73.9007 31.3661 73.7058 31.363C73.6532 31.363 73.6083 31.4048 73.6083 31.4574C73.6083 31.4604 73.6083 31.462 73.6083 31.4651C73.6114 31.5177 73.6377 31.5625 73.6857 31.6012C73.8017 31.6925 73.9347 31.7281 74.0832 31.7095C74.1606 31.7002 74.2054 31.7327 74.2209 31.8085C74.2828 32.1256 74.4081 32.4118 74.5999 32.667C74.6092 32.6778 74.6061 32.6949 74.5937 32.7041C74.5921 32.7041 74.5891 32.7072 74.5875 32.7072L74.4065 32.7722C74.2735 32.7567 74.1652 32.797 74.0786 32.8929L73.5789 33.2564C73.5294 33.2657 73.4877 33.2533 73.4521 33.2223C73.3794 33.0383 73.2433 32.9764 73.0437 33.0336C72.9323 33.0661 72.9184 33.1218 73.005 33.2007C73.1133 33.2997 73.2386 33.3322 73.3778 33.2981C73.4072 33.2997 73.4119 33.3152 73.3933 33.3446C72.9432 33.4095 72.6817 33.7715 72.6462 34.2154C72.6462 34.2294 72.6555 34.2417 72.6694 34.2417C72.6709 34.2417 72.674 34.2417 72.6756 34.2417C73.0159 34.1845 73.3206 34.0561 73.4722 33.7344L73.5186 33.739C73.5279 33.8457 73.5619 33.9447 73.6207 34.0345C73.6919 34.1443 73.746 34.1366 73.7831 34.0113C73.8295 33.8473 73.8001 33.7003 73.6919 33.5719C73.6779 33.5565 73.6578 33.5472 73.6362 33.5487L73.5805 33.5518L73.5465 33.5178L73.599 33.4559L73.6408 33.3616C73.7027 33.1141 74.2781 32.9161 74.4854 32.8743C74.6092 32.8495 74.7298 32.8604 74.8489 32.9052C75.8436 33.278 76.1669 34.3964 76.4995 35.2843C76.5072 35.3045 76.4994 35.3106 76.4793 35.306C76.2411 35.2426 76.0014 35.1884 75.76 35.1467C74.8861 34.9966 73.9796 34.6053 73.0917 34.8234C73.0716 34.828 73.0515 34.8218 73.0391 34.8064C73.0205 34.7862 73.0174 34.7615 73.0267 34.7337C73.0329 34.7135 73.0313 34.6919 73.0205 34.6733C72.9664 34.5867 72.889 34.5326 72.79 34.5109C72.6879 34.4908 72.6616 34.5248 72.7096 34.6176C72.7452 34.6842 72.7962 34.729 72.8643 34.7569C72.8736 34.7599 72.8813 34.7708 72.8797 34.7816C72.8797 34.7971 72.872 34.7986 72.8581 34.8002C72.5657 34.8187 72.36 34.9595 72.2409 35.2225C72.2347 35.2348 72.2409 35.2488 72.2533 35.2549H72.2564C72.4528 35.3091 72.64 35.2921 72.8163 35.2024C72.838 35.1915 72.8643 35.19 72.8875 35.1993C72.903 35.2055 72.9169 35.2024 72.9292 35.19C72.9865 35.1266 72.9958 35.1343 72.9555 35.2178C72.9292 35.2735 72.9354 35.323 72.9757 35.3694C72.9989 35.3973 73.0406 35.4004 73.0685 35.3772C73.0747 35.3725 73.0793 35.3663 73.0839 35.3601C73.1505 35.2457 73.152 35.1327 73.0901 35.0229C73.0329 34.9224 73.0623 34.8698 73.1783 34.8636C74.0291 34.8172 74.6989 35.3045 75.5357 35.3462C75.5605 35.3462 75.5651 35.3586 75.5512 35.3787C75.5435 35.388 75.5326 35.3942 75.5187 35.3942C75.2248 35.4158 75.0871 35.4777 74.8195 35.651C74.4235 35.9077 73.9904 36.0763 73.5202 36.1568L73.4459 36.1521C73.4273 36.1521 73.4119 36.1382 73.4072 36.1197L73.3964 36.0779C73.4335 35.9449 73.3933 35.8536 73.2727 35.8056C73.2525 35.7979 73.2293 35.801 73.2123 35.8149L73.1984 35.8273C73.1814 35.8428 73.1768 35.8675 73.1891 35.8876L73.2696 36.0238C73.2897 36.0578 73.2819 36.0671 73.2448 36.0547C73.0159 35.9758 72.8194 36.0253 72.657 36.2016C72.6477 36.2125 72.6477 36.2295 72.6585 36.2403C72.6585 36.2403 72.6601 36.2419 72.6616 36.2434C72.8813 36.3873 73.0004 36.4105 73.2572 36.3362C73.2897 36.3269 73.2928 36.3331 73.2696 36.3563C73.2077 36.4136 73.186 36.4847 73.2046 36.5683C73.2077 36.5853 73.2247 36.5961 73.2433 36.593C73.2433 36.593 73.2464 36.593 73.2479 36.593C73.3655 36.5497 73.4119 36.4522 73.3887 36.3022C73.3902 36.2666 73.4103 36.2372 73.4459 36.2156C73.9873 36.2109 74.3307 36.0005 74.7762 35.7995C75.7987 35.3385 77.4338 35.852 77.5931 37.1035C77.5962 37.1251 77.5931 37.1251 77.5838 37.1066C77.3781 36.6502 77.2667 36.3517 76.7052 36.2898C75.989 36.2109 75.3037 36.2743 74.6478 36.4832C73.548 36.8328 71.3282 37.6882 71.008 35.7979C71.0142 35.7561 71.0111 35.7175 70.9972 35.6819C70.9895 35.6633 70.9895 35.6432 70.9972 35.6247C71.025 35.5581 71.0297 35.487 71.0111 35.4112C71.3236 35.0337 71.2014 34.6331 70.9724 34.2526C70.9554 34.2232 70.9168 34.2139 70.8858 34.2309C70.8765 34.2371 70.8688 34.2448 70.8626 34.2541C70.711 34.5264 70.5857 34.8852 70.7311 35.19L70.6507 35.224C70.5842 35.1699 70.5099 35.1389 70.4248 35.1297C70.3181 35.1173 70.2872 35.1606 70.3289 35.2596C70.4125 35.4514 70.5579 35.521 70.7667 35.4669C70.8564 35.5365 70.9121 35.637 70.9338 35.7701C70.9786 36.8575 71.8371 37.3556 72.8364 37.3293L72.8596 37.3324C72.872 37.334 72.8797 37.3432 72.8813 37.3556V37.3757C72.4203 37.5938 72.0243 37.897 71.6948 38.2868C71.6856 38.2977 71.6871 38.3147 71.6995 38.324C71.701 38.324 71.7026 38.3271 71.7057 38.3271L71.7351 38.341C71.7536 38.3503 71.7768 38.341 71.7846 38.324C71.7846 38.3224 71.7846 38.3209 71.7861 38.3193C71.8573 38.0919 72.558 37.7315 72.7761 37.631C74.3678 36.9039 78.2598 36.214 78.3279 39.0711C78.3279 39.1067 78.3573 39.133 78.3928 39.133C78.4021 39.133 78.4129 39.1299 78.4207 39.1253C78.7099 38.969 78.9636 38.7648 79.1786 38.5158C79.191 38.5019 79.1972 38.5034 79.1988 38.522C79.2049 38.6999 78.5274 39.1933 78.3913 39.2691C78.3743 39.2784 78.3619 39.2954 78.3573 39.314C78.2552 39.7626 78.1995 40.0364 78.1886 40.14C78.1639 40.3999 78.2737 40.7046 78.2088 40.9722C78.1639 41.1517 78.0912 41.3187 77.986 41.4734C77.9736 41.492 77.9767 41.4951 77.9968 41.4842C78.0835 41.4363 78.15 41.3512 78.2242 41.3064C78.9451 40.8547 79.3766 40.5747 79.5174 40.4664C80.0929 40.0224 80.543 39.4764 80.8694 38.8267C80.8787 38.8081 80.8802 38.8081 80.8725 38.8283C80.6698 39.3929 80.3651 39.8863 79.9583 40.3071C79.4107 40.8748 78.6295 41.2429 78.0587 41.84C77.5761 42.3459 77.1089 43.4674 76.3618 43.6808C76.3417 43.687 76.3216 43.6855 76.3014 43.6777C70.3537 41.4873 67.8184 34.5233 70.9987 29.0411C72.5704 26.3341 75.3161 24.0834 77.4276 21.7971C78.6481 20.476 79.6149 18.8812 79.7943 17.0327C79.7974 17.011 79.802 17.0095 79.8098 17.0311C79.8469 17.1255 79.8237 17.2446 79.833 17.3266C80.1037 19.5046 81.5748 21.2526 83.0675 22.7407C84.9145 24.583 86.8759 26.4037 88.2851 28.5415C91.8801 34.0035 89.4948 41.263 83.431 43.6236C83.4125 43.6313 83.3924 43.6298 83.3738 43.6205C82.4642 43.1657 81.714 41.9653 81.3907 41.0387C81.3799 41.0094 81.3706 41.0094 81.3628 41.0387C81.1896 41.6235 80.8369 42.0643 80.3048 42.3613C80.1934 42.4232 80.1872 42.4155 80.2862 42.335C81.171 41.6266 81.3304 40.7696 81.1556 39.6837C81.1525 39.6636 81.1432 39.6605 81.1308 39.6775C80.6637 40.2622 80.2893 40.8825 80.0109 41.5368C79.8129 42.0025 79.6443 42.5794 80.3295 42.762C81.0395 42.9507 81.7743 43.076 82.424 43.438C82.4426 43.4472 82.4426 43.4503 82.4209 43.4442C81.383 43.1502 80.4657 43.0435 79.4942 42.7852C79.4741 42.779 79.454 42.7852 79.4385 42.7976C78.8646 43.2724 78.2026 43.5323 77.4539 43.5803C77.4477 43.5803 77.4415 43.5772 77.44 43.5741V43.5694C77.44 43.5694 77.4446 43.5633 77.4492 43.5633C78.7486 43.24 79.2405 42.8795 79.785 41.6482C80.0619 41.0233 80.3821 40.4215 80.7472 39.843C81.2267 39.085 81.3861 38.5498 81.7032 37.6016C81.8362 37.2056 82.1363 37.0292 82.5493 36.9441C83.909 36.6626 85.3832 37.1916 85.8813 38.5807L85.8766 38.5746ZM76.453 28.9746L76.419 29.0086C76.3231 28.939 76.2179 28.9143 76.1004 28.9375C75.9905 28.9591 75.9704 29.0133 76.04 29.0999C76.1762 29.2685 76.3355 29.2778 76.5165 29.1277C76.552 29.0566 76.5629 28.9947 76.5459 28.9437L76.3742 28.3373C76.3649 28.3063 76.368 28.3048 76.3803 28.3342L76.6526 28.9607C76.716 29.0071 76.7207 29.0581 76.6681 29.1123C76.6449 29.1092 76.6232 29.1123 76.6031 29.1247C76.5938 29.1293 76.5892 29.1417 76.5954 29.1525C76.5969 29.1556 76.6 29.1587 76.6015 29.1602C76.9248 29.3722 76.832 30.011 76.7965 30.3297C76.7949 30.3513 76.7965 30.3513 76.8042 30.3312C76.9604 29.9167 76.9295 29.5176 76.7114 29.1324L76.764 28.9452C76.9914 28.9019 77.0996 28.7751 77.0919 28.5631C77.0904 28.5167 77.0501 28.4796 77.0037 28.4811C76.9914 28.4811 76.9805 28.4842 76.9697 28.4889C76.8166 28.5647 76.7408 28.6853 76.7423 28.8509H76.7005C76.7671 28.3837 76.535 28.1377 76.2055 27.8624C76.1932 27.8516 76.1746 27.8531 76.1638 27.8655C76.1607 27.8686 76.1591 27.8717 76.1576 27.8748C76.0215 28.3311 76.1189 28.6977 76.4499 28.9731L76.453 28.9746ZM82.854 28.5539L82.7891 28.5987C82.7318 28.772 82.7937 28.8926 82.9747 28.9638C83.0799 29.004 83.1139 28.9715 83.0799 28.8632C83.052 28.7797 83.0025 28.7116 82.9298 28.6606L82.9608 28.6297C83.2934 28.7039 83.561 28.608 83.7652 28.3435C83.7744 28.3326 83.7713 28.3156 83.7605 28.3063C83.7605 28.3063 83.7574 28.3048 83.7559 28.3033C83.5146 28.1811 83.1851 28.0991 82.953 28.2831C82.9438 28.2893 82.9298 28.2924 82.9206 28.2862C82.9128 28.2816 82.9097 28.2692 82.9144 28.2615C82.9623 28.1903 83.0629 27.9861 82.9793 27.9258C82.9376 27.8964 82.8803 27.9026 82.8479 27.9428C82.7721 28.0326 82.7396 28.1377 82.7504 28.2553C82.7535 28.2785 82.769 28.2971 82.7891 28.3033L82.82 28.3125C82.8355 28.3172 82.8463 28.3326 82.8448 28.3497C82.8339 28.4796 83.2671 28.3883 83.3614 28.3837C83.3831 28.3837 83.3831 28.3852 83.363 28.393C83.216 28.4425 83.066 28.4703 82.9128 28.4781C82.868 28.4811 82.8417 28.5074 82.8525 28.5523L82.854 28.5539ZM82.3776 28.3976C82.4194 28.4146 82.4828 28.3543 82.5199 28.2615C82.557 28.1702 82.5555 28.0821 82.5137 28.065C82.472 28.048 82.4085 28.1083 82.3714 28.2012C82.3343 28.2924 82.3358 28.3806 82.3776 28.3976ZM81.946 28.6343C82.0435 28.7287 81.8702 28.7936 81.8377 28.8849C81.83 28.9065 81.8346 28.9096 81.8517 28.8942C82.1084 28.6699 82.3173 28.5198 82.6406 28.5384C82.7117 28.5415 82.7489 28.5121 82.7473 28.4409C82.7473 28.4286 82.7365 28.4177 82.7226 28.4177C82.7195 28.4177 82.7179 28.4177 82.7148 28.4177C82.5014 28.4935 82.3281 28.4316 82.1378 28.591C82.1023 28.6219 82.0574 28.625 82.0203 28.5987C82.0234 28.5337 82.0512 28.328 81.9646 28.3079C81.946 28.3033 81.9259 28.3125 81.9151 28.3311C81.8532 28.4425 81.8625 28.543 81.9445 28.6327L81.946 28.6343ZM84.2431 28.7843C84.2834 29.0241 84.3004 29.2654 84.2957 29.5067C84.2957 29.5222 84.3081 29.5361 84.3236 29.5361C84.3236 29.5361 84.3236 29.5361 84.3251 29.5361C84.3592 29.5346 84.3855 29.5176 84.4025 29.4882C84.6268 29.0736 84.5788 28.6853 84.2586 28.3265C84.2509 28.3172 84.2354 28.3156 84.2261 28.3249C84.2246 28.3249 84.223 28.328 84.2215 28.3296C84.0885 28.5446 84.0157 28.7781 84.0034 29.0272C83.9941 29.1943 84.0885 29.3443 84.1519 29.499C84.1596 29.5176 84.1797 29.5253 84.1983 29.5176C84.2014 29.5176 84.2045 29.5145 84.206 29.5129L84.2261 29.4974C84.2416 29.4851 84.2509 29.4665 84.2493 29.4464L84.2215 28.7859C84.2168 28.673 84.223 28.6714 84.2416 28.7843H84.2431ZM75.1521 29.4588L75.1258 29.4433C75.098 29.3288 74.9588 29.1092 74.8041 29.1803C74.7855 29.1881 74.7747 29.2066 74.7747 29.2252C74.7716 29.4186 74.8644 29.55 75.0531 29.6181C75.0933 29.6692 75.1227 29.731 75.1397 29.8037C75.1444 29.8238 75.1413 29.844 75.132 29.8625C75.0438 30.0342 74.8938 30.5462 75.0021 30.7272C75.0083 30.7381 75.0129 30.7504 75.0129 30.7628C75.016 30.8479 75.033 30.9299 75.0639 31.0072C75.0779 31.0428 75.0856 31.0412 75.0856 31.0026C75.0856 30.7133 74.9123 29.946 75.3625 29.8238C75.5342 29.9476 75.6889 29.9383 75.8266 29.7975C75.9178 29.7032 75.8993 29.6444 75.7693 29.6212C75.6811 29.6057 75.5976 29.6135 75.5172 29.646L75.5141 29.5702C75.8049 29.3288 75.8064 28.8926 75.726 28.5492C75.7229 28.5368 75.7105 28.5291 75.6982 28.5322C75.6966 28.5322 75.6935 28.5322 75.692 28.5353C75.347 28.7426 75.1676 29.0504 75.1537 29.4588H75.1521ZM78.2428 28.8338L78.2613 28.8153L78.7533 29.0179C78.7935 29.0334 78.8043 29.0226 78.7857 28.9839C78.5785 28.5306 78.2118 28.5229 77.7679 28.5662C77.7385 28.5693 77.7168 28.5956 77.7199 28.6235C77.7199 28.6312 77.723 28.6374 77.7261 28.6436C77.9458 29.0349 78.2536 29.2871 78.727 29.154C78.7734 29.1417 78.7749 29.1231 78.7331 29.0999L78.2412 28.8307L78.2428 28.8338ZM78.8507 28.7364C78.8383 28.7503 78.8352 28.7689 78.8399 28.7921C78.8476 28.8276 78.8631 28.8307 78.8847 28.8014C78.9296 28.7395 78.9327 28.6745 78.8971 28.6049C78.8816 28.574 78.8693 28.5755 78.8615 28.6095C78.8523 28.6529 78.8492 28.6946 78.8507 28.7364ZM82.3807 28.6544C82.3683 28.7751 82.5323 28.8184 82.6251 28.8338C82.6777 28.8431 82.6916 28.823 82.6669 28.7766C82.6251 28.6993 82.5679 28.6405 82.4936 28.5972C82.458 28.5755 82.4116 28.5879 82.3915 28.6235C82.3869 28.6327 82.3822 28.6436 82.3822 28.6529L82.3807 28.6544ZM79.3039 29.1324C79.3581 29.1247 79.3875 29.0226 79.3705 28.905C79.3534 28.7874 79.2947 28.6993 79.2405 28.707C79.1864 28.7147 79.157 28.8168 79.174 28.9344C79.191 29.0519 79.2498 29.1401 79.3039 29.1324ZM81.0705 29.1277C81.0566 29.1788 81.0643 29.2237 81.0952 29.2623C81.1076 29.2778 81.1262 29.2855 81.1463 29.2824L81.1958 29.2732C81.3551 29.185 81.4371 29.0504 81.4417 28.8679C81.4417 28.8539 81.4309 28.8416 81.4154 28.8416C81.4139 28.8416 81.4123 28.8416 81.4108 28.8416C81.2453 28.871 81.1324 28.9669 81.0705 29.1262V29.1277ZM77.1816 29.0721C77.0455 29.0984 76.8769 29.253 76.9558 29.4046C76.9759 29.4418 77.0223 29.4572 77.061 29.4371C77.0703 29.4325 77.0795 29.4247 77.0857 29.4155C77.1553 29.3242 77.1986 29.219 77.2126 29.1014C77.2141 29.0875 77.2048 29.0752 77.1909 29.0736C77.1878 29.0736 77.1847 29.0736 77.1832 29.0736L77.1816 29.0721ZM80.2754 29.3489C80.3667 29.4758 80.4889 29.533 80.6405 29.5176C80.6606 29.516 80.676 29.499 80.6745 29.4789L80.6637 29.3288C80.6637 29.3087 80.6513 29.2902 80.6327 29.2809C80.5353 29.2252 80.4301 29.2113 80.3172 29.2391C80.2785 29.2484 80.2553 29.2886 80.2646 29.3273C80.2661 29.3366 80.2707 29.3443 80.2754 29.352V29.3489ZM84.1008 29.5624C84.1426 29.499 84.0823 29.3861 83.9647 29.3087C83.8487 29.2329 83.7203 29.2221 83.6785 29.2855C83.6368 29.3489 83.6971 29.4619 83.8147 29.5392C83.9307 29.615 84.0591 29.6258 84.1008 29.5624ZM78.696 29.2561C78.6914 29.2469 78.6465 29.2561 78.5939 29.2809C78.5413 29.3056 78.5042 29.3319 78.5089 29.3428C78.5135 29.352 78.5583 29.3428 78.6109 29.318C78.662 29.2948 78.7007 29.267 78.696 29.2561ZM81.9027 29.7929C81.9445 29.8022 81.9862 29.7852 82.0094 29.7496C82.1038 29.5995 82.1146 29.4387 82.0388 29.2685C82.0326 29.2561 82.0187 29.2515 82.0063 29.2561C82.0033 29.2561 82.0017 29.2592 82.0002 29.2608C81.912 29.3412 81.6691 29.7372 81.9043 29.7929H81.9027ZM84.834 29.2979C84.7845 29.2407 84.6562 29.2701 84.5479 29.3629C84.4396 29.4572 84.3932 29.5794 84.4427 29.6367C84.4922 29.6939 84.6206 29.6645 84.7289 29.5717C84.8371 29.4773 84.8835 29.3551 84.834 29.2979ZM79.2436 29.4031C79.2266 29.3459 79.1261 29.3242 79.0178 29.3551C78.9095 29.3861 78.8368 29.4588 78.8523 29.516C78.8693 29.5732 78.9698 29.5949 79.0781 29.564C79.1864 29.533 79.2591 29.4603 79.2436 29.4031ZM76.6124 29.6227C76.6526 29.6429 76.7021 29.6274 76.7237 29.5856C76.8104 29.4155 76.5072 29.3257 76.3881 29.3582C76.3742 29.3613 76.3664 29.3752 76.3695 29.3892C76.3695 29.3923 76.3711 29.3938 76.3726 29.3954C76.4298 29.4944 76.5103 29.5702 76.6124 29.6227ZM82.2508 29.7852C82.3111 29.8269 82.4256 29.7651 82.506 29.6475C82.5864 29.5299 82.6034 29.4015 82.5431 29.3598C82.4828 29.318 82.3683 29.3799 82.2879 29.4974C82.2074 29.615 82.1904 29.7434 82.2508 29.7852ZM81.1385 29.6707C81.2422 29.9662 81.5469 29.5763 81.5902 29.4572C81.5949 29.4433 81.5887 29.4278 81.5748 29.4217C81.5732 29.4217 81.5701 29.4217 81.5686 29.4217C81.3876 29.4015 81.2468 29.4619 81.1478 29.6057C81.1339 29.6258 81.1308 29.6506 81.1385 29.6722V29.6707ZM86.4722 30.3668C86.5464 30.3869 86.5882 30.4333 86.599 30.5045L86.5464 30.5663C86.5155 30.6066 86.4737 30.6282 86.4242 30.6313C86.2139 30.5447 86.0437 30.5911 85.9107 30.769C85.8271 30.8804 85.855 30.9407 85.9942 30.9515C86.2108 30.9685 86.3655 30.8819 86.4583 30.6916L86.565 30.6112C87.0538 30.704 87.3338 31.2918 87.4405 31.7373C87.4452 31.7574 87.4467 31.7574 87.4452 31.7373C87.3926 31.1928 87.1312 30.786 86.6594 30.5184C86.6439 30.4225 86.5929 30.356 86.5062 30.3173C86.3639 29.7774 85.906 29.5918 85.3956 29.581C85.377 29.581 85.3615 29.5949 85.3615 29.6135C85.3615 29.6181 85.3615 29.6212 85.3631 29.6258C85.5425 30.1317 85.7993 30.5586 86.4165 30.5339C86.4784 30.5308 86.4846 30.5107 86.4397 30.4689L85.7591 29.8795C85.674 29.8053 85.6786 29.8022 85.7684 29.8672L86.4722 30.3668ZM86.5959 30.2585C86.681 30.2647 86.7615 30.1317 86.7738 29.96C86.7862 29.7883 86.7274 29.6444 86.6424 29.6382C86.5573 29.632 86.4768 29.7651 86.4645 29.9368C86.4521 30.1085 86.5109 30.2523 86.5959 30.2585ZM74.6819 29.7666C74.6648 29.8935 74.7376 30.1688 74.9263 30.1007C74.9433 30.0945 74.9557 30.0775 74.9541 30.059C74.9448 29.9027 74.8659 29.7991 74.7174 29.745C74.7035 29.7403 74.6881 29.7465 74.6819 29.762C74.6819 29.7635 74.6819 29.7651 74.6819 29.7682V29.7666ZM80.7302 29.9615C80.7534 29.8919 80.6637 29.7975 80.5306 29.7527C80.396 29.7078 80.2692 29.7279 80.246 29.7991C80.2228 29.8687 80.3125 29.9631 80.4455 30.0079C80.5801 30.0528 80.707 30.0327 80.7302 29.9615ZM84.1209 30.0806C84.1612 30.0234 84.1024 29.9105 83.9864 29.8285C83.8719 29.7465 83.745 29.7279 83.7048 29.7852C83.6646 29.8424 83.7234 29.9553 83.8394 30.0373C83.9539 30.1193 84.0807 30.1379 84.1209 30.0806ZM84.8232 29.7975C84.783 29.7403 84.6562 29.7604 84.5401 29.844C84.4241 29.9259 84.3638 30.0404 84.4056 30.0976C84.4458 30.1549 84.5726 30.1348 84.6886 30.0512C84.8047 29.9677 84.865 29.8548 84.8232 29.7975ZM77.2853 29.8146C77.2497 29.7697 77.1491 29.7929 77.061 29.8641C76.9728 29.9352 76.931 30.0296 76.9682 30.0744C77.0037 30.1193 77.1043 30.0961 77.1925 30.0249C77.2806 29.9538 77.3224 29.8594 77.2853 29.8146ZM78.2057 30.3683C78.2675 30.3297 78.2552 30.1982 78.1778 30.0744C78.1005 29.9522 77.9876 29.8842 77.9257 29.9228C77.8638 29.9615 77.8762 30.093 77.9535 30.2168C78.0309 30.339 78.1438 30.407 78.2057 30.3683ZM79.2312 30.6066C79.2514 30.6205 79.2792 30.6158 79.2947 30.5957C79.4385 30.4039 79.4385 30.2059 79.2947 30.0002C79.2715 29.9677 79.2251 29.96 79.1926 29.9832C79.1879 29.9863 79.1833 29.9909 79.1802 29.9955C79.0534 30.1425 79.0394 30.4735 79.2328 30.6081L79.2312 30.6066ZM75.4801 30.0389C75.446 29.9909 75.3439 30.0033 75.2511 30.0667C75.1583 30.1301 75.1104 30.2214 75.1428 30.2709C75.1769 30.3188 75.279 30.3065 75.3718 30.243C75.4646 30.1796 75.5125 30.0884 75.4801 30.0389ZM82.5601 30.6189C82.6251 30.5865 82.6251 30.4534 82.5601 30.3219C82.4936 30.192 82.3869 30.1131 82.3219 30.1456C82.2569 30.1781 82.2569 30.3111 82.3219 30.4426C82.3884 30.5725 82.4952 30.6514 82.5601 30.6189ZM87.0244 30.636C87.0724 30.7272 87.1172 30.7257 87.1575 30.6298C87.2255 30.4673 87.2178 30.3065 87.1312 30.1502C87.125 30.1379 87.1095 30.1332 87.0971 30.141C87.0956 30.141 87.0925 30.144 87.0909 30.1456C86.9517 30.2941 86.9285 30.4581 87.0244 30.636ZM76.1715 31.2748L76.0911 31.3506C75.9565 31.2269 75.8235 31.199 75.6889 31.264C75.5667 31.3228 75.5636 31.3893 75.6796 31.4604C75.8389 31.5579 75.9859 31.5455 76.1236 31.4264C76.4917 31.3104 76.5257 32.4257 76.5319 32.6129C76.5319 32.6361 76.5397 32.6376 76.5536 32.6191C76.5954 32.5572 76.583 32.2045 76.5938 32.1009C76.5954 32.0823 76.6093 32.0653 76.6278 32.0591L76.6541 32.0514L76.699 32.0777C76.7191 32.0885 76.7423 32.0885 76.7624 32.0777C76.8862 31.9988 76.948 31.8827 76.9511 31.7311C76.9511 31.7172 76.9403 31.7064 76.9264 31.7064C76.9248 31.7064 76.9233 31.7064 76.9202 31.7064C76.8057 31.7358 76.7052 31.8085 76.6186 31.923L76.3757 31.4481C76.3664 31.4295 76.3618 31.4094 76.3633 31.3893C76.368 31.3166 76.3865 31.2485 76.4206 31.182C76.5768 31.0907 76.6495 30.9546 76.6371 30.7752C76.6356 30.7551 76.6247 30.7365 76.6062 30.7272C76.5505 30.6947 76.4994 30.7056 76.4499 30.7597C76.3602 30.8278 76.2891 30.8169 76.2334 30.7257C76.105 30.4859 75.9194 30.3003 75.6796 30.1672C75.6688 30.1611 75.6549 30.1657 75.6487 30.1765C75.6487 30.1781 75.6471 30.1796 75.6471 30.1827C75.5404 30.6468 75.675 31.0026 76.0478 31.2516C76.0663 31.264 76.0864 31.2702 76.1081 31.2717L76.1669 31.2748H76.1715ZM80.4672 30.5849C80.5229 30.5663 80.5384 30.5292 80.5136 30.4751C80.4502 30.2972 80.3249 30.1997 80.1377 30.1812C80.1238 30.1812 80.1099 30.1905 80.1083 30.2044C80.1083 30.2059 80.1083 30.2075 80.1083 30.209C80.1238 30.3575 80.2707 30.6483 80.4672 30.5834V30.5849ZM82.1255 30.7179C82.1935 30.7009 82.2183 30.5694 82.1827 30.424C82.1471 30.2786 82.062 30.1734 81.9955 30.1905C81.9275 30.2075 81.9027 30.339 81.9383 30.4844C81.9739 30.6298 82.0589 30.735 82.1255 30.7179ZM79.9366 30.6158C79.9722 30.5045 79.9629 30.4008 79.9057 30.3034C79.9057 30.2848 79.8964 30.2693 79.8809 30.2585C79.8639 30.2461 79.8423 30.2477 79.8268 30.2616C79.6984 30.3776 79.5406 30.6576 79.635 30.8293C79.6644 30.8804 79.7061 30.9036 79.7634 30.8989C79.7835 30.8974 79.802 30.8866 79.8144 30.8711C79.8763 30.7922 79.9165 30.7087 79.9366 30.6174V30.6158ZM84.0188 30.489C84.0436 30.4225 83.9601 30.3281 83.8301 30.2786C83.7002 30.2291 83.5749 30.243 83.5501 30.3096C83.5254 30.3761 83.6089 30.4704 83.7389 30.5199C83.8688 30.5694 83.9941 30.5555 84.0188 30.489ZM84.4582 30.5957C84.6438 30.6189 84.7861 30.5509 84.8851 30.3916C84.8944 30.3776 84.8897 30.3591 84.8758 30.3498C84.8743 30.3498 84.8727 30.3482 84.8696 30.3467C84.6763 30.2724 84.5216 30.3096 84.4025 30.4565C84.3375 30.537 84.3561 30.5834 84.4582 30.5957ZM81.7619 30.8974C81.8192 30.8587 81.7991 30.7272 81.7155 30.6066C81.632 30.4859 81.5191 30.4194 81.4618 30.4581C81.4046 30.4967 81.4247 30.6282 81.5083 30.7489C81.5918 30.8695 81.7047 30.9361 81.7619 30.8974ZM74.7453 30.7783C74.8211 30.8479 74.8752 30.8355 74.9077 30.7365C74.9665 30.5648 74.719 30.4751 74.5891 30.4906C74.5751 30.4921 74.5643 30.5045 74.5674 30.5184C74.5674 30.5199 74.5674 30.523 74.5689 30.5246C74.6092 30.6205 74.6679 30.704 74.7453 30.7767V30.7783ZM82.6065 31.1619L82.6375 31.1774L82.458 31.4496C82.4271 31.496 82.4379 31.5099 82.4905 31.4914C82.868 31.3537 82.953 31.0567 82.9917 30.6916C82.9933 30.6731 82.9809 30.6576 82.9623 30.6561C82.9577 30.6561 82.953 30.6561 82.9499 30.6561C82.5973 30.7628 82.3962 30.9886 82.3498 31.3321C82.3451 31.3661 82.3544 31.3893 82.3776 31.4017C82.3946 31.4094 82.4147 31.4063 82.4256 31.3908L82.6065 31.1634V31.1619ZM83.2748 30.834C83.3583 30.9438 83.4527 31.0103 83.5579 31.0381C83.9013 31.1263 83.6847 30.5787 83.2887 30.7752C83.2686 30.7845 83.2609 30.8092 83.2702 30.8278C83.2702 30.8309 83.2732 30.8324 83.2748 30.834ZM87.5782 30.8247C87.4467 30.9206 87.3864 31.049 87.3957 31.2099C87.4034 31.3351 87.4514 31.3553 87.5426 31.2671C87.6571 31.1557 87.6942 31.018 87.6556 30.8525C87.6494 30.8262 87.6215 30.8108 87.5968 30.8169C87.5906 30.8169 87.5844 30.8216 87.5798 30.8247H87.5782ZM86.9455 30.9515C86.944 30.8819 86.8342 30.8278 86.7011 30.8324C86.5681 30.8371 86.4629 30.8974 86.466 30.967C86.4691 31.0366 86.5774 31.0907 86.7104 31.0861C86.8434 31.0815 86.9486 31.0211 86.9455 30.9515ZM78.5785 30.8711C78.3897 30.967 78.2907 31.1727 78.2969 31.38C78.2969 31.3939 78.3093 31.4048 78.3248 31.4048C78.3263 31.4048 78.3279 31.4048 78.3294 31.4048C78.5212 31.3553 78.778 31.1727 78.7239 30.9376C78.7038 30.8525 78.6558 30.8309 78.5785 30.8711ZM84.7041 30.984C84.6809 30.9159 84.5556 30.8974 84.4241 30.9422C84.2926 30.9871 84.206 31.0784 84.2292 31.1464C84.2524 31.2145 84.3777 31.2331 84.5092 31.1882C84.6407 31.1433 84.7273 31.0521 84.7041 30.984ZM84.8665 31.1712C84.8 31.2392 84.7876 31.3166 84.8279 31.4032C84.8696 31.4898 84.93 31.4883 85.0104 31.4001C85.1171 31.2826 85.1527 31.1433 85.1202 30.984C85.1109 30.9422 85.0924 30.9376 85.063 30.9685L84.865 31.1727L84.8665 31.1712ZM82.2647 31.4311C82.3204 31.4156 82.3389 31.3089 82.3064 31.1944C82.274 31.0799 82.2028 30.9979 82.1471 31.0134C82.0914 31.0289 82.0729 31.1356 82.1054 31.2501C82.1378 31.3645 82.209 31.4465 82.2647 31.4311ZM76.5412 31.4403C76.747 31.6089 76.8336 31.2315 76.8166 31.1093C76.815 31.0954 76.8011 31.0846 76.7872 31.0861C76.7841 31.0861 76.7825 31.0861 76.7794 31.0876C76.648 31.148 76.5629 31.2485 76.5257 31.3893C76.5211 31.4079 76.5257 31.4264 76.5412 31.4388V31.4403ZM85.4683 31.5146C85.6694 31.6306 85.8148 31.3259 85.8271 31.1758C85.8271 31.1603 85.8163 31.1449 85.8008 31.1433C85.7993 31.1433 85.7978 31.1433 85.7962 31.1433C85.6168 31.1588 85.4961 31.2501 85.4342 31.4156C85.4203 31.4527 85.4342 31.4929 85.4698 31.513L85.4683 31.5146ZM79.1075 31.2392C78.8724 31.3398 78.7579 31.5177 78.7656 31.7714C78.7656 31.7853 78.778 31.7977 78.7919 31.7977C78.795 31.7977 78.7966 31.7977 78.7997 31.7977C79.0626 31.7172 79.2065 31.5533 79.2297 31.3058C79.2065 31.2454 79.1663 31.2238 79.1075 31.2408V31.2392ZM72.1589 32.1318H72.1017C72.0893 32.0529 71.9609 31.7853 71.8557 31.7884C71.7675 31.7915 71.7289 31.8363 71.7397 31.9245C71.7691 32.1674 71.8573 32.3205 72.0058 32.3855L72.0584 32.6392C72.063 32.6577 72.0568 32.6778 72.0429 32.6918C71.6732 33.0862 71.6484 33.6508 71.7026 34.1752C71.7041 34.1969 71.7072 34.1969 71.7088 34.1752C71.7505 33.6911 71.7985 32.7041 72.3151 32.6949C72.4574 32.8975 72.6462 32.93 72.8797 32.7892C72.9927 32.7227 72.9927 32.6562 72.8782 32.5912C72.6709 32.4737 72.4853 32.4984 72.3182 32.6655L72.1604 32.6067C72.1419 32.6005 72.1295 32.5835 72.128 32.5649C72.1249 32.5232 72.1434 32.4922 72.1837 32.4737C72.3476 32.2231 72.5147 31.9787 72.6864 31.7404C72.7514 31.6492 72.7575 31.6523 72.7019 31.7497L72.2796 32.5046C72.2517 32.5541 72.2656 32.5711 72.3198 32.5556C72.8658 32.3917 73.0607 31.8456 73.0128 31.2887C73.0128 31.2764 73.0004 31.2655 72.9865 31.2671C72.9849 31.2671 72.9818 31.2671 72.9803 31.2671C72.5905 31.4218 72.2424 31.711 72.1589 32.1318ZM82.045 31.7853C82.0992 31.7667 82.1115 31.6631 82.0729 31.5533C82.0342 31.445 81.9599 31.3723 81.9058 31.3908C81.8517 31.4094 81.8393 31.513 81.878 31.6229C81.9166 31.7311 81.9909 31.8039 82.045 31.7853ZM82.9252 31.6136C82.9345 31.5533 82.8509 31.4914 82.7396 31.4744C82.6282 31.4574 82.5307 31.4929 82.5215 31.5533C82.5122 31.6136 82.5957 31.6755 82.7071 31.6925C82.8185 31.7095 82.9159 31.6739 82.9252 31.6136ZM80.84 31.5734C80.874 31.8054 81.0488 31.8827 81.2499 31.9322C81.2623 31.9353 81.2747 31.9276 81.2778 31.9168C81.2778 31.9137 81.2778 31.9121 81.2778 31.909C81.2608 31.6832 81.1401 31.5471 80.9143 31.5022C80.8802 31.496 80.8462 31.5177 80.84 31.5533C80.84 31.561 80.8385 31.5672 80.84 31.5749V31.5734ZM81.7774 31.9415C81.7743 31.793 81.7124 31.6863 81.5902 31.6182C81.5779 31.612 81.5608 31.6167 81.5547 31.6291C81.5547 31.6306 81.5547 31.6322 81.5531 31.6337C81.5067 31.7822 81.5407 31.9075 81.6552 32.0065L81.666 32.073C81.6676 32.0885 81.6598 32.1039 81.6444 32.1086L81.55 32.1442C81.5237 32.1534 81.5222 32.1658 81.5469 32.1797C81.581 32.1983 81.6212 32.2014 81.666 32.1875C81.9692 32.0978 82.1889 31.9183 82.3219 31.6507C82.3296 31.6352 82.3436 31.6213 82.359 31.612L82.3931 31.595C82.4271 31.578 82.4271 31.5625 82.39 31.5502L82.3544 31.5393C82.3358 31.5331 82.3157 31.5424 82.308 31.5594C82.2167 31.759 82.0744 31.909 81.8795 32.0096C81.8517 32.0251 81.8161 32.0142 81.8006 31.9848L81.7759 31.94L81.7774 31.9415ZM76.3509 31.7776C76.3633 31.7172 76.2752 31.6476 76.156 31.6244C76.0369 31.6012 75.9302 31.6306 75.9178 31.6925C75.9054 31.7528 75.9936 31.8224 76.1127 31.8456C76.2318 31.8688 76.3386 31.8394 76.3509 31.7776ZM75.0593 31.6554C74.8567 31.711 74.5921 31.9601 74.7205 32.1906C74.7406 32.2262 74.7855 32.2385 74.8211 32.22C75.0237 32.1009 75.1134 31.9214 75.0918 31.6786C75.0918 31.6631 75.0763 31.6538 75.0624 31.6554C75.0624 31.6554 75.0593 31.6554 75.0578 31.6554H75.0593ZM79.2235 32.1225C79.2807 32.1689 79.4029 32.1101 79.4973 31.9926C79.5917 31.875 79.6226 31.7435 79.5654 31.6971C79.5081 31.6507 79.3859 31.7095 79.2916 31.8271C79.1972 31.9446 79.1663 32.0761 79.2235 32.1225ZM77.8731 32.0158C77.7818 32.1024 77.921 32.2818 78.0309 32.1643C78.2227 32.0916 78.3387 31.957 78.3805 31.759C78.3836 31.7435 78.3743 31.7296 78.3588 31.7265C78.3588 31.7265 78.3573 31.7265 78.3557 31.7265C78.1299 31.7079 77.9705 31.8039 77.8731 32.0173V32.0158ZM85.6353 32.4412C85.6493 32.4489 85.6663 32.4443 85.674 32.4303C85.6756 32.4272 85.6771 32.4242 85.6771 32.4211C85.7034 32.2432 85.6523 32.0947 85.5224 31.9787C85.5069 31.9647 85.4853 31.957 85.4636 31.957C85.3987 31.9585 85.3662 31.9848 85.3662 32.0374C85.3646 32.1999 85.4544 32.3344 85.6353 32.4412ZM75.1088 32.4737C75.0871 32.5541 75.1104 32.6129 75.1784 32.6485C75.197 32.6577 75.2186 32.6562 75.2356 32.6454L75.2836 32.616C75.4754 32.4767 75.5543 32.2896 75.5187 32.0545C75.5156 32.0405 75.5033 32.0312 75.4893 32.0343C75.4878 32.0343 75.4862 32.0343 75.4831 32.0359C75.2882 32.1194 75.1629 32.2648 75.1073 32.4737H75.1088ZM84.7289 32.0699C84.7103 32.2494 84.8217 32.4427 84.9918 32.5046C85.0027 32.5092 85.015 32.5046 85.0197 32.4922C85.0197 32.4922 85.0197 32.4891 85.0197 32.4876C85.0553 32.2911 84.9996 32.1333 84.8511 32.0173C84.7768 31.9585 84.7351 31.9771 84.7258 32.0699H84.7289ZM84.3081 32.5541C84.3731 32.5386 84.4009 32.4133 84.3684 32.2726C84.336 32.1318 84.2571 32.0297 84.1921 32.0452C84.1271 32.0606 84.0993 32.1859 84.1318 32.3267C84.1643 32.4675 84.2431 32.5696 84.3081 32.5541ZM77.4214 32.4242C77.4786 32.4149 77.5281 32.3917 77.5699 32.3561C77.5838 32.3437 77.5885 32.3252 77.5823 32.3081C77.5699 32.2772 77.5637 32.2432 77.5653 32.2091C77.3564 32.0684 77.16 32.0777 76.9774 32.2354C76.9651 32.2463 76.9635 32.2633 76.9743 32.2757C76.9743 32.2757 76.9743 32.2757 76.9759 32.2772C77.0996 32.3948 77.2481 32.4427 77.4229 32.4242H77.4214ZM73.647 32.4118C73.8264 32.5293 74.0105 32.5355 74.1961 32.4272C74.2147 32.4164 74.2271 32.3979 74.2271 32.3747L74.2302 32.2787C74.2302 32.2555 74.2178 32.2354 74.1961 32.2277C73.9734 32.138 73.7878 32.1859 73.6408 32.37C73.6315 32.3824 73.6331 32.4009 73.6455 32.4102C73.6455 32.4102 73.6455 32.4102 73.647 32.4102V32.4118ZM80.8091 32.4211V32.4427C80.806 32.4613 80.8214 32.4783 80.84 32.4798C81.0318 32.4938 81.1788 32.4211 81.2793 32.2602C81.2871 32.2478 81.284 32.2308 81.2716 32.2215C81.27 32.2215 81.2685 32.22 81.2654 32.2184C81.0782 32.1504 80.9235 32.1797 80.7982 32.3035C80.7611 32.3406 80.7611 32.37 80.7967 32.3948C80.8044 32.401 80.8106 32.4102 80.8091 32.4211ZM78.9018 32.7397C78.9157 32.7444 78.9311 32.7397 78.942 32.7304C79.0626 32.6051 79.1059 32.452 79.0688 32.2741C79.0657 32.2602 79.0518 32.2509 79.0379 32.2525C79.0348 32.2525 79.0332 32.2524 79.0301 32.2555C78.8832 32.3329 78.597 32.6361 78.9018 32.7413V32.7397ZM77.9798 32.6299C77.9659 32.6361 77.9551 32.6454 77.9473 32.6562C77.935 32.6732 77.935 32.6949 77.9473 32.7119C77.9814 32.7645 78.0293 32.7846 78.0927 32.7737C78.3186 32.7119 78.4563 32.5665 78.5042 32.3375C78.5073 32.3236 78.498 32.3081 78.4841 32.305C78.4826 32.305 78.481 32.305 78.4795 32.305C78.2397 32.3004 78.0742 32.4087 77.9814 32.6299H77.9798ZM76.0586 32.3623C75.8436 32.4365 75.5667 32.698 75.7384 32.9424C75.7539 32.9656 75.7863 32.9717 75.8095 32.9563C76.0153 32.8248 76.1081 32.633 76.088 32.3808C76.088 32.3685 76.0772 32.3607 76.0648 32.3607C76.0632 32.3607 76.0617 32.3607 76.0586 32.3607V32.3623ZM71.7505 32.9656C71.8139 32.9393 71.817 32.8047 71.7583 32.6655C71.6995 32.5262 71.6005 32.4365 71.5371 32.4628C71.4736 32.4891 71.4705 32.6237 71.5293 32.7629C71.5881 32.9021 71.6871 32.9919 71.7505 32.9656ZM87.0059 32.732C86.9022 32.8944 86.8991 33.0599 86.995 33.2285C87.0043 33.2456 87.0229 33.2564 87.043 33.2564H87.1312C87.1528 33.2564 87.1729 33.2409 87.176 33.2193C87.2132 33.0321 87.1667 32.8697 87.0368 32.7289C87.0291 32.7212 87.0167 32.7212 87.009 32.7289L87.0059 32.732ZM84.9114 33.459L84.8696 33.49C84.8263 33.4018 84.7722 33.3523 84.7103 33.3415C84.6701 33.3337 84.6299 33.36 84.6221 33.4018C84.6206 33.4126 84.6206 33.425 84.6221 33.4358C84.667 33.6013 84.7536 33.6771 84.882 33.6601H84.9021C84.9145 33.6632 84.9253 33.6725 84.9284 33.6864C84.9826 33.9788 84.9037 34.2201 84.6902 34.4073C84.6562 34.4366 84.633 34.466 84.6175 34.497C84.6005 34.5326 84.6067 34.5372 84.6376 34.5124C84.8727 34.3222 85.0119 34.0747 85.0553 33.7699C85.0583 33.7529 85.0707 33.739 85.0877 33.7344L85.196 33.7081C85.3352 33.7266 85.4358 33.6802 85.4946 33.5658C85.5023 33.5487 85.4977 33.5302 85.4822 33.5209C85.4188 33.4807 85.3507 33.4776 85.2765 33.5085L85.2115 33.4637C85.3662 33.2641 85.2888 32.9718 85.2347 32.7475C85.2316 32.7351 85.2192 32.7273 85.2053 32.7304C85.2022 32.7304 85.2007 32.732 85.1976 32.7335C84.9454 32.9068 84.8511 33.1496 84.9129 33.4621L84.9114 33.459ZM77.3966 33.046C77.457 32.9919 77.4786 32.9362 77.4616 32.8758C77.2512 32.7103 77.0532 32.7103 76.8661 32.8758C76.8537 32.8882 76.8521 32.9083 76.863 32.9207C77.0068 33.08 77.1832 33.1218 77.3966 33.046ZM72.0181 33.2254C72.1543 33.2966 72.3322 33.1435 72.4188 33.0352C72.4327 33.0182 72.4296 32.9934 72.4126 32.9795C72.4095 32.9764 72.4049 32.9748 72.4018 32.9733C72.2502 32.9192 72.1156 32.9393 71.9996 33.0352C71.9114 33.1079 71.9176 33.1713 72.0197 33.2254H72.0181ZM74.5906 32.9888C74.4452 33.2022 74.4313 33.4157 74.5519 33.6307C74.5581 33.6431 74.5736 33.6462 74.5844 33.64C74.586 33.64 74.5875 33.6385 74.5891 33.6369C74.7778 33.4528 74.8211 33.2378 74.719 32.9888C74.6726 32.9594 74.6293 32.9594 74.5891 32.9888H74.5906ZM78.9961 33.5364C79.0363 33.5627 79.058 33.5518 79.0595 33.5039C79.0642 33.3569 79.0286 33.2239 78.9528 33.1032C78.9018 33.0228 78.8399 33.0135 78.7687 33.0769C78.6326 33.1976 78.8708 33.4559 78.9961 33.5379V33.5364ZM86.811 33.5611C86.8651 33.5193 86.8342 33.3894 86.7429 33.2703C86.6501 33.1512 86.5325 33.0893 86.4784 33.1311C86.4242 33.1728 86.4552 33.3028 86.5464 33.4219C86.6393 33.541 86.7568 33.6029 86.811 33.5611ZM74.1729 33.2486C74.1668 33.2022 74.1343 33.1636 74.0894 33.1512L74.0275 33.1342C74.0074 33.128 73.9858 33.1357 73.9734 33.1543C73.8373 33.3538 73.828 33.558 73.9425 33.7684C73.9533 33.787 73.9749 33.7931 73.9935 33.7839C73.9966 33.7823 73.9997 33.7792 74.0028 33.7761C74.142 33.6261 74.1977 33.4513 74.1729 33.2502V33.2486ZM78.481 33.6307C78.5119 33.6493 78.5522 33.6385 78.5692 33.6075C78.5738 33.5998 78.5769 33.5905 78.5785 33.5797C78.5893 33.4466 78.5027 33.0661 78.2722 33.1837C78.2552 33.193 78.2443 33.2115 78.2443 33.2301C78.2521 33.4064 78.331 33.5395 78.481 33.6292V33.6307ZM71.5046 33.7127C71.6098 33.7204 71.6438 33.6709 71.6051 33.5688C71.5401 33.4111 71.4272 33.3136 71.2648 33.2765C71.2509 33.2734 71.237 33.2827 71.2339 33.2966C71.2339 33.2981 71.2339 33.2997 71.2339 33.3028C71.2339 33.4977 71.3236 33.6354 71.503 33.7143L71.5046 33.7127ZM76.6309 33.3925C76.7361 33.5797 76.8939 33.6601 77.1043 33.6307C77.1955 33.6183 77.2172 33.5735 77.1677 33.4946C77.0594 33.3229 76.9016 33.2471 76.6944 33.2703C76.6495 33.2749 76.6155 33.3152 76.6201 33.36C76.6201 33.3708 76.6247 33.3817 76.6309 33.3925ZM75.2635 33.3291C75.2496 33.3028 75.2264 33.2889 75.1923 33.292C75.1707 33.2935 75.1521 33.3043 75.1397 33.3213C75.0021 33.5224 74.9943 33.7313 75.1165 33.9478C75.1243 33.9618 75.1413 33.9664 75.1537 33.9587C75.1552 33.9587 75.1568 33.9571 75.1583 33.9556C75.2619 33.8581 75.4584 33.4652 75.2867 33.3569C75.2759 33.3507 75.2681 33.3415 75.2619 33.3306L75.2635 33.3291ZM87.3864 33.4668C87.34 33.4807 87.3323 33.5193 87.3632 33.5843C87.5395 33.7034 87.6989 33.6833 87.8412 33.5255C87.8582 33.507 87.8567 33.4776 87.8381 33.4606C87.8365 33.459 87.8335 33.4575 87.8319 33.4559C87.6803 33.36 87.5318 33.3631 87.388 33.4668H87.3864ZM86.2556 33.8674C86.2742 33.8798 86.2989 33.8813 86.3206 33.872C86.6006 33.756 86.2108 33.4652 86.0638 33.4296C86.0468 33.4265 86.0298 33.4358 86.0267 33.4528C86.0267 33.4544 86.0267 33.4575 86.0267 33.4606C86.0298 33.6416 86.1071 33.7761 86.2572 33.8674H86.2556ZM83.3336 33.8952C83.3846 33.8504 83.349 33.7266 83.2547 33.6214C83.1603 33.5163 83.0428 33.4668 82.9917 33.5116C82.9407 33.5565 82.9762 33.6802 83.0706 33.7854C83.165 33.8906 83.2825 33.9401 83.3336 33.8952ZM77.9334 33.6307L77.8855 33.6756C77.8715 33.688 77.8669 33.7081 77.8731 33.7266L77.8885 33.7715C77.9674 33.9215 78.0896 34.0035 78.2521 34.019C78.2799 34.0221 78.3047 34.002 78.3078 33.9741C78.3078 33.9664 78.3078 33.9602 78.3062 33.954C78.2381 33.7436 78.1144 33.6369 77.935 33.6323L77.9334 33.6307ZM82.1518 34.1706C82.2183 34.1629 82.2585 34.0391 82.2399 33.8952C82.2214 33.7514 82.1533 33.6416 82.0868 33.6493C82.0203 33.657 81.9801 33.7808 81.9986 33.9246C82.0172 34.0685 82.0852 34.1783 82.1518 34.1706ZM82.5044 33.657C82.472 33.804 82.6282 34.3144 82.8076 34.0577C82.8185 34.0406 82.8231 34.0205 82.82 34.0004C82.7906 33.8303 82.6978 33.7096 82.5416 33.6369C82.5292 33.6307 82.5122 33.6369 82.506 33.6508C82.506 33.6524 82.506 33.6539 82.5044 33.657ZM84.271 33.8411C84.271 33.7638 84.1612 33.7003 84.0235 33.7003C83.8858 33.7003 83.776 33.7622 83.7744 33.8396C83.7744 33.9169 83.8843 33.9803 84.0219 33.9803C84.1596 33.9803 84.2694 33.9184 84.271 33.8411ZM85.8844 34.1257C85.9401 34.0824 85.9107 33.9509 85.8179 33.8334C85.7251 33.7158 85.6059 33.6555 85.5503 33.6988C85.4946 33.7421 85.524 33.8736 85.6168 33.9911C85.7096 34.1087 85.8287 34.169 85.8844 34.1257ZM84.8031 34.0283C84.8371 34.002 84.8248 33.9293 84.7768 33.8643C84.7273 33.7993 84.6608 33.7668 84.6268 33.7931C84.5927 33.8194 84.6051 33.8921 84.6531 33.9571C84.7026 34.0221 84.7691 34.0546 84.8031 34.0283ZM78.7625 34.4459C78.727 34.4691 78.6914 34.4506 78.6527 34.3933C78.7239 34.3036 78.761 34.0391 78.5986 34.0004C78.58 33.9958 78.5614 34.0051 78.5553 34.0236C78.5011 34.152 78.5089 34.2773 78.5785 34.3964L78.5723 34.565C78.5723 34.5867 78.5614 34.6053 78.5444 34.6176C78.382 34.7383 78.2552 34.8868 78.1623 35.0662C78.1515 35.0848 78.133 35.0972 78.1098 35.0987H78.0788C78.0695 35.0152 78.0247 34.9518 77.9442 34.91C77.9226 34.8992 77.8963 34.9069 77.8839 34.9286C77.8808 34.9347 77.8793 34.9409 77.8793 34.9487C77.8777 35.0384 77.9118 35.1095 77.9829 35.1637C78.0371 35.2426 78.0726 35.3307 78.0881 35.4267C78.0912 35.4406 78.0927 35.4406 78.0943 35.4267C78.102 35.3524 78.1422 35.3122 78.218 35.3029C78.2907 35.4004 78.3743 35.4189 78.4702 35.3601C78.4856 35.3509 78.4903 35.3307 78.481 35.3153C78.4501 35.2627 78.4037 35.2256 78.3402 35.207C78.3155 35.1869 78.2923 35.1807 78.2706 35.1869C78.2242 35.2008 78.2072 35.1838 78.2211 35.1374C78.3109 34.8342 78.4887 34.6919 78.7564 34.7089C78.8538 34.8914 78.9714 34.9425 79.109 34.862C79.1245 34.8528 79.1338 34.8342 79.1291 34.8156C79.1075 34.7166 79.0425 34.6563 78.9327 34.6316L78.9358 34.5712C79.2483 34.5527 79.4339 34.2108 79.4787 33.9478C79.4803 33.9355 79.4726 33.9231 79.4602 33.9215C79.4571 33.9215 79.4555 33.9215 79.4524 33.9215C79.3179 33.9401 79.1864 33.9741 79.0595 34.019C78.8569 34.0932 78.7579 34.2356 78.7641 34.4475L78.7625 34.4459ZM85.1125 34.1551C85.196 34.169 85.2703 34.1474 85.3352 34.0901C85.3507 34.0762 85.3507 34.053 85.3383 34.0376C85.3383 34.0376 85.3368 34.036 85.3352 34.0345C85.2424 33.954 85.063 33.9478 85.0692 34.1041C85.0692 34.1288 85.0877 34.1505 85.114 34.1551H85.1125ZM86.828 34.3376C86.9997 34.5186 87.1977 34.1922 87.2178 34.0546C87.2193 34.0391 87.2085 34.0252 87.193 34.0221C87.193 34.0221 87.1915 34.0221 87.19 34.0221C86.9904 34.0143 86.8574 34.1025 86.7893 34.2835C86.7769 34.3175 86.7862 34.3454 86.828 34.3376ZM87.3833 34.2588C87.3307 34.3299 87.3261 34.3841 87.3725 34.4196C87.4375 34.4707 87.504 34.4707 87.5689 34.4196C87.6819 34.333 87.7577 34.2216 87.7963 34.0855C87.7994 34.0716 87.7917 34.0577 87.7778 34.053C87.7747 34.053 87.7731 34.053 87.77 34.053C87.6076 34.0608 87.4792 34.1304 87.3833 34.2603V34.2588ZM83.5718 34.2711C83.6863 34.3933 83.8255 34.4336 83.9895 34.3949C84.0065 34.3918 84.0157 34.3748 84.0127 34.3578C84.0127 34.3562 84.0127 34.3531 84.0111 34.3516C83.9523 34.2309 83.858 34.1458 83.7296 34.0979C83.6615 34.0731 83.612 34.0747 83.5795 34.1041C83.5207 34.1567 83.5192 34.2124 83.5733 34.2711H83.5718ZM84.6005 34.3701C84.633 34.3454 84.6206 34.2727 84.5726 34.2093C84.5247 34.1443 84.4582 34.1133 84.4257 34.1366C84.3932 34.1613 84.4056 34.234 84.4535 34.2974C84.5015 34.3624 84.568 34.3933 84.6005 34.3701ZM73.4351 34.6455L73.497 34.6532C73.514 34.6563 73.531 34.6439 73.5341 34.6269L73.5465 34.5697C73.5557 34.4104 73.4954 34.2789 73.3655 34.1737C73.35 34.1613 73.3283 34.1644 73.316 34.1783C73.3144 34.1814 73.3129 34.1845 73.3113 34.1876C73.2324 34.3748 73.2742 34.5279 73.4351 34.6439V34.6455ZM73.9146 34.664C73.9749 34.6439 73.9904 34.5248 73.9502 34.3964C73.9084 34.268 73.8264 34.1799 73.7661 34.2C73.7058 34.2201 73.6903 34.3392 73.7305 34.4676C73.7723 34.596 73.8543 34.6842 73.9146 34.664ZM77.9845 34.5697C78.0726 34.5836 78.1051 34.5465 78.0819 34.4599C78.0556 34.3609 77.7725 34.053 77.6596 34.2711C77.6503 34.2897 77.6503 34.3114 77.6596 34.3299C77.723 34.466 77.8329 34.5465 77.986 34.5697H77.9845ZM87.8938 34.6501L87.9 34.6656C87.9077 34.6826 87.9278 34.6903 87.9448 34.6842C88.1397 34.6084 88.2295 34.4645 88.214 34.2526C88.214 34.2356 88.1985 34.2232 88.1831 34.2247C88.18 34.2247 88.1784 34.2247 88.1753 34.2247C87.9912 34.2835 87.8768 34.4073 87.8335 34.596C87.8304 34.6084 87.8381 34.6207 87.8489 34.6254L87.883 34.6377C87.883 34.6377 87.8922 34.6439 87.8953 34.6486L87.8938 34.6501ZM74.4282 34.7615C74.4885 34.7414 74.5024 34.6207 74.4591 34.4892C74.4158 34.3593 74.3323 34.2696 74.2719 34.2897C74.2116 34.3098 74.1977 34.4305 74.241 34.5619C74.2843 34.6919 74.3678 34.7816 74.4282 34.7615ZM74.7561 34.3856C74.6865 34.5109 74.6834 34.6377 74.7484 34.7677C74.7654 34.8002 74.8041 34.8125 74.8366 34.7955C74.8427 34.7924 74.8474 34.7878 74.852 34.7832C74.9696 34.6656 74.9742 34.531 74.8644 34.3794C74.8427 34.35 74.8025 34.3438 74.7747 34.3655C74.7669 34.3717 74.7608 34.3779 74.7561 34.3856ZM78.3279 34.6377C78.365 34.6176 78.3619 34.5434 78.3217 34.4722C78.2815 34.4011 78.2196 34.3609 78.184 34.381C78.1469 34.4011 78.15 34.4753 78.1902 34.5465C78.2304 34.6176 78.2923 34.6579 78.3279 34.6377ZM83.349 34.811C83.38 34.8203 83.4125 34.8017 83.4217 34.7708C83.4233 34.7646 83.4248 34.7569 83.4233 34.7491C83.4078 34.5821 83.3274 34.4645 83.1804 34.398C83.0861 34.3547 83.0474 34.3841 83.0644 34.4861C83.0907 34.6548 83.1851 34.763 83.349 34.811ZM75.2202 34.8992C75.3764 34.8822 75.3517 34.5449 75.33 34.4413C75.3269 34.4289 75.3161 34.4212 75.3037 34.4227C75.3006 34.4227 75.2975 34.4243 75.2944 34.4274C75.1691 34.5202 75.1073 34.6455 75.1104 34.8017C75.1104 34.8574 75.1568 34.9007 75.2109 34.8992C75.214 34.8992 75.2171 34.8992 75.2202 34.8992ZM81.9909 34.7971C81.8996 34.9456 81.8934 35.1003 81.9708 35.2642C81.977 35.2782 81.994 35.2828 82.0063 35.2766C82.0094 35.2766 82.011 35.2735 82.0125 35.272C82.1193 35.1745 82.2755 34.8914 82.127 34.7723C82.0868 34.7398 82.028 34.7476 81.9955 34.7878C81.9924 34.7909 81.9909 34.794 81.9893 34.7971H81.9909ZM86.6717 34.8466C86.613 35.0322 86.6563 35.1884 86.7986 35.3168C86.8079 35.3261 86.8233 35.3246 86.8326 35.3153C86.8342 35.3137 86.8357 35.3122 86.8373 35.3091C86.9162 35.1436 86.9162 34.9796 86.8373 34.8172C86.828 34.7971 86.8094 34.7832 86.7893 34.777C86.7321 34.7615 86.6934 34.7847 86.6733 34.845L86.6717 34.8466ZM86.1907 35.3292C86.2788 35.2085 86.3376 34.7909 86.0839 34.8172C86.0623 34.8203 86.0453 34.8342 86.0391 34.8543C85.9772 35.0368 86.0128 35.1962 86.1458 35.3323C86.1566 35.3447 86.1752 35.3447 86.1876 35.3323C86.1876 35.3323 86.1907 35.3292 86.1907 35.3277V35.3292ZM87.1142 34.9286C87.091 35.1204 87.1528 35.2642 87.3029 35.3648C87.3168 35.3741 87.3338 35.3694 87.3431 35.357C87.3431 35.357 87.3431 35.3555 87.3446 35.354C87.4421 35.159 87.4065 34.9904 87.2364 34.8481H87.1575C87.1405 34.8497 87.125 34.8636 87.1219 34.8806L87.1142 34.9286ZM78.7594 34.9842C78.7703 34.9409 78.7161 34.8899 78.6403 34.8713C78.563 34.8528 78.4934 34.8713 78.4826 34.9162C78.4717 34.9595 78.5259 35.0105 78.6017 35.0291C78.679 35.0477 78.7486 35.0291 78.7594 34.9842ZM82.6359 34.9007C82.4256 34.9007 82.3606 35.19 82.3776 35.3493C82.3776 35.3617 82.39 35.371 82.4023 35.3694C82.4054 35.3694 82.407 35.3694 82.4101 35.3679C82.5509 35.3045 82.7721 35.1126 82.6823 34.9301C82.6746 34.9115 82.656 34.9007 82.6359 34.9007ZM87.6896 34.9719L87.6772 34.9904C87.5921 35.1513 87.5937 35.3106 87.6803 35.47C87.688 35.4839 87.7066 35.4901 87.7205 35.4808C87.7236 35.4808 87.7252 35.4777 87.7283 35.4762C87.8598 35.3385 87.9046 35.1761 87.8597 34.9904C87.8551 34.9672 87.8365 34.9502 87.8149 34.944C87.7654 34.9301 87.7236 34.9409 87.6911 34.9734L87.6896 34.9719ZM73.3423 35.4669C73.4057 35.4839 73.4861 35.388 73.5232 35.2519C73.5604 35.1157 73.5387 34.992 73.4753 34.975C73.4119 34.9579 73.3314 35.0539 73.2943 35.19C73.2572 35.3261 73.2788 35.4499 73.3423 35.4669ZM73.8264 35.0848C73.7073 35.2194 73.6888 35.371 73.7677 35.538C73.7738 35.552 73.7909 35.5566 73.8032 35.5504C73.8048 35.5504 73.8063 35.5489 73.8079 35.5473C73.9641 35.4205 73.9997 35.2704 73.9162 35.0972C73.9038 35.0693 73.8698 35.0585 73.8435 35.0709C73.8373 35.074 73.8311 35.0786 73.8249 35.0848H73.8264ZM71.4829 35.1931C71.435 35.1374 71.3097 35.1683 71.2029 35.2611C71.0962 35.354 71.0482 35.4731 71.0962 35.5287C71.1441 35.5844 71.2694 35.5535 71.3762 35.4607C71.4829 35.3679 71.5309 35.2488 71.4829 35.1931ZM74.2487 35.6432C74.3075 35.6618 74.3864 35.5721 74.4251 35.4452C74.4638 35.3184 74.4467 35.1993 74.388 35.1822C74.3292 35.1637 74.2503 35.2534 74.2116 35.3802C74.1729 35.5071 74.19 35.6262 74.2487 35.6432ZM71.2416 36.1413C71.3097 36.1831 71.4396 36.0903 71.534 35.9356C71.6283 35.7809 71.6484 35.6231 71.5804 35.5813C71.5123 35.5396 71.3824 35.6324 71.288 35.7871C71.1936 35.9418 71.1735 36.0996 71.2416 36.1413ZM74.1095 35.9278C74.159 35.9062 74.1652 35.8087 74.1234 35.7097C74.0817 35.6107 74.0074 35.5473 73.9579 35.5674C73.9084 35.5891 73.9007 35.6865 73.944 35.7855C73.9858 35.8845 74.06 35.948 74.1095 35.9278ZM73.6934 36.0423C73.7429 36.0222 73.746 35.9186 73.7011 35.8134C73.6563 35.7082 73.5805 35.6401 73.531 35.6602C73.4815 35.6803 73.4784 35.784 73.5232 35.8892C73.5681 35.9944 73.6439 36.0624 73.6934 36.0423ZM70.6971 36.2867C70.7683 36.3177 70.8286 36.3037 70.8781 36.2434C70.8936 36.2248 70.9044 36.2001 70.9075 36.1723C70.9353 35.9356 70.5161 35.8706 70.3537 35.9093C70.3398 35.9124 70.3305 35.9263 70.3336 35.9402C70.3336 35.9418 70.3336 35.9449 70.3351 35.9464C70.4125 36.1026 70.5331 36.2171 70.6956 36.2867H70.6971ZM71.4721 36.5033C71.486 36.5559 71.52 36.576 71.5773 36.5652C71.7876 36.4476 71.882 36.2666 71.8588 36.0238C71.8588 36.0083 71.8449 35.9975 71.8294 35.999C71.8279 35.999 71.8263 35.999 71.8248 35.999C71.5788 36.0717 71.4613 36.2388 71.4721 36.5017V36.5033ZM74.7979 36.3733C74.8056 36.2713 74.7747 35.9619 74.5999 36.0052C74.5705 36.0129 74.5519 36.0408 74.555 36.0702C74.5705 36.2109 74.6401 36.3177 74.7654 36.3888C74.7747 36.395 74.7871 36.3919 74.7932 36.3811C74.7948 36.378 74.7963 36.3749 74.7963 36.3718L74.7979 36.3733ZM72.2471 36.2156C72.0259 36.2852 71.9021 36.4584 71.8588 36.6827C71.8495 36.7291 71.8789 36.774 71.9253 36.7817C71.9284 36.7817 71.9331 36.7817 71.9362 36.7817C72.1898 36.7987 72.2966 36.4244 72.2796 36.2357C72.2796 36.2218 72.2672 36.2109 72.2533 36.2125C72.2517 36.2125 72.2486 36.2125 72.2471 36.2125V36.2156ZM73.9285 36.5574C73.9734 36.5806 74.0492 36.5218 74.0956 36.4275C74.1436 36.3331 74.1451 36.2388 74.0987 36.2156C74.0538 36.1924 73.978 36.2511 73.9316 36.3455C73.8852 36.4399 73.8821 36.5342 73.9285 36.5574ZM73.5062 36.692C73.5542 36.7152 73.6331 36.6518 73.6826 36.5512C73.7305 36.4491 73.7305 36.3486 73.6826 36.3254C73.6346 36.3022 73.5557 36.3656 73.5062 36.4662C73.4583 36.5683 73.4583 36.6688 73.5062 36.692ZM85.3878 36.9782C85.4049 36.9906 85.4281 36.9875 85.442 36.9704C85.5719 36.8158 85.5889 36.6441 85.4915 36.4584C85.4853 36.4461 85.4714 36.443 85.459 36.4476C85.4574 36.4476 85.4559 36.4491 85.4543 36.4507C85.3151 36.5744 85.1821 36.8359 85.3878 36.9766V36.9782ZM70.4867 36.7678C70.6832 36.9117 70.8781 36.9148 71.0699 36.7771C71.0885 36.7647 71.0993 36.7431 71.0977 36.7198C71.0885 36.4074 70.5981 36.5976 70.4821 36.7276C70.4728 36.7384 70.4743 36.7554 70.4852 36.7647C70.4852 36.7647 70.4852 36.7647 70.4867 36.7647V36.7678ZM85.8534 37.1762C86.1071 37.2922 86.0623 36.7941 86.0035 36.6827C85.9958 36.6688 85.9787 36.6626 85.9633 36.6703C85.9602 36.6703 85.9586 36.6734 85.9571 36.675C85.8225 36.7972 85.7746 36.9472 85.8132 37.1267C85.8179 37.1483 85.8333 37.1669 85.8534 37.1762ZM86.8156 37.2551L86.8775 37.2829C86.8945 37.2906 86.9131 37.2845 86.9223 37.2705L86.9842 37.1762C87.0322 37.0292 87.0213 36.8885 86.9548 36.7508C86.9486 36.7384 86.9332 36.7338 86.9208 36.7384C86.9192 36.7384 86.9177 36.74 86.9162 36.7415C86.7506 36.8823 86.7166 37.0524 86.8156 37.2551ZM86.367 37.2721C86.432 37.2937 86.5217 37.2009 86.5696 37.0633C86.6176 36.9256 86.6037 36.7956 86.5387 36.774C86.4737 36.7523 86.384 36.8451 86.3361 36.9828C86.2881 37.1205 86.302 37.2504 86.367 37.2721ZM82.7999 37.1004C83.1495 37.2009 83.6027 37.4422 83.6445 37.8444C83.6476 37.8676 83.6538 37.8676 83.6631 37.8475L83.7064 37.7501C83.7126 37.7362 83.7126 37.7207 83.7048 37.7068C83.4991 37.3541 83.1897 37.1437 82.7798 37.0756C82.7643 37.0725 82.7597 37.0787 82.769 37.0911C82.7752 37.1019 82.786 37.1035 82.7999 37.0988V37.1004ZM71.5804 37.1421C71.5355 37.071 71.3793 37.0896 71.2323 37.1824C71.0854 37.2752 71.0034 37.4082 71.0482 37.4794C71.0931 37.5505 71.2493 37.532 71.3963 37.4391C71.5432 37.3463 71.6252 37.2133 71.5804 37.1421ZM74.6153 37.8352L74.6355 37.8785C74.6447 37.8986 74.6525 37.8986 74.6587 37.8754C74.7468 37.4639 75.098 37.2937 75.463 37.1592C75.4832 37.1514 75.4831 37.1499 75.4615 37.1514C75.098 37.1994 74.8319 37.3664 74.6648 37.6557C74.6184 37.7362 74.5566 37.7764 74.4823 37.7764C74.4607 37.7764 74.4591 37.781 74.4792 37.7903C74.5055 37.8027 74.5349 37.8089 74.5658 37.8058C74.5875 37.8042 74.6061 37.815 74.6153 37.8352ZM84.008 37.3123C84.0003 37.2566 83.909 37.2257 83.8054 37.2396C83.7017 37.2551 83.6244 37.3108 83.6321 37.3664C83.6399 37.4221 83.7311 37.4531 83.8348 37.4391C83.9384 37.4252 84.0157 37.368 84.008 37.3123ZM74.306 37.3943C74.4143 37.4732 74.5952 37.5892 74.6633 37.3989C74.671 37.3773 74.6633 37.3541 74.6447 37.3417C74.5349 37.269 74.4235 37.269 74.3075 37.3401C74.2921 37.3494 74.2874 37.3695 74.2967 37.385C74.2982 37.3881 74.3013 37.3912 74.3044 37.3943H74.306ZM82.9793 37.3355C82.7922 37.2288 82.7643 37.5598 82.7798 37.6511C82.7829 37.665 82.7953 37.6743 82.8092 37.6727C82.8123 37.6727 82.8154 37.6712 82.8185 37.6696C82.9206 37.6031 82.9824 37.5103 83.0041 37.3912C83.0072 37.3695 82.9979 37.3479 82.9778 37.3371L82.9793 37.3355ZM75.4862 37.7176C75.5017 37.7269 75.5218 37.7222 75.5311 37.7083C75.5342 37.7037 75.5357 37.699 75.5357 37.6944C75.5481 37.5706 75.5125 37.3262 75.3254 37.368C75.3053 37.3726 75.2929 37.3912 75.2944 37.4098C75.3084 37.5443 75.3733 37.648 75.4862 37.7176ZM73.2324 37.5722C72.9091 37.5644 73.1087 38.1074 73.2324 38.2312C73.2417 38.2404 73.2572 38.2404 73.2665 38.2312C73.2665 38.2312 73.2696 38.2281 73.2696 38.2265C73.3964 38.0177 73.401 37.8104 73.2835 37.6016C73.2742 37.583 73.2541 37.5722 73.234 37.5722H73.2324ZM83.3104 37.6C83.2439 37.6944 83.2098 37.7996 83.2083 37.9171C83.2083 37.9311 83.2191 37.9434 83.2346 37.9434C83.2377 37.9434 83.2408 37.9434 83.2454 37.9419C83.3506 37.9001 83.5347 37.7052 83.4078 37.5907C83.3815 37.566 83.3398 37.5691 83.315 37.5954C83.3135 37.5969 83.3119 37.5985 83.3104 37.6016V37.6ZM84.3932 37.6634C84.3793 37.5877 84.2602 37.5459 84.1287 37.5706C83.9972 37.5954 83.9013 37.6774 83.9152 37.7532C83.9291 37.829 84.0482 37.8707 84.1797 37.846C84.3112 37.8212 84.4071 37.7392 84.3932 37.6634ZM84.998 37.6634C84.9098 37.3664 84.5958 37.7748 84.5773 37.9233C84.5757 37.9372 84.585 37.9496 84.6005 37.9512C84.6005 37.9512 84.6036 37.9512 84.6051 37.9512C84.7737 37.9434 84.9021 37.8692 84.9903 37.7284C85.0027 37.7083 85.0058 37.6851 84.9996 37.6619L84.998 37.6634ZM87.3106 37.9867C87.3524 38.0007 87.3972 37.9775 87.4112 37.9357C87.4158 37.9233 87.4158 37.9109 87.4142 37.8986C87.391 37.7439 87.3106 37.631 87.1745 37.5629C87.0863 37.5196 87.0445 37.5459 87.0492 37.6449C87.0585 37.8197 87.1451 37.9342 87.3091 37.9867H87.3106ZM71.4597 37.7238C71.5896 37.8986 71.7536 37.9512 71.9516 37.8847C72.0491 37.8506 72.063 37.7965 71.9918 37.7207C71.8573 37.5768 71.6917 37.5382 71.4968 37.6031C71.4551 37.617 71.4334 37.6619 71.4473 37.7021C71.4504 37.7099 71.4535 37.7176 71.4582 37.7238H71.4597ZM74.3941 37.7996C74.4065 37.7238 74.3091 37.6433 74.1745 37.6201C74.0399 37.5969 73.9208 37.6402 73.9069 37.7145C73.8945 37.7903 73.992 37.8707 74.1265 37.8939C74.2611 37.9171 74.3802 37.8738 74.3941 37.7996ZM75.0114 37.9728C75.0701 38.0053 75.0964 37.9883 75.0918 37.9202C75.0856 37.8243 75.0562 37.7377 75.0067 37.6573C74.9943 37.6387 74.9742 37.6279 74.951 37.6279C74.7406 37.6325 74.9263 37.9264 75.0098 37.9728H75.0114ZM86.7692 38.1739C86.7939 38.1863 86.8249 38.177 86.8373 38.1538C86.8404 38.1492 86.8419 38.1445 86.8419 38.1399C86.8651 38.0254 86.7677 37.6201 86.5511 37.7191C86.5294 37.7284 86.5171 37.7501 86.5171 37.7748C86.5232 37.9574 86.6068 38.0919 86.7692 38.1755V38.1739ZM84.2138 38.4276C84.1132 38.4183 83.8085 37.8723 83.7358 37.9342C83.7203 37.9481 83.7126 37.9682 83.7141 37.9883C83.7698 38.457 84.0297 38.7339 84.4922 38.819C84.5046 38.8205 84.5154 38.8128 84.5169 38.802C84.5169 38.8004 84.5169 38.7973 84.5169 38.7958C84.4582 38.3518 84.3298 37.9543 83.8487 37.8166C83.7976 37.8011 83.7884 37.8166 83.8193 37.8584L84.2261 38.4044C84.24 38.423 84.2354 38.4307 84.2122 38.4276H84.2138ZM72.7668 37.8584L72.7065 37.846C72.6988 37.8367 72.691 37.8321 72.6817 37.829C72.6616 37.8228 72.6384 37.8336 72.6307 37.8537C72.524 38.0997 72.5657 38.3147 72.7544 38.5003C72.7622 38.5096 72.7761 38.5096 72.7854 38.5003C72.7885 38.4972 72.79 38.4957 72.79 38.4926C72.8658 38.2791 72.9494 38.0502 72.7653 37.8599L72.7668 37.8584ZM74.5782 37.9837L74.5009 37.9218C74.4978 37.88 74.4761 37.8645 74.4375 37.8754C73.9672 38.0069 73.8404 38.4261 73.7831 38.8576C73.7816 38.8747 73.794 38.8901 73.811 38.8917C73.8156 38.8917 73.8203 38.8917 73.8249 38.8917C74.2781 38.7354 74.5983 38.5173 74.5782 37.9852V37.9837ZM84.9083 38.1662C84.8975 38.2018 84.9176 38.2404 84.9532 38.2513C84.9593 38.2528 84.964 38.2544 84.9702 38.2544C85.0831 38.259 85.4899 38.0146 85.2502 37.88C85.2316 37.8692 85.2084 37.8676 85.1883 37.8738C85.0475 37.9218 84.9532 38.0192 84.9068 38.1646L84.9083 38.1662ZM83.479 38.4446C83.5486 38.4616 83.6337 38.3565 83.6677 38.211C83.7017 38.0656 83.6739 37.9342 83.6043 37.9171C83.5347 37.9001 83.4496 38.0053 83.4156 38.1507C83.3815 38.2961 83.4094 38.4276 83.479 38.4446ZM74.8288 38.4895C74.8984 38.4725 74.9278 38.3425 74.8922 38.1987C74.8567 38.0548 74.7716 37.9543 74.7004 37.9713C74.6308 37.9883 74.6014 38.1182 74.637 38.2621C74.6726 38.406 74.7577 38.5065 74.8288 38.4895ZM71.5958 38.1987C71.6036 38.1213 71.4984 38.0471 71.3592 38.0332C71.2215 38.0192 71.1024 38.0703 71.0946 38.1476C71.0869 38.225 71.1921 38.2992 71.3313 38.3131C71.469 38.3271 71.5881 38.276 71.5958 38.1987ZM86.5062 38.2868C86.5155 38.2141 86.4134 38.1414 86.2788 38.1244C86.1443 38.1074 86.0267 38.1523 86.0174 38.225C86.0081 38.2977 86.1102 38.3704 86.2448 38.3874C86.3794 38.4044 86.4969 38.3595 86.5062 38.2868ZM72.2564 38.7741C72.3337 38.7664 72.3832 38.6163 72.3662 38.4384C72.3492 38.2605 72.2718 38.1229 72.1945 38.1306C72.1171 38.1383 72.0676 38.2884 72.0847 38.4663C72.1017 38.6442 72.179 38.7818 72.2564 38.7741ZM85.592 38.3116C85.4049 38.2729 85.2687 38.4833 85.2146 38.6333C85.2069 38.655 85.2177 38.6782 85.2378 38.6859C85.2424 38.6875 85.2471 38.689 85.2533 38.689C85.4358 38.6828 85.5688 38.6024 85.6539 38.4477C85.6786 38.4029 85.6616 38.3472 85.6168 38.3224C85.609 38.3178 85.5998 38.3147 85.592 38.3131V38.3116ZM71.9702 38.986C72.0382 38.9628 72.0568 38.8313 72.0089 38.6952C71.9609 38.5575 71.8681 38.4663 71.7985 38.4895C71.7304 38.5127 71.7119 38.6442 71.7598 38.7803C71.8078 38.9164 71.9006 39.0092 71.9702 38.986ZM86.531 38.8623C86.5681 38.7973 86.5016 38.689 86.3809 38.6194C86.2603 38.5498 86.1334 38.5452 86.0963 38.6101C86.0592 38.6751 86.1257 38.7834 86.2464 38.853C86.367 38.9226 86.4939 38.9273 86.531 38.8623ZM85.7746 38.7571C85.722 38.7045 85.5982 38.7432 85.4961 38.8437C85.394 38.9443 85.3538 39.068 85.4064 39.1206C85.459 39.1732 85.5827 39.1345 85.6848 39.034C85.7869 38.9334 85.8271 38.8097 85.7746 38.7571ZM86.0545 39.3898C85.9787 39.184 85.9432 38.9721 85.9494 38.7509C85.9494 38.7432 85.9432 38.7354 85.9354 38.7354C85.9354 38.7354 85.9354 38.7354 85.9339 38.7354H85.9153C85.8968 38.737 85.8813 38.7478 85.8736 38.7633C85.6431 39.2196 85.838 39.6125 86.1303 39.9497C86.1381 39.959 86.1535 39.9606 86.1628 39.9513C86.1644 39.9497 86.1675 39.9466 86.169 39.9436C86.3639 39.529 86.4134 39.0665 86.0329 38.7354C85.9988 38.706 85.9849 38.7138 85.9911 38.7586L86.0654 39.3851C86.0685 39.4114 86.0654 39.4114 86.0561 39.3882L86.0545 39.3898Z" fill="#FFCF01"/>
</g>
<defs>
<clipPath id="clip0_1283_4282">
<rect width="160" height="90" fill="white"/>
</clipPath>
</defs>
</svg>
