<svg width="160" height="90" viewBox="0 0 160 90" fill="none" xmlns="http://www.w3.org/2000/svg">
<g clip-path="url(#clip0_1283_4012)">
<rect width="160" height="90" rx="16" fill="white"/>
<path d="M80.0241 70.6577C94.1919 70.6577 105.677 59.1724 105.677 45.0046C105.677 30.8368 94.1919 19.3516 80.0241 19.3516C65.8563 19.3516 54.3711 30.8368 54.3711 45.0046C54.3711 59.1724 65.8563 70.6577 80.0241 70.6577Z" fill="url(#paint0_linear_1283_4012)"/>
<path d="M80.0097 70.9999C76.5008 70.9999 73.0974 70.3132 69.8921 68.957C66.7964 67.6478 64.0169 65.7744 61.6307 63.3867C59.2445 61.0005 57.3697 58.2196 56.0605 55.1254C54.7057 51.9214 54.0176 48.5166 54.0176 45.0078C54.0176 41.4989 54.7042 38.0955 56.0605 34.8901C57.3697 31.7944 59.2431 29.015 61.6307 26.6288C64.0169 24.2425 66.7978 22.3677 69.8921 21.0585C73.096 19.7037 76.5008 19.0156 80.0097 19.0156C83.5185 19.0156 86.9219 19.7023 90.1273 21.0585C93.223 22.3677 96.0024 24.2411 98.3886 26.6288C100.775 29.015 102.65 31.7959 103.959 34.8901C105.314 38.0941 106.002 41.4989 106.002 45.0078C106.002 48.5166 105.315 51.92 103.959 55.1254C102.65 58.2211 100.776 61.0005 98.3886 63.3867C96.0024 65.773 93.2215 67.6478 90.1273 68.957C86.9233 70.3118 83.5185 70.9999 80.0097 70.9999ZM80.0097 19.755C66.0855 19.755 54.757 31.0836 54.757 45.0078C54.757 58.9319 66.0855 70.2605 80.0097 70.2605C93.9338 70.2605 105.262 58.9319 105.262 45.0078C105.262 31.0836 93.9338 19.755 80.0097 19.755Z" fill="#333333"/>
<path d="M80.0108 66.2248C91.7269 66.2248 101.225 56.727 101.225 45.0108C101.225 33.2947 91.7269 23.7969 80.0108 23.7969C68.2947 23.7969 58.7969 33.2947 58.7969 45.0108C58.7969 56.727 68.2947 66.2248 80.0108 66.2248Z" fill="white"/>
<path d="M80.01 66.8228C77.0653 66.8228 74.2075 66.2458 71.5193 65.109C68.9222 64.0106 66.5887 62.4378 64.5857 60.4334C62.5827 58.4304 61.0099 56.0968 59.9101 53.4998C58.7718 50.8101 58.1963 47.9537 58.1963 45.009C58.1963 42.0644 58.7733 39.2066 59.9101 36.5183C61.0085 33.9213 62.5813 31.5877 64.5857 29.5847C66.5887 27.5817 68.9222 26.0089 71.5193 24.9091C74.209 23.7709 77.0653 23.1953 80.01 23.1953C82.9547 23.1953 85.8124 23.7723 88.5007 24.9091C91.0978 26.0075 93.4313 27.5803 95.4343 29.5847C97.4373 31.5877 99.0101 33.9213 100.11 36.5183C101.248 39.208 101.824 42.0644 101.824 45.009C101.824 47.9537 101.247 50.8115 100.11 53.4998C99.0115 56.0968 97.4387 58.4304 95.4343 60.4334C93.4313 62.4364 91.0978 64.0092 88.5007 65.109C85.811 66.2472 82.9547 66.8228 80.01 66.8228ZM80.01 23.8122C68.3224 23.8122 58.8146 33.3201 58.8146 45.0076C58.8146 56.6952 68.3224 66.2031 80.01 66.2031C91.6975 66.2031 101.205 56.6952 101.205 45.0076C101.205 33.3201 91.6975 23.8122 80.01 23.8122Z" fill="#333333"/>
<path d="M91.4381 58.3665C91.4381 58.0958 91.2173 57.875 90.9466 57.875H90.3796C90.3169 57.875 90.2656 57.9263 90.2656 57.989V59.4663C90.2656 59.529 90.3169 59.5803 90.3796 59.5803C90.4423 59.5803 90.4936 59.529 90.4936 59.4663V58.9919L91.1475 59.5532C91.1688 59.5717 91.1959 59.5803 91.2215 59.5803C91.2543 59.5803 91.2857 59.5674 91.3084 59.5404C91.3498 59.4919 91.3441 59.4207 91.2956 59.3794L90.6873 58.8566H90.9466C91.2173 58.8566 91.4381 58.6357 91.4381 58.3651V58.3665ZM90.4936 58.63V58.1044H90.9466C91.0919 58.1044 91.2101 58.2226 91.2101 58.3679C91.2101 58.5132 91.0919 58.6315 90.9466 58.6315H90.4936V58.63Z" fill="#333333"/>
<path d="M90.776 57.1875C89.9312 57.1875 89.2432 57.8756 89.2432 58.7204C89.2432 59.5652 89.9312 60.2533 90.776 60.2533C91.6208 60.2533 92.3089 59.5652 92.3089 58.7204C92.3089 57.8756 91.6208 57.1875 90.776 57.1875ZM90.776 60.0253C90.0566 60.0253 89.4711 59.4398 89.4711 58.7204C89.4711 58.001 90.0566 57.4154 90.776 57.4154C91.4955 57.4154 92.081 58.001 92.081 58.7204C92.081 59.4398 91.4955 60.0253 90.776 60.0253Z" fill="#333333"/>
<mask id="mask0_1283_4012" style="mask-type:luminance" maskUnits="userSpaceOnUse" x="59" y="24" width="42" height="42">
<path d="M80.0329 65.8413C91.546 65.8413 100.879 56.508 100.879 44.9948C100.879 33.4817 91.546 24.1484 80.0329 24.1484C68.5198 24.1484 59.1865 33.4817 59.1865 44.9948C59.1865 56.508 68.5198 65.8413 80.0329 65.8413Z" fill="white"/>
</mask>
<g mask="url(#mask0_1283_4012)">
<path d="M68.4857 30.0703L66.2918 30.7499L65.7832 32.9908L67.4699 34.5493L68.5669 34.2102L69.6639 33.8698L70.171 31.6303L68.4857 30.0703Z" fill="#F9C033"/>
<path d="M67.2304 32.3153C67.3643 31.3167 68.3601 30.6172 68.3601 30.6172L66.6962 31.1329L66.3115 32.831L67.5894 34.0135C67.5894 34.0135 67.0993 33.2841 67.229 32.3153H67.2304Z" fill="#FCD15E"/>
<path d="M72.5946 30.9883L70.4007 31.6692L69.8936 33.9087L71.5789 35.4687L72.6758 35.1282L73.7728 34.7892L74.2814 32.5482L72.5946 30.9883Z" fill="#F9C033"/>
<path d="M71.3408 33.2333C71.4747 32.2346 72.4705 31.5352 72.4705 31.5352L70.8065 32.0509L70.4219 33.749L71.6998 34.9314C71.6998 34.9314 71.2097 34.202 71.3393 33.2333H71.3408Z" fill="#FCD15E"/>
<path d="M75.4378 27.918L73.2439 28.5975L72.7354 30.837L74.4221 32.397L75.519 32.0579L76.616 31.7174L77.1232 29.4765L75.4378 27.918Z" fill="#F9C033"/>
<path d="M74.1825 30.163C74.3165 29.1643 75.3123 28.4648 75.3123 28.4648L73.6483 28.9806L73.2637 30.6787L74.5416 31.8611C74.5416 31.8611 74.0515 31.1317 74.1811 30.163H74.1825Z" fill="#FCD15E"/>
<path d="M76.6688 31.9258L74.4749 32.6067L73.9678 34.8462L75.6531 36.4062L76.75 36.0657L77.847 35.7267L78.3556 33.4857L76.6688 31.9258Z" fill="#F9C033"/>
<path d="M75.415 34.1708C75.5489 33.1721 76.5447 32.4727 76.5447 32.4727L74.8807 32.9884L74.4961 34.6865L75.774 35.8689C75.774 35.8689 75.2839 35.1395 75.4135 34.1708H75.415Z" fill="#FCD15E"/>
<path d="M77.9384 35.9258L75.7445 36.6053L75.2373 38.8462L76.9226 40.4048L78.0196 40.0657L79.1165 39.7252L79.6251 37.4857L77.9384 35.9258Z" fill="#F9C033"/>
<path d="M76.6845 38.1708C76.8184 37.1721 77.8142 36.4727 77.8142 36.4727L76.1503 36.9884L75.7656 38.6865L77.0435 39.8689C77.0435 39.8689 76.5534 39.1395 76.6831 38.1708H76.6845Z" fill="#FCD15E"/>
<path d="M82.3861 25.75L80.1922 26.431L79.6836 28.6705L81.3703 30.2304L82.4673 29.8899L83.5642 29.5495L84.0714 27.31L82.3861 25.75Z" fill="#F9C033"/>
<path d="M81.1308 27.995C81.2647 26.9964 82.2605 26.2969 82.2605 26.2969L80.5966 26.8126L80.2119 28.5107L81.4898 29.6932C81.4898 29.6932 80.9997 28.9638 81.1294 27.995H81.1308Z" fill="#FCD15E"/>
<path d="M83.6366 29.7734L81.4427 30.4544L80.9355 32.6939L82.6209 34.2539L83.7178 33.9134L84.8148 33.5729L85.3234 31.3334L83.6366 29.7734Z" fill="#F9C033"/>
<path d="M82.3827 32.0185C82.5167 31.0198 83.5125 30.3203 83.5125 30.3203L81.8485 30.836L81.4639 32.5342L82.7417 33.7166C82.7417 33.7166 82.2517 32.9872 82.3813 32.0185H82.3827Z" fill="#FCD15E"/>
<path d="M84.891 33.7773L82.6971 34.4583L82.1885 36.6978L83.8752 38.2578L84.9722 37.9173L86.0691 37.5782L86.5763 35.3373L84.891 33.7773Z" fill="#F9C033"/>
<path d="M83.6357 36.0224C83.7696 35.0237 84.7654 34.3242 84.7654 34.3242L83.1014 34.8399L82.7168 36.5381L83.9947 37.7205C83.9947 37.7205 83.5046 36.9911 83.6342 36.0224H83.6357Z" fill="#FCD15E"/>
<path d="M91.8226 31.625L89.6287 32.306L89.1201 34.5455L90.8069 36.1054L91.9038 35.7649L93.0008 35.4245L93.5079 33.185L91.8226 31.625Z" fill="#F9C033"/>
<path d="M90.5673 33.87C90.7012 32.8714 91.697 32.1719 91.697 32.1719L90.0331 32.6876L89.6484 34.3857L90.9263 35.5682C90.9263 35.5682 90.4362 34.8388 90.5659 33.87H90.5673Z" fill="#FCD15E"/>
<path d="M79.5263 28.8398L77.3324 29.5208L76.8252 31.7603L78.5105 33.3203L79.6075 32.9798L80.7044 32.6393L81.213 30.3998L79.5263 28.8398Z" fill="#F9C033"/>
<path d="M78.2724 31.0849C78.4063 30.0862 79.4021 29.3867 79.4021 29.3867L77.7382 29.9024L77.3535 31.6006L78.6314 32.783C78.6314 32.783 78.1413 32.0536 78.271 31.0849H78.2724Z" fill="#FCD15E"/>
<path d="M80.7796 32.8594L78.5857 33.5389L78.0771 35.7798L79.7639 37.3398L80.8608 36.9993L81.9578 36.6588L82.465 34.4193L80.7796 32.8594Z" fill="#F9C033"/>
<path d="M79.5243 35.1044C79.6583 34.1057 80.6541 33.4062 80.6541 33.4062L78.9901 33.922L78.6055 35.6201L79.8833 36.8025C79.8833 36.8025 79.3933 36.0731 79.5229 35.1044H79.5243Z" fill="#FCD15E"/>
<path d="M82.0355 36.8633L79.8416 37.5442L79.333 39.7837L81.0198 41.3437L82.1167 41.0032L83.2137 40.6642L83.7208 38.4232L82.0355 36.8633Z" fill="#F9C033"/>
<path d="M80.7802 39.1083C80.9141 38.1096 81.9099 37.4102 81.9099 37.4102L80.246 37.9259L79.8613 39.624L81.1392 40.8064C81.1392 40.8064 80.6491 40.077 80.7788 39.1083H80.7802Z" fill="#FCD15E"/>
<path d="M86.4774 26.6836L84.2835 27.3631L83.7764 29.6041L85.4631 31.164L86.5601 30.8235L87.657 30.483L88.1642 28.2435L86.4774 26.6836Z" fill="#F9C033"/>
<path d="M85.2236 28.9286C85.3575 27.93 86.3533 27.2305 86.3533 27.2305L84.6893 27.7462L84.3047 29.4443L85.5826 30.6268C85.5826 30.6268 85.0925 29.8974 85.2221 28.9286H85.2236Z" fill="#FCD15E"/>
<path d="M87.7289 30.6914L85.535 31.3709L85.0264 33.6104L86.7131 35.1704L87.8101 34.8313L88.907 34.4909L89.4142 32.2514L87.7289 30.6914Z" fill="#F9C033"/>
<path d="M86.4736 32.9364C86.6075 31.9378 87.6033 31.2383 87.6033 31.2383L85.9393 31.754L85.5547 33.4521L86.8326 34.6346C86.8326 34.6346 86.3425 33.9052 86.4721 32.9364H86.4736Z" fill="#FCD15E"/>
<path d="M88.9818 34.7109L86.7879 35.3919L86.2793 37.6314L87.966 39.1914L89.063 38.8509L90.16 38.5104L90.6671 36.2709L88.9818 34.7109Z" fill="#F9C033"/>
<path d="M87.7265 36.956C87.8604 35.9573 88.8562 35.2578 88.8562 35.2578L87.1923 35.7735L86.8076 37.4717L88.0855 38.6541C88.0855 38.6541 87.5954 37.9247 87.7251 36.956H87.7265Z" fill="#FCD15E"/>
<path d="M69.7196 34.0742L67.5257 34.7538L67.0186 36.9933L68.7039 38.5532L69.8008 38.2127L70.8978 37.8737L71.4064 35.6327L69.7196 34.0742Z" fill="#F9C033"/>
<path d="M68.4658 36.3192C68.5997 35.3206 69.5955 34.6211 69.5955 34.6211L67.9315 35.1368L67.5469 36.8349L68.8248 38.0174C68.8248 38.0174 68.3347 37.288 68.4643 36.3192H68.4658Z" fill="#FCD15E"/>
<path d="M73.8314 35.0117L71.6375 35.6927L71.1289 37.9322L72.8157 39.4921L73.9126 39.1517L75.0096 38.8112L75.5167 36.5717L73.8314 35.0117Z" fill="#F9C033"/>
<path d="M72.5761 37.2567C72.71 36.2581 73.7058 35.5586 73.7058 35.5586L72.0419 36.0743L71.6572 37.7724L72.9351 38.9549C72.9351 38.9549 72.445 38.2255 72.5747 37.2567H72.5761Z" fill="#FCD15E"/>
<path d="M75.0653 39.0156L72.8714 39.6952L72.3643 41.9361L74.0496 43.496L75.1465 43.1556L76.2435 42.8151L76.7521 40.5756L75.0653 39.0156Z" fill="#F9C033"/>
<path d="M73.8115 41.2606C73.9454 40.262 74.9412 39.5625 74.9412 39.5625L73.2772 40.0782L72.8926 41.7764L74.1705 42.9588C74.1705 42.9588 73.6804 42.2294 73.81 41.2606H73.8115Z" fill="#FCD15E"/>
<g opacity="0.5">
<path d="M93.379 57.2519L96.0729 56.417L96.6969 53.6661L94.6255 51.75L93.2793 52.1688L91.9316 52.5862L91.3076 55.3372L93.379 57.2519Z" fill="#F9C033"/>
<path d="M94.9179 54.505C94.7526 55.7316 93.5303 56.5907 93.5303 56.5907L95.5732 55.9567L96.0461 53.8711L94.4762 52.418C94.4762 52.418 95.0788 53.3126 94.9179 54.5036V54.505Z" fill="#FCD15E"/>
<path d="M88.3327 56.1034L91.0266 55.2686L91.6506 52.5177L89.5806 50.6016L88.2329 51.0204L86.8867 51.4378L86.2627 54.1873L88.3327 56.1034Z" fill="#F9C033"/>
<path d="M89.8729 53.3566C89.7077 54.5832 88.4854 55.4422 88.4854 55.4422L90.5282 54.8083L91.0012 52.7226L89.4313 51.2695C89.4313 51.2695 90.0339 52.1642 89.8729 53.3552V53.3566Z" fill="#FCD15E"/>
<path d="M84.8405 59.895L87.5344 59.0601L88.1584 56.3092L86.087 54.3945L84.7408 54.8119L83.3931 55.2294L82.7705 57.9803L84.8405 59.895Z" fill="#F9C033"/>
<path d="M86.3807 57.1496C86.2155 58.3762 84.9932 59.2352 84.9932 59.2352L87.0361 58.6012L87.509 56.5156L85.9391 55.0625C85.9391 55.0625 86.5417 55.9572 86.3807 57.1481V57.1496Z" fill="#FCD15E"/>
<path d="M83.2887 54.9731L85.9827 54.1383L86.6066 51.3873L84.5367 49.4727L83.189 49.8901L81.8427 50.3075L81.2188 53.0584L83.2887 54.9731Z" fill="#F9C033"/>
<path d="M84.829 52.2277C84.6637 53.4543 83.4414 54.3133 83.4414 54.3133L85.4843 53.6794L85.9573 51.5937L84.3873 50.1406C84.3873 50.1406 84.99 51.0353 84.829 52.2263V52.2277Z" fill="#FCD15E"/>
<path d="M81.7711 50.0566L84.4651 49.2203L85.0891 46.4708L83.0191 44.5547L81.6714 44.9721L80.3252 45.3909L79.7012 48.1404L81.7711 50.0566Z" fill="#F9C033"/>
<path d="M83.3114 47.3097C83.1462 48.5363 81.9238 49.3954 81.9238 49.3954L83.9667 48.7614L84.4397 46.6758L82.8698 45.2227C82.8698 45.2227 83.4724 46.1173 83.3114 47.3083V47.3097Z" fill="#FCD15E"/>
<path d="M76.3048 62.5409L78.9987 61.7047L79.6213 58.9552L77.5513 57.0391L76.2051 57.4565L74.8574 57.8739L74.2334 60.6248L76.3048 62.5409Z" fill="#F9C033"/>
<path d="M77.8436 59.7941C77.6784 61.0207 76.4561 61.8797 76.4561 61.8797L78.499 61.2458L78.9719 59.1601L77.402 57.707C77.402 57.707 78.0046 58.6017 77.8436 59.7927V59.7941Z" fill="#FCD15E"/>
<path d="M74.7692 57.6034L77.4631 56.7672L78.0871 54.0177L76.0171 52.1016L74.6695 52.519L73.3218 52.9364L72.6992 55.6873L74.7692 57.6034Z" fill="#F9C033"/>
<path d="M76.3095 54.8566C76.1442 56.0832 74.9219 56.9422 74.9219 56.9422L76.9648 56.3083L77.4377 54.2226L75.8678 52.7695C75.8678 52.7695 76.4704 53.6642 76.3095 54.8552V54.8566Z" fill="#FCD15E"/>
<path d="M73.234 52.7011L75.928 51.8663L76.552 49.1153L74.4806 47.1992L73.1343 47.6181L71.7866 48.0355L71.1641 50.7864L73.234 52.7011Z" fill="#F9C033"/>
<path d="M74.7743 49.9543C74.609 51.1808 73.3867 52.0399 73.3867 52.0399L75.4296 51.4059L75.9026 49.3203L74.3327 47.8672C74.3327 47.8672 74.9353 48.7618 74.7743 49.9528V49.9543Z" fill="#FCD15E"/>
<path d="M64.6969 55.3481L67.3909 54.5133L68.0148 51.7623L65.9449 49.8477L64.5972 50.2651L63.2509 50.6825L62.627 53.4334L64.6969 55.3481Z" fill="#F9C033"/>
<path d="M66.2372 52.6027C66.0719 53.8293 64.8496 54.6883 64.8496 54.6883L66.8925 54.0544L67.3655 51.9687L65.7956 50.5156C65.7956 50.5156 66.3982 51.4103 66.2372 52.6013V52.6027Z" fill="#FCD15E"/>
<path d="M79.7965 58.77L82.4919 57.9351L83.1145 55.1842L81.0445 53.2695L79.6968 53.6869L78.3505 54.1044L77.7266 56.8553L79.7965 58.77Z" fill="#F9C033"/>
<path d="M81.3368 56.0246C81.1715 57.2512 79.9492 58.1102 79.9492 58.1102L81.9921 57.4762L82.4651 55.3906L80.8952 53.9375C80.8952 53.9375 81.4978 54.8322 81.3368 56.0231V56.0246Z" fill="#FCD15E"/>
<path d="M78.278 53.8286L80.9719 52.9937L81.5959 50.2428L79.5245 48.3281L78.1783 48.7455L76.8306 49.163L76.208 51.9139L78.278 53.8286Z" fill="#F9C033"/>
<path d="M79.8182 51.0832C79.653 52.3098 78.4307 53.1688 78.4307 53.1688L80.4736 52.5348L80.9465 50.4492L79.3766 48.9961C79.3766 48.9961 79.9792 49.8908 79.8182 51.0817V51.0832Z" fill="#FCD15E"/>
<path d="M76.7452 48.9081L79.4392 48.0719L80.0631 45.3209L77.9918 43.4062L76.6455 43.8237L75.2978 44.2411L74.6738 46.992L76.7452 48.9081Z" fill="#F9C033"/>
<path d="M78.2841 46.1613C78.1188 47.3879 76.8965 48.2469 76.8965 48.2469L78.9394 47.613L79.4124 45.5273L77.8424 44.0742C77.8424 44.0742 78.445 44.9689 78.2841 46.1599V46.1613Z" fill="#FCD15E"/>
<path d="M71.2594 61.4106L73.9534 60.5758L74.5773 57.8248L72.506 55.9102L71.1597 56.3276L69.812 56.745L69.1895 59.4959L71.2594 61.4106Z" fill="#F9C033"/>
<path d="M72.7997 58.6652C72.6344 59.8918 71.4121 60.7508 71.4121 60.7508L73.455 60.1169L73.928 58.0312L72.3581 56.5781C72.3581 56.5781 72.9607 57.4728 72.7997 58.6638V58.6652Z" fill="#FCD15E"/>
<path d="M69.7418 56.477L72.4358 55.6422L73.0598 52.8912L70.9898 50.9766L69.6421 51.394L68.2959 51.8114L67.6719 54.5623L69.7418 56.477Z" fill="#F9C033"/>
<path d="M71.2821 53.7316C71.1169 54.9582 69.8945 55.8172 69.8945 55.8172L71.9374 55.1833L72.4104 53.0976L70.8405 51.6445C70.8405 51.6445 71.4431 52.5392 71.2821 53.7302V53.7316Z" fill="#FCD15E"/>
<path d="M68.2067 51.537L70.9006 50.7022L71.5246 47.9513L69.4546 46.0352L68.107 46.4526L66.7607 46.8714L66.1367 49.6209L68.2067 51.537Z" fill="#F9C033"/>
<path d="M69.747 48.7902C69.5817 50.0168 68.3594 50.8758 68.3594 50.8758L70.4023 50.2419L70.8752 48.1562L69.3053 46.7031C69.3053 46.7031 69.9079 47.5978 69.747 48.7888V48.7902Z" fill="#FCD15E"/>
<path d="M91.8258 52.33L94.5198 51.4952L95.1437 48.7442L93.0738 46.8281L91.7261 47.247L90.3784 47.6644L89.7559 50.4153L91.8258 52.33Z" fill="#F9C033"/>
<path d="M93.3661 49.5832C93.2008 50.8098 91.9785 51.6688 91.9785 51.6688L94.0214 51.0348L94.4944 48.9492L92.9245 47.4961C92.9245 47.4961 93.5271 48.3908 93.3661 49.5817V49.5832Z" fill="#FCD15E"/>
<path d="M86.7999 51.1855L89.4938 50.3506L90.1164 47.5997L88.0464 45.6836L86.7002 46.101L85.3525 46.5198L84.7285 49.2694L86.7999 51.1855Z" fill="#F9C033"/>
<path d="M88.3387 48.4386C88.1735 49.6652 86.9512 50.5243 86.9512 50.5243L88.9941 49.8903L89.467 47.8047L87.8971 46.3516C87.8971 46.3516 88.4997 47.2462 88.3387 48.4372V48.4386Z" fill="#FCD15E"/>
<path d="M85.2809 46.2636L87.9748 45.4288L88.5988 42.6778L86.5289 40.7617L85.1812 41.1791L83.8335 41.598L83.2109 44.3475L85.2809 46.2636Z" fill="#F9C033"/>
<path d="M86.8212 43.5167C86.6559 44.7433 85.4336 45.6024 85.4336 45.6024L87.4765 44.9684L87.9495 42.8828L86.3795 41.4297C86.3795 41.4297 86.9821 42.3243 86.8212 43.5153V43.5167Z" fill="#FCD15E"/>
</g>
</g>
<path d="M89.7445 46.4484C88.8769 47.4456 88.6461 47.4983 87.8654 46.947C87.1987 47.2048 86.5975 47.5411 85.9564 47.6579C85.3097 47.7747 84.6201 47.6835 84.2754 46.8401C83.4562 47.769 82.4177 47.8246 81.288 47.6422C81.3293 48.2306 81.3777 48.7719 81.4048 49.3147C81.4803 50.8647 81.4076 52.3976 80.8777 53.8806C79.983 56.3893 77.6253 57.7299 75.2177 57.0689C73.87 56.6985 72.9768 55.7611 72.273 54.6086C71.0507 52.6056 71.0792 48.7563 72.9896 46.8359C73.5537 46.2689 74.2375 45.8002 74.9199 45.3728C76.0411 44.6705 77.2706 44.1362 78.3518 43.3726C78.7175 43.1143 78.8376 42.7733 78.7123 42.3498C78.5328 41.7429 78.3675 41.1303 78.1168 40.4892C77.3988 42.7486 75.7947 43.9268 73.7603 44.6576C72.4995 45.1107 70.7031 45.2275 69.8369 44.8314C70.0007 44.9055 70.4994 44.6975 70.6589 44.6576C71.2672 44.5023 71.8684 44.3143 72.4525 44.0864C73.8785 43.5322 75.0937 42.6461 76.1294 41.5235C76.7021 40.9023 77.7592 39.7797 77.5127 38.8238C77.4871 38.7241 77.1167 37.7141 77.0711 37.7326C76.9229 37.791 76.7791 37.8437 76.6394 37.905C76.081 38.1457 75.5183 38.0887 75.222 37.5061C74.8615 36.7952 74.8501 35.9076 75.1123 35.1597C75.2419 34.7907 75.4898 34.4189 75.8573 34.2565C76.2676 34.0756 76.7491 34.1212 77.1053 34.3975C77.4942 34.6981 77.8233 35.1355 78.0384 35.58C78.1153 35.7395 78.2265 35.9433 78.4102 35.9974C78.49 36.0216 78.5741 36.0116 78.6567 36.0017C79.077 35.9518 79.6995 35.9333 79.9132 35.4917C80.0343 35.2438 79.983 34.9346 79.9032 34.6825C79.8049 34.3748 79.8662 33.9901 79.9973 33.6995C80.0386 33.6083 80.0998 33.5228 80.1839 33.4687C80.2979 33.3946 80.4474 33.3946 80.5586 33.473C80.9788 33.7736 81.3563 33.718 81.7296 33.4345C82.0088 33.2222 82.2667 32.9829 82.5302 32.7578C83.0032 33.1282 83.1385 34.1397 82.6955 34.691C81.9091 35.6683 81.0885 36.6285 80.1924 37.5032C79.8505 37.8366 79.3163 37.8551 78.8975 38.0374C78.0712 38.3964 78.3732 39.4763 78.6254 40.116C78.9359 40.9009 79.2265 41.6845 79.52 42.4751C80.9332 41.4651 81.7909 39.9151 82.4334 38.5645C81.9789 40.1345 81.4119 41.8169 80.1711 42.8925C79.9175 43.1119 79.8472 43.3346 79.9602 43.5607C80.2081 44.0564 80.419 44.5665 80.6455 45.0708C80.7153 45.2275 80.8136 45.4184 80.9646 45.5138C81.1156 45.6093 81.3421 45.6264 81.5216 45.6477C82.0516 45.7104 82.5943 45.6734 83.1058 45.5252C83.63 45.3728 84.0702 45.1007 84.472 44.736C84.6956 44.5323 84.8609 44.3143 85.0461 44.0764C85.2797 43.7772 85.5376 43.4894 85.8653 43.5721C85.8653 43.5721 85.6302 44.0337 85.5134 44.2815C85.3353 44.6591 85.0461 45.1235 85.5119 45.4796C85.9108 45.7859 87.0719 45.766 87.666 44.0707C87.77 43.7715 87.9381 43.6433 88.2401 43.6034C88.2401 43.6034 88.1347 44.1376 88.0264 44.6377C87.911 45.1748 88.0706 45.6292 88.6404 45.5836C89.4154 45.5224 89.8542 44.8058 90.0095 43.4011C90.0493 43.0336 90.4568 42.9894 90.4568 42.9894C90.4568 42.9894 90.3713 45.0594 90.9112 45.3699C92.5353 46.3045 94.0411 44.8015 94.0411 44.8015C93.5055 44.5137 93.0026 44.2602 92.5168 43.9767C92.088 43.7259 91.8985 43.3356 91.87 42.8298C91.7788 41.1645 92.9114 39.492 94.544 39.1871C95.6965 38.972 96.3746 39.4093 96.7692 40.5277C97.0057 41.1972 96.9744 42.1047 96.9744 42.1047C98.2323 41.1858 98.9859 40.0946 98.9859 40.0946C99.0486 40.881 98.882 41.4793 98.5002 41.9993C98.06 42.5976 97.5599 43.1518 97.1055 43.7416C96.9616 43.9268 96.822 44.1533 96.7863 44.377C96.6653 45.1463 96.5627 45.9213 96.4915 46.6977C96.4573 47.0738 96.1168 47.2675 96.1168 47.2675L96.1139 44.8243C96.1139 44.8243 94.2634 46.588 93.467 47.135C93.0083 47.4513 92.4057 47.702 91.8387 47.7006C90.1875 47.6978 89.7402 46.4541 89.7402 46.4541L89.7445 46.4484ZM79.2565 43.7388C78.4772 44.2274 77.8148 44.6562 77.1409 45.0651C76.3232 45.5608 75.457 45.9825 74.682 46.5367C73.0594 47.6963 72.2117 49.2663 72.3457 51.3519C72.4668 53.2338 73.7774 54.7909 75.6536 55.1214C77.6025 55.4648 78.8946 54.7183 79.7636 52.7495C79.8064 52.6526 79.8463 52.5529 79.8833 52.4546C80.5301 50.7322 80.4303 48.9585 80.1397 47.2048C79.9446 46.0295 79.5571 44.887 79.2579 43.7402L79.2565 43.7388ZM92.9698 42.2401C93.7519 42.8156 94.5953 43.0592 95.5313 42.9239C96.3604 42.8042 96.5399 42.2913 96.0085 41.6275C95.2064 40.6245 93.628 40.9123 92.9698 42.2401Z" fill="#333333"/>
<path d="M74.2322 37.2334C74.057 37.4243 74.0086 37.6978 74.0228 38.044C74.0884 39.5783 73.661 39.7949 73.3832 40.0171C73.0512 40.2821 72.7977 40.114 72.7335 39.6809C72.7008 39.4658 72.6751 39.2507 72.6452 39.0355C72.6452 39.0355 72.2905 39.2692 72.2107 39.9615C72.148 40.5072 72.0682 41.0699 71.4699 41.3448C70.5624 41.7623 70.4 40.5186 70.3316 40.3291C70.2405 40.3519 70.1707 40.4231 70.1536 40.5129C70.0895 40.8491 70.1707 41.1767 69.9969 41.4944C69.8316 41.795 69.5253 41.9916 69.2233 42.1341C68.9939 42.2409 68.7418 42.2894 68.5238 42.4133C67.8899 42.7723 67.5921 43.4718 67.2844 44.0943C67.0892 44.4904 66.9225 44.8993 66.7915 45.3209C66.2558 47.0376 66.763 48.448 68.2959 49.4723C68.7774 49.7942 69.2247 50.1917 69.6136 50.6205C69.8345 50.8627 70.0182 51.2388 70.0239 51.5579C70.0453 52.6762 68.9241 53.8188 67.7973 54.1949C65.9794 54.7647 64.0733 53.7219 63.0989 52.1078C62.019 50.3185 62.0489 48.5335 62.9536 46.757C63.3852 45.9093 63.965 45.1372 64.458 44.318C65.6019 42.4176 67.2858 40.3576 66.1604 36.1094C66.2131 37.6038 66.1661 39.3746 65.3768 40.9217C65.3768 40.9217 63.2983 44.4733 62.6259 45.6144C62.217 46.3082 61.8837 47.059 61.5874 47.8026C60.2098 51.2602 63.1943 56.4201 67.5138 55.9358C67.6035 55.9286 67.6904 55.9158 67.7773 55.9001C67.7802 55.9001 67.783 55.9001 67.7844 55.9001C68.9085 55.695 69.7789 54.9343 70.2547 53.8929C71.3132 51.5764 70.5966 48.9851 68.5053 47.559C68.3885 47.4792 68.2688 47.4023 68.1548 47.3183C67.226 46.623 67.1305 46.2028 67.7474 45.2155C67.924 44.9334 68.1961 44.5374 68.4554 44.5118C69.162 44.4434 69.5823 44.0815 69.947 43.5416C70.0311 43.4177 70.2533 43.2923 70.3901 43.3122C71.4329 43.4732 71.8902 43.2581 72.4614 42.3463C72.5897 42.1412 72.809 41.8962 73.0227 41.8563C73.6239 41.7423 73.963 41.3904 74.1539 40.8562C74.8576 38.8845 74.2294 37.2348 74.2294 37.2348L74.2322 37.2334Z" fill="#333333"/>
<path d="M83.7009 49.1474C82.7264 52.5608 83.1909 53.2004 83.9744 53.6292C84.4502 53.8899 84.9674 53.8101 85.3292 53.4198C85.5358 53.1976 85.7025 52.8699 85.4589 52.612C85.2594 52.4012 84.9617 52.3342 84.7052 52.2217C84.2992 52.0422 84.0827 51.6234 84.077 51.1917C84.0699 50.5478 84.3961 49.6916 85.0215 49.4152C85.1939 49.3397 85.3762 49.3468 85.4987 49.5021C85.6213 49.6574 85.664 49.8697 85.6711 50.0563C85.1625 49.8996 84.6212 50.1873 84.4175 50.8156C84.2893 51.2102 84.3989 51.4567 84.8078 51.5906C85.7737 51.9054 86.0657 52.575 85.6726 53.5309C85.2537 54.5481 84.2836 54.6635 83.5014 54.031C82.7193 53.3984 82.668 52.5137 82.8105 51.5464C82.933 50.713 83.4145 49.1445 83.7009 49.1445V49.1474Z" fill="#333333"/>
<path d="M90.0635 53.2655C90.0635 53.2655 89.7644 53.5761 88.9766 49.4333C88.9637 49.3692 88.9694 49.2994 88.9922 49.2039C89.0179 49.0971 89.129 49.0173 89.2373 49.0444C89.2985 49.0601 89.3498 49.0971 89.3997 49.137C89.5549 49.2595 89.7045 49.3948 89.8299 49.5473C90.8314 50.8294 91.2417 52.3039 90.7203 53.8496C90.1148 55.6446 87.6203 55.6446 87.6203 55.6446C87.5035 55.4067 89.9097 55.2757 90.3955 53.5704C90.8229 52.0703 90.0336 50.7482 89.4153 50.1057C89.7345 51.3109 89.7615 52.1329 90.0621 53.2684L90.0635 53.2655Z" fill="#333333"/>
<path d="M89.0482 52.4832C89.0239 52.6058 88.9926 52.7268 88.9556 52.8465C88.6948 53.687 88.3045 53.8366 87.766 53.3694C87.6164 53.2397 87.4056 53.1955 87.2204 53.2682C86.6263 53.4976 86.5693 54.1116 86.4724 54.6914C86.3058 55.6915 85.6789 55.9963 84.9111 56.0889C84.7458 56.1089 84.5806 56.0434 84.4766 55.9137V55.9109C85.4852 55.663 86.1149 55.0305 86.3685 54.0161C86.4026 53.8794 86.4254 53.7383 86.4511 53.5987C86.5337 53.1514 86.5408 53.1058 87.1819 52.6243C87.3286 52.5146 87.5309 52.5246 87.6663 52.6471C87.8301 52.7967 87.9825 52.9348 88.0837 52.9049C88.3743 52.8152 88.6963 52.5659 88.833 52.2952C89.1322 51.7082 88.8857 50.9076 88.2746 50.3563C88.3444 50.7652 88.3985 51.0786 88.4512 51.392C88.4042 51.3977 88.3686 51.3435 88.3487 51.3094C88.3259 51.2709 88.3045 51.231 88.2888 51.1883C88.1877 50.9147 88.1279 50.6241 88.0808 50.3363C88.041 50.0899 88.0011 49.8349 88.0196 49.5856C88.0224 49.5471 88.0338 49.5086 88.078 49.5029C88.2091 49.4858 88.3145 49.5443 88.3857 49.6525C88.5125 49.8434 88.6279 50.0443 88.7276 50.2494C88.8943 50.5928 89.0168 50.9575 89.0738 51.335C89.1322 51.7168 89.1222 52.1057 89.0467 52.4832H89.0482Z" fill="#333333"/>
<path d="M85.3086 54.8006C85.2915 54.9103 85.2744 55.0157 85.2573 55.1211C85.2345 55.2693 85.1249 55.389 84.9781 55.4232C84.7459 55.4787 84.4795 55.5343 84.2943 55.5898C84.1988 55.6198 84.0991 55.5628 84.0706 55.4673C83.9253 54.9673 84.2345 54.8177 85.085 54.5997C85.2089 54.567 85.3257 54.6738 85.3058 54.8006H85.3086Z" fill="#333333"/>
<path d="M87.0926 54.1743C87.1924 54.0432 87.2793 53.9278 87.3719 53.8082C87.4445 53.7127 87.5827 53.7042 87.6668 53.7882C87.7921 53.9136 87.9075 54.0233 87.9275 54.1487C87.9488 54.284 87.7537 54.5575 87.6155 54.5889C87.4915 54.6159 87.3476 54.5504 87.1724 54.4749C87.0542 54.425 87.0157 54.2769 87.0926 54.1743Z" fill="#333333"/>
<path style="mix-blend-mode:screen" d="M79.9921 70.9842C76.4833 70.9842 73.0799 70.2976 69.8745 68.9413C66.7788 67.6321 63.9994 65.7588 61.6131 63.3711C59.2269 60.9849 57.3521 58.204 56.0429 55.1097C54.6881 51.9058 54 48.501 54 44.9921C54 41.4833 54.6867 38.0799 56.0429 34.8745C57.3521 31.7788 59.2255 28.9994 61.6131 26.6131C63.9994 24.2269 66.7802 22.3521 69.8745 21.0429C73.0784 19.6881 76.4833 19 79.9921 19C83.5009 19 86.9043 19.6867 90.1097 21.0429C93.2054 22.3521 95.9848 24.2255 98.371 26.6131C100.757 28.9994 102.632 31.7802 103.941 34.8745C105.296 38.0785 105.984 41.4833 105.984 44.9921C105.984 48.501 105.298 51.9044 103.941 55.1097C102.632 58.2054 100.759 60.9849 98.371 63.3711C95.9848 65.7573 93.204 67.6321 90.1097 68.9413C86.9057 70.2962 83.5009 70.9842 79.9921 70.9842Z" fill="url(#paint1_linear_1283_4012)"/>
</g>
<defs>
<linearGradient id="paint0_linear_1283_4012" x1="97.3204" y1="28.2583" x2="62.346" y2="62.1199" gradientUnits="userSpaceOnUse">
<stop stop-color="#F9981C"/>
<stop offset="1" stop-color="#F9781C"/>
</linearGradient>
<linearGradient id="paint1_linear_1283_4012" x1="121.927" y1="0.00416946" x2="66.4012" y2="59.5744" gradientUnits="userSpaceOnUse">
<stop stop-color="#F9981C"/>
<stop offset="1" stop-color="#F9781C" stop-opacity="0"/>
</linearGradient>
<clipPath id="clip0_1283_4012">
<rect width="160" height="90" fill="white"/>
</clipPath>
</defs>
</svg>
