<svg width="160" height="90" viewBox="0 0 160 90" fill="none" xmlns="http://www.w3.org/2000/svg">
<g clip-path="url(#clip0_1283_4152)">
<rect width="160" height="90" rx="16" fill="white"/>
<path d="M71.6053 64.9672C70.0213 65.0436 68.4423 65.0263 66.8953 64.9278C66.878 59.5181 64.3185 54.5814 60.1135 50.6966C67.4692 48.4426 70.0263 37.7637 64.8482 32.4846C63.8111 12.3166 40.8028 27.134 38.9355 40.3035C35.8784 36.0886 28.7788 38.6062 29.136 43.8804C29.2001 48.7875 35.9449 50.9159 38.837 47.0508C41.7241 60.5478 57.1796 67.2286 71.6817 66.5463C72.6991 66.5069 72.6375 64.9056 71.6053 64.9672ZM45.7345 56.3403C45.5375 56.1457 45.3428 55.9511 45.1581 55.7466C45.163 55.7466 53.344 55.355 53.3489 55.3525L57.3274 58.6978L49.0552 59.0944C47.8728 58.2716 46.7544 57.3553 45.7345 56.3403ZM43.3795 53.5862C42.9583 52.9827 42.5567 52.3668 42.2069 51.7214C42.2858 51.7042 48.5748 51.4406 48.6463 51.3987L52.637 54.7539L44.6063 55.1406C44.1727 54.6406 43.7663 54.1233 43.3795 53.5887V53.5862ZM40.6205 47.7726L40.5835 47.6297L43.8229 47.4745L43.9461 47.4425L47.9516 50.81L41.8818 51.1006C41.3521 50.0364 40.9161 48.923 40.6229 47.7726H40.6205ZM64.4146 64.6938C62.3626 64.44 60.3303 64.0311 58.3497 63.4498L62.7272 63.2404L64.4663 64.7012L64.4146 64.6962V64.6938ZM54.6053 62.1269C52.9844 61.4445 51.4152 60.6365 49.9371 59.6857L58.0368 59.2964L62.0128 62.6393C60.1233 62.6664 56.3174 63.3044 54.6053 62.1269ZM58.394 58.7693L58.0196 50.9725C59.6528 52.2831 61.0447 53.8005 62.1655 55.4018L62.4931 62.2156L58.394 58.7693ZM57.7338 58.215L53.6273 54.7613L53.2948 47.844C54.7629 48.6175 56.1203 49.4871 57.3594 50.438L57.7338 58.2125V58.215ZM52.9671 54.207L48.868 50.7607L48.6315 45.8437C50.0381 46.3265 51.3782 46.8857 52.6469 47.5164L52.9671 54.207ZM44.1013 46.7527L43.9978 44.5898C45.3749 44.8682 46.7051 45.2205 47.9886 45.6319L48.2078 50.204L44.1013 46.7502V46.7527ZM45.3108 42.8457C48.7005 36.7266 56.7903 29.3092 63.2075 33.1423C62.37 42.0599 52.9376 42.9763 45.3108 42.8457ZM43.3573 44.4716L43.4411 46.1984L41.0122 44.1563C41.7881 44.2228 42.5912 44.3139 43.3573 44.4716ZM40.1007 44.2154L43.2563 46.8685L40.4357 47.004C40.2436 46.0876 40.1106 45.1539 40.0982 44.2154H40.1007ZM65.3162 64.5903L63.1533 62.7723L62.8503 56.4635C64.3481 58.9515 65.2275 61.7032 65.3162 64.5903ZM65.597 36.8202C67.0381 41.8136 64.3161 48.3465 58.7069 49.4896C56.0291 47.3538 52.7898 45.6048 49.1439 44.3533C56.0415 44.1316 63.2519 41.9564 64.555 34.5539C65.1117 35.3717 65.4295 36.2191 65.597 36.8202ZM54.8221 24.4736C61.9537 23.3404 62.87 27.7671 63.2839 31.3416C55.5931 28.0036 47.2471 35.6575 43.5643 42.7767C42.4065 42.7398 41.3053 42.5255 40.1475 42.4196C41.2511 34.3592 47.4589 26.7276 54.8245 24.4736H54.8221ZM34.7773 47.4991C29.6755 47.6519 29.3134 40.0768 34.4053 39.7418C39.507 39.5891 39.8691 47.1641 34.7773 47.4991Z" fill="#DBAC4F"/>
<path d="M130.222 45.2896V50.953C130.222 52.6232 129.005 54.116 127.342 54.2786C125.435 54.4658 123.824 52.9656 123.824 51.0958V45.2896C123.824 44.8683 123.482 44.5259 123.061 44.5259C122.639 44.5259 122.297 44.8683 122.297 45.2896V50.953C122.297 52.6232 121.08 54.116 119.417 54.2786C117.511 54.4658 115.899 52.9656 115.899 51.0958V45.4004C115.899 44.9151 115.508 44.5234 115.022 44.5234C114.537 44.5234 114.146 44.9151 114.146 45.4004V51.0958C114.146 52.8621 112.714 54.2958 110.946 54.2958H95.1279V49.4183C95.1279 47.0854 93.507 44.9742 91.2062 44.5924C88.5777 44.1564 86.2547 45.9054 85.7645 48.3122C85.666 48.795 86.0207 49.2532 86.5134 49.2532C86.8804 49.2532 87.1884 48.9896 87.2598 48.63C87.5751 47.0337 89.0827 45.8611 90.8145 46.0803C92.4354 46.2848 93.5982 47.7653 93.5982 49.401V54.2958H86.4346C86.0133 54.2958 85.6709 54.6382 85.6709 55.0595C85.6709 55.4807 86.0133 55.8231 86.4346 55.8231H110.943C112.68 55.8231 114.197 54.8796 115.018 53.4804C115.84 54.8796 117.355 55.8231 119.092 55.8231C120.829 55.8231 122.211 54.9609 123.056 53.6652C123.947 55.0373 125.529 55.9217 127.305 55.8157C129.84 55.6655 131.747 53.4238 131.747 50.884V45.2896C131.747 44.8683 131.404 44.5259 130.983 44.5259C130.562 44.5259 130.219 44.8683 130.219 45.2896H130.222Z" fill="#342151"/>
<path d="M81.8235 54.1529C81.8235 55.7 80.7199 56.9933 79.2591 57.2889C78.8945 57.3628 78.626 57.6658 78.626 58.0377C78.626 58.5083 79.0472 58.8852 79.5079 58.7989C81.6954 58.3851 83.3557 56.4587 83.3557 54.1529V45.2871C83.3557 44.8659 83.0133 44.5234 82.5921 44.5234C82.1708 44.5234 81.8284 44.8659 81.8284 45.2871V54.1529H81.8235Z" fill="#342151"/>
<path d="M78.7759 44.5234H74.8123C72.201 44.5234 70.085 46.6395 70.085 49.2507V50.9283C70.085 53.3302 71.8069 55.4758 74.1915 55.7813C77.0761 56.1508 79.542 53.9041 79.542 51.0934V45.2871C79.542 44.8659 79.1996 44.5234 78.7784 44.5234H78.7759ZM78.0122 51.0934C78.0122 52.9631 76.4012 54.4633 74.4945 54.2761C72.8317 54.1135 71.6147 52.6207 71.6147 50.9505V49.2507C71.6147 47.4845 73.046 46.0508 74.8147 46.0508H78.0147V51.0909L78.0122 51.0934Z" fill="#342151"/>
<path d="M89.7626 62.162C88.9793 61.8467 88.2772 61.5684 87.6564 61.3269C87.3041 61.2062 87.0627 61.0855 86.9272 60.9624C86.8188 60.8663 86.7647 60.7086 86.7647 60.4894C86.7647 60.2701 86.8583 60.078 87.0479 59.908C87.2647 59.7134 87.6564 59.6173 88.223 59.6173C88.7354 59.6173 89.1148 59.7257 89.3562 59.945C89.5729 60.1396 89.6813 60.381 89.6813 60.6717H90.6125C90.6125 60.211 90.4228 59.8119 90.0459 59.472C89.6148 59.0852 88.9793 58.8906 88.1417 58.8906C87.3583 58.8906 86.777 59.0606 86.4001 59.3981C86.0207 59.738 85.8335 60.1371 85.8335 60.5978C85.8335 60.9624 85.9542 61.253 86.1981 61.4698C86.3607 61.6152 86.5479 61.7236 86.7647 61.7975C87.0627 61.9182 87.4544 62.0758 87.9397 62.2704C88.3708 62.4404 88.7231 62.5857 88.994 62.7065C89.2897 62.8272 89.5064 62.9479 89.6419 63.0686C89.8045 63.2139 89.8858 63.3962 89.8858 63.6155C89.8858 63.8101 89.7774 64.0022 89.5606 64.1968C89.2896 64.4382 88.8709 64.559 88.3043 64.559C87.6835 64.559 87.2228 64.4259 86.9272 64.1599C86.7105 63.9653 86.6021 63.6499 86.6021 63.2139H85.6709C85.6709 63.8199 85.8458 64.2806 86.1981 64.5959C86.6834 65.0319 87.3731 65.2512 88.2649 65.2512C89.1566 65.2512 89.8439 65.0689 90.2504 64.7068C90.6273 64.3668 90.817 63.9554 90.817 63.4701C90.817 63.1055 90.6692 62.7927 90.3711 62.5242C90.1814 62.3542 89.9794 62.2335 89.7626 62.1596V62.162Z" fill="#342151"/>
<path d="M95.7061 65.1669H100.364V64.4747H96.6372V62.2576H100.364V61.5654H96.6372V59.639H100.364V58.9492H95.7061V65.1669Z" fill="#342151"/>
<path d="M107.745 58.9492H105.313V65.1669H107.745C108.582 65.1669 109.257 64.9378 109.77 64.4771C110.391 63.9204 110.701 63.1321 110.701 62.1147C110.701 61.0973 110.403 60.2474 109.809 59.7153C109.243 59.2079 108.555 58.9492 107.745 58.9492ZM108.959 64.0386C108.634 64.3293 108.215 64.4747 107.703 64.4747H106.245V59.639H107.703C108.188 59.639 108.622 59.809 108.999 60.1489C109.484 60.5849 109.728 61.2402 109.728 62.1122C109.728 62.935 109.472 63.578 108.959 64.0386Z" fill="#342151"/>
<path d="M120.667 62.011C121.017 61.6957 121.195 61.2597 121.195 60.7029C121.195 60.1462 121.02 59.7102 120.667 59.3949C120.315 59.0795 119.869 58.9219 119.33 58.9219H115.928V65.1395H116.859V62.4495H118.965L120.423 65.1395H121.436L119.857 62.3411C120.207 62.2918 120.478 62.1834 120.667 62.0135V62.011ZM116.859 61.7573V59.6116H119.128C119.423 59.6116 119.68 59.7102 119.896 59.9023C120.111 60.0969 120.219 60.363 120.219 60.7029C120.219 61.0675 120.123 61.3336 119.936 61.5035C119.746 61.6735 119.517 61.7573 119.248 61.7573H116.859Z" fill="#342151"/>
<path d="M128.167 58.8906L125.413 65.1822H126.386L128.574 60.0903L130.759 65.1822H131.732L128.978 58.8906H128.167Z" fill="#342151"/>
<path d="M78.02 41.4727H76.4902V43.0024H78.02V41.4727Z" fill="#342151"/>
<path d="M74.9399 41.4727H73.4102V43.0024H74.9399V41.4727Z" fill="#342151"/>
</g>
<defs>
<clipPath id="clip0_1283_4152">
<rect width="160" height="90" fill="white"/>
</clipPath>
</defs>
</svg>
