<svg width="161" height="90" viewBox="0 0 161 90" fill="none" xmlns="http://www.w3.org/2000/svg">
<g clip-path="url(#clip0_1283_4507)">
<rect x="0.5" width="160" height="90" rx="16" fill="white"/>
<path d="M75.592 24.5072C74.8127 23.7262 74.8127 22.4565 75.592 21.6738C75.9665 21.2993 76.462 21.0927 76.9927 21.0876H77.0045C77.5386 21.0876 78.0425 21.2959 78.4204 21.6755C78.7176 21.9711 78.8772 22.3641 78.8705 22.7806V23.5028C78.8705 23.9261 78.5262 24.2687 78.1046 24.2687C77.683 24.2687 77.3387 23.9261 77.3387 23.5028V22.8377C77.3387 22.6463 77.1808 22.4884 76.9894 22.4884C76.7979 22.4884 76.64 22.6463 76.64 22.8377V23.5028C76.64 24.3107 77.2967 24.9674 78.1046 24.9674C78.9125 24.9674 79.5692 24.3107 79.5692 23.5028V22.7706C79.5709 22.171 79.3408 21.6066 78.9141 21.1817C78.4036 20.6711 77.7267 20.3906 77.0045 20.3906H76.9877C76.2722 20.3957 75.6004 20.6761 75.0965 21.1817C74.0468 22.2331 74.0468 23.9479 75.0965 25.001L79.5876 29.4938C79.7304 29.3175 79.8866 29.1445 80.0562 28.9732L75.592 24.5072ZM81.2017 30.3034C81.1093 30.1572 81.0052 30.0111 80.891 29.87C80.7533 29.692 80.5971 29.5173 80.4274 29.3443C80.2561 29.5173 80.0999 29.692 79.9622 29.87C80.1352 30.0464 80.2897 30.2261 80.4274 30.4075C80.5433 30.562 80.6458 30.7149 80.7365 30.8744C81.1261 31.5479 81.3058 32.2802 81.3058 33.1334C81.3058 33.9866 81.0976 34.7156 80.7348 35.3756C80.8725 35.5873 81.0287 35.7821 81.2 35.9618C81.7106 35.1472 82.0062 34.1781 82.0062 33.1351C82.0062 32.0921 81.7476 31.1432 81.2017 30.3034ZM79.9622 36.3985C79.8379 36.5245 79.7069 36.6403 79.5692 36.7462C78.9461 37.2332 78.1903 37.5473 77.3723 37.6145V29.1949C77.3824 29.0975 77.3488 29.0017 77.2833 28.9278C77.2044 28.8422 77.0801 28.8069 76.9709 28.8153C74.2551 28.8438 72.0498 30.9332 72.0498 33.4828C72.0498 36.0323 74.0921 38.1385 76.6736 38.3149V40.4832C76.6736 41.0189 76.4654 41.5228 76.0858 41.9007C75.7129 42.2769 75.2158 42.4852 74.6867 42.4869C74.1509 42.4852 73.6387 42.282 73.2574 41.9007C72.9668 41.6102 72.809 41.2255 72.809 40.8157V40.0734C72.809 39.8701 72.8896 39.6787 73.034 39.5309C73.1768 39.3881 73.3683 39.3075 73.5732 39.3075C73.9947 39.3075 74.339 39.6518 74.339 40.0734V40.7385C74.339 40.9316 74.4969 41.0878 74.6884 41.0878C74.8799 41.0878 75.0377 40.9316 75.0377 40.7385V40.0734C75.0377 39.2655 74.381 38.6088 73.5732 38.6088C73.1801 38.6088 72.8106 38.7633 72.5386 39.0387C72.2614 39.3142 72.1086 39.6837 72.1086 40.0734V40.8157C72.1086 41.412 72.3404 41.9729 72.7636 42.3962C73.2742 42.9068 73.9527 43.1856 74.6733 43.1856H74.6884C75.4056 43.1822 76.0757 42.9 76.5796 42.3962C77.0901 41.8856 77.3706 41.2071 77.3706 40.4848V38.3165C78.3683 38.2426 79.2837 37.8664 80.0344 37.2702C80.1705 37.161 80.3015 37.0468 80.4257 36.9242C80.5937 36.7613 80.7516 36.5849 80.891 36.4002C80.7213 36.2356 80.5652 36.0542 80.4257 35.861C80.2863 36.0542 80.1301 36.2372 79.9605 36.4002L79.9622 36.3985ZM76.6736 37.6162C74.4449 37.4465 72.7485 35.6914 72.7485 33.4828C72.7485 31.4102 74.4818 29.6937 76.6736 29.5274V37.6145V37.6162Z" fill="url(#paint0_linear_1283_4507)"/>
<path d="M87.28 38.6306C86.4721 38.6306 85.8171 39.2873 85.8171 40.0951V40.7602C85.8171 40.9534 85.9733 41.1096 86.1665 41.1096C86.3596 41.1096 86.5158 40.9534 86.5158 40.7602V40.0951C86.5158 39.6736 86.8584 39.3293 87.28 39.3293C87.4866 39.3293 87.6781 39.4099 87.8225 39.5543C87.9669 39.6988 88.0476 39.8919 88.0476 40.0951V40.8375C88.0476 41.249 87.8863 41.6319 87.5974 41.9225C87.2195 42.3004 86.7173 42.5087 86.1799 42.5087H86.1698C85.6391 42.507 85.1419 42.2987 84.7691 41.9225C84.3912 41.5446 84.1829 41.0424 84.1829 40.505V38.3366C86.7627 38.1603 88.8067 36.0608 88.8067 33.5046C88.8067 30.9483 86.5998 28.8656 83.8839 28.8371C83.7731 28.8287 83.6505 28.8639 83.5715 28.9496C83.5044 29.0235 83.4741 29.1192 83.4825 29.2167V37.6363C82.4865 37.5523 81.5829 37.1072 80.8943 36.4203C80.7247 36.2557 80.5685 36.0743 80.4291 35.8811C79.8765 35.1237 79.5507 34.1814 79.5507 33.1569C79.5507 32.1324 79.8245 31.2321 80.4291 30.431C80.5651 30.2496 80.7197 30.0699 80.8927 29.8935C80.9162 29.8683 80.9397 29.8448 80.9649 29.8196L85.7583 25.0228C86.8097 23.9714 86.8097 22.2566 85.76 21.2052C85.2545 20.6979 84.5843 20.4191 83.8671 20.4141C83.1399 20.4107 82.4546 20.6895 81.939 21.2052C81.5141 21.6301 81.2823 22.1944 81.2857 22.794V23.5263C81.2857 24.3342 81.9424 24.9909 82.7502 24.9909C83.5581 24.9909 84.2148 24.3342 84.2148 23.5263V22.8612C84.2148 22.6697 84.0569 22.5119 83.8655 22.5119C83.674 22.5119 83.5161 22.6697 83.5161 22.8612V23.5263C83.5161 23.9496 83.1718 24.2922 82.7502 24.2922C82.3287 24.2922 81.9844 23.9496 81.9844 23.5263V22.8041C81.9776 22.3876 82.1389 21.9946 82.4328 21.699C82.8141 21.3177 83.328 21.1061 83.8621 21.1111C84.3912 21.1145 84.89 21.3227 85.2612 21.6973C86.0405 22.4783 86.0405 23.748 85.2612 24.5307L80.4677 29.3258C80.4543 29.3393 80.4392 29.3544 80.4274 29.3678C80.2561 29.5408 80.0999 29.7155 79.9622 29.8935C79.203 30.8475 78.8486 31.9006 78.8486 33.1586C78.8486 34.4166 79.2652 35.5301 79.9622 36.4236C80.1016 36.6084 80.2595 36.7847 80.4274 36.9477C81.2403 37.7421 82.3035 38.2543 83.4825 38.34V40.5083C83.4825 41.2322 83.7613 41.9091 84.2719 42.4197C84.7758 42.9252 85.4476 43.2057 86.1631 43.209H86.1782C86.9021 43.209 87.579 42.9302 88.0895 42.4197C88.5111 41.9964 88.7446 41.4354 88.7446 40.8392V40.0968C88.7446 39.7072 88.5901 39.3377 88.3163 39.0639C88.0408 38.7868 87.673 38.6322 87.2783 38.6322L87.28 38.6306ZM84.1812 29.5509C86.373 29.7188 88.1063 31.4337 88.1063 33.5062C88.1063 35.7149 86.4083 37.47 84.1812 37.6396V29.5526V29.5509Z" fill="url(#paint1_linear_1283_4507)"/>
<path d="M80.4299 21.1563C80.3594 21.1563 80.2922 21.1278 80.2418 21.079L78.9267 19.764C78.8226 19.6598 78.8226 19.4919 78.9267 19.3894L80.2418 18.0743C80.3409 17.9752 80.5173 17.9752 80.6164 18.0743L81.9315 19.3894C82.0356 19.4935 82.0356 19.6615 81.9315 19.764L80.6164 21.079C80.566 21.1294 80.4988 21.1563 80.4283 21.1563H80.4299Z" fill="url(#paint2_linear_1283_4507)"/>
<path d="M73.1996 54.7732L72.7377 54.2307C73.292 53.349 73.517 52.1766 73.1374 51.1924C72.9779 50.7843 72.7008 50.4366 72.338 50.1914C72.3816 50.2636 73.4482 52.0708 72.2204 53.6211L71.4864 52.7595L70.6651 51.7954L69.7044 52.7124L67.9325 54.4021L67.0289 55.262L67.8519 56.2261L68.4632 56.9449H60.1931V53.0853C59.4541 53.6295 58.873 53.5942 57.8871 53.6765C56.9012 53.7588 57.2959 55.1763 57.2959 55.1763C55.8028 55.1763 55.9119 56.9449 55.9119 56.9449V58.3289H58.9939C58.7722 61.52 55.5811 60.4888 55.5811 60.4888C57.2925 61.7887 58.9586 61.174 59.6674 60.2352C60.2603 59.4508 60.1931 58.3289 60.1931 58.3289H70.121C70.3208 58.6698 70.9456 59.5902 72.212 59.5902C73.4784 59.5902 74.2997 58.4364 74.2997 57.133C74.2997 55.8297 73.1996 54.7732 73.1996 54.7732ZM57.1582 56.9466C57.1766 55.7541 58.1239 56.0934 58.1239 56.0934C57.578 54.7951 58.9637 54.9479 58.9637 54.9479L58.9822 56.9466H57.1582ZM69.9597 56.782L68.7555 55.3678L70.5274 53.6782C70.7659 53.9603 71.0061 54.2408 71.2479 54.523C69.9799 55.6869 69.9597 56.782 69.9597 56.782ZM72.1364 58.2079C71.51 58.2079 71.169 57.6318 71.1321 57.0658C71.0917 56.3789 71.5016 55.8045 71.913 55.2939C71.913 55.2956 71.9147 55.2973 71.9164 55.2989C72.1599 55.5794 72.3917 55.87 72.605 56.174C72.7982 56.4461 73.0232 56.7568 73.0518 57.1011C73.0971 57.6587 72.7075 58.2079 72.1364 58.2079Z" fill="url(#paint3_linear_1283_4507)"/>
<path d="M52.4632 54.0274C51.0893 54.2675 50.4007 55.3761 50.3436 57.0304C50.2865 58.6848 50.5518 59.496 48.6758 60.7741C48.6758 60.7741 51.3362 61.4191 51.62 58.3371H54.3258V53.332C54.3258 53.332 53.8404 53.7872 52.4632 54.0274ZM53.4558 56.9532H51.8333C51.8333 56.9532 51.7107 56.2192 52.0685 55.6851C52.4262 55.1493 53.4558 55.0788 53.4558 55.0788V56.9548V56.9532Z" fill="url(#paint4_linear_1283_4507)"/>
<path d="M90.1641 58.3404H91.4254V50.784L92.0317 50.4061L90.1641 48.5469V58.3404Z" fill="url(#paint5_linear_1283_4507)"/>
<path d="M84.0719 53.3266C84.0719 53.3266 84.3171 52.3525 85.4424 52.3525C86.5677 52.3525 87.1169 52.3508 87.1169 52.3508L87.132 51.4825H86.2083C85.8959 51.4825 85.5835 51.3918 85.3366 51.2003C85.1501 51.0542 84.9956 50.8543 85.0343 50.6007C85.1031 50.1523 85.7548 50.1741 85.9782 50.552C85.9782 50.552 86.2234 50.1405 85.9009 49.7979C85.9009 49.7979 86.5442 49.2957 85.9782 48.6289C85.9782 48.6289 86.0084 49.3276 85.2039 49.4049C84.8865 49.4351 84.569 49.5056 84.344 49.7509C84.1189 49.9961 84.04 50.3404 84.1273 50.6595C84.2096 50.9635 84.4363 51.1902 84.69 51.3649C84.7739 51.422 84.8596 51.4741 84.9469 51.5245C84.9906 51.5497 85.0343 51.5732 85.0779 51.5967C85.0779 51.5967 83.8804 51.9091 84.0702 53.3266H84.0719Z" fill="url(#paint6_linear_1283_4507)"/>
<path d="M112.149 52.6455L110.35 54.4829L110.95 54.8591V56.9115H109.389V53.2602L107.522 55.1127L108.152 55.489V56.9115H106.514V53.9522L104.623 55.8047L105.253 56.1658V56.9267H101.348V54.3133H94.2062V53.5592L94.7051 52.8756L92.9902 52.1836V55.7275H99.994V58.3257C99.994 58.6902 99.6984 58.9875 99.3322 58.9875C98.9661 58.9875 98.6705 58.6919 98.6705 58.3257V56.9267H92.9902V58.3106H97.5637C97.5637 58.3106 97.4931 59.6224 98.2792 60.0103C99.0837 60.4084 99.2063 60.2421 99.4481 60.7023C99.69 60.2421 99.8126 60.4084 100.617 60.0103C101.403 59.6224 101.333 58.3106 101.333 58.3106H112.149V52.6455Z" fill="url(#paint7_linear_1283_4507)"/>
<path d="M87.1929 55.1468V56.9457H82.68L82.6649 49.2734L80.6813 51.2419L81.4186 51.4653V56.9457C81.4186 57.4999 81.4002 58.0642 81.2356 58.5983C80.9584 59.4902 80.2597 60.0428 79.3209 60.0428C78.7649 60.0428 78.2443 59.8345 77.8462 59.4465C77.564 59.1727 77.344 58.8385 77.1811 58.4824C77.1005 58.3044 77.0316 58.1197 76.9762 57.9332C76.9477 57.8375 76.9241 57.7418 76.9023 57.6444C76.8838 57.5587 76.8452 57.3672 76.8452 57.3672C76.7864 58.249 76.7629 59.1778 77.171 59.9873C77.208 60.0612 77.2483 60.1318 77.292 60.2023C78.0511 61.4082 79.5543 61.8416 80.8543 61.2571C81.9746 60.7532 82.5943 59.5305 82.5943 58.3296H88.5819V52.8341L86.5144 54.4868L87.1913 55.1485L87.1929 55.1468Z" fill="url(#paint8_linear_1283_4507)"/>
<path d="M55.6047 69.0405C55.6047 69.5662 55.4199 69.9912 55.0941 70.2884C54.7531 70.5857 54.2711 70.757 53.6749 70.757C53.1643 70.757 52.6386 70.6428 52.2422 70.4598C51.8307 70.2616 51.5469 69.9626 51.5469 69.6233V68.6307H51.7165C51.9298 69.8786 52.5395 70.3892 53.5892 70.3892C53.915 70.3892 54.214 70.3036 54.4407 70.1474C54.6675 69.9912 54.8103 69.7493 54.8103 69.4386C54.8103 68.886 54.4693 68.5585 53.7891 68.147L52.6403 67.4802C51.8458 66.9982 51.5486 66.5716 51.5486 65.8779C51.5486 65.3959 51.7467 64.9978 52.0591 64.714C52.3715 64.4436 52.8116 64.2891 53.3642 64.2891C53.8176 64.2891 54.3282 64.3882 54.7112 64.5863C55.0941 64.7711 55.3645 65.0684 55.3645 65.4093V66.4019H55.2083C54.9816 65.154 54.4139 64.6569 53.3642 64.6569C53.0954 64.6569 52.8116 64.756 52.6117 64.9122C52.4135 65.0684 52.2859 65.3085 52.2859 65.6075C52.2859 65.8779 52.3564 66.0761 52.5412 66.2609C52.7108 66.4456 52.9812 66.6304 53.307 66.8286L54.4559 67.5088C54.8522 67.7355 55.1512 67.9337 55.336 68.1756C55.5207 68.4174 55.6047 68.7013 55.6047 69.0405Z" fill="url(#paint9_linear_1283_4507)"/>
<path d="M56.8096 64.6418V64.457H59.25C60.4844 64.457 61.4065 64.7543 62.0162 65.28C62.6124 65.8057 62.9097 66.5565 62.9097 67.4937C62.9097 68.4309 62.6124 69.1816 62.0447 69.7208C61.4771 70.2733 60.6255 70.6008 59.4918 70.6008H57.6611V65.579C57.6611 65.0113 57.562 64.6435 57.0078 64.6435H56.8096V64.6418ZM58.5261 70.1608C58.8805 70.2313 59.1929 70.275 59.4616 70.275C60.1418 70.275 60.7666 70.0197 61.1915 69.5377C61.6316 69.0557 61.9003 68.3738 61.9003 67.5373C61.9003 66.7009 61.645 66.019 61.205 65.537C60.7649 65.055 60.1552 64.7845 59.4465 64.7845C59.1777 64.7845 58.8502 64.8265 58.5244 64.9256V70.1608H58.5261Z" fill="url(#paint10_linear_1283_4507)"/>
<path d="M70.13 70.5992C70.0309 70.6277 69.9032 70.6412 69.7605 70.6412C69.5472 70.6412 69.2633 70.6126 68.966 70.443C68.6687 70.2733 68.3698 69.9609 68.185 69.4352L67.9432 68.8256H65.3332L64.5958 70.5992H64.1709L66.7809 64.457H67.0648L69.1071 69.4369C69.2633 69.7779 69.3758 70.018 69.532 70.1742C69.6882 70.3153 69.873 70.3875 70.1283 70.4161V70.6009L70.13 70.5992ZM67.7601 68.4577L66.6398 65.7621L65.4759 68.4577H67.7601Z" fill="url(#paint11_linear_1283_4507)"/>
<path d="M71.3652 64.4587H72.2017V69.4806C72.2017 70.0483 72.3007 70.4161 72.855 70.4161H73.0398V70.6008H72.2033C71.8775 70.6008 71.6793 70.5589 71.55 70.3875C71.4223 70.2179 71.3652 69.9626 71.3652 69.4789V64.457V64.4587Z" fill="url(#paint12_linear_1283_4507)"/>
<path d="M75.6723 70.2297H78.9643V70.5992H74.8359V65.5773C74.8359 65.0096 74.7368 64.6418 74.1826 64.6418H73.9844V64.457H74.8359C75.1483 64.457 75.375 64.499 75.5027 64.6552C75.6303 64.8249 75.6723 65.1238 75.6723 65.5773V70.2297Z" fill="url(#paint13_linear_1283_4507)"/>
<path d="M85.6695 64.457H86.5059V69.4789C86.5059 70.0466 86.605 70.4144 87.1593 70.4144H87.344V70.5992H86.5076C86.1818 70.5992 85.9819 70.5572 85.8542 70.3859C85.7266 70.2162 85.6695 69.9609 85.6695 69.4772V67.6196H82.8881V70.5992H82.0517V65.5773C82.0517 65.0096 81.9526 64.6418 81.3984 64.6418H81.2002V64.457H82.0517C82.3641 64.457 82.5909 64.499 82.7185 64.6552C82.8462 64.8249 82.8881 65.1238 82.8881 65.5773V67.2518H85.6695V64.457Z" fill="url(#paint14_linear_1283_4507)"/>
<path d="M88.6045 67.5312C88.6045 66.6226 88.8883 65.8013 89.3855 65.205C89.8961 64.6239 90.6048 64.2695 91.5 64.2695C92.3953 64.2695 93.1023 64.6239 93.5995 65.205C94.1101 65.8013 94.3805 66.6243 94.3805 67.5312C94.3805 68.4382 94.1118 69.2477 93.5995 69.8289C93.1023 70.4251 92.3801 70.7795 91.5 70.7795C90.62 70.7795 89.8978 70.4251 89.3855 69.8289C88.8883 69.2477 88.6045 68.4382 88.6045 67.5312ZM93.4416 67.5312C93.4416 66.6377 93.2569 65.9138 92.931 65.4167C92.5901 64.9061 92.0946 64.6357 91.4984 64.6357C90.9021 64.6357 90.3915 64.9061 90.0657 65.4167C89.7248 65.9138 89.54 66.636 89.54 67.5312C89.54 68.4264 89.7248 69.1201 90.0657 69.6307C90.3915 70.1278 90.8887 70.4117 91.4984 70.4117C92.108 70.4117 92.5901 70.1278 92.931 69.6307C93.2569 69.1201 93.4416 68.4113 93.4416 67.5312Z" fill="url(#paint15_linear_1283_4507)"/>
<path d="M103.272 71.0241C102.592 71.0241 102.165 70.8679 101.896 70.5421C101.641 70.2162 101.542 69.7191 101.542 69.0103V65.4362L99.2159 70.5992H99.0311L96.6193 65.3354V70.5992H96.2363V64.457H97.1298L99.3569 69.2942L101.542 64.457H102.378V69.0103C102.378 70.1457 102.662 70.8259 103.272 70.8259V71.0241Z" fill="url(#paint16_linear_1283_4507)"/>
<path d="M104.2 64.6418V64.457H108.172C108.498 64.457 108.698 64.5561 108.811 64.6838C108.925 64.8249 108.967 65.0096 108.967 65.2095V65.9048H108.782C108.782 65.1524 108.357 64.8265 107.618 64.8265H105.888V67.2518H108.399V67.6213H105.888V70.2313H107.506C108.357 70.2313 108.811 69.9475 109.094 69.2102L109.279 69.2522L108.953 70.1323C108.854 70.4295 108.628 70.6008 108.258 70.6008H105.052V65.579C105.052 65.0113 104.953 64.6435 104.398 64.6435H104.2V64.6418Z" fill="url(#paint17_linear_1283_4507)"/>
</g>
<defs>
<linearGradient id="paint0_linear_1283_4507" x1="72.0498" y1="31.7881" x2="82.0062" y2="31.7881" gradientUnits="userSpaceOnUse">
<stop stop-color="#F0A09C"/>
<stop offset="1" stop-color="#CC8884"/>
</linearGradient>
<linearGradient id="paint1_linear_1283_4507" x1="78.8486" y1="31.8099" x2="88.805" y2="31.8099" gradientUnits="userSpaceOnUse">
<stop stop-color="#F0A09C"/>
<stop offset="1" stop-color="#CC8884"/>
</linearGradient>
<linearGradient id="paint2_linear_1283_4507" x1="78.8495" y1="19.5775" x2="82.0087" y2="19.5775" gradientUnits="userSpaceOnUse">
<stop stop-color="#F0A09C"/>
<stop offset="1" stop-color="#CC8884"/>
</linearGradient>
<linearGradient id="paint3_linear_1283_4507" x1="55.5811" y1="55.7121" x2="74.2997" y2="55.7121" gradientUnits="userSpaceOnUse">
<stop stop-color="#F0A09C"/>
<stop offset="1" stop-color="#CC8884"/>
</linearGradient>
<linearGradient id="paint4_linear_1283_4507" x1="48.6758" y1="57.0808" x2="54.3258" y2="57.0808" gradientUnits="userSpaceOnUse">
<stop stop-color="#F0A09C"/>
<stop offset="1" stop-color="#CC8884"/>
</linearGradient>
<linearGradient id="paint5_linear_1283_4507" x1="90.1641" y1="53.4428" x2="92.0317" y2="53.4428" gradientUnits="userSpaceOnUse">
<stop stop-color="#F0A09C"/>
<stop offset="1" stop-color="#CC8884"/>
</linearGradient>
<linearGradient id="paint6_linear_1283_4507" x1="84.0517" y1="50.9786" x2="87.132" y2="50.9786" gradientUnits="userSpaceOnUse">
<stop stop-color="#F0A09C"/>
<stop offset="1" stop-color="#CC8884"/>
</linearGradient>
<linearGradient id="paint7_linear_1283_4507" x1="92.9919" y1="56.443" x2="112.149" y2="56.443" gradientUnits="userSpaceOnUse">
<stop stop-color="#F0A09C"/>
<stop offset="1" stop-color="#CC8884"/>
</linearGradient>
<linearGradient id="paint8_linear_1283_4507" x1="76.8133" y1="55.3937" x2="88.5836" y2="55.3937" gradientUnits="userSpaceOnUse">
<stop stop-color="#F0A09C"/>
<stop offset="1" stop-color="#CC8884"/>
</linearGradient>
<linearGradient id="paint9_linear_1283_4507" x1="51.5469" y1="67.5222" x2="55.6047" y2="67.5222" gradientUnits="userSpaceOnUse">
<stop stop-color="#F0A09C"/>
<stop offset="1" stop-color="#CC8884"/>
</linearGradient>
<linearGradient id="paint10_linear_1283_4507" x1="56.8096" y1="67.5289" x2="62.9097" y2="67.5289" gradientUnits="userSpaceOnUse">
<stop stop-color="#F0A09C"/>
<stop offset="1" stop-color="#CC8884"/>
</linearGradient>
<linearGradient id="paint11_linear_1283_4507" x1="64.1726" y1="67.5491" x2="70.13" y2="67.5491" gradientUnits="userSpaceOnUse">
<stop stop-color="#F0A09C"/>
<stop offset="1" stop-color="#CC8884"/>
</linearGradient>
<linearGradient id="paint12_linear_1283_4507" x1="71.3652" y1="67.5306" x2="73.0398" y2="67.5306" gradientUnits="userSpaceOnUse">
<stop stop-color="#F0A09C"/>
<stop offset="1" stop-color="#CC8884"/>
</linearGradient>
<linearGradient id="paint13_linear_1283_4507" x1="73.9827" y1="67.5273" x2="78.9626" y2="67.5273" gradientUnits="userSpaceOnUse">
<stop stop-color="#F0A09C"/>
<stop offset="1" stop-color="#CC8884"/>
</linearGradient>
<linearGradient id="paint14_linear_1283_4507" x1="81.2002" y1="67.5289" x2="87.3423" y2="67.5289" gradientUnits="userSpaceOnUse">
<stop stop-color="#F0A09C"/>
<stop offset="1" stop-color="#CC8884"/>
</linearGradient>
<linearGradient id="paint15_linear_1283_4507" x1="88.6045" y1="67.5245" x2="94.3771" y2="67.5245" gradientUnits="userSpaceOnUse">
<stop stop-color="#F0A09C"/>
<stop offset="1" stop-color="#CC8884"/>
</linearGradient>
<linearGradient id="paint16_linear_1283_4507" x1="96.2363" y1="67.7406" x2="103.272" y2="67.7406" gradientUnits="userSpaceOnUse">
<stop stop-color="#F0A09C"/>
<stop offset="1" stop-color="#CC8884"/>
</linearGradient>
<linearGradient id="paint17_linear_1283_4507" x1="104.2" y1="67.5289" x2="109.279" y2="67.5289" gradientUnits="userSpaceOnUse">
<stop stop-color="#F0A09C"/>
<stop offset="1" stop-color="#CC8884"/>
</linearGradient>
<clipPath id="clip0_1283_4507">
<rect width="160" height="90" fill="white" transform="translate(0.5)"/>
</clipPath>
</defs>
</svg>
