<svg width="161" height="90" viewBox="0 0 161 90" fill="none" xmlns="http://www.w3.org/2000/svg">
<g clip-path="url(#clip0_1283_4462)">
<rect x="0.5" width="160" height="90" rx="16" fill="white"/>
<path d="M63.3375 33.6412C62.1282 29.3589 60.0645 26.3592 57.1918 24.7324C53.3486 22.5569 49.4859 23.6479 49.1503 23.7511C45.4038 24.7518 42.8582 26.6347 41.5821 29.3439C39.9381 32.845 40.8871 36.7269 41.5047 38.5388L63.3375 33.6412Z" fill="#0C123E"/>
<path d="M65.8814 53.5079L67.179 35.161L69.0662 34.75L68.7563 33.2695L63.5488 34.4079L41.746 39.17L34.2188 40.814L34.5975 42.2794L36.9538 41.7651C38.8281 43.633 44.7565 50.1919 42.6584 56.428L42.611 56.5765L43.035 56.8993L42.2517 57.732L54.1236 67.3789L67.5512 54.487L65.5543 53.8307L65.8771 53.5101L65.8814 53.5079ZM61.0978 40.5321C60.7965 38.9053 61.4593 37.6981 61.4593 37.6981C62.3028 37.2505 62.546 36.6759 62.5546 36.1724L66.74 35.2579L65.4661 53.3164C61.3861 56.3957 58.04 55.3951 57.799 55.3176L57.7839 55.3112L57.4826 52.5977C60.7384 45.5417 60.4996 42.6453 60.4996 42.6453C60.3188 40.9582 61.1021 40.5321 61.1021 40.5321H61.0978ZM49.2754 58.3238C50.6031 58.9866 49.0344 59.29 49.0344 59.29L49.2345 61.0373H49.2324L47.6098 59.8108L45.0556 54.3213L44.6919 47.7667L46.6824 52.5353C47.7067 54.586 48.249 54.6463 48.249 54.6463C49.2151 54.8249 48.8536 55.6124 48.8536 55.6124C47.9111 56.6712 46.1078 55.0852 46.0218 55.0099C46.4414 56.2774 49.2754 58.3238 49.2754 58.3238ZM55.9333 51.3926C58.7243 52.6816 53.6329 52.8322 53.6329 52.8322C53.5856 52.8107 53.5404 52.7913 53.4952 52.7698L53.3424 50.3167C53.4866 50.1962 53.62 50.1015 53.7169 50.0348C53.8137 49.9659 53.8783 49.9293 53.8783 49.9293C56.2733 48.5909 56.3959 49.9293 56.3959 49.9293C51.2422 50.9214 55.9354 51.3905 55.9354 51.3905L55.9333 51.3926ZM55.0553 46.0258L54.7024 46.9124L55.2877 47.3213C55.2877 47.3213 55.1156 47.2998 54.8315 47.2998C54.455 47.2998 53.8826 47.3342 53.2413 47.4913C53.2843 45.9677 55.0101 45.6234 55.0101 45.6234C55.0101 45.6234 54.186 45.0812 53.067 46.0603L52.9121 43.6071C53.7577 43.7018 55.0273 43.2994 56.8199 41.451C56.8199 41.451 57.7086 40.9603 57.8312 41.8813L58.5371 46.5143C58.5371 46.5143 55.6901 46.9791 55.051 46.028L55.0553 46.0258ZM52.9293 50.7062L53.0433 52.5245C52.1675 51.9263 52.4623 51.2291 52.9293 50.7062ZM59.8282 36.7642H59.8303C59.8303 36.7642 57.9066 40.5816 55.4857 40.2954C55.4857 40.2954 54.2807 40.1469 52.7055 40.2825L52.585 38.3523L59.8282 36.7663V36.7642ZM49.8908 38.9376H49.8951L52.1546 38.4426L52.2751 40.3212C51.1023 40.4568 49.7811 40.7559 48.6083 41.3778C48.6083 41.3778 49.3335 41.6769 50.5385 41.3778C50.5385 41.3778 49.8758 42.1611 48.9096 41.9201C48.9096 41.9201 49.8306 43.0046 51.6833 41.6188C51.6833 41.6188 51.9631 41.451 52.3354 41.3154L52.3633 41.7285L52.3913 42.1761L52.3612 41.7264C51.8383 41.8383 51.3261 42.0191 51.0528 42.3246C51.0528 42.3246 52.118 42.3892 52.4193 42.6388L52.4516 43.1079C52.1998 43.0584 51.8964 42.9487 51.5456 42.7421C51.5456 42.7421 51.8275 43.265 52.4752 43.5038L52.6646 46.4799C52.5398 46.6262 52.4128 46.7898 52.2837 46.977C52.2837 46.977 50.0135 47.3751 49.2453 49.3397C49.1355 49.3204 49.0301 49.2945 48.9246 49.2644C48.8988 49.258 48.8751 49.2494 48.8472 49.2407C45.3375 48.1519 44.9329 41.4402 44.9329 41.4402L49.893 38.9419L49.8908 38.9376ZM44.3627 42.5355C45.4601 45.348 43.7472 43.7018 43.7472 43.7018C43.7472 43.7018 44.2917 42.3612 44.3627 42.5355ZM43.5772 45.221C43.5772 45.221 43.6891 46.3207 45.0922 45.5761V46.2862C45.0922 46.2862 43.857 47.3363 42.3249 43.8309L43.035 44.3797C43.035 44.3797 41.6857 42.2063 42.1635 41.5994C42.1635 41.5994 42.454 41.2444 42.3249 42.344L43.1017 43.7664L43.5772 43.988C43.5772 43.988 45.7463 45.7031 43.5772 45.2189V45.221ZM41.5566 40.7559L42.7337 40.4977C43.0285 40.6935 43.347 40.9991 43.1964 41.3713C43.1964 41.3713 41.7352 39.8564 41.7417 42.5355L41.4189 42.2794C41.4189 42.2794 41.3694 41.3692 41.5545 40.7581L41.5566 40.7559ZM37.453 41.6511L39.805 41.1368C39.805 43.0928 42.5185 44.3883 42.5185 44.3883C42.2775 44.8746 41.1951 43.9687 41.1951 43.9687L43.9043 47.7646L45.0599 57.8827H45.0577L43.1167 56.4129C45.0836 50.2048 39.5403 43.7836 37.453 41.6511Z" fill="#0C123E"/>
<path d="M126.851 42.659C126.746 42.3878 126.419 41.5185 125.595 40.8299C125.399 40.6663 125.124 40.492 124.878 40.4124C124.523 40.2983 124.076 40.3091 123.714 40.5566C123.411 40.7653 123.187 40.9999 122.985 41.3183C122.907 41.4431 122.827 41.5852 122.761 41.7336C122.761 41.7315 122.761 41.7272 122.759 41.725C122.746 41.7573 122.724 41.8111 122.701 41.8778C122.653 42.0026 122.617 42.1296 122.597 42.2544C122.597 42.2609 122.597 42.2673 122.593 42.2759C122.526 42.6224 122.511 43.0807 122.711 43.5434C122.802 43.7586 123.148 44.1954 123.753 44.2406C124.024 44.2599 124.306 44.2556 124.577 44.2406C124.876 44.2255 125.263 44.2255 125.558 44.2686C126.352 44.3891 126.716 44.8367 126.871 45.2778C126.531 45.5597 126.008 45.8437 125.489 46.1192C124.144 46.8379 122.451 47.4124 120.942 47.8148C121.132 47.5868 121.291 47.3393 121.403 47.0789C121.648 46.5302 121.764 45.876 121.745 45.2584C121.732 44.8991 121.597 43.3798 121.592 42.2307C121.592 42.2178 121.584 42.2049 121.571 42.2243C121.478 42.3814 121.125 43.0657 120.998 43.326C120.409 44.3955 119.563 45.8997 119.202 46.7604C119.202 46.7604 118.995 47.2338 118.827 47.86C118.814 47.86 118.803 47.8643 118.791 47.8665C118.074 47.9633 117.226 47.987 116.609 47.5523C116.17 47.2446 115.838 46.8271 115.574 45.8782C115.386 45.2046 115.147 43.5412 115.036 42.9559C114.702 41.2129 114.166 39.67 113.452 38.3208C113.303 38.041 113.148 37.7699 112.983 37.5095C112.875 37.3245 112.778 37.1803 112.699 37.0813C112.688 37.0684 112.66 37.0705 112.656 37.0921C112.625 37.2362 112.554 37.6193 112.488 37.955C112.458 38.1034 112.43 38.239 112.41 38.3358C112.41 38.3423 112.408 38.3488 112.406 38.3552C112.4 38.3853 112.393 38.4176 112.393 38.4305C112.393 38.4456 112.415 38.4994 112.43 38.5338C112.722 39.2891 113.183 40.4102 113.673 41.9273C114.013 42.9774 114.446 44.3783 114.526 45.4973C113.856 46.6055 112.46 47.7804 111.524 48.4346C111.098 48.7315 110.295 49.2136 109.813 49.4309C109.559 49.545 109.316 49.6439 109.021 49.7236C108.756 49.7946 108.382 49.8677 108.044 49.8075C107.429 49.6956 107.02 49.3663 106.854 48.8327C106.68 48.2796 106.712 47.6599 106.854 47.1112C106.873 47.0402 106.893 46.9692 106.914 46.8981C107.106 47.0079 107.31 47.094 107.517 47.1478C107.618 47.1736 108.67 47.4856 109.761 46.627C110.674 46.0008 110.822 45.2864 110.919 44.8991C110.921 44.8883 110.923 44.8797 110.925 44.8711C110.956 44.7613 110.981 44.6494 111.003 44.5375C111.042 44.3482 111.061 44.204 111.095 43.9286C111.095 43.9243 111.095 43.92 111.095 43.9178C111.104 43.8296 111.115 43.7413 111.121 43.6553C111.218 42.5815 111.203 41.5077 111.132 40.4361C111.08 39.642 110.984 38.8501 110.9 38.0582C110.872 37.7936 110.842 37.5289 110.811 37.2664C110.71 36.1108 110.575 34.9187 110.439 33.847L110.497 33.7782C110.555 33.8427 110.62 33.9116 110.672 33.9783C110.829 34.1913 110.949 34.3506 111.115 34.5485C111.158 34.598 111.272 34.7207 111.311 34.7185C111.339 34.7078 111.343 34.484 111.293 34.2774C111.246 34.0794 111.095 33.5651 110.956 33.2445C110.779 32.7905 110.31 31.6607 110.035 30.9807C110.028 30.9355 110.02 30.8925 110.013 30.8495L109.996 30.8839C109.964 30.8064 109.936 30.7333 109.91 30.673C109.862 30.5547 109.819 30.4492 109.806 30.4492C109.794 30.4492 109.729 30.5461 109.652 30.7161C109.503 31.0474 109.305 31.4993 109.219 31.6887C109.195 31.7382 109.163 31.8135 109.163 31.8221C109.167 31.8436 109.21 31.9297 109.23 31.962C109.253 32.0072 109.288 32.0739 109.324 32.1557C109.383 32.5172 109.492 33.4554 109.621 34.7056C109.621 34.7056 109.621 34.7056 109.619 34.7056C109.634 34.852 109.998 38.9125 110.06 39.6119C110.134 40.4339 110.202 41.2581 110.258 42.0823C110.312 42.9107 110.357 43.7392 110.398 44.5698C110.063 44.8496 109.602 45.1637 109.015 45.3961C108.913 45.437 108.782 45.4736 108.632 45.4994C108.386 45.5317 108.117 45.5317 107.9 45.5016C107.801 45.4844 107.7 45.4585 107.599 45.4241C106.953 45.1659 106.574 44.6365 106.499 44.5268C106.833 44.2621 107.201 43.9694 107.442 43.5649C107.773 42.9882 107.846 42.0392 107.846 42.0392L107.842 42.0435C107.85 41.9768 107.859 41.9101 107.868 41.8369C107.977 40.7137 107.405 39.1428 106.428 38.8717C105.395 38.7447 104.892 40.4942 104.788 41.484C104.765 41.6024 104.752 41.6799 104.752 41.6799C104.719 42.3491 104.87 43.1582 105.077 43.8941C104.102 44.4558 100.629 45.6694 98.3392 45.6953C97.4913 45.7039 96.566 45.592 95.7548 45.3359C95.021 45.1056 94.0763 44.4515 93.7234 43.5713C93.6158 43.3196 93.5965 43.0162 93.5965 42.7622C93.6546 42.4631 93.6911 42.2264 93.6589 42.2286C93.6223 42.2286 93.59 42.235 93.5556 42.2415C93.547 42.2372 93.534 42.2415 93.519 42.2479C93.2027 42.3254 92.9875 42.6052 92.7357 42.8333C92.3312 43.2034 91.791 43.5434 91.1842 43.8016C90.855 43.1001 90.1362 41.9704 89.0431 41.9467C88.2318 42.0134 87.7391 42.6568 87.4916 43.1582C87.4916 43.1539 87.4894 43.1496 87.4873 43.1453C87.4615 43.2034 87.4399 43.2593 87.4184 43.3153C87.3539 43.4681 87.3151 43.5993 87.2979 43.6768C87.2936 43.7005 87.2893 43.722 87.285 43.7435C87.1537 44.2944 87.2054 44.7441 87.3603 45.0798C87.3668 45.097 87.3711 45.1056 87.3711 45.1056C87.526 45.4306 87.7799 45.6458 88.0511 45.7361C88.8645 46.0116 89.9404 45.6996 90.5881 45.4542C90.7151 45.706 90.827 45.9707 90.9088 46.2375C90.6269 46.5474 90.289 46.9089 90.0459 47.1305C89.297 47.8084 88.7182 48.3916 87.8488 48.9317C87.0956 49.3986 85.5097 50.4638 83.9496 50.3003C83.9496 50.3003 83.1319 50.2615 82.6434 49.8355C82.0753 49.3707 81.7827 48.6605 81.7052 47.9935C81.6041 47.1284 81.7891 46.2483 81.929 45.635C82.6477 45.0841 83.2029 44.4988 83.4289 44.2922C83.9152 43.8425 85.0578 42.5901 85.0664 42.5815C85.2536 42.3857 85.6259 42.0026 86.0176 41.5981C86.7427 40.8621 87.6358 39.9648 88.1113 39.5301C88.7655 38.9319 89.4606 38.4284 90.2718 37.9829C91.0508 37.5547 91.8728 37.2061 92.7938 37.247C93.519 37.2771 94.1882 37.5504 94.6573 38.0217C94.7326 38.097 94.8618 38.2863 94.8919 38.2691C94.922 38.2541 94.922 38.1981 94.9285 38.1594C94.9672 37.8839 95.0404 36.6337 94.44 36.1646C94.1732 35.9559 93.9085 35.844 93.5168 35.7471C93.151 35.6718 92.8304 35.6546 92.3742 35.674C92.1741 35.6804 91.9223 35.7299 91.7415 35.773C91.3284 35.8741 91.068 35.9602 90.6871 36.128C90.0114 36.425 89.4046 36.808 88.8344 37.2341C88.2706 37.6558 87.7584 38.1185 87.2699 38.5962C87.0978 38.7404 86.5835 39.2891 86.3597 39.5C86.0498 39.7927 84.9072 41.0666 84.5005 41.4496C83.9625 41.9531 82.5918 43.4874 81.3588 44.3611C80.8402 44.7291 80.0375 45.3961 78.6625 45.0777C77.5715 44.7527 77.3713 43.2658 77.3929 43.0398C77.3477 41.228 78.6474 39.0567 79.435 37.8086C79.6523 37.9076 79.9105 37.899 80.1881 37.7226C80.1881 37.7226 80.2764 37.6602 80.4012 37.531C80.5303 37.4019 80.6486 37.2513 80.7519 37.0899C80.8272 36.9759 80.9004 36.8446 80.9714 36.6961C81.1436 36.3411 81.2598 35.9752 81.32 35.6933C81.3329 35.603 81.348 35.4868 81.3179 35.504C81.1995 35.5728 80.9693 35.9774 80.8896 36.1237C80.81 36.27 80.7476 36.3884 80.6895 36.5024C80.5217 36.5778 80.3797 36.61 80.2613 36.5778C79.8116 36.4594 79.7061 35.8504 79.6803 35.6503C79.4802 34.073 81.447 31.2196 81.0639 31.3207C80.9736 31.353 80.7326 31.6758 80.5884 31.8953C80.1688 32.5494 79.9708 32.8744 79.5168 33.7717C79.0778 34.6411 78.7485 35.4416 78.7442 36.4809C78.7421 36.935 78.9293 37.4148 79.2306 37.6752C78.3203 38.9276 76.9367 41.271 76.8355 43.0571C76.8205 43.3239 76.5838 46.046 78.6797 46.7152C79.6502 46.9627 80.6788 46.5087 81.5374 45.9212C81.4061 46.4075 81.3265 46.9476 81.2748 47.5071C81.1586 48.7853 81.4082 50.1496 81.8774 50.7586C82.3185 51.331 82.7661 51.7614 83.7172 51.8819C85.0471 52.067 85.8949 51.5505 86.463 51.2729C87.1301 50.948 87.6142 50.5908 88.2017 50.1604C89.0883 49.5127 89.9297 48.6907 90.6419 47.8772C90.7969 47.7008 90.9324 47.5179 91.0572 47.2489C91.0745 47.2145 91.0874 47.1757 91.1024 47.1392C91.1993 46.9541 91.3929 46.4785 91.4424 45.6027C91.4532 45.3918 91.4575 45.2304 91.4489 45.0583C91.692 44.927 92.0277 44.7398 92.2515 44.5913C92.527 44.4084 92.6905 44.2492 92.9294 44.0641C92.9617 44.544 93.0951 45.0196 93.321 45.3961C94.1538 46.7841 96.0453 47.193 97.5301 47.2446C98.6663 47.2833 99.8907 47.1155 101.053 46.8357C102.202 46.5603 104.194 45.7835 105.494 45.125C105.516 45.1766 105.535 45.2283 105.554 45.2756C105.578 45.3294 105.69 45.592 105.903 45.9061C105.965 46.0094 106.056 46.1235 106.114 46.2009C106.26 46.4011 106.462 46.5926 106.691 46.754C106.637 46.9154 106.585 47.0789 106.54 47.2425C106.357 47.8988 106.191 48.71 106.29 49.4933C106.387 50.2443 106.691 50.778 107.263 51.0986C107.411 51.1825 107.562 51.2428 107.758 51.2772C107.947 51.3095 108.169 51.3246 108.397 51.3052C108.793 51.2708 109.135 51.161 109.454 51.0384C110.073 50.8016 110.743 50.4122 111.257 50.0485C111.771 49.6848 112.225 49.362 112.671 48.9489C113.277 48.3872 113.581 48.0817 114.033 47.4705C114.17 47.2855 114.34 47.0294 114.437 46.7368C114.483 46.6033 114.577 46.2074 114.65 45.8287C114.661 45.7856 114.672 45.7426 114.683 45.6953C114.773 46.1687 114.909 46.8508 114.971 47.0854C114.971 47.0897 115.156 47.7826 115.449 48.2904C115.675 48.6821 116.056 49.0479 116.428 49.2566C116.701 49.4266 117.269 49.5342 117.674 49.5191C117.788 49.5148 117.898 49.5019 118.005 49.4847L117.938 49.6934C117.938 49.6934 117.934 49.6999 117.934 49.7042C117.93 49.7107 117.93 49.7171 117.93 49.7236C117.93 49.7365 117.93 49.7515 117.956 49.7451C117.973 49.7408 117.997 49.7386 118.016 49.7343C118.031 49.7322 118.05 49.73 118.07 49.7257C118.218 49.7063 118.418 49.6913 118.644 49.687C118.702 50.283 118.853 50.7887 119.268 51.4257C119.638 51.9938 120.521 52.7405 121.483 52.7921C121.96 52.818 122.505 52.7018 122.825 52.1552C122.825 52.1552 122.825 52.1595 122.827 52.1595C122.847 52.138 122.894 52.0476 122.944 51.9034C122.982 51.8023 123.013 51.6904 123.038 51.5656C123.045 51.5354 123.051 51.5053 123.056 51.4752C123.058 51.458 123.062 51.4429 123.064 51.4257C123.157 50.8619 123.118 50.0657 122.498 49.3599C122.41 49.2566 122.21 49.0715 121.881 48.8843C122.78 48.6283 123.583 48.3464 124.495 47.9418C125.182 47.6384 126.604 46.7733 126.804 46.3623C127.108 45.7447 127.146 44.9916 127.146 44.9916C127.204 44.3934 127.176 43.5778 126.847 42.659H126.851ZM124.327 42.6503C124.022 42.6697 123.583 42.7192 123.316 42.5514C123.282 42.5298 123.249 42.5062 123.217 42.4804C123.297 42.3147 123.387 42.1683 123.495 42.0586C123.626 41.9252 123.764 41.8004 124.162 41.8649C124.547 41.979 124.878 42.2609 125.195 42.6116C124.958 42.6116 124.68 42.6288 124.329 42.6503H124.327ZM88.8257 44.2944C88.4836 44.2901 88.1242 44.2664 87.8811 44.0125C88.1027 43.6768 88.3739 43.4379 88.7052 43.4595C89.028 43.4487 89.4692 43.8038 89.7145 44.0986C89.7424 44.133 89.7747 44.1717 89.807 44.2126C89.4842 44.2686 89.1528 44.2987 88.8257 44.2944ZM105.957 43.4057C105.66 42.6439 105.44 41.8068 105.292 41.1699C105.494 40.9095 105.729 40.6749 105.935 40.6319C106.353 40.5415 106.678 40.9375 106.783 41.0795C107.089 41.484 107.274 42.0263 107.383 42.476C106.932 42.8505 106.447 43.1324 105.955 43.4057H105.957ZM119.374 47.7395C119.473 47.0983 120.374 45.4951 121.02 44.2255C121.063 44.9486 121.112 45.9836 121.093 46.6033L121.087 46.6765C120.977 46.7927 120.859 46.9003 120.734 46.9993C120.329 47.3199 119.869 47.5846 119.374 47.7395ZM122.449 51.3267C121.937 51.3891 121.218 51.3783 120.635 50.991C120.387 50.8253 119.961 50.3713 119.666 49.7193C120.108 49.758 120.542 49.8333 120.865 49.956C121.661 50.2594 122.154 50.8382 122.449 51.3267Z" fill="#0C123E"/>
<path d="M115.404 31.7111C115.464 32.1135 115.582 33.2175 115.709 34.5409C115.709 34.5409 115.709 34.5409 115.707 34.5409C115.722 34.6979 116.095 39.0619 116.159 39.8151C116.234 40.6995 116.305 41.5839 116.361 42.4705C116.43 43.5551 116.482 44.6418 116.536 45.7284C116.549 45.9953 116.54 46.2643 116.54 46.5333C116.553 46.5376 116.566 46.5419 116.577 46.5462C116.596 46.5333 116.624 46.5268 116.632 46.5096C116.74 46.2664 116.865 46.0297 116.947 45.7779C117.117 45.2572 117.186 44.7128 117.231 44.164C117.325 43.0106 117.31 41.8572 117.237 40.7038C117.183 39.8495 117.084 38.9995 116.998 38.1474C116.97 37.8633 116.94 37.5793 116.908 37.2953C116.8 35.9955 116.645 34.6528 116.49 33.4628L116.583 33.3552C116.641 33.4197 116.708 33.4886 116.757 33.5574C116.917 33.7726 117.037 33.934 117.205 34.132C117.25 34.1815 117.362 34.3063 117.403 34.302C117.431 34.2912 117.435 34.0653 117.386 33.8566C117.338 33.6564 117.186 33.1378 117.046 32.8151C116.837 32.2771 116.221 30.8009 115.991 30.222C115.944 30.1015 115.901 29.9961 115.888 29.9961C115.875 29.9961 115.808 30.0929 115.733 30.2651C115.582 30.6008 115.384 31.0548 115.296 31.2463C115.273 31.2958 115.24 31.3733 115.24 31.3798C115.245 31.4013 115.29 31.4873 115.307 31.5218C115.331 31.567 115.363 31.6337 115.399 31.7133L115.404 31.7111Z" fill="#0C123E"/>
<path d="M122.215 37.313L121.195 38.3933C121.176 38.4148 121.178 38.4492 121.199 38.4707L122.417 39.6198C122.441 39.6413 122.475 39.6413 122.495 39.6198L123.515 38.5396C123.534 38.5181 123.532 38.4836 123.51 38.4621L122.292 37.313C122.269 37.2915 122.234 37.2915 122.215 37.313Z" fill="#0C123E"/>
<path d="M92.1075 38.9107L91.0875 39.9909C91.0681 40.0124 91.0703 40.0469 91.0918 40.0684L92.3098 41.2175C92.3334 41.239 92.3679 41.239 92.3872 41.2175L93.4072 40.1372C93.4266 40.1157 93.4244 40.0813 93.4029 40.0598L92.1849 38.9107C92.1613 38.8892 92.1268 38.8892 92.1075 38.9107Z" fill="#0C123E"/>
<path d="M80.5977 39.895L79.5777 40.9753C79.5584 40.9968 79.5605 41.0312 79.582 41.0528L80.8 42.2019C80.8237 42.2234 80.8581 42.2234 80.8775 42.2019L81.8974 41.1216C81.9168 41.1001 81.9147 41.0657 81.8931 41.0441L80.6752 39.895C80.6515 39.8735 80.6171 39.8735 80.5977 39.895Z" fill="#0C123E"/>
<path d="M107.094 35.1328L106.178 36.3013C106.178 36.3013 106.169 36.3185 106.169 36.3271C106.165 36.3228 106.163 36.3185 106.158 36.3142L104.841 35.2813C104.816 35.2619 104.781 35.2641 104.764 35.2877L103.847 36.4562C103.83 36.4799 103.834 36.5143 103.86 36.5337L105.177 37.5666C105.203 37.5859 105.237 37.5838 105.255 37.5601L106.171 36.3917C106.171 36.3917 106.18 36.3744 106.18 36.3658C106.184 36.3701 106.186 36.3766 106.193 36.3787L107.51 37.4116C107.533 37.431 107.57 37.4289 107.587 37.4052L108.504 36.2367C108.521 36.2131 108.517 36.1786 108.491 36.1593L107.174 35.1264C107.148 35.107 107.114 35.1091 107.097 35.1328H107.094Z" fill="#0C123E"/>
<path d="M122.098 35.7085C124.293 34.9747 125.775 34.5464 125.808 34.5335C125.868 34.5099 126.124 34.0902 126.24 33.9611C126.257 33.9418 126.251 33.9332 126.225 33.9396C126.068 33.9827 125.691 34.0881 124.833 34.3571C123.991 34.6175 123.129 34.8951 122.3 35.1683C121.992 35.2695 121.347 35.489 121.347 35.489C120.155 35.8957 119.1 36.2787 118.39 36.5735C118.231 36.6402 117.994 36.7241 117.934 36.765C117.876 36.8059 117.547 37.2557 117.486 37.331C117.467 37.3546 117.484 37.3654 117.493 37.3611C118.874 36.7801 120.368 36.2916 122.096 35.7106L122.098 35.7085Z" fill="#0C123E"/>
<path d="M95.961 37.3559C97.2176 36.7082 98.5669 36.0863 99.8946 35.5139C103.981 33.786 107.738 32.5422 107.753 32.5336C107.796 32.5121 108.13 31.9181 108.188 31.7976C108.194 31.7847 108.188 31.7783 108.175 31.7826C107.876 31.8773 104.327 33.0737 100.344 34.7414C99.0489 35.2622 97.704 35.9077 96.4666 36.5167C96.4623 36.5189 96.443 36.5339 96.4408 36.5382C96.2665 36.7534 95.9653 37.2806 95.9502 37.3559C95.9502 37.3624 95.9502 37.3645 95.9502 37.3645C95.9523 37.3645 95.9566 37.3624 95.9588 37.3602L95.961 37.3559Z" fill="#0C123E"/>
<path d="M88.9116 33.5299C88.4834 33.7451 88.0552 33.9603 87.6334 34.1691C87.4204 34.2745 87.2009 34.3713 87.0244 34.5198C87.3795 34.494 87.7431 34.4294 88.096 34.3649C88.449 34.3003 88.8126 34.2508 89.1053 34.1389C89.271 34.0765 89.5916 33.7925 89.7143 33.6634C89.7594 33.616 89.9058 33.4568 90.0758 33.2588C90.1834 33.1512 90.4093 32.8607 90.5729 32.6369C90.6546 32.5229 90.8849 32.1807 90.8548 31.9935C90.8332 31.8579 90.5793 31.7869 90.3899 31.7353C89.9768 31.6234 89.5679 31.5653 89.1225 31.5395C88.8901 31.5266 88.662 31.5093 88.4124 31.5179C88.2639 31.5244 88.0186 31.5352 87.9174 31.5911C87.8141 31.6471 87.7453 31.8106 87.6915 31.916C87.4978 32.2948 87.3429 32.6046 87.1772 33.0049C87.5559 32.9468 87.9992 32.9597 88.4231 32.9748C88.8449 32.9877 89.2559 33.0178 89.5894 33.1103L89.4991 33.1727C89.2688 33.3406 89.116 33.431 88.9116 33.5343V33.5299Z" fill="#0C123E"/>
<path d="M99.1372 32.0895C99.163 32.1282 99.219 32.1755 99.2728 32.21C99.3631 32.2724 99.4514 32.3305 99.5439 32.3907C99.6106 32.4338 99.6967 32.4876 99.7655 32.5306C99.7806 32.5392 99.7849 32.5371 99.7914 32.5241C99.7978 32.5091 99.8021 32.4919 99.8086 32.4768C99.8107 32.4682 99.8366 32.4079 99.8645 32.3348C99.985 32.4596 100.078 32.593 100.129 32.6748C100.323 32.9588 100.671 33.8755 100.693 33.8669C100.699 33.8648 100.704 33.8583 100.71 33.8475C100.755 33.7894 100.846 33.5613 100.876 33.3375C100.893 33.2665 100.953 32.565 100.984 32.3133C100.999 32.21 101.042 31.743 101.225 31.545C101.27 31.5085 101.386 31.4202 101.59 31.545C101.683 31.601 101.76 31.6698 101.814 31.7473C101.849 31.7387 101.939 31.3879 101.907 31.2545C101.894 31.2072 101.818 31.0931 101.752 31.035C101.709 30.9963 101.567 30.8887 101.442 30.9038C101.28 30.9231 101.199 31.0221 101.123 31.1254C101.052 31.2201 100.94 31.4353 100.876 31.885C100.848 32.0163 100.788 32.6748 100.742 33.1977C100.695 32.9459 100.446 32.3886 100.398 32.3219C100.045 31.6892 99.6881 31.4998 99.5955 31.4654C99.3287 31.3299 99.2039 31.5149 99.1781 31.5838C99.148 31.6677 99.1006 31.9066 99.1307 32.0507C99.1307 32.0744 99.135 32.0916 99.135 32.0916L99.1372 32.0895Z" fill="#0C123E"/>
<path d="M121.038 32.2496C121.063 32.2884 121.119 32.3357 121.173 32.3701C121.264 32.4325 121.352 32.4906 121.444 32.5509C121.511 32.5939 121.597 32.6477 121.666 32.6908C121.681 32.6994 121.685 32.6972 121.692 32.6843C121.698 32.6692 121.703 32.652 121.709 32.637C121.711 32.6283 121.737 32.5681 121.765 32.4949C121.885 32.6197 121.978 32.7532 122.03 32.8349C122.223 33.119 122.572 34.0357 122.593 34.0271C122.6 34.0249 122.604 34.0185 122.611 34.0077C122.656 33.9496 122.746 33.7215 122.776 33.4977C122.794 33.4267 122.854 32.7252 122.884 32.4734C122.899 32.3701 122.942 31.9032 123.125 31.7052C123.17 31.6686 123.286 31.5804 123.491 31.7052C123.583 31.7611 123.661 31.83 123.715 31.9075C123.749 31.8989 123.839 31.5481 123.807 31.4147C123.794 31.3673 123.719 31.2533 123.652 31.1952C123.609 31.1565 123.467 31.0489 123.342 31.0639C123.181 31.0833 123.099 31.1823 123.024 31.2856C122.953 31.3803 122.841 31.5954 122.776 32.0452C122.748 32.1765 122.688 32.8349 122.643 33.3578C122.596 33.1061 122.346 32.5487 122.299 32.482C121.946 31.8494 121.588 31.6622 121.496 31.6256C121.229 31.49 121.104 31.6751 121.078 31.7439C121.048 31.8279 121.001 32.0667 121.031 32.2109C121.031 32.2346 121.035 32.2518 121.035 32.2518L121.038 32.2496Z" fill="#0C123E"/>
<path d="M102.854 59.0603C102.854 59.2819 102.74 59.3938 102.514 59.3938H97.6835V58.858C97.6835 58.4664 97.8105 58.2706 98.0623 58.2706C98.1419 58.2706 98.2172 58.2899 98.2882 58.3287C98.3334 58.3545 98.3872 58.3954 98.4496 58.4513L98.8391 58.064C98.6153 57.8596 98.3571 57.7563 98.0666 57.7563C97.8019 57.7563 97.5824 57.8423 97.4059 58.0188C97.2101 58.2168 97.1111 58.4965 97.1111 58.858V59.3938H93.1259V57.9607L92.5556 58.1458V59.3917H91.8993V58.107L91.3312 58.2921V59.3895H90.6878V58.277L90.1197 58.4621V59.3874H83.2574V57.0117L82.685 57.186V59.5638C82.685 59.7683 82.6075 59.9297 82.459 60.0502C82.3192 60.1642 82.132 60.2202 81.8995 60.2202C81.665 60.2202 81.4756 60.1707 81.3358 60.0674C81.1658 59.9426 81.0689 59.7468 81.0453 59.4799C81.0431 59.4304 81.041 59.3099 81.041 59.1184V59.0044L80.4707 59.1507C80.4729 59.3745 80.4836 59.538 80.4987 59.6435C80.5396 59.9404 80.6364 60.1771 80.7892 60.3493C81.028 60.6183 81.4025 60.7538 81.9146 60.7538C82.2202 60.7538 82.4806 60.6979 82.6957 60.586C82.8679 60.4934 83.0035 60.3729 83.1003 60.2202C83.1498 60.1448 83.1928 60.0394 83.2316 59.9038H102.536C102.805 59.9038 103.02 59.8328 103.179 59.693C103.343 59.5445 103.425 59.34 103.425 59.0797V57.0117L102.857 57.1968V59.0538L102.854 59.0603Z" fill="#0C123E"/>
<path d="M103.943 59.9038H104.518V57.0117L103.943 57.1968V59.9038Z" fill="#0C123E"/>
<path d="M106.674 59.4203C106.611 59.4827 106.581 59.5537 106.581 59.6354C106.581 59.7172 106.611 59.7882 106.674 59.8506C106.736 59.9087 106.805 59.9389 106.884 59.9389C106.964 59.9389 107.035 59.9087 107.098 59.8463C107.16 59.7882 107.19 59.7172 107.19 59.6354C107.19 59.5537 107.16 59.4827 107.098 59.4203C107.035 59.3622 106.964 59.332 106.884 59.332C106.805 59.332 106.732 59.3622 106.674 59.4203Z" fill="#0C123E"/>
<path d="M107.813 58.8451C107.802 58.701 107.776 58.5719 107.737 58.4578C107.628 58.1587 107.447 57.9478 107.191 57.8316C107.042 57.7649 106.881 57.7305 106.711 57.7305C106.567 57.7305 106.423 57.7563 106.276 57.8058C106.132 57.8596 105.999 57.9284 105.878 58.0124C105.824 58.0532 105.764 58.1092 105.697 58.1802L106.05 58.5331C106.121 58.4686 106.194 58.4148 106.27 58.3739C106.418 58.2943 106.556 58.2555 106.681 58.2555C106.806 58.2555 106.922 58.2986 107.016 58.3825C107.07 58.432 107.111 58.4922 107.139 58.5632H106.782C106.55 58.5632 106.349 58.6106 106.182 58.701C106.012 58.7935 105.878 58.9226 105.777 59.0883C105.674 59.2626 105.622 59.4541 105.622 59.665C105.622 59.8565 105.667 60.033 105.76 60.1944C105.857 60.3579 105.992 60.4913 106.169 60.5946C106.356 60.7001 106.56 60.7538 106.782 60.7538C107.04 60.7538 107.285 60.6828 107.514 60.5387V60.0093C107.296 60.1599 107.079 60.2353 106.862 60.2353C106.711 60.2353 106.575 60.1901 106.455 60.1018C106.289 59.9813 106.205 59.8307 106.205 59.6478C106.205 59.5811 106.218 59.5101 106.244 59.4369C106.274 59.3637 106.315 59.3013 106.369 59.2475C106.481 59.1335 106.636 59.0754 106.836 59.0754H107.821C107.819 58.9893 107.815 58.9118 107.813 58.8451Z" fill="#0C123E"/>
<path d="M115.408 57.4774C115.47 57.4171 115.5 57.3461 115.5 57.2644C115.5 57.1826 115.47 57.1116 115.408 57.0492C115.345 56.9911 115.277 56.9609 115.197 56.9609C115.117 56.9609 115.044 56.9911 114.986 57.0492C114.928 57.1073 114.894 57.1826 114.894 57.2644C114.894 57.3461 114.924 57.4193 114.986 57.4817C115.048 57.5398 115.117 57.5699 115.197 57.5699C115.277 57.5699 115.345 57.5398 115.408 57.4774Z" fill="#0C123E"/>
<path d="M115.998 57.5699C116.078 57.5699 116.146 57.5398 116.209 57.4774C116.271 57.4171 116.301 57.3461 116.301 57.2644C116.301 57.1826 116.271 57.1116 116.209 57.0492C116.146 56.9911 116.078 56.9609 115.998 56.9609C115.914 56.9609 115.843 56.9911 115.785 57.0492C115.723 57.1116 115.692 57.1826 115.692 57.2644C115.692 57.3461 115.723 57.4193 115.785 57.4817C115.847 57.5398 115.918 57.5699 115.998 57.5699Z" fill="#0C123E"/>
<path d="M120.419 57.3407C120.481 57.2826 120.511 57.2116 120.511 57.1298C120.511 57.048 120.481 56.9749 120.419 56.9124C120.356 56.8543 120.285 56.8242 120.206 56.8242C120.126 56.8242 120.053 56.8543 119.995 56.9124C119.932 56.9749 119.902 57.048 119.902 57.1298C119.902 57.2116 119.932 57.2826 119.995 57.345C120.057 57.4031 120.126 57.4332 120.206 57.4332C120.285 57.4332 120.356 57.4031 120.419 57.3407Z" fill="#0C123E"/>
<path d="M120.389 59.0538C120.389 59.2755 120.275 59.3874 120.049 59.3874H116.662C116.557 59.3874 116.473 59.3637 116.415 59.3142C116.352 59.2561 116.322 59.1722 116.322 59.0625V57.9564L115.754 58.1415V59.0538C115.754 59.2755 115.644 59.3874 115.427 59.3874H109.101C109.038 59.3874 108.993 59.3745 108.965 59.3487C108.928 59.3164 108.911 59.2626 108.911 59.1894V57.0117L108.339 57.1968V59.2776C108.339 59.4606 108.388 59.6069 108.487 59.7188C108.599 59.8436 108.763 59.9038 108.978 59.9038H115.457C115.683 59.9038 115.879 59.8328 116.047 59.6887C116.213 59.8328 116.406 59.9038 116.624 59.9038H120.071C120.34 59.9038 120.555 59.8328 120.714 59.693C120.878 59.5445 120.96 59.34 120.96 59.0797V57.8208L120.392 58.0059V59.0517L120.389 59.0538Z" fill="#0C123E"/>
<path d="M122.2 60.5466C122.2 60.5144 122.21 60.4842 122.234 60.4584C122.253 60.4433 122.271 60.4347 122.288 60.4326C122.333 60.4326 122.374 60.4476 122.406 60.4799L122.55 60.3207C122.475 60.2475 122.389 60.2109 122.292 60.2109C122.148 60.2109 122.049 60.282 121.995 60.4218C121.98 60.467 121.971 60.5316 121.969 60.6133H121.864L121.741 60.8328H122.561V60.6133H122.2V60.5466Z" fill="#0C123E"/>
<path d="M123.123 59.0538C123.123 59.2755 123.009 59.3874 122.783 59.3874H122.567V57.2785L121.999 57.4636V59.3874H121.61L121.341 59.9038H122.802C123.073 59.9038 123.286 59.8328 123.445 59.693C123.611 59.5445 123.693 59.34 123.693 59.0797V57.0117L123.125 57.1968V59.0538H123.123Z" fill="#0C123E"/>
</g>
<defs>
<clipPath id="clip0_1283_4462">
<rect width="160" height="90" fill="white" transform="translate(0.5)"/>
</clipPath>
</defs>
</svg>
