<svg width="245" height="156" viewBox="0 0 245 156" fill="none" xmlns="http://www.w3.org/2000/svg">
<mask id="mask0_1354_2195" style="mask-type:luminance" maskUnits="userSpaceOnUse" x="0" y="0" width="173" height="156">
<path d="M172.147 0H0V156H172.147V0Z" fill="white"/>
</mask>
<g mask="url(#mask0_1354_2195)">
<path d="M165.993 0H6.15423C2.75546 0 0 2.75546 0 6.15423V149.84C0 153.239 2.75546 155.995 6.15423 155.995H165.987C169.386 155.995 172.141 153.239 172.141 149.84V6.15423C172.141 2.75546 169.386 0 165.987 0H165.993Z" fill="white"/>
<path d="M0 6.15423C0 2.7501 2.7501 0 6.15423 0H165.993C169.391 0 172.147 2.7501 172.147 6.15423V9.23134H0V6.15423Z" fill="#6262E9"/>
<path d="M10.7158 5.84879C11.4128 5.84879 11.981 5.29663 11.981 4.6158C11.981 3.93498 11.4181 3.38281 10.7158 3.38281C10.0136 3.38281 9.45605 3.93498 9.45605 4.6158C9.45605 5.29663 10.0189 5.84879 10.7158 5.84879Z" fill="#C24639"/>
<path d="M15.4497 5.84879C16.1466 5.84879 16.7149 5.29663 16.7149 4.6158C16.7149 3.93498 16.152 3.38281 15.4497 3.38281C14.7475 3.38281 14.1846 3.93498 14.1846 4.6158C14.1846 5.29663 14.7475 5.84879 15.4497 5.84879Z" fill="#ECCD6A"/>
<path d="M20.1724 5.84879C20.8693 5.84879 21.4375 5.29663 21.4375 4.6158C21.4375 3.93498 20.8746 3.38281 20.1724 3.38281C19.4701 3.38281 18.9072 3.93498 18.9072 4.6158C18.9072 5.29663 19.4701 5.84879 20.1724 5.84879Z" fill="#ADCA5E"/>
<path d="M15.4502 114.249V54.8086" stroke="#E6E8EC" stroke-width="0.536082"/>
<path d="M39.7129 114.249V54.8086" stroke="#E6E8EC" stroke-width="0.536082"/>
<path d="M63.9756 114.249V54.8086" stroke="#E6E8EC" stroke-width="0.536082"/>
<path d="M88.2393 114.249V54.8086" stroke="#E6E8EC" stroke-width="0.536082"/>
<path d="M112.503 114.249V54.8086" stroke="#E6E8EC" stroke-width="0.536082"/>
<path d="M136.766 114.249V54.8086" stroke="#E6E8EC" stroke-width="0.536082"/>
<path d="M161.028 114.249V54.8086" stroke="#E6E8EC" stroke-width="0.536082"/>
<path d="M15.7178 102.776L31.1677 93.4213L69.1169 90.7945L80.884 78.7916L90.512 80.2498L106.884 64.4139C107.206 64.3067 119.616 68.7455 119.616 68.7455L160.867 56.6836L160.251 110.394C160.251 112.168 158.809 113.61 157.034 113.61H18.9343C17.1598 113.61 15.7178 112.168 15.7178 110.394V104.55C15.7178 103.446 16.2807 102.422 17.2134 101.832" fill="url(#paint0_linear_1354_2195)" fill-opacity="0.5"/>
<path d="M15.7178 102.776L31.1677 93.4213L69.1169 90.7945L80.884 78.7916L90.512 80.2498L106.884 64.4139C107.206 64.3067 119.616 68.7455 119.616 68.7455L160.867 56.6836" stroke="#4437D0" stroke-width="0.536082" stroke-linecap="round"/>
<path d="M15.7178 102.777L27.533 85.6866L37.6221 88.7048C37.8044 88.6565 37.9813 88.5922 38.1528 88.5118L51.3297 78.9588L74.4992 79.7307L83.7359 66.7951L88.0728 60.9303C88.357 60.5444 101.641 53.452 101.973 53.3984L114.153 33.9922L161.028 52.9213" stroke="#4269D5" stroke-width="0.536082" stroke-linecap="round" stroke-linejoin="round"/>
<path d="M162.385 50.9479L143.745 42.4295C143.579 42.3545 143.391 42.3706 143.241 42.4724L116.11 60.9458C115.879 61.1013 115.569 61.0477 115.408 60.8279L102.231 43.0085C102 42.6922 101.512 42.7458 101.346 43.0997L89.7829 68.2419C89.6596 68.5153 89.3326 68.6225 89.07 68.4778L77.2761 62.0555C77.1904 62.0073 77.0992 61.9858 77.0027 61.9912C75.5339 62.0716 65.3537 63.8407 64.0242 64.157C63.9277 64.1784 63.8258 64.1731 63.7293 64.1355L42.8221 56.3516C42.5862 56.2658 42.3236 56.357 42.2003 56.5714L15.7285 102.766" stroke="#CF4431" stroke-width="0.536082" stroke-linecap="round" stroke-linejoin="round"/>
<path d="M15.7178 102.776L30.9747 70.606C31.5376 69.4159 33.0118 68.9763 34.1322 69.6625L58.8939 84.7746C60.0357 85.4715 61.5367 85.0051 62.0782 83.7829C64.6621 77.9396 71.3792 62.7148 73.4271 58.0616C73.7916 57.2307 74.6279 56.7107 75.5339 56.7429C79.8976 56.8983 92.3883 57.3433 94.1627 57.3754C94.3182 57.3754 94.4683 57.3969 94.6184 57.4344L119.616 63.2134C120.565 63.4332 121.546 63.0097 122.034 62.1627L138.625 33.5734C139.274 32.453 140.748 32.126 141.81 32.8657L159.361 45.0616" stroke="#9CEAE8" stroke-width="0.536082" stroke-linecap="round"/>
<path d="M15.8311 103.46L28.7238 85.6939L33.6236 91.3281L50.2636 75.6477L69.9968 94.8341L80.0216 85.6939L93.1073 86.6213L105.555 97.4556L112.358 62.4976L127.803 75.6477L163.259 48.2539" stroke="#E7B840" stroke-width="0.536082" stroke-linecap="round" stroke-linejoin="round"/>
</g>
<path d="M231.013 33.0898H109.543C107.591 33.0898 106.01 34.6715 106.01 36.6226V110.548C106.01 112.5 107.591 114.081 109.543 114.081H231.013C232.965 114.081 234.546 112.5 234.546 110.548V36.6226C234.546 34.6715 232.965 33.0898 231.013 33.0898Z" fill="#FCFCFC"/>
<path d="M116.015 43.1828C115.868 43.1828 115.721 43.1734 115.576 43.1547C115.431 43.1383 115.285 43.109 115.137 43.0668V42.7542C115.331 42.7963 115.497 42.8268 115.632 42.8455C115.771 42.8619 115.894 42.8701 116.001 42.8701C116.114 42.8701 116.207 42.8537 116.282 42.8209C116.357 42.7858 116.413 42.7401 116.451 42.6839C116.488 42.6277 116.507 42.5656 116.507 42.4977C116.507 42.4275 116.486 42.3689 116.444 42.3221C116.404 42.2729 116.35 42.2331 116.282 42.2026C116.217 42.1698 116.13 42.1359 116.022 42.1007L115.927 42.0726C115.775 42.0235 115.646 41.9743 115.541 41.9251C115.438 41.8736 115.351 41.8021 115.281 41.7108C115.211 41.6171 115.176 41.4965 115.176 41.3489C115.176 41.1358 115.251 40.9754 115.4 40.8676C115.553 40.7599 115.758 40.706 116.015 40.706C116.153 40.706 116.288 40.7166 116.419 40.7376C116.553 40.7564 116.694 40.788 116.844 40.8325V41.1522C116.662 41.103 116.506 41.0691 116.377 41.0503C116.251 41.0316 116.132 41.0222 116.022 41.0222C115.87 41.0222 115.754 41.0491 115.675 41.103C115.597 41.1569 115.559 41.2389 115.559 41.3489C115.559 41.4239 115.581 41.4848 115.625 41.5316C115.672 41.5785 115.73 41.6159 115.797 41.644C115.865 41.6721 115.961 41.7061 116.086 41.7459L116.131 41.7565C116.288 41.8033 116.418 41.8513 116.521 41.9005C116.624 41.9497 116.712 42.0211 116.785 42.1148C116.857 42.2061 116.894 42.3256 116.894 42.4731C116.894 42.7027 116.813 42.8783 116.651 43.0001C116.492 43.1219 116.28 43.1828 116.015 43.1828ZM118.266 41.9391C118.266 41.7237 118.179 41.603 118.006 41.5773C117.835 41.5492 117.621 41.5843 117.363 41.6827L117.303 41.4438C117.512 41.3571 117.717 41.3091 117.918 41.2997C118.122 41.288 118.289 41.3325 118.42 41.4332C118.554 41.534 118.621 41.6991 118.621 41.9286V43.1406H118.266V42.9088C118.097 43.0797 117.9 43.1652 117.676 43.1652C117.526 43.1652 117.407 43.1219 117.321 43.0352C117.237 42.9462 117.194 42.8326 117.194 42.6945C117.194 42.5633 117.238 42.4462 117.324 42.3431C117.411 42.2401 117.535 42.1616 117.697 42.1078C117.861 42.0539 118.05 42.0328 118.266 42.0445V41.9391ZM118.266 42.2553C118.114 42.2389 117.98 42.2495 117.865 42.2869C117.753 42.3244 117.667 42.3771 117.609 42.445C117.553 42.5106 117.525 42.5797 117.525 42.6523C117.525 42.7272 117.552 42.7858 117.605 42.828C117.659 42.8701 117.731 42.8912 117.82 42.8912C117.911 42.8912 117.992 42.8748 118.062 42.842C118.132 42.8092 118.2 42.7612 118.266 42.698V42.2553ZM119.087 43.1406V40.7412H119.439V43.1406H119.087ZM120.253 42.2764C120.26 42.4755 120.312 42.6254 120.408 42.7261C120.506 42.8268 120.657 42.8771 120.861 42.8771C120.952 42.8771 121.034 42.8713 121.107 42.8596C121.182 42.8479 121.258 42.828 121.335 42.7999L121.423 43.0493C121.301 43.0985 121.194 43.1301 121.1 43.1441C121.009 43.1582 120.908 43.1652 120.798 43.1652C120.496 43.1652 120.267 43.0821 120.113 42.9158C119.961 42.7495 119.884 42.5165 119.884 42.2167C119.884 42.0246 119.917 41.8572 119.983 41.7143C120.048 41.5691 120.143 41.4578 120.267 41.3805C120.391 41.3009 120.539 41.2611 120.71 41.2611C120.876 41.2611 121.016 41.3044 121.128 41.3911C121.24 41.4777 121.32 41.5972 121.367 41.7494C121.414 41.9017 121.426 42.0773 121.402 42.2764H120.253ZM121.096 42.0586C121.096 41.9532 121.08 41.8595 121.047 41.7775C121.017 41.6932 120.972 41.6288 120.914 41.5843C120.855 41.5375 120.785 41.514 120.703 41.514C120.569 41.514 120.463 41.5632 120.383 41.6616C120.306 41.7576 120.263 41.89 120.253 42.0586H121.096ZM122.461 43.1933C122.224 43.1933 121.997 43.1477 121.779 43.0563V42.7893C121.877 42.8338 121.982 42.8678 122.092 42.8912C122.202 42.9123 122.301 42.9228 122.39 42.9228C122.531 42.9228 122.63 42.897 122.689 42.8455C122.748 42.794 122.777 42.7366 122.777 42.6734C122.777 42.6219 122.759 42.5797 122.724 42.5469C122.691 42.5118 122.648 42.4825 122.594 42.4591C122.543 42.4333 122.477 42.4076 122.397 42.3818C122.393 42.3794 122.388 42.3783 122.383 42.3783C122.381 42.3759 122.378 42.3748 122.373 42.3748L122.366 42.3713C122.251 42.3314 122.156 42.2928 122.081 42.2553C122.009 42.2155 121.945 42.1616 121.892 42.0937C121.84 42.0258 121.814 41.9391 121.814 41.8337C121.814 41.6604 121.879 41.5246 122.007 41.4262C122.139 41.3279 122.321 41.2787 122.556 41.2787C122.668 41.2787 122.771 41.2904 122.865 41.3138C122.958 41.3372 123.052 41.3688 123.146 41.4087V41.6721C123.05 41.6253 122.962 41.5925 122.882 41.5738C122.805 41.555 122.726 41.5457 122.647 41.5457C122.502 41.5457 122.393 41.5714 122.32 41.623C122.25 41.6745 122.215 41.7354 122.215 41.8056C122.215 41.8548 122.231 41.897 122.264 41.9321C122.299 41.9672 122.344 41.9977 122.397 42.0235C122.454 42.0469 122.522 42.0715 122.601 42.0972C122.608 42.1019 122.615 42.1054 122.622 42.1078C122.632 42.1101 122.64 42.1124 122.647 42.1148L122.657 42.1183C122.767 42.1581 122.858 42.1979 122.928 42.2378C123 42.2752 123.061 42.3268 123.111 42.3923C123.16 42.4579 123.184 42.5387 123.184 42.6347C123.184 42.808 123.118 42.9451 122.984 43.0458C122.851 43.1441 122.676 43.1933 122.461 43.1933ZM124.337 43.4779C124.5 43.5435 124.659 43.5763 124.811 43.5763C124.965 43.5786 125.091 43.5446 125.187 43.4744C125.285 43.4041 125.334 43.3011 125.334 43.1652V42.9509H125.338C125.275 43.0165 125.2 43.0668 125.113 43.102C125.029 43.1371 124.942 43.1547 124.853 43.1547C124.701 43.1547 124.572 43.116 124.467 43.0387C124.361 42.9615 124.28 42.8537 124.224 42.7155C124.17 42.575 124.143 42.4134 124.143 42.2307C124.143 41.9497 124.202 41.726 124.319 41.5597C124.436 41.3934 124.607 41.3103 124.832 41.3103C124.926 41.3103 125.015 41.329 125.099 41.3665C125.183 41.4016 125.259 41.4532 125.327 41.5211H125.334V41.3454H125.686V43.1758C125.686 43.3819 125.618 43.5435 125.482 43.6606C125.346 43.78 125.169 43.8456 124.951 43.8573C124.736 43.869 124.512 43.8292 124.28 43.7379L124.337 43.4779ZM124.958 42.8631C125.036 42.8631 125.106 42.849 125.169 42.8209C125.235 42.7928 125.29 42.7612 125.334 42.7261V41.774C125.29 41.7365 125.235 41.7038 125.169 41.6757C125.106 41.6475 125.036 41.6335 124.958 41.6335C124.818 41.6335 124.708 41.6874 124.628 41.7951C124.551 41.9005 124.512 42.0457 124.512 42.2307C124.512 42.4321 124.551 42.5879 124.628 42.698C124.708 42.808 124.818 42.8631 124.958 42.8631ZM126.072 43.1406V41.3735H126.427V41.7002C126.504 41.5855 126.597 41.5012 126.705 41.4473C126.815 41.3911 126.931 41.3642 127.052 41.3665V41.644C126.973 41.637 126.888 41.6499 126.799 41.6827C126.713 41.7131 126.637 41.7553 126.571 41.8091C126.506 41.8607 126.458 41.9145 126.427 41.9708V43.1406H126.072ZM128.044 43.1652C127.869 43.1652 127.72 43.1266 127.598 43.0493C127.476 42.9697 127.385 42.8607 127.324 42.7226C127.265 42.5844 127.236 42.4251 127.236 42.2448C127.236 42.0644 127.265 41.9052 127.324 41.767C127.385 41.6265 127.476 41.5176 127.598 41.4403C127.72 41.3606 127.869 41.3208 128.044 41.3208C128.22 41.3208 128.369 41.3606 128.49 41.4403C128.612 41.5176 128.702 41.6265 128.761 41.767C128.822 41.9052 128.852 42.0644 128.852 42.2448C128.852 42.4251 128.822 42.5844 128.761 42.7226C128.702 42.8607 128.612 42.9697 128.49 43.0493C128.369 43.1266 128.22 43.1652 128.044 43.1652ZM128.044 41.5808C127.887 41.5808 127.768 41.6429 127.686 41.767C127.606 41.8911 127.566 42.0504 127.566 42.2448C127.566 42.4392 127.606 42.5984 127.686 42.7226C127.768 42.8467 127.887 42.9088 128.044 42.9088C128.201 42.9088 128.319 42.8467 128.399 42.7226C128.479 42.5984 128.518 42.4392 128.518 42.2448C128.518 42.048 128.479 41.8888 128.399 41.767C128.319 41.6429 128.201 41.5808 128.044 41.5808ZM129.071 41.3489H129.454L129.865 42.8209H129.862L130.252 41.3489H130.617L131.007 42.8209H131.003L131.414 41.3489H131.794L131.232 43.1406H130.796L130.399 41.767H130.452L130.051 43.1406H129.633L129.071 41.3489ZM132.476 42.712C132.476 42.7823 132.492 42.8338 132.525 42.8666C132.56 42.8994 132.608 42.9158 132.669 42.9158C132.699 42.9158 132.732 42.9146 132.767 42.9123C132.802 42.9076 132.826 42.9029 132.837 42.8982V43.1582C132.798 43.1652 132.746 43.1711 132.683 43.1758C132.622 43.1804 132.572 43.1828 132.532 43.1828C132.384 43.1828 132.279 43.1465 132.216 43.0739C132.152 43.0013 132.121 42.8912 132.121 42.7436V41.6757H131.885L131.938 41.4087H132.121V40.973L132.476 40.8817V41.4087H132.855L132.802 41.6757H132.476V42.712ZM133.092 43.1406V40.7412H133.446V41.5527H133.439C133.627 41.4051 133.82 41.3302 134.019 41.3279C134.132 41.3255 134.23 41.3466 134.314 41.3911C134.401 41.4332 134.468 41.4988 134.514 41.5878C134.561 41.6745 134.585 41.7822 134.585 41.911V43.1406H134.23V42.027C134.23 41.9145 134.204 41.8302 134.153 41.774C134.103 41.7155 134.028 41.685 133.928 41.6827C133.843 41.6803 133.759 41.6991 133.675 41.7389C133.593 41.7764 133.517 41.822 133.446 41.8759V43.1406H133.092Z" fill="black"/>
<path d="M128.762 102.961H223.021" stroke="#E6E8EC" stroke-width="0.412783"/>
<path d="M128.762 92.7656H223.021" stroke="#E6E8EC" stroke-width="0.412783"/>
<path d="M128.762 82.0625H223.021" stroke="#E6E8EC" stroke-width="0.412783"/>
<path d="M128.762 71.8633H223.021" stroke="#E6E8EC" stroke-width="0.412783"/>
<path d="M128.762 62.168H223.021" stroke="#E6E8EC" stroke-width="0.412783"/>
<path d="M128.762 52.9727H223.021" stroke="#E6E8EC" stroke-width="0.412783"/>
<path d="M116.806 50.25H117.236V52.985C117.236 53.66 116.901 54.015 116.256 54.015C116.021 54.015 115.711 53.95 115.541 53.865V53.48C115.681 53.54 115.976 53.615 116.161 53.615C116.591 53.615 116.806 53.405 116.806 52.98V50.25ZM119.064 51.255C119.739 51.255 120.194 51.585 120.194 52.215V54H119.804V53.575C119.684 53.81 119.279 54.05 118.754 54.05C118.224 54.05 117.834 53.795 117.834 53.295C117.834 52.74 118.294 52.485 119.109 52.485H119.754V52.215C119.744 51.775 119.469 51.59 119.054 51.59C118.669 51.59 118.409 51.785 118.354 52.095L117.944 52.09C117.994 51.57 118.449 51.255 119.064 51.255ZM118.264 53.27C118.264 53.565 118.494 53.74 118.884 53.74C119.304 53.74 119.744 53.48 119.754 53.155V52.75H119.114C118.689 52.75 118.264 52.85 118.264 53.27ZM122.314 51.25C122.939 51.25 123.314 51.605 123.314 52.235V54H122.869V52.33C122.869 51.845 122.604 51.585 122.154 51.585C121.654 51.585 121.294 51.96 121.294 52.365V54H120.849V51.3H121.274V51.815C121.509 51.36 122.029 51.25 122.314 51.25Z" fill="#808D9E"/>
<path d="M115.439 60.245H117.654V60.63H115.849V61.93H117.319V62.29H115.849V64H115.439V60.245ZM119.382 64.05C118.592 64.05 118.047 63.5 118.047 62.67C118.047 61.76 118.627 61.255 119.357 61.255C120.162 61.255 120.692 61.815 120.642 62.775H118.497C118.502 63.385 118.857 63.735 119.397 63.735C119.812 63.735 120.167 63.505 120.187 63.11H120.622C120.557 63.745 120.047 64.05 119.382 64.05ZM118.497 62.5H120.232C120.232 61.99 119.937 61.57 119.357 61.57C118.867 61.57 118.512 61.945 118.497 62.5ZM123.811 62.71C123.811 63.54 123.236 64.05 122.591 64.05C122.046 64.05 121.661 63.7 121.551 63.37V64H121.136V60.31H121.576V61.915C121.696 61.625 122.036 61.245 122.596 61.25C123.306 61.255 123.811 61.79 123.811 62.6V62.71ZM121.566 62.7C121.566 63.37 122.031 63.71 122.476 63.71C122.971 63.71 123.366 63.3 123.366 62.7V62.595C123.366 61.925 122.941 61.605 122.446 61.605C121.841 61.605 121.566 62.17 121.566 62.595V62.7Z" fill="#808D9E"/>
<path d="M115.695 70.25H116.3L117.535 73.27L118.805 70.25H119.395V74H118.99V70.77L117.635 74H117.395L116.095 70.765V74H115.695V70.25ZM121.307 71.255C121.982 71.255 122.437 71.585 122.437 72.215V74H122.047V73.575C121.927 73.81 121.522 74.05 120.997 74.05C120.467 74.05 120.077 73.795 120.077 73.295C120.077 72.74 120.537 72.485 121.352 72.485H121.997V72.215C121.987 71.775 121.712 71.59 121.297 71.59C120.912 71.59 120.652 71.785 120.597 72.095L120.187 72.09C120.237 71.57 120.692 71.255 121.307 71.255ZM120.507 73.27C120.507 73.565 120.737 73.74 121.127 73.74C121.547 73.74 121.987 73.48 121.997 73.155V72.75H121.357C120.932 72.75 120.507 72.85 120.507 73.27ZM123.532 71.915C123.567 71.735 123.812 71.26 124.417 71.25H124.552V71.685L124.417 71.68C124.112 71.68 123.532 71.845 123.532 72.58V74H123.087V71.3H123.532V71.915Z" fill="#808D9E"/>
<path d="M117.644 80.25H118.184L119.539 84H119.064L118.734 83.02H117.079L116.724 84H116.289L117.644 80.25ZM117.184 82.665H118.639L117.899 80.65L117.184 82.665ZM120.416 81.95C120.526 81.57 120.946 81.25 121.461 81.25C122.131 81.25 122.661 81.79 122.661 82.65V82.715C122.661 83.485 122.186 84.05 121.426 84.05C120.886 84.05 120.541 83.66 120.441 83.395V84.975H120.006V81.3H120.416V81.95ZM120.431 82.725C120.431 83.135 120.701 83.715 121.326 83.715C121.781 83.715 122.221 83.395 122.221 82.72V82.645C122.221 82.02 121.851 81.59 121.336 81.59C120.891 81.59 120.431 81.93 120.431 82.6V82.725ZM123.649 81.915C123.684 81.735 123.929 81.26 124.534 81.25H124.669V81.685L124.534 81.68C124.229 81.68 123.649 81.845 123.649 82.58V84H123.204V81.3H123.649V81.915Z" fill="#808D9E"/>
<path d="M114.802 90.25H115.407L116.642 93.27L117.912 90.25H118.502V94H118.097V90.77L116.742 94H116.502L115.202 90.765V94H114.802V90.25ZM120.414 91.255C121.089 91.255 121.544 91.585 121.544 92.215V94H121.154V93.575C121.034 93.81 120.629 94.05 120.104 94.05C119.574 94.05 119.184 93.795 119.184 93.295C119.184 92.74 119.644 92.485 120.459 92.485H121.104V92.215C121.094 91.775 120.819 91.59 120.404 91.59C120.019 91.59 119.759 91.785 119.704 92.095L119.294 92.09C119.344 91.57 119.799 91.255 120.414 91.255ZM119.614 93.27C119.614 93.565 119.844 93.74 120.234 93.74C120.654 93.74 121.094 93.48 121.104 93.155V92.75H120.464C120.039 92.75 119.614 92.85 119.614 93.27ZM124.104 91.3H124.509L123.024 94.895H122.609L123.014 93.865L121.924 91.3H122.359L123.234 93.47L124.104 91.3Z" fill="#808D9E"/>
<path d="M116.694 100.25H117.124V102.985C117.124 103.66 116.789 104.015 116.144 104.015C115.909 104.015 115.599 103.95 115.429 103.865V103.48C115.569 103.54 115.864 103.615 116.049 103.615C116.479 103.615 116.694 103.405 116.694 102.98V100.25ZM118.771 104.05C118.166 104.05 117.771 103.715 117.771 103.05V101.3H118.216V102.975C118.216 103.455 118.456 103.71 118.911 103.71C119.416 103.71 119.786 103.34 119.786 102.925V101.3H120.231V104H119.826V103.45C119.611 103.945 119.086 104.05 118.771 104.05ZM122.426 101.25C123.051 101.25 123.426 101.605 123.426 102.235V104H122.981V102.33C122.981 101.845 122.716 101.585 122.266 101.585C121.766 101.585 121.406 101.96 121.406 102.365V104H120.961V101.3H121.386V101.815C121.621 101.36 122.141 101.25 122.426 101.25Z" fill="#808D9E"/>
<path d="M198.223 118.953H143.944C140.83 118.953 138.305 121.478 138.305 124.593V135.968C138.305 139.083 140.83 141.608 143.944 141.608H198.223C201.337 141.608 203.862 139.083 203.862 135.968V124.593C203.862 121.478 201.337 118.953 198.223 118.953Z" fill="white"/>
<path d="M150.136 123.281C153.814 123.281 156.789 126.262 156.789 129.934C156.789 133.612 153.808 136.587 150.136 136.587C146.459 136.587 143.483 133.606 143.483 129.934C143.483 126.257 146.464 123.281 150.136 123.281Z" fill="#F7F7F7"/>
<mask id="mask1_1354_2195" style="mask-type:luminance" maskUnits="userSpaceOnUse" x="152" y="123" width="14" height="14">
<path d="M159.008 123.031C162.819 123.031 165.907 126.119 165.907 129.931C165.907 133.742 162.819 136.83 159.008 136.83C155.196 136.83 152.108 133.742 152.108 129.931C152.108 126.119 155.196 123.031 159.008 123.031Z" fill="white"/>
</mask>
<g mask="url(#mask1_1354_2195)">
<path d="M159.008 123.031C162.819 123.031 165.907 126.119 165.907 129.931C165.907 133.742 162.819 136.83 159.008 136.83C155.196 136.83 152.108 133.742 152.108 129.931C152.108 126.119 155.196 123.031 159.008 123.031Z" fill="#F7F7F7"/>
</g>
<path d="M159.008 123.281C162.686 123.281 165.661 126.262 165.661 129.934C165.661 133.612 162.68 136.587 159.008 136.587C155.331 136.587 152.355 133.606 152.355 129.934C152.355 126.257 155.336 123.281 159.008 123.281Z" stroke="white" stroke-width="0.493196"/>
<path d="M167.88 123.281C171.558 123.281 174.533 126.262 174.533 129.934C174.533 133.612 171.552 136.587 167.88 136.587C164.203 136.587 161.228 133.606 161.228 129.934C161.228 126.257 164.208 123.281 167.88 123.281Z" fill="#4437D0"/>
<path d="M167.88 123.281C171.558 123.281 174.533 126.262 174.533 129.934C174.533 133.612 171.552 136.587 167.88 136.587C164.203 136.587 161.228 133.606 161.228 129.934C161.228 126.257 164.208 123.281 167.88 123.281Z" stroke="white" stroke-width="0.493196"/>
<path d="M185.906 125.989L185.309 126.408L185.152 125.895L186.068 125.445H186.189H186.466V129.042H185.895L185.906 125.989ZM188.45 129.094C188.153 129.094 187.902 129.017 187.696 128.864C187.49 128.71 187.333 128.495 187.224 128.22C187.12 127.94 187.067 127.612 187.067 127.235C187.067 126.865 187.12 126.544 187.224 126.272C187.333 125.996 187.49 125.783 187.696 125.633C187.902 125.48 188.153 125.403 188.45 125.403C188.746 125.403 188.998 125.48 189.203 125.633C189.413 125.783 189.57 125.996 189.675 126.272C189.779 126.544 189.832 126.865 189.832 127.235C189.832 127.612 189.779 127.94 189.675 128.22C189.57 128.495 189.413 128.71 189.203 128.864C188.998 129.017 188.746 129.094 188.45 129.094ZM188.45 128.618C188.732 128.618 188.938 128.49 189.067 128.235C189.196 127.981 189.261 127.647 189.261 127.235C189.261 126.827 189.196 126.501 189.067 126.256C188.938 126.008 188.732 125.885 188.45 125.885C188.167 125.885 187.961 126.008 187.832 126.256C187.706 126.501 187.643 126.827 187.643 127.235C187.643 127.647 187.708 127.981 187.837 128.235C187.966 128.49 188.17 128.618 188.45 128.618ZM191.793 129.094C191.497 129.094 191.245 129.017 191.04 128.864C190.834 128.71 190.676 128.495 190.568 128.22C190.464 127.94 190.411 127.612 190.411 127.235C190.411 126.865 190.464 126.544 190.568 126.272C190.676 125.996 190.834 125.783 191.04 125.633C191.245 125.48 191.497 125.403 191.793 125.403C192.09 125.403 192.341 125.48 192.547 125.633C192.757 125.783 192.914 125.996 193.019 126.272C193.123 126.544 193.176 126.865 193.176 127.235C193.176 127.612 193.123 127.94 193.019 128.22C192.914 128.495 192.757 128.71 192.547 128.864C192.341 129.017 192.09 129.094 191.793 129.094ZM191.793 128.618C192.076 128.618 192.282 128.49 192.411 128.235C192.54 127.981 192.605 127.647 192.605 127.235C192.605 126.827 192.54 126.501 192.411 126.256C192.282 126.008 192.076 125.885 191.793 125.885C191.511 125.885 191.305 126.008 191.176 126.256C191.05 126.501 190.987 126.827 190.987 127.235C190.987 127.647 191.052 127.981 191.181 128.235C191.31 128.49 191.514 128.618 191.793 128.618Z" fill="black"/>
<path d="M180.036 132.8C180.52 132.8 180.84 133.056 180.84 133.588V135H180.396V133.688C180.396 133.316 180.22 133.132 179.9 133.132C179.496 133.132 179.292 133.396 179.288 133.688V135H178.844V133.688C178.844 133.316 178.66 133.132 178.336 133.132C177.964 133.132 177.724 133.396 177.724 133.712V135H177.28V132.84H177.708V133.212C177.884 132.88 178.212 132.8 178.488 132.8C178.872 132.8 179.128 132.94 179.224 133.264C179.376 132.88 179.776 132.8 180.036 132.8ZM181.354 132.84H181.79V135H181.354V132.84ZM181.314 132.276C181.314 132.132 181.426 132.016 181.57 132.016C181.718 132.016 181.83 132.132 181.83 132.276C181.83 132.416 181.718 132.536 181.57 132.536C181.426 132.536 181.314 132.416 181.314 132.276ZM182.342 131.952H182.77V135H182.342V131.952ZM183.319 131.952H183.747V135H183.319V131.952ZM184.3 132.84H184.736V135H184.3V132.84ZM184.26 132.276C184.26 132.132 184.372 132.016 184.516 132.016C184.664 132.016 184.776 132.132 184.776 132.276C184.776 132.416 184.664 132.536 184.516 132.536C184.372 132.536 184.26 132.416 184.26 132.276ZM186.264 132.8C186.956 132.8 187.36 133.3 187.368 133.872V133.944C187.368 134.26 187.228 135.032 186.26 135.032C185.592 135.032 185.152 134.58 185.152 133.948V133.872C185.164 133.244 185.604 132.8 186.264 132.8ZM185.612 133.948C185.612 134.396 185.872 134.704 186.26 134.704C186.664 134.704 186.908 134.432 186.908 133.944V133.868C186.904 133.456 186.656 133.12 186.264 133.12C185.768 133.12 185.62 133.568 185.612 133.872V133.948ZM189.028 132.8C189.528 132.8 189.836 133.088 189.836 133.584V135H189.388V133.684C189.388 133.328 189.192 133.132 188.856 133.132C188.492 133.132 188.236 133.404 188.236 133.712V135H187.788V132.84H188.216V133.224C188.396 132.896 188.784 132.8 189.028 132.8ZM191.626 133.328C191.65 133.212 191.814 132.804 192.33 132.8H192.43V133.236L192.33 133.232C192.054 133.228 191.626 133.364 191.626 133.892V135H191.182V132.84H191.626V133.328ZM192.823 132.84H193.259V135H192.823V132.84ZM192.783 132.276C192.783 132.132 192.895 132.016 193.039 132.016C193.187 132.016 193.299 132.132 193.299 132.276C193.299 132.416 193.187 132.536 193.039 132.536C192.895 132.536 192.783 132.416 192.783 132.276ZM195.327 132.84H195.735L194.567 135.712H194.143L194.459 134.896L193.595 132.84H194.035L194.679 134.492L195.327 132.84ZM197.021 132.804C197.573 132.804 197.953 133.068 197.953 133.584V135H197.569V134.68C197.473 134.86 197.177 135.04 196.749 135.04C196.333 135.04 196.009 134.84 196.009 134.432C196.009 133.976 196.385 133.772 197.053 133.772H197.517L197.513 133.584C197.505 133.264 197.309 133.132 197.009 133.132C196.729 133.132 196.541 133.28 196.505 133.5L196.093 133.496C196.133 133.06 196.505 132.804 197.021 132.804ZM196.441 134.4C196.441 134.612 196.609 134.736 196.889 134.736C197.201 134.736 197.505 134.548 197.513 134.304L197.517 134.028H197.057C196.733 134.028 196.441 134.104 196.441 134.4ZM198.44 131.952H198.868V135H198.44V131.952ZM201.105 134.388C201.105 134.816 200.713 135.04 200.189 135.04C199.653 135.04 199.293 134.804 199.257 134.376H199.681C199.705 134.608 199.917 134.756 200.197 134.756C200.457 134.756 200.657 134.62 200.657 134.428C200.657 134.228 200.509 134.152 200.121 134.092C199.585 134.016 199.301 133.864 199.301 133.456C199.301 133.044 199.697 132.8 200.165 132.8C200.641 132.8 200.985 132.996 201.049 133.412H200.621C200.581 133.212 200.409 133.112 200.169 133.112C199.921 133.112 199.737 133.232 199.737 133.424C199.737 133.608 199.897 133.708 200.269 133.764C200.809 133.84 201.105 133.968 201.105 134.388Z" fill="#757B8A"/>
<path d="M31.4473 125.89C31.4473 124.577 31.4473 123.923 31.7046 123.43C31.919 123.006 32.2675 122.669 32.6856 122.449C33.1788 122.191 33.8436 122.191 35.1462 122.191H38.7809C40.0943 122.191 40.7483 122.191 41.2415 122.449C41.665 122.663 42.0027 123.012 42.2225 123.43C42.4798 123.923 42.4798 124.588 42.4798 125.89V129.525C42.4798 130.838 42.4798 131.492 42.2225 131.986C42.0081 132.409 41.6596 132.747 41.2415 132.967C40.7483 133.224 40.0836 133.224 38.7809 133.224H35.1462C33.8328 133.224 33.1788 133.224 32.6856 132.967C32.2621 132.752 31.9244 132.404 31.7046 131.986C31.4473 131.492 31.4473 130.828 31.4473 129.525V125.89Z" fill="url(#paint1_linear_1354_2195)"/>
<path d="M39.1131 129.382L39.3597 127.849H37.8908V126.776C37.8908 126.347 38.0463 126.01 38.7164 126.01H39.4186V124.6C39.0219 124.541 38.5931 124.477 38.1964 124.477C36.9419 124.477 36.0467 125.243 36.0467 126.626V127.849H34.6689V129.382H36.0467V133.37H37.8854V129.382H39.1077V129.392L39.1131 129.382Z" fill="white"/>
<path d="M26.8148 125.062H21.3896V130.488H26.8148V125.062Z" stroke="#4437D0" stroke-width="1.27588" stroke-linecap="round"/>
<path d="M26.8148 140.973H21.3896V146.398H26.8148V140.973Z" stroke="#E7B840" stroke-width="1.27588" stroke-linecap="round"/>
<path d="M66.1849 125.062H60.7598V130.488H66.1849V125.062Z" stroke="#9CEAE8" stroke-width="1.60825" stroke-linecap="round"/>
<path d="M66.1849 140.973H60.7598V146.398H66.1849V140.973Z" stroke="#CF4431" stroke-width="1.27588" stroke-linecap="round"/>
<path d="M105.549 125.062H100.124V130.488H105.549V125.062Z" stroke="#4269D5" stroke-width="1.27588" stroke-linecap="round"/>
<path fill-rule="evenodd" clip-rule="evenodd" d="M42.2052 143.733C42.2052 143.341 42.1677 142.966 42.1087 142.602H36.9248V144.724H39.884C39.7607 145.411 39.3693 145.995 38.7796 146.386V147.764H40.5594C41.5994 146.804 42.1945 145.4 42.1945 143.717L42.2052 143.727V143.733Z" fill="#6082E2"/>
<path fill-rule="evenodd" clip-rule="evenodd" d="M36.9359 149.103C38.4208 149.103 39.6645 148.615 40.5705 147.768L38.7907 146.391C38.3029 146.718 37.6703 146.916 36.9305 146.916C35.4992 146.916 34.2876 145.946 33.8534 144.648H32.0146V146.069C32.9206 147.865 34.7808 149.103 36.9305 149.103H36.9359Z" fill="#6FA063"/>
<path fill-rule="evenodd" clip-rule="evenodd" d="M33.8586 144.655C33.7407 144.328 33.6871 143.969 33.6871 143.604C33.6871 143.24 33.7514 142.891 33.8586 142.553V141.133H32.0199C31.6446 141.878 31.4355 142.714 31.4355 143.604C31.4355 144.494 31.65 145.33 32.0199 146.075L33.8586 144.655Z" fill="#E4BC5A"/>
<path fill-rule="evenodd" clip-rule="evenodd" d="M36.9364 140.291C37.7458 140.291 38.4642 140.565 39.0324 141.117L40.6085 139.541C39.6597 138.651 38.4106 138.109 36.9256 138.109C34.776 138.109 32.9157 139.348 32.0098 141.144L33.8485 142.564C34.2828 141.267 35.4943 140.297 36.9256 140.297L36.9364 140.286V140.291Z" fill="#C25947"/>
<path d="M73.3309 129.257C73.3899 128.731 73.6097 128.437 74.0225 128.131C74.6068 127.724 75.3359 127.954 75.3359 127.954V126.582C75.5128 126.582 75.6897 126.582 75.8612 126.619V128.388C75.8612 128.388 75.1375 128.152 74.5478 128.565C74.1404 128.871 73.926 129.16 73.8563 129.691C73.8563 129.97 73.9045 130.345 74.1619 130.672C74.1029 130.634 74.0332 130.602 73.9742 130.565C73.4221 130.2 73.3309 129.653 73.3309 129.267V129.257ZM78.8687 124.035C78.472 123.59 78.3165 123.156 78.2575 122.84H78.7615C78.7615 122.84 78.6542 123.66 79.394 124.453C79.1957 124.336 79.0188 124.196 78.858 124.035H78.8687ZM81.3025 125.274V127.005C81.3025 127.005 80.6592 126.984 80.1767 126.855C79.512 126.689 79.0885 126.421 79.0885 126.421C79.0885 126.421 78.7936 126.233 78.7722 126.223V129.804C78.7722 130.002 78.7132 130.506 78.5524 130.919C78.3326 131.455 78.0002 131.819 77.9412 131.889C77.9412 131.889 77.5338 132.371 76.8155 132.698C76.1722 132.988 75.5986 132.977 75.4217 132.988C75.4217 132.988 74.4406 133.025 73.5507 132.452C73.3631 132.323 73.1755 132.184 73.0146 132.018C73.9045 132.591 74.8856 132.554 74.8856 132.554C75.0625 132.554 75.62 132.554 76.2794 132.259C76.9924 131.932 77.4052 131.449 77.4052 131.449C77.4641 131.38 77.8019 131.015 78.0163 130.479C78.1825 130.072 78.2361 129.568 78.2361 129.369V125.788L78.5524 125.987C78.5524 125.987 78.9866 126.244 79.6406 126.421C80.1231 126.539 80.7664 126.571 80.7664 126.571V125.215C80.9916 125.263 81.1738 125.274 81.2918 125.263L81.3025 125.274Z" fill="#CF5561"/>
<path d="M80.7662 125.23V126.587C80.7662 126.587 80.1228 126.565 79.6404 126.436C78.9756 126.27 78.5521 126.002 78.5521 126.002C78.5521 126.002 78.2573 125.815 78.2358 125.804V129.385C78.2358 129.583 78.1769 130.087 78.016 130.495C77.7909 131.031 77.4639 131.395 77.4049 131.465C77.4049 131.465 76.9975 131.947 76.2791 132.274C75.6358 132.569 75.0622 132.553 74.8853 132.569C74.8853 132.569 73.9043 132.607 73.0144 132.033C72.9233 131.942 72.8268 131.845 72.7464 131.738C72.4676 131.401 72.2907 130.988 72.2424 130.875C72.1727 130.677 72.0173 130.184 72.0441 129.717C72.0816 128.886 72.3711 128.382 72.4515 128.254C72.6499 127.9 72.9179 127.6 73.2342 127.326C73.513 127.101 73.8292 126.93 74.1723 126.801C74.5369 126.651 74.9336 126.576 75.3303 126.565V127.937C75.3303 127.937 74.6066 127.702 74.0169 128.114C73.6095 128.42 73.395 128.709 73.3253 129.24C73.3253 129.626 73.4165 130.178 73.9686 130.537C74.0276 130.575 74.0973 130.607 74.1563 130.645C74.2527 130.773 74.3653 130.881 74.494 130.961C75.0193 131.299 75.4643 131.325 76.0379 131.1C76.4132 130.95 76.7026 130.618 76.8367 130.259C76.9171 130.039 76.9171 129.803 76.9171 129.567V122.812H78.2412C78.3002 123.129 78.4503 123.574 78.8523 124.008C79.0185 124.174 79.1901 124.324 79.3884 124.442C79.4474 124.501 79.7422 124.807 80.1282 124.978C80.3266 125.075 80.5356 125.144 80.7501 125.187L80.7608 125.236L80.7662 125.23Z" fill="white"/>
<path d="M71.7275 130.465L71.7651 130.556C71.7651 130.556 71.7543 130.508 71.7275 130.465Z" fill="#9CEAE8"/>
<path d="M74.1723 126.814C73.8346 126.942 73.5183 127.119 73.2341 127.339C72.9179 127.596 72.6498 127.912 72.4515 128.266C72.371 128.395 72.0762 128.899 72.044 129.73C72.0226 130.196 72.1727 130.689 72.2424 130.888C72.2906 131.006 72.4622 131.413 72.7463 131.751C72.8267 131.858 72.9232 131.949 73.0143 132.03C72.7088 131.831 72.4515 131.595 72.2209 131.317C71.9422 130.979 71.7653 130.566 71.717 130.448C71.6473 130.25 71.4972 129.757 71.5187 129.29C71.5562 128.459 71.8457 127.955 71.9261 127.827C72.1244 127.473 72.3925 127.173 72.7088 126.899C72.9875 126.679 73.3038 126.492 73.6469 126.374C73.856 126.294 74.0812 126.224 74.3009 126.186C74.6387 126.127 74.9925 126.127 75.3302 126.176V126.562C74.9335 126.562 74.5315 126.642 74.1723 126.797V126.808V126.814Z" fill="#9CEAE8"/>
<path d="M78.2573 122.84H76.9332V129.595C76.9332 129.831 76.9332 130.061 76.8528 130.286C76.7241 130.651 76.4346 130.978 76.0594 131.128C75.4858 131.348 75.0408 131.326 74.5155 130.988C74.3868 130.908 74.2689 130.79 74.1777 130.672C74.6334 130.908 75.0301 130.892 75.534 130.71C75.9093 130.57 76.1988 130.227 76.3274 129.868C76.4078 129.648 76.4078 129.412 76.4078 129.177V122.422H78.2359C78.2359 122.422 78.2144 122.588 78.2573 122.845V122.84ZM80.7608 124.856V125.231C80.5518 125.183 80.3373 125.113 80.139 125.022C79.753 124.834 79.4581 124.539 79.3992 124.486C79.4689 124.534 79.5386 124.566 79.6083 124.604C80.0746 124.824 80.5303 124.899 80.7555 124.872V124.861L80.7608 124.856Z" fill="#9CEAE8"/>
<path d="M70.8594 141.545C70.8594 140.269 70.8594 139.636 71.106 139.154C71.315 138.747 71.6528 138.414 72.0602 138.2C72.5427 137.953 73.1806 137.953 74.4511 137.953H77.9786C79.2544 137.953 79.887 137.953 80.3695 138.2C80.7769 138.409 81.1093 138.747 81.3237 139.154C81.5703 139.636 81.5703 140.274 81.5703 141.545V145.072C81.5703 146.348 81.5703 146.981 81.3237 147.463C81.1146 147.871 80.7769 148.203 80.3695 148.417C79.887 148.664 79.2491 148.664 77.9786 148.664H74.4511C73.1753 148.664 72.5427 148.664 72.0602 148.417C71.6528 148.208 71.3204 147.871 71.106 147.463C70.8594 146.981 70.8594 146.343 70.8594 145.072V141.545Z" fill="#CF4431"/>
<path fill-rule="evenodd" clip-rule="evenodd" d="M79.3613 140.588C79.7044 140.685 79.9778 140.947 80.0689 141.296C80.2351 141.923 80.2351 143.236 80.2351 143.236C80.2351 143.236 80.2351 144.544 80.0689 145.172C79.9724 145.515 79.7097 145.788 79.3613 145.879C78.7341 146.045 76.2198 146.045 76.2198 146.045C76.2198 146.045 73.711 146.045 73.073 145.879C72.7299 145.783 72.4565 145.52 72.3654 145.172C72.1992 144.544 72.1992 143.236 72.1992 143.236C72.1992 143.236 72.1992 141.928 72.3654 141.301C72.4619 140.958 72.7353 140.674 73.073 140.588C73.7003 140.422 76.2198 140.422 76.2198 140.422C76.2198 140.422 78.7394 140.422 79.3613 140.588ZM77.5064 143.188L75.4104 144.394V141.982L77.5064 143.183V143.188Z" fill="white"/>
<path d="M110.181 125.957C110.181 124.643 110.181 123.989 110.438 123.496C110.663 123.073 111.001 122.735 111.419 122.515C111.912 122.258 112.566 122.258 113.88 122.258H117.514C118.828 122.258 119.482 122.258 119.975 122.515C120.398 122.73 120.736 123.078 120.956 123.496C121.213 123.989 121.213 124.654 121.213 125.957V129.591C121.213 130.905 121.213 131.559 120.956 132.052C120.731 132.476 120.393 132.813 119.975 133.033C119.482 133.29 118.828 133.29 117.514 133.29H113.88C112.566 133.29 111.912 133.29 111.419 133.033C110.996 132.819 110.658 132.47 110.438 132.052C110.181 131.559 110.181 130.894 110.181 129.591V125.957Z" fill="#FAF772"/>
<path d="M119.095 129.613C117.868 129.018 117.675 128.101 117.669 128.037C117.659 127.956 117.642 127.887 117.734 127.806C117.814 127.726 118.211 127.485 118.318 127.41C118.5 127.286 118.575 127.163 118.516 127.007C118.473 126.9 118.377 126.857 118.275 126.857C118.243 126.857 118.211 126.857 118.179 126.868C117.98 126.911 117.793 127.007 117.685 127.034H117.642C117.583 127.034 117.562 127.007 117.567 126.938C117.583 126.723 117.61 126.3 117.578 125.914C117.53 125.378 117.353 125.115 117.155 124.874C117.058 124.756 116.592 124.273 115.702 124.273C114.812 124.273 114.356 124.761 114.249 124.874C114.045 125.115 113.868 125.378 113.826 125.914C113.793 126.3 113.826 126.723 113.836 126.938C113.836 127.002 113.82 127.034 113.761 127.034H113.718C113.611 127.007 113.423 126.911 113.225 126.868C113.193 126.868 113.161 126.857 113.123 126.857C113.016 126.857 112.925 126.9 112.882 127.007C112.823 127.163 112.909 127.286 113.08 127.41C113.188 127.485 113.574 127.726 113.665 127.806C113.756 127.887 113.74 127.956 113.729 128.037C113.718 128.101 113.525 129.018 112.303 129.613C112.228 129.645 112.105 129.72 112.33 129.843C112.668 130.031 112.893 130.01 113.064 130.122C113.214 130.219 113.129 130.428 113.231 130.503C113.365 130.594 113.761 130.503 114.265 130.658C114.689 130.798 114.951 131.194 115.702 131.194C116.452 131.194 116.715 130.798 117.139 130.658C117.642 130.492 118.039 130.594 118.173 130.503C118.28 130.428 118.2 130.224 118.339 130.122C118.511 130.004 118.736 130.031 119.074 129.843C119.288 129.725 119.165 129.656 119.101 129.618V129.607L119.095 129.613Z" fill="white"/>
<path d="M138.03 85.1445C139.032 85.1445 139.842 85.9594 139.842 86.9565V100.83C139.842 101.833 139.027 102.642 138.03 102.642C137.027 102.642 136.218 101.827 136.218 100.83V86.9565C136.218 85.954 137.033 85.1445 138.03 85.1445Z" fill="#4437D0"/>
<path d="M151.654 83.2227C152.656 83.2227 153.466 84.0375 153.466 85.0346V100.833C153.466 101.835 152.651 102.645 151.654 102.645C150.651 102.645 149.842 101.83 149.842 100.833V85.0346C149.842 84.0321 150.657 83.2227 151.654 83.2227Z" fill="#E7B840"/>
<path d="M165.466 77.6445C166.572 77.6445 167.466 78.3055 167.466 79.1234V101.166C167.466 101.984 166.572 102.645 165.466 102.645C164.36 102.645 163.466 101.984 163.466 101.166V79.1234C163.466 78.3055 164.36 77.6445 165.466 77.6445Z" fill="#E7B840"/>
<path d="M179.466 73.6445C180.572 73.6445 181.466 74.4112 181.466 75.36V100.929C181.466 101.878 180.572 102.645 179.466 102.645C178.36 102.645 177.466 101.878 177.466 100.929V75.36C177.466 74.4112 178.36 73.6445 179.466 73.6445Z" fill="#E7B840"/>
<path d="M193.278 70.1992C194.28 70.1992 195.09 71.0141 195.09 72.0112V100.831C195.09 101.833 194.275 102.643 193.278 102.643C192.275 102.643 191.466 101.828 191.466 100.831V72.0112C191.466 71.0087 192.281 70.1992 193.278 70.1992Z" fill="#4437D0"/>
<path d="M207.09 66.6445C208.196 66.6445 209.09 67.5487 209.09 68.6551V100.634C209.09 101.746 208.19 102.645 207.09 102.645C205.983 102.645 205.09 101.74 205.09 100.634V68.6551C205.09 67.5427 205.989 66.6445 207.09 66.6445Z" fill="#E7B840"/>
<path d="M220.902 57.8164C221.904 57.8164 222.714 58.6313 222.714 59.6284V100.832C222.714 101.834 221.899 102.644 220.902 102.644C219.899 102.644 219.09 101.829 219.09 100.832V59.6284C219.09 58.6259 219.905 57.8164 220.902 57.8164Z" fill="#4437D0"/>
<defs>
<linearGradient id="paint0_linear_1354_2195" x1="15.7178" y1="85.1442" x2="160.857" y2="85.1442" gradientUnits="userSpaceOnUse">
<stop stop-color="#AAAAAA"/>
<stop offset="0.06" stop-color="#B7B7B7" stop-opacity="0.84"/>
<stop offset="0.15" stop-color="#CACACA" stop-opacity="0.62"/>
<stop offset="0.24" stop-color="#DADADA" stop-opacity="0.42"/>
<stop offset="0.35" stop-color="#E8E8E8" stop-opacity="0.27"/>
<stop offset="0.46" stop-color="#F2F2F2" stop-opacity="0.15"/>
<stop offset="0.59" stop-color="#F9F9F9" stop-opacity="0.06"/>
<stop offset="0.74" stop-color="#FDFDFD" stop-opacity="0.01"/>
<stop offset="1" stop-color="white" stop-opacity="0"/>
</linearGradient>
<linearGradient id="paint1_linear_1354_2195" x1="36.9636" y1="132.902" x2="36.9636" y2="122.191" gradientUnits="userSpaceOnUse">
<stop stop-color="#3B63CE"/>
<stop offset="1" stop-color="#6EA9EF"/>
</linearGradient>
</defs>
</svg>
