<svg width="137" height="50" viewBox="0 0 137 50" fill="none" xmlns="http://www.w3.org/2000/svg">
<g id="Asset 1 1" clip-path="url(#clip0_1481_1994)">
<g id="Layer 1">
<g id="Group">
<path id="Vector" d="M122.922 14.1094C115.355 14.1094 109.22 20.204 109.22 27.7242C109.22 31.4815 110.755 34.8852 113.233 37.3496C115.713 39.8112 119.137 41.3362 122.922 41.3362C126.707 41.3362 130.13 39.8112 132.611 37.3496C135.092 34.8852 136.624 31.4843 136.624 27.7242V14.1094H122.922ZM128.403 27.7242C128.403 29.2271 127.789 30.5891 126.796 31.5754C125.803 32.5617 124.432 33.1723 122.919 33.1723V27.7269H117.438C117.438 24.7183 119.893 22.2816 122.919 22.2816H128.401V27.7297L128.403 27.7242Z" fill="#4832D9"/>
<path id="Vector_2" d="M70.8661 14.111V25.0045C70.8661 25.9328 70.7744 26.8389 70.5936 27.7147C70.0485 30.3863 68.7192 32.7733 66.8503 34.6299C64.3724 37.0915 60.9461 38.6165 57.1611 38.6165V33.1739C56.7718 33.6878 56.3463 34.174 55.8902 34.6299C53.4095 37.0915 49.986 38.6165 46.201 38.6165V33.1739C45.8117 33.6878 45.3862 34.174 44.9301 34.6299C42.4522 37.0915 39.0259 38.6165 35.2409 38.6165H29.765V33.1656C29.3729 33.6823 28.9474 34.1713 28.4885 34.6271C26.0078 37.0915 22.5844 38.6138 18.7993 38.6138H13.3235C9.54124 38.6138 6.11221 37.0915 3.63429 34.6271C1.15638 32.1628 -0.375977 28.7618 -0.375977 25.0045V20.4515C-0.375977 18.291 1.01733 16.3737 3.08087 15.6885L7.8448 14.111V25.0045C7.8448 26.5074 8.45663 27.8695 9.44947 28.853C10.4395 29.8393 11.8106 30.4499 13.3262 30.4499H18.8021C20.315 30.4499 21.6861 29.8393 22.6789 28.853C23.6717 27.8695 24.2864 26.5074 24.2864 25.0045V20.4515C24.2864 18.291 25.6797 16.3709 27.7432 15.6885L32.5071 14.111V25.0045C32.5071 26.9412 32.0983 28.7812 31.3641 30.4499H35.2465C36.7594 30.4499 38.1304 29.8393 39.1232 28.853C40.1161 27.8695 40.7307 26.5074 40.7307 25.0017V20.4487C40.7307 18.2883 42.124 16.3709 44.1848 15.6858L48.9487 14.1055V25.0017C48.9487 26.8334 48.5844 28.5795 47.9225 30.1736C48.7457 29.9056 49.4827 29.447 50.0806 28.853C51.0734 27.8695 51.688 26.5074 51.688 25.0017V20.4487C51.688 18.2883 53.0813 16.3682 55.1449 15.6858L59.9088 14.1082V25.0017C59.9088 26.8334 59.5445 28.5795 58.8826 30.1736C59.7058 29.9028 60.4428 29.447 61.0407 28.8502C62.0335 27.8667 62.6481 26.5047 62.6481 24.999V20.446C62.6481 18.2855 64.0414 16.3654 66.105 15.683L70.8689 14.1055L70.8661 14.111Z" fill="#4832D9"/>
<path id="Vector_3" d="M100.999 14.1093L113.981 9.81044C116.044 9.12804 117.438 7.20794 117.438 5.04747V0.5L84.5628 11.388V19.5519H92.7836C95.8094 19.5519 98.265 21.9914 98.265 25C98.265 26.5029 97.6504 27.865 96.6576 28.8485C95.6675 29.8348 94.2937 30.4454 92.7836 30.4454H87.3077C85.7948 30.4454 84.4237 29.8348 83.4337 28.8485C82.4409 27.865 81.8262 26.5002 81.8262 25V0.5L77.0623 2.07753C74.9988 2.75992 73.6055 4.68003 73.6055 6.84049V25C73.6055 28.7573 75.1406 32.161 77.6185 34.6254C80.0964 37.087 83.5227 38.612 87.3077 38.612H92.7836C96.5658 38.612 99.9921 37.087 102.473 34.6254C104.951 32.1638 106.486 28.7601 106.486 25C106.486 20.5465 104.333 16.5902 101.004 14.1065L100.999 14.1093Z" fill="#4832D9"/>
<path id="Vector_4" d="M16.0625 49.4987C18.3326 49.4987 20.1729 47.6705 20.1729 45.4154C20.1729 43.1602 18.3326 41.332 16.0625 41.332C13.7924 41.332 11.9521 43.1602 11.9521 45.4154C11.9521 47.6705 13.7924 49.4987 16.0625 49.4987Z" fill="#4832D9"/>
</g>
</g>
</g>
<defs>
<clipPath id="clip0_1481_1994">
<rect width="137" height="49" fill="white" transform="translate(0 0.5)"/>
</clipPath>
</defs>
</svg>
