<svg width="245" height="156" viewBox="0 0 245 156" fill="none" xmlns="http://www.w3.org/2000/svg">
<mask id="mask0_776_3842" style="mask-type:luminance" maskUnits="userSpaceOnUse" x="0" y="0" width="173" height="156">
<path d="M172.147 0H0V156H172.147V0Z" fill="white"/>
</mask>
<g mask="url(#mask0_776_3842)">
<path d="M165.993 0H6.15423C2.75546 0 0 2.75546 0 6.15423V149.84C0 153.239 2.75546 155.995 6.15423 155.995H165.987C169.386 155.995 172.141 153.239 172.141 149.84V6.15423C172.141 2.75546 169.386 0 165.987 0H165.993Z" fill="white"/>
<path d="M0 6.15423C0 2.7501 2.7501 0 6.15423 0H165.993C169.391 0 172.147 2.7501 172.147 6.15423V9.23134H0V6.15423Z" fill="#6262E9"/>
<path d="M10.7158 5.84879C11.4128 5.84879 11.981 5.29663 11.981 4.6158C11.981 3.93498 11.4181 3.38281 10.7158 3.38281C10.0136 3.38281 9.45605 3.93498 9.45605 4.6158C9.45605 5.29663 10.0189 5.84879 10.7158 5.84879Z" fill="#C24639"/>
<path d="M15.4497 5.84879C16.1466 5.84879 16.7149 5.29663 16.7149 4.6158C16.7149 3.93498 16.152 3.38281 15.4497 3.38281C14.7475 3.38281 14.1846 3.93498 14.1846 4.6158C14.1846 5.29663 14.7475 5.84879 15.4497 5.84879Z" fill="#ECCD6A"/>
<path d="M20.1724 5.84879C20.8693 5.84879 21.4375 5.29663 21.4375 4.6158C21.4375 3.93498 20.8746 3.38281 20.1724 3.38281C19.4701 3.38281 18.9072 3.93498 18.9072 4.6158C18.9072 5.29663 19.4701 5.84879 20.1724 5.84879Z" fill="#ADCA5E"/>
<path d="M15.4502 114.249V54.8086" stroke="#E6E8EC" stroke-width="0.536082"/>
<path d="M39.7129 114.249V54.8086" stroke="#E6E8EC" stroke-width="0.536082"/>
<path d="M63.9756 114.249V54.8086" stroke="#E6E8EC" stroke-width="0.536082"/>
<path d="M88.2393 114.249V54.8086" stroke="#E6E8EC" stroke-width="0.536082"/>
<path d="M112.503 114.249V54.8086" stroke="#E6E8EC" stroke-width="0.536082"/>
<path d="M136.766 114.249V54.8086" stroke="#E6E8EC" stroke-width="0.536082"/>
<path d="M161.028 114.249V54.8086" stroke="#E6E8EC" stroke-width="0.536082"/>
<path d="M15.7178 102.776L31.1677 93.4213L69.1169 90.7945L80.884 78.7916L90.512 80.2498L106.884 64.4139C107.206 64.3067 119.616 68.7455 119.616 68.7455L160.867 56.6836L160.251 110.394C160.251 112.168 158.809 113.61 157.034 113.61H18.9343C17.1598 113.61 15.7178 112.168 15.7178 110.394V104.55C15.7178 103.446 16.2807 102.422 17.2134 101.832" fill="url(#paint0_linear_776_3842)" fill-opacity="0.5"/>
<path d="M15.7178 102.776L31.1677 93.4213L69.1169 90.7945L80.884 78.7916L90.512 80.2498L106.884 64.4139C107.206 64.3067 119.616 68.7455 119.616 68.7455L160.867 56.6836" stroke="#4437D0" stroke-width="0.536082" stroke-linecap="round"/>
<path d="M15.7178 102.777L27.533 85.6866L37.6221 88.7048C37.8044 88.6565 37.9813 88.5922 38.1528 88.5118L51.3297 78.9588L74.4992 79.7307L83.7359 66.7951L88.0728 60.9303C88.357 60.5444 101.641 53.452 101.973 53.3984L114.153 33.9922L161.028 52.9213" stroke="#4269D5" stroke-width="0.536082" stroke-linecap="round" stroke-linejoin="round"/>
<path d="M162.385 50.9479L143.745 42.4295C143.579 42.3545 143.391 42.3706 143.241 42.4724L116.11 60.9458C115.879 61.1013 115.569 61.0477 115.408 60.8279L102.231 43.0085C102 42.6922 101.512 42.7458 101.346 43.0997L89.7829 68.2419C89.6596 68.5153 89.3326 68.6225 89.07 68.4778L77.2761 62.0555C77.1904 62.0073 77.0992 61.9858 77.0027 61.9912C75.5339 62.0716 65.3537 63.8407 64.0242 64.157C63.9277 64.1784 63.8258 64.1731 63.7293 64.1355L42.8221 56.3516C42.5862 56.2658 42.3236 56.357 42.2003 56.5714L15.7285 102.766" stroke="#CF4431" stroke-width="0.536082" stroke-linecap="round" stroke-linejoin="round"/>
<path d="M15.7178 102.776L30.9747 70.606C31.5376 69.4159 33.0118 68.9763 34.1322 69.6625L58.8939 84.7746C60.0357 85.4715 61.5367 85.0051 62.0782 83.7829C64.6621 77.9396 71.3792 62.7148 73.4271 58.0616C73.7916 57.2307 74.6279 56.7107 75.5339 56.7429C79.8976 56.8983 92.3883 57.3433 94.1627 57.3754C94.3182 57.3754 94.4683 57.3969 94.6184 57.4344L119.616 63.2134C120.565 63.4332 121.546 63.0097 122.034 62.1627L138.625 33.5734C139.274 32.453 140.748 32.126 141.81 32.8657L159.361 45.0616" stroke="#9CEAE8" stroke-width="0.536082" stroke-linecap="round"/>
<path d="M15.8311 103.46L28.7238 85.6939L33.6236 91.3281L50.2636 75.6477L69.9968 94.8341L80.0216 85.6939L93.1073 86.6213L105.555 97.4556L112.358 62.4976L127.803 75.6477L163.259 48.2539" stroke="#E7B840" stroke-width="0.536082" stroke-linecap="round" stroke-linejoin="round"/>
</g>
<path d="M231.013 32.0898H109.543C107.591 32.0898 106.01 33.6715 106.01 35.6226V109.548C106.01 111.5 107.591 113.081 109.543 113.081H231.013C232.965 113.081 234.546 111.5 234.546 109.548V35.6226C234.546 33.6715 232.965 32.0898 231.013 32.0898Z" fill="#FCFCFC"/>
<path d="M202.441 40.8478V41.4064C202.441 41.5235 202.477 41.6183 202.55 41.6909C202.625 41.7635 202.721 41.7999 202.838 41.7999H204.113C204.209 41.7999 204.279 41.7741 204.324 41.7226C204.368 41.6687 204.39 41.5973 204.39 41.5083V40.3911H204.728V41.6453C204.728 41.739 204.705 41.8233 204.661 41.8982C204.619 41.9732 204.56 42.0329 204.485 42.0774C204.41 42.1195 204.327 42.1406 204.236 42.1406H202.838C202.699 42.1406 202.574 42.109 202.462 42.0458C202.349 41.9825 202.262 41.8947 202.198 41.7823C202.135 41.6699 202.103 41.5446 202.103 41.4064V40.8478H202.441ZM203.073 40.3876C203.014 40.3876 202.964 40.3665 202.922 40.3243C202.882 40.2822 202.862 40.233 202.862 40.1768C202.862 40.1206 202.882 40.0714 202.922 40.0292C202.964 39.9871 203.014 39.966 203.073 39.966C203.129 39.966 203.177 39.9871 203.217 40.0292C203.259 40.0714 203.28 40.1206 203.28 40.1768C203.28 40.233 203.259 40.2822 203.217 40.3243C203.177 40.3665 203.129 40.3876 203.073 40.3876ZM203.702 40.3876C203.646 40.3876 203.596 40.3665 203.554 40.3243C203.512 40.2822 203.491 40.233 203.491 40.1768C203.491 40.1206 203.512 40.0714 203.554 40.0292C203.596 39.9871 203.646 39.966 203.702 39.966C203.76 39.966 203.81 39.9871 203.849 40.0292C203.892 40.0714 203.913 40.1206 203.913 40.1768C203.913 40.233 203.892 40.2822 203.849 40.3243C203.81 40.3665 203.76 40.3876 203.702 40.3876ZM205.517 39.6955V41.6347C205.517 41.6886 205.532 41.7296 205.563 41.7577C205.593 41.7858 205.631 41.7999 205.675 41.7999H205.882V42.1406H205.57C205.497 42.1406 205.43 42.1242 205.369 42.0914C205.311 42.0563 205.264 42.0095 205.229 41.9509C205.194 41.89 205.176 41.8233 205.176 41.7507V39.6955H205.517ZM208.046 41.7999V42.1406H207.378C207.289 42.1406 207.207 42.1242 207.132 42.0914C207.057 42.0563 206.992 42.0048 206.935 41.9369C206.79 42.0727 206.632 42.1406 206.461 42.1406H205.85V41.7999H206.38C206.432 41.7999 206.495 41.7917 206.57 41.7753C206.645 41.7589 206.709 41.7354 206.763 41.705L206.134 40.8162V40.5562C206.291 40.493 206.433 40.4461 206.56 40.4157C206.688 40.3852 206.822 40.37 206.96 40.37C207.117 40.37 207.254 40.3911 207.371 40.4332C207.491 40.4731 207.582 40.5316 207.645 40.6089C207.711 40.6838 207.743 40.774 207.743 40.8794C207.743 40.945 207.731 41.0164 207.705 41.0937C207.667 41.1991 207.621 41.2916 207.564 41.3713C207.508 41.4485 207.435 41.5329 207.346 41.6242L207.255 41.712C207.302 41.7401 207.352 41.7624 207.406 41.7788C207.462 41.7928 207.522 41.7999 207.585 41.7999H208.046ZM206.974 41.5504L207.037 41.4837C207.103 41.4134 207.159 41.3443 207.206 41.2764C207.255 41.2061 207.295 41.1277 207.325 41.041L207.329 41.0305C207.336 41.0094 207.342 40.9883 207.346 40.9672C207.351 40.9462 207.354 40.9263 207.354 40.9075C207.354 40.8373 207.32 40.7834 207.252 40.7459C207.184 40.7061 207.083 40.6862 206.949 40.6862C206.868 40.6862 206.782 40.6956 206.693 40.7143C206.606 40.7307 206.523 40.7553 206.444 40.7881V40.8091L206.974 41.5504ZM205.706 42.0844V41.8561L205.853 41.7999V42.1406L205.706 42.0844ZM208.336 41.7999C208.432 41.7999 208.501 41.7741 208.543 41.7226C208.588 41.6687 208.61 41.5973 208.61 41.5083V40.4789H208.951V41.3853C208.951 41.5797 208.904 41.7542 208.81 41.9088C208.719 42.0633 208.56 42.1406 208.332 42.1406H208.02V41.7999H208.336ZM209.179 42.1406C209.076 42.1406 208.981 42.1102 208.894 42.0493C208.808 41.9884 208.739 41.9111 208.687 41.8174C208.638 41.7214 208.613 41.6265 208.613 41.5329L208.61 40.4789H208.947V41.5083C208.947 41.5973 208.969 41.6687 209.014 41.7226C209.061 41.7741 209.131 41.7999 209.225 41.7999H209.502V42.1406H209.179ZM208.02 41.7999V42.1406L207.872 42.0844V41.8561L208.02 41.7999ZM208.41 42.8854C208.353 42.8854 208.304 42.8643 208.262 42.8222C208.22 42.78 208.199 42.7308 208.199 42.6746C208.199 42.6184 208.22 42.5692 208.262 42.5271C208.304 42.4849 208.353 42.4638 208.41 42.4638C208.468 42.4638 208.517 42.4849 208.557 42.5271C208.599 42.5692 208.62 42.6184 208.62 42.6746C208.62 42.7308 208.599 42.78 208.557 42.8222C208.517 42.8643 208.468 42.8854 208.41 42.8854ZM209.039 42.8854C208.982 42.8854 208.933 42.8643 208.891 42.8222C208.849 42.78 208.828 42.7308 208.828 42.6746C208.828 42.6184 208.849 42.5692 208.891 42.5271C208.933 42.4849 208.982 42.4638 209.039 42.4638C209.097 42.4638 209.146 42.4849 209.186 42.5271C209.228 42.5692 209.249 42.6184 209.249 42.6746C209.249 42.7308 209.228 42.78 209.186 42.8222C209.146 42.8643 209.097 42.8854 209.039 42.8854ZM209.656 41.7999C209.752 41.7999 209.821 41.7741 209.863 41.7226C209.908 41.6687 209.93 41.5973 209.93 41.5083V40.4789H210.267V41.3853C210.267 41.5797 210.221 41.7542 210.13 41.9088C210.039 42.0633 209.879 42.1406 209.652 42.1406H209.455V41.7999H209.656ZM210.499 42.1406C210.396 42.1406 210.301 42.1102 210.214 42.0493C210.128 41.9884 210.059 41.9111 210.007 41.8174C209.958 41.7214 209.932 41.6265 209.93 41.5329L209.926 40.4789H210.267V41.5083C210.267 41.5973 210.289 41.6687 210.334 41.7226C210.378 41.7741 210.449 41.7999 210.545 41.7999H210.727V42.1406H210.499ZM209.455 41.7999V42.1406L209.308 42.0844V41.8561L209.455 41.7999ZM210.091 42.9416C210.035 42.9416 209.986 42.9205 209.944 42.8784C209.902 42.8362 209.881 42.787 209.881 42.7308C209.881 42.6746 209.902 42.6254 209.944 42.5833C209.986 42.5411 210.035 42.52 210.091 42.52C210.15 42.52 210.199 42.5411 210.239 42.5833C210.281 42.6254 210.302 42.6746 210.302 42.7308C210.302 42.787 210.281 42.8362 210.239 42.8784C210.199 42.9205 210.15 42.9416 210.091 42.9416ZM212.959 41.7999V42.1406H212.843C212.738 42.1406 212.644 42.1172 212.562 42.0704C212.48 42.0212 212.417 41.9556 212.372 41.8736C212.312 41.9509 212.235 42.013 212.144 42.0598C212.055 42.1043 211.959 42.1266 211.856 42.1266C211.741 42.1266 211.632 42.1067 211.529 42.0668C211.426 42.027 211.336 41.9708 211.259 41.8982C211.212 41.9732 211.148 42.0329 211.066 42.0774C210.984 42.1195 210.893 42.1406 210.795 42.1406H210.662L210.514 42.0844V41.8561L210.662 41.7999H210.795C210.872 41.7999 210.936 41.7753 210.985 41.7261C211.034 41.6769 211.059 41.6137 211.059 41.5364V41.0972C211.059 40.959 211.09 40.8337 211.153 40.7213C211.219 40.6066 211.308 40.5176 211.42 40.4543C211.535 40.3887 211.662 40.356 211.8 40.356H211.838C211.977 40.356 212.102 40.3887 212.214 40.4543C212.329 40.5176 212.418 40.6066 212.481 40.7213C212.547 40.8337 212.58 40.959 212.58 41.0972V41.5364C212.58 41.6137 212.604 41.6769 212.654 41.7261C212.703 41.7753 212.766 41.7999 212.843 41.7999H212.959ZM211.856 41.7893C211.924 41.7893 211.987 41.7717 212.046 41.7366C212.107 41.6991 212.153 41.65 212.186 41.5891C212.221 41.5258 212.239 41.4579 212.239 41.3853V41.0972C212.239 40.9778 212.201 40.8806 212.127 40.8056C212.052 40.7307 211.956 40.6932 211.838 40.6932H211.8C211.723 40.6932 211.653 40.7108 211.593 40.7459C211.532 40.7787 211.484 40.8267 211.449 40.89C211.416 40.9508 211.399 41.0199 211.399 41.0972V41.5715C211.451 41.6394 211.516 41.6933 211.596 41.7331C211.676 41.7706 211.762 41.7893 211.856 41.7893ZM212.921 41.7999H213.132C213.174 41.7999 213.21 41.7858 213.24 41.7577C213.271 41.7296 213.286 41.6886 213.286 41.6347V39.6955H213.627V41.7507C213.627 41.8233 213.609 41.89 213.574 41.9509C213.539 42.0095 213.492 42.0563 213.434 42.0914C213.375 42.1242 213.31 42.1406 213.237 42.1406H212.921V41.7999ZM212.777 42.0844V41.8561L212.924 41.7999V42.1406L212.777 42.0844ZM214.119 42.1406V39.6955H214.46V42.1406H214.119ZM217.283 41.7999V42.1406H216.998V41.7999H217.283ZM215.835 42.5692C216.06 42.602 216.239 42.6102 216.373 42.5938C216.506 42.5774 216.601 42.5376 216.658 42.4744C216.716 42.4135 216.745 42.3292 216.745 42.2214V41.6593L217.083 41.5223V42.2987C217.083 42.4627 217.035 42.5985 216.939 42.7062C216.845 42.814 216.706 42.8842 216.521 42.917C216.335 42.9498 216.107 42.9393 215.835 42.8854V42.5692ZM216.285 42.1371C216.156 42.1371 216.037 42.1043 215.927 42.0387C215.817 41.9708 215.729 41.8795 215.663 41.7647C215.598 41.65 215.565 41.5258 215.565 41.3923V41.1007C215.565 40.9602 215.597 40.8337 215.66 40.7213C215.725 40.6066 215.814 40.5176 215.927 40.4543C216.042 40.3887 216.168 40.356 216.306 40.356H216.345C216.483 40.356 216.608 40.3887 216.721 40.4543C216.836 40.5176 216.925 40.6066 216.988 40.7213C217.051 40.8337 217.083 40.9602 217.083 41.1007V41.5715L216.745 41.7015V41.1007C216.745 40.9813 216.708 40.8841 216.633 40.8091C216.558 40.7342 216.462 40.6967 216.345 40.6967H216.306C216.229 40.6967 216.16 40.7143 216.099 40.7494C216.038 40.7822 215.99 40.8291 215.955 40.89C215.922 40.9508 215.906 41.0211 215.906 41.1007V41.3923C215.906 41.4649 215.922 41.5329 215.955 41.5961C215.99 41.657 216.037 41.7062 216.095 41.7436C216.156 41.7788 216.22 41.7963 216.285 41.7963V42.1371ZM216.907 41.7963V42.1371H216.282V41.7963H216.907ZM219.557 41.7999V42.1406H219.441C219.335 42.1406 219.242 42.1172 219.16 42.0704C219.078 42.0212 219.014 41.9556 218.97 41.8736C218.909 41.9509 218.833 42.013 218.742 42.0598C218.653 42.1043 218.556 42.1266 218.453 42.1266C218.339 42.1266 218.23 42.1067 218.127 42.0668C218.024 42.027 217.933 41.9708 217.856 41.8982C217.809 41.9732 217.745 42.0329 217.663 42.0774C217.581 42.1195 217.491 42.1406 217.392 42.1406H217.259L217.111 42.0844V41.8561L217.259 41.7999H217.392C217.47 41.7999 217.533 41.7753 217.582 41.7261C217.631 41.6769 217.656 41.6137 217.656 41.5364V41.0972C217.656 40.959 217.688 40.8337 217.751 40.7213C217.816 40.6066 217.905 40.5176 218.018 40.4543C218.133 40.3887 218.259 40.356 218.397 40.356H218.436C218.574 40.356 218.699 40.3887 218.812 40.4543C218.927 40.5176 219.016 40.6066 219.079 40.7213C219.144 40.8337 219.177 40.959 219.177 41.0972V41.5364C219.177 41.6137 219.202 41.6769 219.251 41.7261C219.3 41.7753 219.363 41.7999 219.441 41.7999H219.557ZM218.453 41.7893C218.521 41.7893 218.585 41.7717 218.643 41.7366C218.704 41.6991 218.751 41.65 218.784 41.5891C218.819 41.5258 218.836 41.4579 218.836 41.3853V41.0972C218.836 40.9778 218.799 40.8806 218.724 40.8056C218.649 40.7307 218.553 40.6932 218.436 40.6932H218.397C218.32 40.6932 218.251 40.7108 218.19 40.7459C218.129 40.7787 218.081 40.8267 218.046 40.89C218.013 40.9508 217.997 41.0199 217.997 41.0972V41.5715C218.048 41.6394 218.114 41.6933 218.193 41.7331C218.273 41.7706 218.36 41.7893 218.453 41.7893ZM220.112 40.2295C220.056 40.2295 220.006 40.2096 219.964 40.1698C219.922 40.1276 219.901 40.0772 219.901 40.0187C219.901 39.9625 219.922 39.9145 219.964 39.8747C220.006 39.8325 220.056 39.8114 220.112 39.8114C220.17 39.8114 220.22 39.8325 220.259 39.8747C220.302 39.9145 220.323 39.9625 220.323 40.0187C220.323 40.0772 220.302 40.1276 220.259 40.1698C220.22 40.2096 220.17 40.2295 220.112 40.2295ZM219.469 41.7999H219.817C219.859 41.7999 219.895 41.7858 219.926 41.7577C219.958 41.7296 219.975 41.6886 219.975 41.6347V40.4754H220.312V41.7507C220.312 41.8233 220.295 41.89 220.259 41.9509C220.227 42.0095 220.18 42.0563 220.119 42.0914C220.06 42.1242 219.995 42.1406 219.922 42.1406H219.469V41.7999Z" fill="black"/>
<path d="M128.762 101.961H223.021" stroke="#E6E8EC" stroke-width="0.412783"/>
<path d="M128.762 91.7656H223.021" stroke="#E6E8EC" stroke-width="0.412783"/>
<path d="M128.762 81.0625H223.021" stroke="#E6E8EC" stroke-width="0.412783"/>
<path d="M128.762 70.8633H223.021" stroke="#E6E8EC" stroke-width="0.412783"/>
<path d="M128.762 61.168H223.021" stroke="#E6E8EC" stroke-width="0.412783"/>
<path d="M128.762 51.9727H223.021" stroke="#E6E8EC" stroke-width="0.412783"/>
<path d="M117.364 51.979V52.3274H117.096V52.5312C117.096 53.1584 116.587 53.4479 115.579 53.2763V52.9493C116.447 53.0619 116.742 52.901 116.742 52.4615V52.3274H116.099C115.611 52.3274 115.22 51.9093 115.22 51.4161V50.9819C115.22 50.4619 115.606 50.0652 116.131 50.0652H116.174C116.699 50.0652 117.085 50.4619 117.085 50.9819V51.979H117.353H117.364ZM116.11 51.979H116.742V50.9872C116.742 50.6549 116.506 50.419 116.179 50.419H116.136C115.804 50.419 115.574 50.6549 115.574 50.9872V51.4215C115.574 51.7324 115.815 51.9843 116.11 51.9843V51.979ZM118.774 51.979H119.085V52.3274H118.731C118.527 52.3274 118.356 52.2256 118.233 52.0755C118.125 52.2256 117.954 52.3274 117.702 52.3274H117.337L117.182 52.2685V52.0326L117.337 51.9736H117.707C117.948 51.9736 118.061 51.8128 118.066 51.6037V50.1938H118.415V51.593C118.415 51.8021 118.533 51.9683 118.779 51.9683L118.774 51.979ZM117.814 52.7456C117.938 52.7456 118.04 52.8474 118.04 52.9707C118.04 53.094 117.943 53.2013 117.814 53.2013C117.686 53.2013 117.589 53.0994 117.589 52.9707C117.589 52.8421 117.691 52.7456 117.814 52.7456ZM118.543 52.7456C118.667 52.7456 118.769 52.8474 118.769 52.9707C118.769 53.094 118.667 53.2013 118.543 53.2013C118.42 53.2013 118.318 53.0994 118.318 52.9707C118.318 52.8421 118.42 52.7456 118.543 52.7456ZM119.782 49.8775C119.658 49.8775 119.557 49.7757 119.557 49.6524C119.557 49.5291 119.658 49.4219 119.782 49.4219C119.905 49.4219 120.007 49.5291 120.007 49.6524C120.007 49.7757 119.905 49.8775 119.782 49.8775ZM118.967 52.3328V51.9843H119.428C119.535 51.9843 119.637 51.9093 119.637 51.7646V50.2046H119.986V51.8718C119.986 52.1345 119.782 52.3328 119.524 52.3328H118.962H118.967ZM122.644 51.9843V52.3328H122.376V52.5365C122.376 53.1637 121.867 53.4532 120.859 53.2817V52.9547C121.728 53.0672 122.023 52.9064 122.023 52.4668V52.3328H121.379C120.891 52.3328 120.5 51.9147 120.5 51.4215V50.9872C120.5 50.4672 120.886 50.0705 121.411 50.0705H121.454C121.98 50.0705 122.366 50.4672 122.366 50.9872V51.9843H122.634H122.644ZM121.39 51.9843H122.023V50.9926C122.023 50.6602 121.787 50.4243 121.46 50.4243H121.417C121.084 50.4243 120.854 50.6602 120.854 50.9926V51.4268C120.854 51.7378 121.095 51.9897 121.39 51.9897V51.9843ZM122.569 52.3382V51.9897H123.266C123.379 51.9897 123.475 51.9147 123.475 51.7699V50.2099H123.824V51.8771C123.824 52.1398 123.626 52.3382 123.363 52.3382H122.564H122.569ZM122.945 53.2173C122.821 53.2173 122.72 53.1208 122.72 52.9922C122.72 52.8635 122.821 52.767 122.945 52.767C123.068 52.767 123.17 52.8689 123.17 52.9922C123.17 53.1155 123.073 53.2173 122.945 53.2173ZM123.674 53.2173C123.55 53.2173 123.443 53.1208 123.443 52.9922C123.443 52.8635 123.55 52.767 123.674 52.767C123.797 52.767 123.899 52.8689 123.899 52.9922C123.899 53.1155 123.797 53.2173 123.674 53.2173Z" fill="#828C9B"/>
<path d="M118.806 61.4332V61.7816H118.538V61.9853C118.538 62.6125 118.029 62.902 117.021 62.7305V62.4035C117.89 62.516 118.185 62.3552 118.185 61.9156V61.7816H117.541C117.053 61.7816 116.662 61.3635 116.662 60.8703V60.436C116.662 59.916 117.048 59.5193 117.573 59.5193H117.616C118.142 59.5193 118.528 59.916 118.528 60.436V61.4332H118.796H118.806ZM117.552 61.4332H118.185V60.4414C118.185 60.109 117.949 59.8732 117.622 59.8732H117.579C117.246 59.8732 117.016 60.109 117.016 60.4414V60.8756C117.016 61.1866 117.257 61.4385 117.552 61.4385V61.4332ZM118.731 61.787V61.4385H119.428C119.541 61.4385 119.637 61.3635 119.637 61.2187V59.6587H119.986V61.3259C119.986 61.5886 119.787 61.787 119.525 61.787H118.726H118.731ZM119.107 62.6661C118.983 62.6661 118.881 62.5697 118.881 62.441C118.881 62.3123 118.983 62.2158 119.107 62.2158C119.23 62.2158 119.332 62.3177 119.332 62.441C119.332 62.5643 119.235 62.6661 119.107 62.6661ZM119.836 62.6661C119.712 62.6661 119.605 62.5697 119.605 62.441C119.605 62.3123 119.712 62.2158 119.836 62.2158C119.959 62.2158 120.061 62.3177 120.061 62.441C120.061 62.5643 119.959 62.6661 119.836 62.6661ZM120.634 58.6562H120.983V61.2134C120.983 61.3581 121.085 61.4332 121.197 61.4332H121.487V61.7816H121.096C120.833 61.7816 120.634 61.5833 120.634 61.3206V58.6562ZM122.993 59.5193C123.519 59.5193 123.905 59.9107 123.905 60.4307V60.8542C123.905 61.3527 123.508 61.7655 123.02 61.7655C122.72 61.7655 122.441 61.653 122.243 61.4492C122.13 61.653 121.916 61.7816 121.653 61.7816H121.455L121.299 61.7226V61.4868L121.455 61.4278H121.653C121.878 61.4278 122.034 61.2723 122.034 61.0418V60.4253C122.034 59.9053 122.425 59.514 122.945 59.514H122.988L122.993 59.5193ZM123.561 60.8542V60.4307C123.561 60.1037 123.326 59.8678 122.993 59.8678H122.95C122.618 59.8678 122.387 60.1037 122.387 60.4307V61.1115C122.527 61.3045 122.763 61.4171 123.02 61.4171C123.315 61.4171 123.561 61.1651 123.561 60.8542Z" fill="#828C9B"/>
<path d="M118.817 71.0376V71.3861H118.254C118.222 72.0776 117.696 72.5869 116.989 72.5869H116.973C116.254 72.5869 115.724 72.0508 115.724 71.3271V70.4104H116.072V71.3271C116.072 71.8632 116.447 72.2331 116.978 72.2331H116.994C117.53 72.2331 117.905 71.8578 117.905 71.3271V68.2554H118.254V71.0323H118.817V71.0376ZM118.758 71.3861V71.0376H119.455C119.567 71.0376 119.664 70.9626 119.664 70.8178V69.2578H120.012V70.9251C120.012 71.1877 119.814 71.3861 119.551 71.3861H118.753H118.758ZM119.133 72.2653C119.01 72.2653 118.908 72.1688 118.908 72.0401C118.908 71.9114 119.01 71.815 119.133 71.815C119.256 71.815 119.358 71.9168 119.358 72.0401C119.358 72.1634 119.262 72.2653 119.133 72.2653ZM119.862 72.2653C119.739 72.2653 119.632 72.1688 119.632 72.0401C119.632 71.9114 119.739 71.815 119.862 71.815C119.985 71.815 120.087 71.9168 120.087 72.0401C120.087 72.1634 119.985 72.2653 119.862 72.2653ZM122.033 71.0323V71.3807H121.583V71.4772C121.583 71.9919 121.192 72.3832 120.677 72.3832H120.452V72.0347H120.677C120.999 72.0347 121.235 71.8042 121.235 71.4772V69.2257H121.583V71.0269H122.033V71.0323ZM121.921 71.3807V71.0323H122.382C122.489 71.0323 122.591 70.9572 122.591 70.8125V69.2525H122.939V70.9197C122.939 71.1824 122.736 71.3807 122.478 71.3807H121.915H121.921ZM122.537 72.3135C122.414 72.3135 122.312 72.217 122.312 72.0884C122.312 71.9597 122.414 71.8632 122.537 71.8632C122.661 71.8632 122.762 71.9651 122.762 72.0884C122.762 72.2117 122.666 72.3135 122.537 72.3135ZM123.904 71.3807H123.556V68.25H123.904V71.3807Z" fill="#828C9B"/>
<path d="M118.323 79.6935H118.672V81.1248C118.672 81.543 118.334 81.8807 117.916 81.8807C117.653 81.8807 117.433 81.795 117.299 81.6502C117.176 81.7896 116.994 81.8807 116.79 81.8807H116.302C116.27 82.5616 115.729 83.0815 115.042 83.0815H115.021C114.313 83.0815 113.767 82.5294 113.767 81.8218V80.9051H114.115V81.8218C114.115 82.3578 114.49 82.7277 115.021 82.7277H115.037C115.573 82.7277 115.954 82.3525 115.954 81.8218V80.0795H116.302V81.5269H116.774C116.972 81.5269 117.122 81.3714 117.122 81.1785V80.0741H117.471V81.1892C117.471 81.3982 117.626 81.5216 117.916 81.5216C118.141 81.5216 118.318 81.3393 118.318 81.1195V79.6881L118.323 79.6935ZM118.87 82.8832V82.5347H119.101C119.422 82.5347 119.653 82.3042 119.653 81.9772V79.7257H120.001V81.9772C120.001 82.4919 119.615 82.8832 119.095 82.8832H118.865H118.87ZM120.639 78.75H120.988V81.3071C120.988 81.4519 121.089 81.5269 121.202 81.5269H121.492V81.8754H121.1C120.838 81.8754 120.639 81.677 120.639 81.4143V78.75ZM122.998 79.6131C123.523 79.6131 123.909 80.0044 123.909 80.5244V80.9479C123.909 81.4465 123.513 81.8593 123.025 81.8593C122.725 81.8593 122.446 81.7467 122.247 81.543C122.135 81.7467 121.92 81.8754 121.658 81.8754H121.459L121.304 81.8164V81.5805L121.459 81.5216H121.658C121.883 81.5216 122.038 81.3661 122.038 81.1356V80.5191C122.038 79.9991 122.43 79.6077 122.95 79.6077H122.993L122.998 79.6131ZM123.566 80.9479V80.5244C123.566 80.1974 123.33 79.9616 122.998 79.9616H122.955C122.623 79.9616 122.392 80.1974 122.392 80.5244V81.2053C122.532 81.3982 122.767 81.5108 123.025 81.5108C123.32 81.5108 123.566 81.2589 123.566 80.9479Z" fill="#828C9B"/>
<path d="M116.511 91.9932V92.3417H116.061V92.4381C116.061 92.9528 115.669 93.3441 115.155 93.3441H114.93V92.9957H115.155C115.476 92.9957 115.712 92.7652 115.712 92.4381V90.1866H116.061V91.9878H116.511V91.9932ZM116.415 92.3417V91.9932H117.112C117.224 91.9932 117.321 91.9182 117.321 91.7734V90.2134H117.669V91.8806C117.669 92.1433 117.471 92.3417 117.208 92.3417H116.409H116.415ZM116.79 93.2208C116.667 93.2208 116.565 93.1243 116.565 92.9957C116.565 92.867 116.667 92.7705 116.79 92.7705C116.913 92.7705 117.015 92.8724 117.015 92.9957C117.015 93.119 116.919 93.2208 116.79 93.2208ZM117.519 93.2208C117.396 93.2208 117.288 93.1243 117.288 92.9957C117.288 92.867 117.396 92.7705 117.519 92.7705C117.642 92.7705 117.744 92.8724 117.744 92.9957C117.744 93.119 117.642 93.2208 117.519 93.2208ZM118.693 92.3417H118.345V89.2109H118.693V92.3417ZM120.333 91.9932V92.3417H119.883V92.4381C119.883 92.9528 119.492 93.3441 118.977 93.3441H118.752V92.9957H118.977C119.299 92.9957 119.535 92.7652 119.535 92.4381V90.1866H119.883V91.9878H120.333V91.9932ZM121.604 91.9932H121.824V92.3417H121.556C121.352 92.3417 121.18 92.2398 121.062 92.0897C120.955 92.2398 120.784 92.3417 120.532 92.3417H120.28L120.124 92.2827V92.0468L120.28 91.9878H120.532C120.784 91.9878 120.891 91.8217 120.891 91.6126V90.2134H121.239V91.6126C121.239 91.8217 121.352 91.9878 121.604 91.9878V91.9932ZM121.057 92.8134C121.18 92.8134 121.282 92.9153 121.282 93.0386C121.282 93.1619 121.186 93.2691 121.057 93.2691C120.928 93.2691 120.832 93.1672 120.832 93.0386C120.832 92.9099 120.934 92.8134 121.057 92.8134ZM122.976 89.6559C122.864 89.6559 122.767 89.5594 122.762 89.4468C122.751 89.3235 122.858 89.2109 122.987 89.2109C123.11 89.2109 123.207 89.3074 123.212 89.4307C123.212 89.554 123.11 89.6666 122.976 89.6612V89.6559ZM122.992 90.0794C123.502 90.0794 123.904 90.4868 123.904 90.9961V91.4839C123.904 91.9557 123.523 92.3363 123.046 92.3363H121.759L121.604 92.2827V92.0468L121.759 91.9878H122.306C122.145 91.8645 122.038 91.6555 122.038 91.425V90.9907C122.038 90.4761 122.44 90.074 122.949 90.074H122.992V90.0794ZM123.555 91.4518V90.9961C123.555 90.6744 123.314 90.4278 122.992 90.4278H122.949C122.628 90.4278 122.387 90.6744 122.387 90.9961V91.4303C122.387 91.7412 122.628 91.9932 122.923 91.9932H123.019C123.314 91.9932 123.561 91.7573 123.561 91.4518H123.555Z" fill="#828C9B"/>
<path d="M118.635 102.204V102.553H116.174V102.649C116.174 103.164 115.783 103.555 115.268 103.555H115.043V103.207H115.268C115.59 103.207 115.826 102.976 115.826 102.649V100.398H116.174V102.199H118.635V102.204ZM118.538 102.553V102.204H119.235C119.348 102.204 119.444 102.129 119.444 101.984V100.424H119.793V102.092C119.793 102.354 119.594 102.553 119.332 102.553H118.533H118.538ZM118.913 103.432C118.79 103.432 118.688 103.335 118.688 103.207C118.688 103.078 118.79 102.981 118.913 102.981C119.037 102.981 119.139 103.083 119.139 103.207C119.139 103.33 119.042 103.432 118.913 103.432ZM119.643 103.432C119.519 103.432 119.412 103.335 119.412 103.207C119.412 103.078 119.519 102.981 119.643 102.981C119.766 102.981 119.868 103.083 119.868 103.207C119.868 103.33 119.766 103.432 119.643 103.432ZM120.441 99.4219H120.79V101.979C120.79 102.124 120.892 102.199 121.004 102.199H121.294V102.547H120.902C120.64 102.547 120.441 102.349 120.441 102.086V99.4219ZM121.948 100.044C121.824 100.044 121.723 99.9419 121.723 99.8186C121.723 99.6953 121.824 99.5934 121.948 99.5934C122.071 99.5934 122.173 99.6953 122.173 99.8186C122.173 99.9419 122.076 100.044 121.948 100.044ZM122.521 102.204H122.677V102.553H122.473C122.269 102.553 122.098 102.451 121.98 102.301C121.867 102.451 121.696 102.553 121.444 102.553H121.256L121.101 102.494V102.258L121.256 102.199H121.449C121.701 102.199 121.808 102.033 121.808 101.824V100.424H122.157V101.706C122.157 101.738 122.157 101.775 122.157 101.807V101.824C122.157 102.033 122.275 102.199 122.521 102.199V102.204ZM122.58 102.553V102.204H123.277C123.39 102.204 123.486 102.129 123.486 101.984V100.424H123.835V102.092C123.835 102.354 123.636 102.553 123.374 102.553H122.575H122.58ZM122.956 103.432C122.832 103.432 122.73 103.335 122.73 103.207C122.73 103.078 122.832 102.981 122.956 102.981C123.079 102.981 123.181 103.083 123.181 103.207C123.181 103.33 123.084 103.432 122.956 103.432ZM123.685 103.432C123.561 103.432 123.454 103.335 123.454 103.207C123.454 103.078 123.561 102.981 123.685 102.981C123.808 102.981 123.91 103.083 123.91 103.207C123.91 103.33 123.808 103.432 123.685 103.432Z" fill="#828C9B"/>
<path d="M198.223 118.953H143.944C140.83 118.953 138.305 121.478 138.305 124.593V135.968C138.305 139.083 140.83 141.608 143.944 141.608H198.223C201.337 141.608 203.862 139.083 203.862 135.968V124.593C203.862 121.478 201.337 118.953 198.223 118.953Z" fill="white"/>
<path d="M150.136 123.281C153.814 123.281 156.789 126.262 156.789 129.934C156.789 133.612 153.808 136.587 150.136 136.587C146.459 136.587 143.483 133.606 143.483 129.934C143.483 126.257 146.464 123.281 150.136 123.281Z" fill="#F7F7F7"/>
<mask id="mask1_776_3842" style="mask-type:luminance" maskUnits="userSpaceOnUse" x="152" y="123" width="14" height="14">
<path d="M159.008 123.031C162.819 123.031 165.907 126.119 165.907 129.931C165.907 133.742 162.819 136.83 159.008 136.83C155.196 136.83 152.108 133.742 152.108 129.931C152.108 126.119 155.196 123.031 159.008 123.031Z" fill="white"/>
</mask>
<g mask="url(#mask1_776_3842)">
<path d="M159.008 123.031C162.819 123.031 165.907 126.119 165.907 129.931C165.907 133.742 162.819 136.83 159.008 136.83C155.196 136.83 152.108 133.742 152.108 129.931C152.108 126.119 155.196 123.031 159.008 123.031Z" fill="#F7F7F7"/>
</g>
<path d="M159.008 123.281C162.686 123.281 165.661 126.262 165.661 129.934C165.661 133.612 162.68 136.587 159.008 136.587C155.331 136.587 152.355 133.606 152.355 129.934C152.355 126.257 155.336 123.281 159.008 123.281Z" stroke="white" stroke-width="0.493196"/>
<path d="M167.88 123.281C171.558 123.281 174.533 126.262 174.533 129.934C174.533 133.612 171.552 136.587 167.88 136.587C164.203 136.587 161.228 133.606 161.228 129.934C161.228 126.257 164.208 123.281 167.88 123.281Z" fill="#4437D0"/>
<path d="M167.88 123.281C171.558 123.281 174.533 126.262 174.533 129.934C174.533 133.612 171.552 136.587 167.88 136.587C164.203 136.587 161.228 133.606 161.228 129.934C161.228 126.257 164.208 123.281 167.88 123.281Z" stroke="white" stroke-width="0.493196"/>
<path d="M188.611 125.989L188.014 126.408L187.857 125.895L188.773 125.445H188.894H189.171V129.042H188.6L188.611 125.989ZM191.155 129.094C190.858 129.094 190.607 129.017 190.401 128.864C190.195 128.71 190.038 128.495 189.929 128.22C189.825 127.94 189.772 127.612 189.772 127.235C189.772 126.865 189.825 126.544 189.929 126.272C190.038 125.996 190.195 125.783 190.401 125.633C190.607 125.48 190.858 125.403 191.155 125.403C191.451 125.403 191.703 125.48 191.909 125.633C192.118 125.783 192.275 125.996 192.38 126.272C192.484 126.544 192.537 126.865 192.537 127.235C192.537 127.612 192.484 127.94 192.38 128.22C192.275 128.495 192.118 128.71 191.909 128.864C191.703 129.017 191.451 129.094 191.155 129.094ZM191.155 128.618C191.437 128.618 191.643 128.49 191.772 128.235C191.902 127.981 191.966 127.647 191.966 127.235C191.966 126.827 191.902 126.501 191.772 126.256C191.643 126.008 191.437 125.885 191.155 125.885C190.872 125.885 190.666 126.008 190.537 126.256C190.411 126.501 190.348 126.827 190.348 127.235C190.348 127.647 190.413 127.981 190.542 128.235C190.671 128.49 190.875 128.618 191.155 128.618ZM194.499 129.094C194.202 129.094 193.951 129.017 193.745 128.864C193.539 128.71 193.382 128.495 193.273 128.22C193.169 127.94 193.116 127.612 193.116 127.235C193.116 126.865 193.169 126.544 193.273 126.272C193.382 125.996 193.539 125.783 193.745 125.633C193.951 125.48 194.202 125.403 194.499 125.403C194.795 125.403 195.047 125.48 195.252 125.633C195.462 125.783 195.619 125.996 195.724 126.272C195.828 126.544 195.881 126.865 195.881 127.235C195.881 127.612 195.828 127.94 195.724 128.22C195.619 128.495 195.462 128.71 195.252 128.864C195.047 129.017 194.795 129.094 194.499 129.094ZM194.499 128.618C194.781 128.618 194.987 128.49 195.116 128.235C195.245 127.981 195.31 127.647 195.31 127.235C195.31 126.827 195.245 126.501 195.116 126.256C194.987 126.008 194.781 125.885 194.499 125.885C194.216 125.885 194.01 126.008 193.881 126.256C193.755 126.501 193.692 126.827 193.692 127.235C193.692 127.647 193.757 127.981 193.886 128.235C194.015 128.49 194.219 128.618 194.499 128.618Z" fill="black"/>
<path d="M180.892 134.681H181.272V135.474C181.272 135.914 181.578 136.225 182.023 136.225H182.044C182.484 136.225 182.795 135.919 182.795 135.474V132.858H183.175V135.474C183.175 136.123 182.693 136.6 182.044 136.6H182.023C181.374 136.6 180.897 136.118 180.897 135.474V134.681H180.892ZM183.706 132.853H184.087V135.03C184.087 135.158 184.172 135.217 184.264 135.217H184.494V135.598H184.146C183.899 135.598 183.706 135.41 183.706 135.158V132.853ZM184.419 135.598V135.217H185.089C185.175 135.217 185.266 135.158 185.266 135.03V133.727H185.647V135.158C185.647 135.405 185.459 135.598 185.207 135.598H184.419ZM184.784 136.445C184.655 136.445 184.548 136.338 184.548 136.209C184.548 136.08 184.655 135.978 184.784 135.978C184.912 135.978 185.014 136.086 185.014 136.209C185.014 136.332 184.907 136.445 184.784 136.445ZM185.491 136.445C185.363 136.445 185.255 136.338 185.255 136.209C185.255 136.08 185.363 135.978 185.491 135.978C185.62 135.978 185.722 136.086 185.722 136.209C185.722 136.332 185.614 136.445 185.491 136.445ZM186.033 136.488V136.107H186.231C186.494 136.107 186.671 135.925 186.671 135.667V133.705H187.051V135.667C187.051 136.139 186.697 136.493 186.226 136.493H186.027L186.033 136.488ZM189.351 133.823C189.222 133.823 189.115 133.716 189.115 133.587C189.115 133.459 189.222 133.352 189.351 133.352C189.48 133.352 189.582 133.464 189.582 133.587C189.582 133.711 189.474 133.823 189.351 133.823ZM188.327 134.761H188.708V135.555C188.708 135.994 189.013 136.305 189.458 136.305H189.48C189.919 136.305 190.23 136 190.23 135.555V133.711H190.611V135.555C190.611 136.204 190.128 136.681 189.48 136.681H189.458C188.81 136.681 188.332 136.198 188.332 135.555V134.761H188.327ZM192.996 135.212V135.592H192.771V135.769C192.771 136.321 192.289 136.616 191.372 136.434V136.08C192.139 136.198 192.396 136.043 192.396 135.684V135.587H191.876C191.431 135.587 191.072 135.206 191.072 134.751V134.424C191.072 133.947 191.426 133.587 191.903 133.587H191.946C192.417 133.587 192.771 133.947 192.771 134.424V135.206H192.996V135.212ZM191.876 135.212H192.391V134.429C192.391 134.161 192.203 133.973 191.94 133.973H191.897C191.635 133.973 191.447 134.161 191.447 134.429V134.756C191.447 135.003 191.645 135.212 191.871 135.212H191.876ZM194.315 135.212H194.626V135.592H194.262C194.085 135.592 193.924 135.501 193.811 135.373C193.704 135.501 193.549 135.592 193.313 135.592H192.964L192.798 135.528V135.271L192.964 135.206H193.318C193.549 135.206 193.624 135.062 193.624 134.879V133.721H194.004V134.74C194.004 134.772 194.004 134.804 194.004 134.837V134.874C194.004 135.056 194.09 135.201 194.315 135.201V135.212ZM193.398 135.962C193.527 135.962 193.634 136.07 193.634 136.193C193.634 136.316 193.527 136.429 193.398 136.429C193.27 136.429 193.163 136.321 193.163 136.193C193.163 136.064 193.275 135.962 193.398 135.962ZM194.106 135.962C194.235 135.962 194.342 136.07 194.342 136.193C194.342 136.316 194.235 136.429 194.106 136.429C193.977 136.429 193.87 136.321 193.87 136.193C193.87 136.064 193.983 135.962 194.106 135.962ZM195.714 135.212H195.848V135.592H195.661C195.478 135.592 195.323 135.501 195.21 135.373C195.103 135.501 194.942 135.592 194.712 135.592H194.583L194.422 135.528V135.271L194.583 135.217L194.717 135.212C194.942 135.212 195.023 135.067 195.023 134.885V132.848H195.403V134.745C195.403 134.778 195.403 134.81 195.403 134.842V134.879C195.403 135.062 195.489 135.206 195.714 135.206V135.212ZM197.167 133.593C197.639 133.593 197.998 133.952 197.998 134.424V134.745C197.998 135.201 197.633 135.576 197.183 135.576C196.926 135.576 196.685 135.485 196.513 135.319C196.406 135.485 196.224 135.592 195.998 135.592H195.827L195.661 135.528V135.271L195.827 135.206H195.998C196.17 135.206 196.288 135.083 196.288 134.912V134.418C196.288 133.947 196.647 133.587 197.119 133.587H197.162L197.167 133.593ZM197.617 134.751V134.429C197.617 134.161 197.43 133.973 197.167 133.973H197.124C196.861 133.973 196.674 134.161 196.674 134.429V134.96C196.786 135.115 196.979 135.206 197.189 135.206C197.419 135.206 197.617 135.003 197.617 134.751Z" fill="#767B88"/>
<path d="M31.4473 125.89C31.4473 124.577 31.4473 123.923 31.7046 123.43C31.919 123.006 32.2675 122.669 32.6856 122.449C33.1788 122.191 33.8436 122.191 35.1462 122.191H38.7809C40.0943 122.191 40.7483 122.191 41.2415 122.449C41.665 122.663 42.0027 123.012 42.2225 123.43C42.4798 123.923 42.4798 124.588 42.4798 125.89V129.525C42.4798 130.838 42.4798 131.492 42.2225 131.986C42.0081 132.409 41.6596 132.747 41.2415 132.967C40.7483 133.224 40.0836 133.224 38.7809 133.224H35.1462C33.8328 133.224 33.1788 133.224 32.6856 132.967C32.2621 132.752 31.9244 132.404 31.7046 131.986C31.4473 131.492 31.4473 130.828 31.4473 129.525V125.89Z" fill="url(#paint1_linear_776_3842)"/>
<path d="M39.1131 129.382L39.3597 127.849H37.8908V126.776C37.8908 126.347 38.0463 126.01 38.7164 126.01H39.4186V124.6C39.0219 124.541 38.5931 124.477 38.1964 124.477C36.9419 124.477 36.0467 125.243 36.0467 126.626V127.849H34.6689V129.382H36.0467V133.37H37.8854V129.382H39.1077V129.392L39.1131 129.382Z" fill="white"/>
<path d="M26.8148 125.062H21.3896V130.488H26.8148V125.062Z" stroke="#4437D0" stroke-width="1.27588" stroke-linecap="round"/>
<path d="M26.8148 140.973H21.3896V146.398H26.8148V140.973Z" stroke="#E7B840" stroke-width="1.27588" stroke-linecap="round"/>
<path d="M66.1849 125.062H60.7598V130.488H66.1849V125.062Z" stroke="#9CEAE8" stroke-width="1.60825" stroke-linecap="round"/>
<path d="M66.1849 140.973H60.7598V146.398H66.1849V140.973Z" stroke="#CF4431" stroke-width="1.27588" stroke-linecap="round"/>
<path d="M105.549 125.062H100.124V130.488H105.549V125.062Z" stroke="#4269D5" stroke-width="1.27588" stroke-linecap="round"/>
<path fill-rule="evenodd" clip-rule="evenodd" d="M42.2052 143.733C42.2052 143.341 42.1677 142.966 42.1087 142.602H36.9248V144.724H39.884C39.7607 145.411 39.3693 145.995 38.7796 146.386V147.764H40.5594C41.5994 146.804 42.1945 145.4 42.1945 143.717L42.2052 143.727V143.733Z" fill="#6082E2"/>
<path fill-rule="evenodd" clip-rule="evenodd" d="M36.9359 149.103C38.4208 149.103 39.6645 148.615 40.5705 147.768L38.7907 146.391C38.3029 146.718 37.6703 146.916 36.9305 146.916C35.4992 146.916 34.2876 145.946 33.8534 144.648H32.0146V146.069C32.9206 147.865 34.7808 149.103 36.9305 149.103H36.9359Z" fill="#6FA063"/>
<path fill-rule="evenodd" clip-rule="evenodd" d="M33.8586 144.655C33.7407 144.328 33.6871 143.969 33.6871 143.604C33.6871 143.24 33.7514 142.891 33.8586 142.553V141.133H32.0199C31.6446 141.878 31.4355 142.714 31.4355 143.604C31.4355 144.494 31.65 145.33 32.0199 146.075L33.8586 144.655Z" fill="#E4BC5A"/>
<path fill-rule="evenodd" clip-rule="evenodd" d="M36.9364 140.291C37.7458 140.291 38.4642 140.565 39.0324 141.117L40.6085 139.541C39.6597 138.651 38.4106 138.109 36.9256 138.109C34.776 138.109 32.9157 139.348 32.0098 141.144L33.8485 142.564C34.2828 141.267 35.4943 140.297 36.9256 140.297L36.9364 140.286V140.291Z" fill="#C25947"/>
<path d="M73.3309 129.257C73.3899 128.731 73.6097 128.437 74.0225 128.131C74.6068 127.724 75.3359 127.954 75.3359 127.954V126.582C75.5128 126.582 75.6897 126.582 75.8612 126.619V128.388C75.8612 128.388 75.1375 128.152 74.5478 128.565C74.1404 128.871 73.926 129.16 73.8563 129.691C73.8563 129.97 73.9045 130.345 74.1619 130.672C74.1029 130.634 74.0332 130.602 73.9742 130.565C73.4221 130.2 73.3309 129.653 73.3309 129.267V129.257ZM78.8687 124.035C78.472 123.59 78.3165 123.156 78.2575 122.84H78.7615C78.7615 122.84 78.6542 123.66 79.394 124.453C79.1957 124.336 79.0188 124.196 78.858 124.035H78.8687ZM81.3025 125.274V127.005C81.3025 127.005 80.6592 126.984 80.1767 126.855C79.512 126.689 79.0885 126.421 79.0885 126.421C79.0885 126.421 78.7936 126.233 78.7722 126.223V129.804C78.7722 130.002 78.7132 130.506 78.5524 130.919C78.3326 131.455 78.0002 131.819 77.9412 131.889C77.9412 131.889 77.5338 132.371 76.8155 132.698C76.1722 132.988 75.5986 132.977 75.4217 132.988C75.4217 132.988 74.4406 133.025 73.5507 132.452C73.3631 132.323 73.1755 132.184 73.0146 132.018C73.9045 132.591 74.8856 132.554 74.8856 132.554C75.0625 132.554 75.62 132.554 76.2794 132.259C76.9924 131.932 77.4052 131.449 77.4052 131.449C77.4641 131.38 77.8019 131.015 78.0163 130.479C78.1825 130.072 78.2361 129.568 78.2361 129.369V125.788L78.5524 125.987C78.5524 125.987 78.9866 126.244 79.6406 126.421C80.1231 126.539 80.7664 126.571 80.7664 126.571V125.215C80.9916 125.263 81.1738 125.274 81.2918 125.263L81.3025 125.274Z" fill="#CF5561"/>
<path d="M80.7662 125.23V126.587C80.7662 126.587 80.1228 126.565 79.6404 126.436C78.9756 126.27 78.5521 126.002 78.5521 126.002C78.5521 126.002 78.2573 125.815 78.2358 125.804V129.385C78.2358 129.583 78.1769 130.087 78.016 130.495C77.7909 131.031 77.4639 131.395 77.4049 131.465C77.4049 131.465 76.9975 131.947 76.2791 132.274C75.6358 132.569 75.0622 132.553 74.8853 132.569C74.8853 132.569 73.9043 132.607 73.0144 132.033C72.9233 131.942 72.8268 131.845 72.7464 131.738C72.4676 131.401 72.2907 130.988 72.2424 130.875C72.1727 130.677 72.0173 130.184 72.0441 129.717C72.0816 128.886 72.3711 128.382 72.4515 128.254C72.6499 127.9 72.9179 127.6 73.2342 127.326C73.513 127.101 73.8292 126.93 74.1723 126.801C74.5369 126.651 74.9336 126.576 75.3303 126.565V127.937C75.3303 127.937 74.6066 127.702 74.0169 128.114C73.6095 128.42 73.395 128.709 73.3253 129.24C73.3253 129.626 73.4165 130.178 73.9686 130.537C74.0276 130.575 74.0973 130.607 74.1563 130.645C74.2527 130.773 74.3653 130.881 74.494 130.961C75.0193 131.299 75.4643 131.325 76.0379 131.1C76.4132 130.95 76.7026 130.618 76.8367 130.259C76.9171 130.039 76.9171 129.803 76.9171 129.567V122.812H78.2412C78.3002 123.129 78.4503 123.574 78.8523 124.008C79.0185 124.174 79.1901 124.324 79.3884 124.442C79.4474 124.501 79.7422 124.807 80.1282 124.978C80.3266 125.075 80.5356 125.144 80.7501 125.187L80.7608 125.236L80.7662 125.23Z" fill="white"/>
<path d="M71.7275 130.465L71.7651 130.556C71.7651 130.556 71.7543 130.508 71.7275 130.465Z" fill="#9CEAE8"/>
<path d="M74.1723 126.814C73.8346 126.942 73.5183 127.119 73.2341 127.339C72.9179 127.596 72.6498 127.912 72.4515 128.266C72.371 128.395 72.0762 128.899 72.044 129.73C72.0226 130.196 72.1727 130.689 72.2424 130.888C72.2906 131.006 72.4622 131.413 72.7463 131.751C72.8267 131.858 72.9232 131.949 73.0143 132.03C72.7088 131.831 72.4515 131.595 72.2209 131.317C71.9422 130.979 71.7653 130.566 71.717 130.448C71.6473 130.25 71.4972 129.757 71.5187 129.29C71.5562 128.459 71.8457 127.955 71.9261 127.827C72.1244 127.473 72.3925 127.173 72.7088 126.899C72.9875 126.679 73.3038 126.492 73.6469 126.374C73.856 126.294 74.0812 126.224 74.3009 126.186C74.6387 126.127 74.9925 126.127 75.3302 126.176V126.562C74.9335 126.562 74.5315 126.642 74.1723 126.797V126.808V126.814Z" fill="#9CEAE8"/>
<path d="M78.2573 122.84H76.9332V129.595C76.9332 129.831 76.9332 130.061 76.8528 130.286C76.7241 130.651 76.4346 130.978 76.0594 131.128C75.4858 131.348 75.0408 131.326 74.5155 130.988C74.3868 130.908 74.2689 130.79 74.1777 130.672C74.6334 130.908 75.0301 130.892 75.534 130.71C75.9093 130.57 76.1988 130.227 76.3274 129.868C76.4078 129.648 76.4078 129.412 76.4078 129.177V122.422H78.2359C78.2359 122.422 78.2144 122.588 78.2573 122.845V122.84ZM80.7608 124.856V125.231C80.5518 125.183 80.3373 125.113 80.139 125.022C79.753 124.834 79.4581 124.539 79.3992 124.486C79.4689 124.534 79.5386 124.566 79.6083 124.604C80.0746 124.824 80.5303 124.899 80.7555 124.872V124.861L80.7608 124.856Z" fill="#9CEAE8"/>
<path d="M70.8594 141.545C70.8594 140.269 70.8594 139.636 71.106 139.154C71.315 138.747 71.6528 138.414 72.0602 138.2C72.5427 137.953 73.1806 137.953 74.4511 137.953H77.9786C79.2544 137.953 79.887 137.953 80.3695 138.2C80.7769 138.409 81.1093 138.747 81.3237 139.154C81.5703 139.636 81.5703 140.274 81.5703 141.545V145.072C81.5703 146.348 81.5703 146.981 81.3237 147.463C81.1146 147.871 80.7769 148.203 80.3695 148.417C79.887 148.664 79.2491 148.664 77.9786 148.664H74.4511C73.1753 148.664 72.5427 148.664 72.0602 148.417C71.6528 148.208 71.3204 147.871 71.106 147.463C70.8594 146.981 70.8594 146.343 70.8594 145.072V141.545Z" fill="#CF4431"/>
<path fill-rule="evenodd" clip-rule="evenodd" d="M79.3613 140.588C79.7044 140.685 79.9778 140.947 80.0689 141.296C80.2351 141.923 80.2351 143.236 80.2351 143.236C80.2351 143.236 80.2351 144.544 80.0689 145.172C79.9724 145.515 79.7097 145.788 79.3613 145.879C78.7341 146.045 76.2198 146.045 76.2198 146.045C76.2198 146.045 73.711 146.045 73.073 145.879C72.7299 145.783 72.4565 145.52 72.3654 145.172C72.1992 144.544 72.1992 143.236 72.1992 143.236C72.1992 143.236 72.1992 141.928 72.3654 141.301C72.4619 140.958 72.7353 140.674 73.073 140.588C73.7003 140.422 76.2198 140.422 76.2198 140.422C76.2198 140.422 78.7394 140.422 79.3613 140.588ZM77.5064 143.188L75.4104 144.394V141.982L77.5064 143.183V143.188Z" fill="white"/>
<path d="M110.181 125.957C110.181 124.643 110.181 123.989 110.438 123.496C110.663 123.073 111.001 122.735 111.419 122.515C111.912 122.258 112.566 122.258 113.88 122.258H117.514C118.828 122.258 119.482 122.258 119.975 122.515C120.398 122.73 120.736 123.078 120.956 123.496C121.213 123.989 121.213 124.654 121.213 125.957V129.591C121.213 130.905 121.213 131.559 120.956 132.052C120.731 132.476 120.393 132.813 119.975 133.033C119.482 133.29 118.828 133.29 117.514 133.29H113.88C112.566 133.29 111.912 133.29 111.419 133.033C110.996 132.819 110.658 132.47 110.438 132.052C110.181 131.559 110.181 130.894 110.181 129.591V125.957Z" fill="#FAF772"/>
<path d="M119.095 129.613C117.868 129.018 117.675 128.101 117.669 128.037C117.659 127.956 117.642 127.887 117.734 127.806C117.814 127.726 118.211 127.485 118.318 127.41C118.5 127.286 118.575 127.163 118.516 127.007C118.473 126.9 118.377 126.857 118.275 126.857C118.243 126.857 118.211 126.857 118.179 126.868C117.98 126.911 117.793 127.007 117.685 127.034H117.642C117.583 127.034 117.562 127.007 117.567 126.938C117.583 126.723 117.61 126.3 117.578 125.914C117.53 125.378 117.353 125.115 117.155 124.874C117.058 124.756 116.592 124.273 115.702 124.273C114.812 124.273 114.356 124.761 114.249 124.874C114.045 125.115 113.868 125.378 113.826 125.914C113.793 126.3 113.826 126.723 113.836 126.938C113.836 127.002 113.82 127.034 113.761 127.034H113.718C113.611 127.007 113.423 126.911 113.225 126.868C113.193 126.868 113.161 126.857 113.123 126.857C113.016 126.857 112.925 126.9 112.882 127.007C112.823 127.163 112.909 127.286 113.08 127.41C113.188 127.485 113.574 127.726 113.665 127.806C113.756 127.887 113.74 127.956 113.729 128.037C113.718 128.101 113.525 129.018 112.303 129.613C112.228 129.645 112.105 129.72 112.33 129.843C112.668 130.031 112.893 130.01 113.064 130.122C113.214 130.219 113.129 130.428 113.231 130.503C113.365 130.594 113.761 130.503 114.265 130.658C114.689 130.798 114.951 131.194 115.702 131.194C116.452 131.194 116.715 130.798 117.139 130.658C117.642 130.492 118.039 130.594 118.173 130.503C118.28 130.428 118.2 130.224 118.339 130.122C118.511 130.004 118.736 130.031 119.074 129.843C119.288 129.725 119.165 129.656 119.101 129.618V129.607L119.095 129.613Z" fill="white"/>
<path d="M138.03 84.1445C139.032 84.1445 139.842 84.9594 139.842 85.9565V99.8303C139.842 100.833 139.027 101.642 138.03 101.642C137.027 101.642 136.218 100.827 136.218 99.8303V85.9565C136.218 84.954 137.033 84.1445 138.03 84.1445Z" fill="#4437D0"/>
<path d="M151.654 82.2227C152.656 82.2227 153.466 83.0375 153.466 84.0346V99.833C153.466 100.835 152.651 101.645 151.654 101.645C150.651 101.645 149.842 100.83 149.842 99.833V84.0346C149.842 83.0321 150.657 82.2227 151.654 82.2227Z" fill="#E7B840"/>
<path d="M165.466 76.6445C166.572 76.6445 167.466 77.3055 167.466 78.1234V100.166C167.466 100.984 166.572 101.645 165.466 101.645C164.36 101.645 163.466 100.984 163.466 100.166V78.1234C163.466 77.3055 164.36 76.6445 165.466 76.6445Z" fill="#E7B840"/>
<path d="M179.466 72.6445C180.572 72.6445 181.466 73.4112 181.466 74.36V99.9291C181.466 100.878 180.572 101.645 179.466 101.645C178.36 101.645 177.466 100.878 177.466 99.9291V74.36C177.466 73.4112 178.36 72.6445 179.466 72.6445Z" fill="#E7B840"/>
<path d="M193.278 69.1992C194.28 69.1992 195.09 70.0141 195.09 71.0112V99.831C195.09 100.833 194.275 101.643 193.278 101.643C192.275 101.643 191.466 100.828 191.466 99.831V71.0112C191.466 70.0087 192.281 69.1992 193.278 69.1992Z" fill="#4437D0"/>
<path d="M207.09 65.6445C208.196 65.6445 209.09 66.5487 209.09 67.6551V99.634C209.09 100.746 208.19 101.645 207.09 101.645C205.983 101.645 205.09 100.74 205.09 99.634V67.6551C205.09 66.5427 205.989 65.6445 207.09 65.6445Z" fill="#E7B840"/>
<path d="M220.902 56.8164C221.904 56.8164 222.714 57.6313 222.714 58.6284V99.8317C222.714 100.834 221.899 101.644 220.902 101.644C219.899 101.644 219.09 100.829 219.09 99.8317V58.6284C219.09 57.6259 219.905 56.8164 220.902 56.8164Z" fill="#4437D0"/>
<defs>
<linearGradient id="paint0_linear_776_3842" x1="15.7178" y1="85.1442" x2="160.857" y2="85.1442" gradientUnits="userSpaceOnUse">
<stop stop-color="#AAAAAA"/>
<stop offset="0.06" stop-color="#B7B7B7" stop-opacity="0.84"/>
<stop offset="0.15" stop-color="#CACACA" stop-opacity="0.62"/>
<stop offset="0.24" stop-color="#DADADA" stop-opacity="0.42"/>
<stop offset="0.35" stop-color="#E8E8E8" stop-opacity="0.27"/>
<stop offset="0.46" stop-color="#F2F2F2" stop-opacity="0.15"/>
<stop offset="0.59" stop-color="#F9F9F9" stop-opacity="0.06"/>
<stop offset="0.74" stop-color="#FDFDFD" stop-opacity="0.01"/>
<stop offset="1" stop-color="white" stop-opacity="0"/>
</linearGradient>
<linearGradient id="paint1_linear_776_3842" x1="36.9636" y1="132.902" x2="36.9636" y2="122.191" gradientUnits="userSpaceOnUse">
<stop stop-color="#3B63CE"/>
<stop offset="1" stop-color="#6EA9EF"/>
</linearGradient>
</defs>
</svg>
