<svg width="137" height="49" viewBox="0 0 137 49" fill="none" xmlns="http://www.w3.org/2000/svg">
<g clip-path="url(#clip0_1557_1788)">
<path d="M123.298 13.6094C115.731 13.6094 109.596 19.704 109.596 27.2242C109.596 30.9815 111.131 34.3852 113.609 36.8496C116.089 39.3112 119.513 40.8362 123.298 40.8362C127.083 40.8362 130.506 39.3112 132.987 36.8496C135.468 34.3852 137 30.9843 137 27.2242V13.6094H123.298ZM128.779 27.2242C128.779 28.7271 128.165 30.0891 127.172 31.0754C126.179 32.0617 124.808 32.6723 123.295 32.6723V27.2269H117.814C117.814 24.2183 120.269 21.7816 123.295 21.7816H128.777V27.2297L128.779 27.2242Z" fill="white"/>
<path d="M71.2421 13.611V24.5045C71.2421 25.4328 71.1503 26.3389 70.9696 27.2147C70.4245 29.8863 69.0951 32.2733 67.2263 34.1299C64.7484 36.5915 61.3221 38.1165 57.5371 38.1165V32.6739C57.1478 33.1878 56.7223 33.674 56.2662 34.1299C53.7855 36.5915 50.362 38.1165 46.577 38.1165V32.6739C46.1876 33.1878 45.7621 33.674 45.3061 34.1299C42.8281 36.5915 39.4019 38.1165 35.6169 38.1165H30.141V32.6656C29.7489 33.1823 29.3234 33.6713 28.8645 34.1271C26.3838 36.5915 22.9603 38.1138 19.1753 38.1138H13.6994C9.91722 38.1138 6.48819 36.5915 4.01027 34.1271C1.53236 31.6628 0 28.2618 0 24.5045V19.9515C0 17.791 1.39331 15.8737 3.45684 15.1885L8.22078 13.611V24.5045C8.22078 26.0074 8.83261 27.3695 9.82544 28.353C10.8155 29.3393 12.1866 29.9499 13.7022 29.9499H19.1781C20.691 29.9499 22.0621 29.3393 23.0549 28.353C24.0477 27.3695 24.6623 26.0074 24.6623 24.5045V19.9515C24.6623 17.791 26.0556 15.8709 28.1192 15.1885L32.8831 13.611V24.5045C32.8831 26.4412 32.4743 28.2812 31.7401 29.9499H35.6224C37.1353 29.9499 38.5064 29.3393 39.4992 28.353C40.4921 27.3695 41.1067 26.0074 41.1067 24.5017V19.9487C41.1067 17.7883 42.5 15.8709 44.5607 15.1858L49.3247 13.6055V24.5017C49.3247 26.3334 48.9604 28.0795 48.2985 29.6736C49.1217 29.4056 49.8586 28.947 50.4566 28.353C51.4494 27.3695 52.064 26.0074 52.064 24.5017V19.9487C52.064 17.7883 53.4573 15.8682 55.5208 15.1858L60.2848 13.6082V24.5017C60.2848 26.3334 59.9205 28.0795 59.2586 29.6736C60.0818 29.4028 60.8187 28.947 61.4167 28.3502C62.4095 27.3667 63.0241 26.0047 63.0241 24.499V19.946C63.0241 17.7855 64.4174 15.8654 66.481 15.183L71.2449 13.6055L71.2421 13.611Z" fill="white"/>
<path d="M101.375 13.6093L114.357 9.31044C116.42 8.62804 117.814 6.70794 117.814 4.54747V0L84.9388 10.888V19.0519H93.1596C96.1853 19.0519 98.641 21.4914 98.641 24.5C98.641 26.0029 98.0264 27.365 97.0336 28.3485C96.0435 29.3348 94.6697 29.9454 93.1596 29.9454H87.6837C86.1708 29.9454 84.7997 29.3348 83.8097 28.3485C82.8168 27.365 82.2022 26.0002 82.2022 24.5V0L77.4383 1.57753C75.3748 2.25992 73.9814 4.18003 73.9814 6.34049V24.5C73.9814 28.2573 75.5166 31.661 77.9945 34.1254C80.4724 36.587 83.8987 38.112 87.6837 38.112H93.1596C96.9418 38.112 100.368 36.587 102.849 34.1254C105.327 31.6638 106.862 28.2601 106.862 24.5C106.862 20.0465 104.709 16.0902 101.38 13.6065L101.375 13.6093Z" fill="white"/>
<path d="M16.4385 48.9987C18.7086 48.9987 20.5489 47.1705 20.5489 44.9154C20.5489 42.6602 18.7086 40.832 16.4385 40.832C14.1684 40.832 12.3281 42.6602 12.3281 44.9154C12.3281 47.1705 14.1684 48.9987 16.4385 48.9987Z" fill="white"/>
</g>
<defs>
<clipPath id="clip0_1557_1788">
<rect width="137" height="49" fill="white"/>
</clipPath>
</defs>
</svg>
