<svg width="67" height="60" viewBox="0 0 67 60" fill="none" xmlns="http://www.w3.org/2000/svg">
<path d="M50.0578 2H4.44206C2.87923 2 1.6123 3.26693 1.6123 4.82976V55.1712C1.6123 56.734 2.87923 58.0009 4.44206 58.0009H50.0578C51.6206 58.0009 52.8875 56.734 52.8875 55.1712V4.82976C52.8875 3.26693 51.6206 2 50.0578 2Z" stroke="#4832D9" stroke-width="2.82976" stroke-miterlimit="10"/>
<path d="M42.913 21.6562H25.7646" stroke="#4832D9" stroke-width="2.12232" stroke-miterlimit="10"/>
<path d="M12.2794 25.7109H18.9859C19.3766 25.7109 19.6934 25.3942 19.6934 25.0035V18.297C19.6934 17.9063 19.3766 17.5895 18.9859 17.5895H12.2794C11.8887 17.5895 11.572 17.9063 11.572 18.297L11.572 25.0035C11.572 25.3942 11.8887 25.7109 12.2794 25.7109Z" stroke="#4832D9" stroke-width="2.12232" stroke-miterlimit="10"/>
<path d="M42.913 38.3516H25.7646" stroke="#4832D9" stroke-width="2.12232" stroke-miterlimit="10"/>
<path d="M12.2794 42.4102H18.9859C19.3766 42.4102 19.6934 42.0934 19.6934 41.7027V34.9962C19.6934 34.6054 19.3766 34.2887 18.9859 34.2887H12.2794C11.8887 34.2887 11.572 34.6054 11.572 34.9962L11.572 41.7027C11.572 42.0934 11.8887 42.4102 12.2794 42.4102Z" stroke="#4832D9" stroke-width="2.12232" stroke-miterlimit="10"/>
<path d="M55.5906 39.4077C60.787 39.4077 64.9995 35.1952 64.9995 29.9988C64.9995 24.8024 60.787 20.5898 55.5906 20.5898C50.3942 20.5898 46.1816 24.8024 46.1816 29.9988C46.1816 35.1952 50.3942 39.4077 55.5906 39.4077Z" fill="#F2B705" stroke="#F2B705" stroke-width="2.82976" stroke-miterlimit="10"/>
<path d="M53.1558 33.5635C52.5899 33.0259 52.222 32.375 52.0381 31.5968L53.7925 30.9318C53.8774 31.3705 54.0472 31.7808 54.316 32.1345C54.5848 32.4882 54.9386 32.7288 55.3772 32.8561V30.281L55.0801 30.2244C54.5283 30.1254 54.0755 29.9556 53.6793 29.7292C53.2973 29.5028 53.0002 29.1915 52.788 28.7954C52.5758 28.3992 52.4625 27.904 52.4625 27.3239C52.4625 26.857 52.5757 26.4042 52.8021 25.9939C53.0285 25.5836 53.3539 25.244 53.7925 24.9611C54.2311 24.6781 54.7546 24.5083 55.363 24.4517V23.2773H56.6223V24.4658C57.1741 24.5507 57.6552 24.7064 58.0655 24.9611C58.4617 25.2016 58.7871 25.4987 59.0418 25.8524C59.2964 26.2062 59.4804 26.5882 59.5936 26.9843L57.9239 27.6493C57.8532 27.4229 57.7542 27.1966 57.641 26.9985C57.5279 26.8004 57.3863 26.6306 57.2165 26.4891C57.0467 26.3477 56.8487 26.2345 56.6223 26.1637V28.5549L56.9902 28.6398C57.7825 28.8237 58.4333 29.1491 58.9427 29.616C59.4521 30.0829 59.6925 30.7338 59.6925 31.5686C59.6925 32.3609 59.4379 33.0259 58.9144 33.5777C58.3909 34.1295 57.6268 34.4549 56.6223 34.5539V35.7283H55.363V34.5398C54.4433 34.4408 53.6935 34.1153 53.1417 33.5777L53.1558 33.5635ZM55.3772 27.5361V26.1071C55.0376 26.1778 54.7971 26.3194 54.6415 26.5316C54.4859 26.7438 54.4009 26.9702 54.4009 27.2107C54.4009 27.522 54.4858 27.7625 54.6556 27.9323C54.8254 28.1021 55.0659 28.2436 55.3913 28.3143V27.5361H55.3772ZM57.2732 32.6297C57.4429 32.5165 57.5703 32.375 57.6552 32.2052C57.7401 32.0496 57.7825 31.8657 57.7825 31.6535C57.7825 31.4412 57.7401 31.2856 57.641 31.13C57.542 30.9743 57.4146 30.847 57.259 30.7338C57.1034 30.6206 56.8911 30.5498 56.6506 30.4932V32.8844C56.9053 32.8419 57.1175 32.7571 57.2873 32.6297H57.2732Z" fill="#4832D9"/>
</svg>
