<svg width="41" height="40" viewBox="0 0 41 40" fill="none" xmlns="http://www.w3.org/2000/svg">
<path d="M38.1261 29.467C31.9325 26.4679 30.9453 21.8374 30.9014 21.4939C30.8482 21.0779 30.788 20.7508 31.2468 20.3276C31.6893 19.9187 33.6523 18.7034 34.197 18.3231C35.0972 17.6934 35.4937 17.0648 35.2015 16.292C34.9971 15.7574 34.4994 15.556 33.9752 15.556C33.8099 15.5565 33.645 15.575 33.4837 15.6112C32.4945 15.8259 31.5339 16.3216 30.978 16.4556C30.9112 16.4728 30.8426 16.482 30.7737 16.4831C30.4773 16.4831 30.3649 16.3513 30.3935 15.9945C30.463 14.9131 30.6101 12.8022 30.4395 10.8304C30.2055 8.11753 29.3307 6.77335 28.2935 5.58454C27.7918 5.00802 25.4619 2.53125 20.9656 2.53125C16.4693 2.53125 14.1424 5.00802 13.6438 5.57738C12.6035 6.76619 11.7298 8.11038 11.4978 10.8233C11.3271 12.7951 11.4804 14.9049 11.5438 15.9874C11.5642 16.3268 11.46 16.476 11.1636 16.476C11.0947 16.4748 11.0261 16.4655 10.9593 16.4484C10.4044 16.3145 9.44381 15.8187 8.45462 15.6041C8.29327 15.5679 8.12845 15.5494 7.9631 15.5489C7.43682 15.5489 6.94121 15.7533 6.73683 16.2848C6.44457 17.0576 6.83902 17.6863 7.74237 18.3159C8.28703 18.6962 10.2501 19.9106 10.6926 20.3205C11.1504 20.7436 11.0911 21.0707 11.038 21.4868C10.994 21.8353 10.0058 26.4659 3.81321 29.4599C3.45044 29.6357 2.83322 30.0078 3.92153 30.6088C5.63013 31.5533 6.76749 31.4521 7.65142 32.0215C8.40148 32.505 7.95799 33.5476 8.50367 33.9238C9.17403 34.3868 11.1555 33.8911 13.7153 34.7364C15.8613 35.4438 17.1652 37.4422 20.9707 37.4422C24.7762 37.4422 26.1179 35.4346 28.2261 34.7364C30.7808 33.8911 32.7663 34.3868 33.4377 33.9238C33.9824 33.5476 33.5399 32.505 34.29 32.0215C35.1739 31.4521 36.3102 31.5533 38.0198 30.6088C39.1061 30.0149 38.4889 29.6429 38.1261 29.467Z" fill="white"/>
<path d="M40.8199 29.1166C40.5419 28.3601 40.0126 27.9553 39.4097 27.6201C39.2963 27.5536 39.192 27.5005 39.1031 27.4596C38.9233 27.3666 38.7393 27.2766 38.5564 27.1815C36.6772 26.1849 35.2097 24.9276 34.1919 23.4373C33.9029 23.0177 33.6522 22.5729 33.4429 22.1084C33.356 21.86 33.3601 21.719 33.4225 21.5902C33.4843 21.4909 33.5661 21.4056 33.6626 21.3397C33.9855 21.1261 34.3187 20.9094 34.5445 20.7632C34.9471 20.5025 35.2659 20.2961 35.4713 20.1499C36.2429 19.6102 36.7824 19.0367 37.1196 18.3958C37.3549 17.953 37.4921 17.4647 37.5219 16.9641C37.5517 16.4636 37.4734 15.9624 37.2923 15.4948C36.7814 14.1496 35.5112 13.3145 33.9722 13.3145C33.6476 13.3142 33.3239 13.3484 33.0066 13.4167C32.9217 13.4351 32.8369 13.4545 32.7541 13.476C32.7685 12.556 32.748 11.5849 32.6663 10.6292C32.3761 7.26925 31.1999 5.50801 29.9736 4.10352C29.1883 3.2234 28.2634 2.4788 27.236 1.89967C25.3751 0.836592 23.2649 0.296875 20.9646 0.296875C18.6644 0.296875 16.5644 0.836592 14.7015 1.89967C13.6716 2.47898 12.7447 3.22507 11.9588 4.10761C10.7325 5.5121 9.5563 7.2764 9.26608 10.6333C9.18433 11.589 9.16389 12.5652 9.17718 13.4801C9.09441 13.4586 9.01061 13.4392 8.9258 13.4208C8.60844 13.3525 8.28472 13.3183 7.96011 13.3186C6.42013 13.3186 5.14788 14.1537 4.63898 15.4989C4.45708 15.9667 4.37799 16.4682 4.40708 16.9693C4.43618 17.4704 4.57277 17.9594 4.80759 18.403C5.14584 19.0439 5.68539 19.6173 6.45692 20.157C6.66129 20.3002 6.98114 20.5066 7.38377 20.7704C7.60143 20.9114 7.91924 21.1179 8.23091 21.3244C8.33996 21.3949 8.43264 21.488 8.50273 21.5973C8.56814 21.7312 8.57018 21.8753 8.4731 22.1411C8.26662 22.5959 8.02005 23.0314 7.73632 23.4424C6.741 24.899 5.31649 26.1338 3.49753 27.1223C2.53389 27.6334 1.53245 27.9748 1.10938 29.1247C0.790555 29.9926 0.99902 30.98 1.80938 31.8121C2.10678 32.1226 2.45173 32.3838 2.83126 32.5859C3.62097 33.02 4.4607 33.3561 5.33182 33.5866C5.51159 33.633 5.68225 33.7094 5.83663 33.8125C6.13196 34.0711 6.09006 34.4606 6.48349 35.031C6.68098 35.3257 6.93192 35.5809 7.22333 35.7833C8.04902 36.3537 8.97689 36.3895 9.95994 36.4273C10.848 36.461 11.8545 36.4999 13.0041 36.8791C13.4803 37.0365 13.9749 37.3411 14.5482 37.6968C15.9247 38.5432 17.8091 39.7014 20.9626 39.7014C24.1161 39.7014 26.0138 38.5371 27.4005 37.6876C27.9697 37.338 28.4612 37.0365 28.9241 36.8832C30.0737 36.5029 31.0803 36.4651 31.9683 36.4314C32.9514 36.3935 33.8792 36.3578 34.7049 35.7874C35.0501 35.5467 35.3376 35.2325 35.547 34.8674C35.83 34.386 35.8229 34.0497 36.0886 33.8145C36.2334 33.7163 36.3937 33.6431 36.5627 33.5978C37.4457 33.3666 38.2969 33.0274 39.097 32.5879C39.5002 32.3715 39.8632 32.0873 40.17 31.7477L40.1802 31.7354C40.9405 30.9217 41.1316 29.9629 40.8199 29.1166ZM38.0169 30.6233C36.3073 31.5678 35.1709 31.4666 34.287 32.0359C33.5359 32.5194 33.9804 33.5621 33.4347 33.9382C32.7644 34.4013 30.7829 33.9055 28.2231 34.7509C26.1119 35.449 24.765 37.4566 20.9677 37.4566C17.1704 37.4566 15.8552 35.4531 13.7092 34.7458C11.1545 33.9004 9.169 34.3962 8.49762 33.9331C7.95296 33.557 8.39544 32.5143 7.64537 32.0308C6.76042 31.4615 5.62408 31.5627 3.91549 30.6233C2.82718 30.0222 3.44439 29.6501 3.80716 29.4743C9.9998 26.4752 10.988 21.8447 11.0319 21.5012C11.085 21.0852 11.1443 20.7581 10.6865 20.3349C10.244 19.926 8.28098 18.7106 7.73632 18.3304C6.83502 17.7007 6.43852 17.0721 6.73078 16.2993C6.93516 15.7647 7.43384 15.5633 7.95705 15.5633C8.12241 15.5638 8.28722 15.5823 8.44857 15.6185C9.43776 15.8332 10.3983 16.3289 10.9532 16.4628C11.02 16.48 11.0886 16.4893 11.1576 16.4904C11.4539 16.4904 11.5582 16.3412 11.5377 16.0018C11.4744 14.9193 11.3211 12.8095 11.4918 10.8377C11.7258 8.12482 12.5995 6.78064 13.6377 5.59183C14.1364 5.02042 16.4796 2.54365 20.9606 2.54365C25.4415 2.54365 27.7908 5.0102 28.2895 5.57956C29.3288 6.76837 30.2035 8.11256 30.4355 10.8255C30.6061 12.7973 30.459 14.9081 30.3895 15.9896C30.366 16.3463 30.4733 16.4782 30.7696 16.4782C30.8386 16.4771 30.9072 16.4678 30.974 16.4506C31.5299 16.3167 32.4905 15.8209 33.4797 15.6062C33.641 15.5701 33.8059 15.5516 33.9712 15.551C34.4975 15.551 34.9931 15.7555 35.1975 16.287C35.4897 17.0598 35.0953 17.6884 34.193 18.3181C33.6483 18.6984 31.6853 19.9127 31.2428 20.3226C30.784 20.7458 30.8442 21.0729 30.8974 21.489C30.9413 21.8375 31.9285 26.4681 38.1221 29.4621C38.488 29.645 39.1052 30.0171 38.0169 30.6233Z" fill="black"/>
</svg>
