<svg width="57" height="56" viewBox="0 0 57 56" fill="none" xmlns="http://www.w3.org/2000/svg">
<g id="Group">
<g id="Group_2">
<path id="Vector" d="M3.49023 28.0859H10.3872" stroke="#4832D9" stroke-width="1.94373" stroke-miterlimit="10"/>
<path id="Vector_2" d="M28.4795 3.01172V9.9087" stroke="#4832D9" stroke-width="1.94373" stroke-miterlimit="10"/>
<path id="Vector_3" d="M53.5444 28H46.6475" stroke="#4832D9" stroke-width="1.94373" stroke-miterlimit="10"/>
<path id="Vector_4" d="M28.5557 53.0728V46.1758" stroke="#4832D9" stroke-width="1.94373" stroke-miterlimit="10"/>
</g>
<g id="Group_3">
<path id="Vector_5" d="M24.3718 34.6268C23.9497 34.6268 23.5756 34.339 23.4701 33.917L21.1104 23.3173C20.9665 22.7321 21.4078 22.1758 22.0121 22.1758H40.0555L37.0147 34.6268H24.3718Z" stroke="#4832D9" stroke-width="1.94373" stroke-miterlimit="10"/>
<path id="Vector_6" d="M37.8953 39.3371H22.7297C21.9814 39.3371 21.473 38.5793 21.7416 37.8886L23.4203 33.668" stroke="#4832D9" stroke-width="1.94373" stroke-miterlimit="10"/>
<path id="Vector_7" d="M25.2155 30.8503L24.5728 26.7159C24.5057 26.2939 24.7455 25.9102 25.0716 25.9102H35.8152C36.1509 25.9102 36.3907 26.3226 36.3044 26.7543L35.489 30.8886C35.4315 31.186 35.2301 31.397 34.9998 31.397H25.7239C25.4841 31.397 25.2731 31.1764 25.2251 30.8599L25.2155 30.8503Z" fill="#F2B705"/>
<path id="Vector_8" d="M16.3418 16.6602H17.349C18.3946 16.6602 19.421 17.5139 19.632 18.5595L21.1668 23.5955" stroke="#4832D9" stroke-width="1.94373" stroke-miterlimit="10"/>
</g>
<path id="Vector_9" d="M54.4534 29.8696C55.4917 29.8696 56.3335 29.0279 56.3335 27.9895C56.3335 26.9512 55.4917 26.1094 54.4534 26.1094C53.415 26.1094 52.5732 26.9512 52.5732 27.9895C52.5732 29.0279 53.415 29.8696 54.4534 29.8696Z" fill="#4832D9"/>
<path id="Vector_10" d="M2.22289 29.9946C3.26125 29.9946 4.103 29.1529 4.103 28.1145C4.103 27.0761 3.26125 26.2344 2.22289 26.2344C1.18452 26.2344 0.342773 27.0761 0.342773 28.1145C0.342773 29.1529 1.18452 29.9946 2.22289 29.9946Z" fill="#4832D9"/>
<path id="Vector_11" d="M28.4768 3.76026C29.5152 3.76026 30.3569 2.91851 30.3569 1.88014C30.3569 0.84178 29.5152 0 28.4768 0C27.4384 0 26.5967 0.84178 26.5967 1.88014C26.5967 2.91851 27.4384 3.76026 28.4768 3.76026Z" fill="#4832D9"/>
<path id="Vector_12" d="M28.5539 56.0024C29.5923 56.0024 30.4341 55.1607 30.4341 54.1223C30.4341 53.0839 29.5923 52.2422 28.5539 52.2422C27.5156 52.2422 26.6738 53.0839 26.6738 54.1223C26.6738 55.1607 27.5156 56.0024 28.5539 56.0024Z" fill="#4832D9"/>
</g>
</svg>
