<svg width="62" height="60" viewBox="0 0 62 60" fill="none" xmlns="http://www.w3.org/2000/svg">
<path d="M1.72568 14.3828H17.5924C19.1048 14.3828 20.3422 15.6065 20.3422 17.1327V30.2633C20.3422 31.7757 19.1185 33.0131 17.5924 33.0131H4.46177C2.94935 33.0131 1.71191 31.7894 1.71191 30.2633V14.3966L1.72568 14.3828Z" stroke="#4832D9" stroke-width="2.74986" stroke-miterlimit="10"/>
<path d="M4.4744 39.3672H17.605C19.1174 39.3672 20.3548 40.5909 20.3548 42.117V55.2476C20.3548 56.76 19.1312 57.9975 17.605 57.9975H1.73828V42.1308C1.73828 40.6184 2.96197 39.381 4.48814 39.381L4.4744 39.3672Z" stroke="#4832D9" stroke-width="2.74986" stroke-miterlimit="10"/>
<path d="M33.6516 39.3672H41.0762C44.1698 39.3672 46.6722 41.8696 46.6722 44.9632V57.9837H33.6516C30.558 57.9837 28.0557 55.4814 28.0557 52.3878V44.9632C28.0557 41.8696 30.558 39.3672 33.6516 39.3672Z" stroke="#4832D9" stroke-width="2.74986" stroke-miterlimit="10"/>
<path d="M28.0557 28.6277V18.7557C28.0557 16.3496 30.0081 14.3834 32.428 14.3834H46.6722V28.6277C46.6722 31.0338 44.7198 33 42.3 33H32.428C30.0218 33 28.0557 31.0476 28.0557 28.6277Z" fill="#F2B705" stroke="#F2B705" stroke-width="2.74986" stroke-miterlimit="10"/>
<path d="M38.5605 23.0658L54.3997 7.22656" stroke="#4832D9" stroke-width="2.74986" stroke-miterlimit="10"/>
<path d="M45.3125 3.04492L59.6668 2L58.6218 16.3543L45.3125 3.04492Z" fill="white" stroke="#4832D9" stroke-width="2.74986" stroke-linecap="round" stroke-linejoin="round"/>
</svg>
