<svg width="500" height="500" viewBox="0 0 500 500" fill="none" xmlns="http://www.w3.org/2000/svg">
<rect width="500" height="500" fill="#4832D9"/>
<path d="M250 100C167.175 100 100 167.175 100 250C100 291.413 116.794 328.913 143.941 356.059C171.088 383.206 208.588 400 250 400C291.413 400 328.913 383.206 356.059 356.059C383.206 328.913 400 291.413 400 250V100H250ZM310.012 250C310.012 266.553 303.27 281.601 292.436 292.436C281.601 303.331 266.553 310.012 250 310.012V250H189.988C189.988 216.834 216.894 189.988 250 189.988H310.012V250Z" fill="white"/>
</svg>
