<?xml version="1.0" encoding="UTF-8"?>
<svg xmlns="http://www.w3.org/2000/svg" width="27.94" height="21.637" viewBox="0 0 27.94 21.637">
  <g id="Group_20346" data-name="Group 20346" transform="translate(1812.97 -3284.178)">
    <g id="Group_20345" data-name="Group 20345">
      <g id="Group_20344" data-name="Group 20344">
        <path id="Path_69369" data-name="Path 69369" d="M256.807,94.874v18.247a1.2,1.2,0,0,0,1.2,1.195h21.271a1.2,1.2,0,0,0,1.2-1.195V94.874a1.2,1.2,0,0,0-1.2-1.2H258A1.2,1.2,0,0,0,256.807,94.874Z" transform="translate(-2066 3191)" fill="none" stroke="#4832d9" stroke-miterlimit="10" stroke-width="1"></path>
        <path id="Path_69370" data-name="Path 69370" d="M253.53,97.69v15.431a1.2,1.2,0,0,0,1.2,1.195H276a1.2,1.2,0,0,0,1.2-1.195V97.69a1.2,1.2,0,0,0-1.2-1.2H254.726A1.2,1.2,0,0,0,253.53,97.69Z" transform="translate(-2066 3191)" fill="#fff" stroke="#4832d9" stroke-miterlimit="10" stroke-width="1"></path>
        <path id="Path_69371" data-name="Path 69371" d="M262.994,101.312l4.735,4.09-4.735,4.1Z" transform="translate(-2066 3191)" fill="#f2b705" stroke="#f2b705" stroke-linecap="round" stroke-linejoin="round" stroke-width="1"></path>
      </g>
    </g>
  </g>
</svg>
