<svg width="683" height="517" viewBox="0 0 683 517" fill="none" xmlns="http://www.w3.org/2000/svg">
<g filter="url(#filter0_d_721_5512)">
<rect x="83" y="56" width="461" height="294.353" rx="11.0555" fill="white"/>
<path d="M443.586 99.1094H441.942V99.2448C441.942 100.057 441.755 100.793 441.381 101.45C441.007 102.108 440.491 102.624 439.833 102.998C439.175 103.372 438.44 103.559 437.627 103.559H436.679V100.967H437.627C438.143 100.967 438.556 100.805 438.866 100.483C439.188 100.173 439.349 99.7607 439.349 99.2448V89.7647H441.942V96.5169H443.586V99.1094ZM456.387 96.5169V99.1094H443.347L442.225 98.7031V96.9425L443.347 96.5169H451.067C450.925 96.3363 450.635 95.8333 450.196 95.0078L449.945 94.5434C449.416 93.589 448.855 92.8731 448.261 92.3959C447.668 91.9058 446.972 91.6607 446.172 91.6607C445.591 91.6607 444.934 91.7961 444.198 92.067V89.6873C444.972 89.4035 445.727 89.2617 446.462 89.2617C447.752 89.2617 448.932 89.6873 450.003 90.5386C451.086 91.377 452.015 92.5894 452.789 94.1758C453.24 95.1303 453.608 95.7559 453.891 96.0525C454.175 96.3363 454.44 96.4911 454.685 96.5169H456.387ZM449.151 100.56C449.564 100.56 449.919 100.709 450.215 101.005C450.525 101.302 450.68 101.657 450.68 102.069C450.68 102.495 450.525 102.856 450.215 103.153C449.919 103.45 449.564 103.598 449.151 103.598C448.739 103.598 448.377 103.45 448.068 103.153C447.771 102.856 447.623 102.495 447.623 102.069C447.623 101.67 447.771 101.315 448.068 101.005C448.377 100.709 448.739 100.56 449.151 100.56ZM459.036 88.5652C458.623 88.5652 458.262 88.4168 457.952 88.1202C457.656 87.8106 457.507 87.4495 457.507 87.0367C457.507 86.624 457.656 86.2693 457.952 85.9726C458.262 85.676 458.623 85.5277 459.036 85.5277C459.448 85.5277 459.803 85.676 460.1 85.9726C460.409 86.2693 460.564 86.624 460.564 87.0367C460.564 87.4495 460.409 87.8106 460.1 88.1202C459.803 88.4168 459.448 88.5652 459.036 88.5652ZM463.176 88.5652C462.763 88.5652 462.402 88.4168 462.093 88.1202C461.796 87.8106 461.648 87.4495 461.648 87.0367C461.648 86.624 461.796 86.2693 462.093 85.9726C462.402 85.676 462.763 85.5277 463.176 85.5277C463.589 85.5277 463.943 85.676 464.24 85.9726C464.537 86.2693 464.685 86.624 464.685 87.0367C464.685 87.4495 464.537 87.8106 464.24 88.1202C463.943 88.4168 463.589 88.5652 463.176 88.5652ZM466.388 96.5169V99.1094H463.35C462.912 99.1094 462.486 99.0126 462.073 98.8192C461.673 98.6257 461.306 98.3548 460.97 98.0066C460.3 98.7418 459.378 99.1094 458.204 99.1094H456.269L455.147 98.7031V96.9425L456.269 96.5169H458.242C458.784 96.5169 459.158 96.3814 459.365 96.1106C459.571 95.8268 459.674 95.4399 459.674 94.9497V92.5313L459.655 89.9388H462.267V93.905C462.267 94.1629 462.26 94.3629 462.247 94.5047V94.9497C462.247 95.427 462.351 95.8075 462.557 96.0912C462.776 96.375 463.157 96.5169 463.698 96.5169H466.388ZM478.611 99.1094H477.953C477.424 99.1094 476.934 99.0062 476.483 98.7998C476.031 98.5806 475.657 98.2839 475.361 97.9099C475 98.271 474.58 98.5548 474.103 98.7611C473.626 98.9546 473.129 99.0513 472.613 99.0513C472.033 99.0513 471.465 98.961 470.911 98.7805C470.369 98.587 469.879 98.3226 469.44 97.9872C469.131 98.3355 468.757 98.6128 468.318 98.8192C467.88 99.0126 467.396 99.1094 466.867 99.1094H466.171L465.049 98.7031V96.9231L466.171 96.5169H466.867C467.19 96.5169 467.448 96.4201 467.641 96.2266C467.835 96.0332 467.931 95.7752 467.931 95.4528V93.5374C467.931 92.7119 468.118 91.9638 468.492 91.2931C468.879 90.6224 469.408 90.0936 470.079 89.7067C470.75 89.3197 471.498 89.1262 472.323 89.1262H472.517C473.342 89.1262 474.084 89.3197 474.742 89.7067C475.412 90.0936 475.941 90.6224 476.328 91.2931C476.715 91.9638 476.908 92.7119 476.908 93.5374V95.4528C476.908 95.7752 476.999 96.0332 477.179 96.2266C477.373 96.4201 477.631 96.5169 477.953 96.5169H478.611V99.1094ZM472.613 96.4588C473.078 96.4588 473.478 96.2847 473.813 95.9364C474.148 95.5753 474.316 95.1432 474.316 94.6402V93.5374C474.316 92.9828 474.148 92.5442 473.813 92.2218C473.49 91.8864 473.058 91.7188 472.517 91.7188H472.323C471.781 91.7188 471.343 91.8864 471.008 92.2218C470.672 92.5442 470.505 92.9828 470.505 93.5374V95.5108C470.737 95.8204 471.04 96.059 471.414 96.2266C471.788 96.3814 472.188 96.4588 472.613 96.4588ZM482.691 85.6437V96.6329C482.691 97.3294 482.452 97.9163 481.975 98.3935C481.497 98.8708 480.911 99.1094 480.214 99.1094H478.376L477.254 98.7031V96.9425L478.376 96.5169H479.343C479.537 96.5169 479.711 96.4459 479.866 96.304C480.021 96.1622 480.098 95.9558 480.098 95.6849V85.6437H482.691ZM485.266 99.1094V85.6437H487.859V99.1094H485.266ZM503.854 99.1094H502.906V99.98C502.906 100.702 502.725 101.341 502.364 101.895C502.003 102.463 501.467 102.908 500.758 103.23C500.062 103.553 499.223 103.714 498.243 103.714C497.353 103.714 496.379 103.572 495.321 103.288V100.889C496.289 101.083 497.095 101.18 497.74 101.18C499.455 101.18 500.313 100.567 500.313 99.3415V99.0707H498.185C497.424 99.0707 496.714 98.8708 496.057 98.4709C495.412 98.0711 494.896 97.5358 494.509 96.8651C494.135 96.1944 493.948 95.4657 493.948 94.6789V93.5374C493.948 92.7119 494.135 91.9703 494.509 91.3125C494.896 90.6418 495.425 90.1129 496.095 89.726C496.766 89.3391 497.514 89.1456 498.34 89.1456H498.533C499.359 89.1456 500.1 89.3391 500.758 89.726C501.429 90.1129 501.951 90.6418 502.325 91.3125C502.712 91.9703 502.906 92.7119 502.906 93.5374V96.5169H503.854V99.1094ZM496.521 94.6789C496.521 95.169 496.689 95.5946 497.024 95.9558C497.372 96.3169 497.772 96.4975 498.224 96.4975H500.313V93.5374C500.313 92.9957 500.145 92.5571 499.81 92.2218C499.488 91.8864 499.062 91.7188 498.533 91.7188H498.34C497.798 91.7188 497.359 91.8864 497.024 92.2218C496.689 92.5571 496.521 92.9957 496.521 93.5374V94.6789ZM516.153 99.1094H515.495C514.966 99.1094 514.476 99.0062 514.025 98.7998C513.573 98.5806 513.199 98.2839 512.902 97.9099C512.541 98.271 512.122 98.5548 511.645 98.7611C511.168 98.9546 510.671 99.0513 510.155 99.0513C509.575 99.0513 509.007 98.961 508.453 98.7805C507.911 98.587 507.421 98.3226 506.982 97.9872C506.673 98.3355 506.299 98.6128 505.86 98.8192C505.422 99.0126 504.938 99.1094 504.409 99.1094H503.713L502.59 98.7031V96.9231L503.713 96.5169H504.409C504.732 96.5169 504.989 96.4201 505.183 96.2266C505.376 96.0332 505.473 95.7752 505.473 95.4528V93.5374C505.473 92.7119 505.66 91.9638 506.034 91.2931C506.421 90.6224 506.95 90.0936 507.621 89.7067C508.291 89.3197 509.039 89.1262 509.865 89.1262H510.058C510.884 89.1262 511.626 89.3197 512.283 89.7067C512.954 90.0936 513.483 90.6224 513.87 91.2931C514.257 91.9638 514.45 92.7119 514.45 93.5374V95.4528C514.45 95.7752 514.541 96.0332 514.721 96.2266C514.915 96.4201 515.173 96.5169 515.495 96.5169H516.153V99.1094ZM510.155 96.4588C510.619 96.4588 511.019 96.2847 511.355 95.9364C511.69 95.5753 511.858 95.1432 511.858 94.6402V93.5374C511.858 92.9828 511.69 92.5442 511.355 92.2218C511.032 91.8864 510.6 91.7188 510.058 91.7188H509.865C509.323 91.7188 508.885 91.8864 508.549 92.2218C508.214 92.5442 508.046 92.9828 508.046 93.5374V95.5108C508.278 95.8204 508.582 96.059 508.956 96.2266C509.33 96.3814 509.73 96.4588 510.155 96.4588ZM519.284 88.6813C518.872 88.6813 518.51 88.5329 518.201 88.2363C517.904 87.9396 517.756 87.5785 517.756 87.1528C517.756 86.7401 517.904 86.3854 518.201 86.0887C518.51 85.7921 518.872 85.6437 519.284 85.6437C519.697 85.6437 520.052 85.7921 520.348 86.0887C520.658 86.3854 520.813 86.7401 520.813 87.1528C520.813 87.5785 520.658 87.9396 520.348 88.2363C520.052 88.5329 519.697 88.6813 519.284 88.6813ZM517.446 96.5169C517.64 96.5169 517.814 96.4459 517.969 96.304C518.123 96.1622 518.201 95.9558 518.201 95.6849V89.9388H520.793V96.6329C520.793 97.3294 520.548 97.9163 520.058 98.3935C519.581 98.8708 519.001 99.1094 518.317 99.1094H515.647V96.5169H517.446Z" fill="#1D1E25"/>
<line x1="131.616" y1="290.059" x2="131.616" y2="136.823" stroke="#E6E9ED" stroke-width="1.38194" stroke-dasharray="2.76 2.76"/>
<line x1="194.164" y1="290.059" x2="194.164" y2="136.823" stroke="#E6E9ED" stroke-width="1.38194" stroke-dasharray="2.76 2.76"/>
<line x1="256.711" y1="290.059" x2="256.711" y2="136.823" stroke="#E6E9ED" stroke-width="1.38194" stroke-dasharray="2.76 2.76"/>
<line x1="319.26" y1="290.059" x2="319.26" y2="136.823" stroke="#E6E9ED" stroke-width="1.38194" stroke-dasharray="2.76 2.76"/>
<line x1="381.809" y1="290.059" x2="381.809" y2="136.823" stroke="#E6E9ED" stroke-width="1.38194" stroke-dasharray="2.76 2.76"/>
<line x1="444.356" y1="290.059" x2="444.356" y2="136.823" stroke="#E6E9ED" stroke-width="1.38194" stroke-dasharray="2.76 2.76"/>
<line x1="506.905" y1="290.059" x2="506.905" y2="136.823" stroke="#E6E9ED" stroke-width="1.38194" stroke-dasharray="2.76 2.76"/>
<path d="M168.793 237.482L135.891 258.088C133.47 259.604 132 262.259 132 265.115V280.165C132 284.745 135.712 288.457 140.292 288.457H500.108C504.687 288.457 508.399 284.745 508.399 280.165V180.719L509.387 147.24C509.55 141.7 502.231 139.579 499.407 144.348C498.599 145.713 497.229 146.65 495.664 146.908L469.45 151.234C469.026 151.304 468.609 151.407 468.201 151.541L449.966 157.56L419.421 168.493C418.948 168.663 418.461 168.789 417.965 168.87L390.596 173.348C390.154 173.42 389.706 173.456 389.258 173.456H371.749C370.846 173.456 369.949 173.604 369.093 173.893L343.003 182.714C342.182 182.992 341.41 183.396 340.715 183.912L320.435 198.971C319.766 199.468 319.026 199.861 318.24 200.137L297.786 207.324L285.918 212.163L259.649 221.499C259.014 221.725 258.355 221.872 257.684 221.938L230.511 224.612L197.961 232.207L171.901 236.319C170.797 236.493 169.74 236.889 168.793 237.482Z" fill="url(#paint0_linear_721_5512)" fill-opacity="0.5"/>
<path d="M132.307 260.487L168.464 237.616C169.57 236.917 170.825 236.489 172.127 236.368L194.102 234.318C194.588 234.273 195.069 234.185 195.54 234.055L229.23 224.747C229.62 224.639 230.016 224.56 230.417 224.51L257.018 221.208C257.479 221.15 257.935 221.055 258.379 220.921L284.419 213.109C285.037 212.924 285.632 212.667 286.191 212.343L297.41 205.848C298.118 205.438 298.883 205.135 299.68 204.949L316.995 200.909C318.443 200.571 319.774 199.85 320.847 198.821L334.427 185.811C335.325 184.951 336.404 184.304 337.586 183.917L370.465 173.165C371.297 172.892 372.167 172.754 373.042 172.754H400.116C400.988 172.754 401.855 172.616 402.685 172.346L413.093 168.953L456.019 154.789L475.367 149.952L506.46 141.66" stroke="#4832D9" stroke-width="4.14582" stroke-linecap="round"/>
<path d="M125.659 315.464V316.758H124.001V317.123C124.001 319.03 122.558 320.456 120.651 320.456H119.822V319.179H120.651C121.845 319.179 122.708 318.333 122.708 317.123V308.814H124.001V315.464H125.659ZM124.605 316.758V315.464H127.175C127.59 315.464 127.955 315.182 127.955 314.652V308.897H129.248V315.05C129.248 316.028 128.519 316.758 127.557 316.758H124.605ZM125.998 320.008C125.55 320.008 125.169 319.643 125.169 319.179C125.169 318.731 125.55 318.35 125.998 318.35C126.462 318.35 126.827 318.731 126.827 319.179C126.827 319.643 126.462 320.008 125.998 320.008ZM128.684 320.008C128.237 320.008 127.839 319.643 127.839 319.179C127.839 318.731 128.237 318.35 128.684 318.35C129.132 318.35 129.514 318.731 129.514 319.179C129.514 319.643 129.132 320.008 128.684 320.008ZM130.942 305.216H132.235V314.652C132.235 315.182 132.616 315.464 133.031 315.464H134.092V316.758H132.65C131.688 316.758 130.942 316.028 130.942 315.05V305.216ZM135.805 307.504C135.357 307.504 134.976 307.123 134.976 306.675C134.976 306.227 135.357 305.846 135.805 305.846C136.27 305.846 136.634 306.227 136.634 306.675C136.634 307.123 136.27 307.504 135.805 307.504ZM137.911 315.464H138.492V316.758H137.745C136.999 316.758 136.369 316.376 135.921 315.829C135.507 316.376 134.877 316.758 133.948 316.758H133.251L132.688 316.542V315.68L133.251 315.464H133.964C134.893 315.464 135.291 314.851 135.291 314.071V308.914H136.585V313.64C136.585 313.756 136.585 313.889 136.568 314.022V314.071C136.568 314.851 136.999 315.464 137.911 315.464ZM137.431 316.758V315.464H140.002C140.416 315.464 140.781 315.182 140.781 314.652V308.897H142.074V315.05C142.074 316.028 141.345 316.758 140.383 316.758H137.431ZM138.824 320.008C138.376 320.008 137.995 319.643 137.995 319.179C137.995 318.731 138.376 318.35 138.824 318.35C139.288 318.35 139.653 318.731 139.653 319.179C139.653 319.643 139.288 320.008 138.824 320.008ZM141.511 320.008C141.063 320.008 140.665 319.643 140.665 319.179C140.665 318.731 141.063 318.35 141.511 318.35C141.958 318.35 142.34 318.731 142.34 319.179C142.34 319.643 141.958 320.008 141.511 320.008Z" fill="#808D9E"/>
<path d="M184.865 315.464V316.758H183.207V317.123C183.207 319.03 181.764 320.456 179.857 320.456H179.028V319.179H179.857C181.051 319.179 181.913 318.333 181.913 317.123V308.814H183.207V315.464H184.865ZM183.81 316.758V315.464H186.381C186.795 315.464 187.16 315.182 187.16 314.652V308.897H188.454V315.05C188.454 316.028 187.724 316.758 186.762 316.758H183.81ZM185.203 320.008C184.756 320.008 184.374 319.643 184.374 319.179C184.374 318.731 184.756 318.35 185.203 318.35C185.668 318.35 186.033 318.731 186.033 319.179C186.033 319.643 185.668 320.008 185.203 320.008ZM187.89 320.008C187.442 320.008 187.044 319.643 187.044 319.179C187.044 318.731 187.442 318.35 187.89 318.35C188.338 318.35 188.719 318.731 188.719 319.179C188.719 319.643 188.338 320.008 187.89 320.008ZM191.523 316.758H190.23V305.216H191.523V316.758ZM196.881 315.464V316.758H195.223V317.123C195.223 319.03 193.78 320.456 191.873 320.456H191.044V319.179H191.873C193.067 319.179 193.929 318.333 193.929 317.123V308.814H195.223V315.464H196.881ZM200.885 315.464H201.697V316.758H200.702C199.956 316.758 199.326 316.376 198.878 315.829C198.48 316.376 197.85 316.758 196.921 316.758H195.993L195.429 316.542V315.68L195.993 315.464H196.921C197.85 315.464 198.248 314.851 198.248 314.071V308.914H199.541V314.071C199.541 314.851 199.956 315.464 200.885 315.464ZM198.862 318.482C199.326 318.482 199.691 318.864 199.691 319.312C199.691 319.776 199.326 320.157 198.862 320.157C198.414 320.157 198.032 319.776 198.032 319.312C198.032 318.864 198.414 318.482 198.862 318.482ZM205.237 306.841C204.823 306.841 204.458 306.493 204.441 306.062C204.408 305.597 204.79 305.183 205.271 305.183C205.718 305.183 206.083 305.548 206.1 305.995C206.1 306.46 205.718 306.858 205.237 306.841ZM205.304 308.4C207.178 308.4 208.67 309.892 208.67 311.783V313.59C208.67 315.332 207.261 316.741 205.503 316.741H200.76L200.196 316.542V315.663L200.76 315.448H202.767C202.17 314.983 201.772 314.221 201.772 313.375V311.783C201.772 309.892 203.247 308.4 205.138 308.4H205.304ZM207.377 313.458V311.783C207.377 310.605 206.481 309.693 205.304 309.693H205.138C203.961 309.693 203.065 310.605 203.065 311.783V313.375C203.065 314.519 203.961 315.448 205.038 315.448H205.387C206.481 315.448 207.377 314.569 207.377 313.458Z" fill="#808D9E"/>
<path d="M256.268 308.698H257.562V313.972C257.562 315.514 256.318 316.758 254.776 316.758C253.797 316.758 253.001 316.443 252.504 315.912C252.039 316.426 251.376 316.758 250.63 316.758H248.822C248.706 319.262 246.716 321.186 244.179 321.186H244.096C241.492 321.186 239.469 319.146 239.469 316.542V313.159H240.746V316.542C240.746 318.516 242.123 319.892 244.096 319.892H244.146C246.119 319.892 247.529 318.516 247.529 316.542V310.124H248.822V315.464H250.564C251.293 315.464 251.84 314.9 251.84 314.187V310.124H253.134V314.237C253.134 315 253.714 315.464 254.776 315.464C255.605 315.464 256.268 314.801 256.268 313.972V308.698ZM257.584 320.456V319.179H258.43C259.624 319.179 260.47 318.333 260.47 317.123V308.814H261.763V317.123C261.763 319.03 260.337 320.456 258.43 320.456H257.584ZM263.424 305.216H264.717V314.652C264.717 315.182 265.098 315.464 265.513 315.464H266.574V316.758H265.132C264.17 316.758 263.424 316.028 263.424 315.05V305.216ZM271.421 308.4C273.362 308.4 274.788 309.843 274.788 311.766V313.325C274.788 315.166 273.328 316.691 271.521 316.691C270.41 316.691 269.382 316.277 268.652 315.531C268.237 316.277 267.441 316.758 266.48 316.758H265.75L265.186 316.542V315.68L265.75 315.464H266.48C267.309 315.464 267.889 314.884 267.889 314.038V311.766C267.889 309.843 269.332 308.4 271.256 308.4H271.421ZM273.511 313.325V311.766C273.511 310.556 272.649 309.693 271.421 309.693H271.256C270.028 309.693 269.183 310.556 269.183 311.766V314.27C269.697 314.983 270.559 315.398 271.521 315.398C272.599 315.398 273.511 314.469 273.511 313.325Z" fill="#808D9E"/>
<path d="M317.469 315.464V316.758H315.396C315.28 319.312 313.34 321.186 310.736 321.186H310.67C308.016 321.186 306.059 319.212 306.059 316.542V313.159H307.336V316.542C307.336 318.516 308.713 319.892 310.67 319.892H310.736C312.709 319.892 314.102 318.516 314.102 316.542V305.216H315.396V315.464H317.469ZM316.551 316.758V315.464H319.122C319.536 315.464 319.901 315.182 319.901 314.652V308.897H321.195V315.05C321.195 316.028 320.465 316.758 319.503 316.758H316.551ZM317.944 320.008C317.497 320.008 317.115 319.643 317.115 319.179C317.115 318.731 317.497 318.35 317.944 318.35C318.409 318.35 318.774 318.731 318.774 319.179C318.774 319.643 318.409 320.008 317.944 320.008ZM320.631 320.008C320.183 320.008 319.785 319.643 319.785 319.179C319.785 318.731 320.183 318.35 320.631 318.35C321.079 318.35 321.46 318.731 321.46 319.179C321.46 319.643 321.079 320.008 320.631 320.008ZM327.949 315.464V316.758H326.291V317.123C326.291 319.03 324.848 320.456 322.941 320.456H322.112V319.179H322.941C324.135 319.179 324.997 318.333 324.997 317.123V308.814H326.291V315.464H327.949ZM326.845 316.758V315.464H328.553C328.951 315.464 329.332 315.182 329.332 314.652V308.897H330.626V315.05C330.626 316.028 329.879 316.758 328.918 316.758H326.845ZM329.117 320.207C328.669 320.207 328.287 319.842 328.287 319.378C328.287 318.93 328.669 318.549 329.117 318.549C329.581 318.549 329.946 318.93 329.946 319.378C329.946 319.842 329.581 320.207 329.117 320.207ZM333.474 316.758H332.18V305.216H333.474V316.758Z" fill="#808D9E"/>
<path d="M379.137 315.464V316.758H378.142V317.504C378.142 319.826 376.268 320.887 372.553 320.257V319.046C375.754 319.461 376.848 318.864 376.848 317.239V316.741H374.477C372.686 316.725 371.243 315.199 371.243 313.375V311.783C371.243 309.859 372.669 308.4 374.61 308.4H374.775C376.716 308.4 378.142 309.859 378.142 311.783V315.464H379.137ZM374.51 315.448H376.848V311.783C376.848 310.556 375.986 309.693 374.775 309.693H374.61C373.382 309.693 372.537 310.556 372.537 311.783V313.375C372.537 314.519 373.432 315.448 374.51 315.448ZM378.171 316.758V315.464H380.742C381.156 315.464 381.521 315.182 381.521 314.652V308.897H382.814V315.05C382.814 316.028 382.085 316.758 381.123 316.758H378.171ZM379.564 320.008C379.116 320.008 378.735 319.643 378.735 319.179C378.735 318.731 379.116 318.35 379.564 318.35C380.028 318.35 380.393 318.731 380.393 319.179C380.393 319.643 380.028 320.008 379.564 320.008ZM382.251 320.008C381.803 320.008 381.405 319.643 381.405 319.179C381.405 318.731 381.803 318.35 382.251 318.35C382.698 318.35 383.08 318.731 383.08 319.179C383.08 319.643 382.698 320.008 382.251 320.008ZM384.508 305.216H385.801V314.652C385.801 315.182 386.183 315.464 386.597 315.464H387.659V316.758H386.216C385.254 316.758 384.508 316.028 384.508 315.05V305.216ZM392.506 308.4C394.446 308.4 395.872 309.843 395.872 311.766V313.325C395.872 315.166 394.413 316.691 392.605 316.691C391.494 316.691 390.466 316.277 389.736 315.531C389.322 316.277 388.526 316.758 387.564 316.758H386.834L386.27 316.542V315.68L386.834 315.464H387.564C388.393 315.464 388.973 314.884 388.973 314.038V311.766C388.973 309.843 390.416 308.4 392.34 308.4H392.506ZM394.595 313.325V311.766C394.595 310.556 393.733 309.693 392.506 309.693H392.34C391.113 309.693 390.267 310.556 390.267 311.766V314.27C390.781 314.983 391.643 315.398 392.605 315.398C393.683 315.398 394.595 314.469 394.595 313.325Z" fill="#808D9E"/>
<path d="M438.814 315.464V316.758H437.819V317.504C437.819 319.826 435.945 320.887 432.231 320.257V319.046C435.431 319.461 436.526 318.864 436.526 317.239V316.741H434.154C432.363 316.725 430.921 315.199 430.921 313.375V311.783C430.921 309.859 432.347 308.4 434.287 308.4H434.453C436.393 308.4 437.819 309.859 437.819 311.783V315.464H438.814ZM434.188 315.448H436.526V311.783C436.526 310.556 435.664 309.693 434.453 309.693H434.287C433.06 309.693 432.214 310.556 432.214 311.783V313.375C432.214 314.519 433.11 315.448 434.188 315.448ZM443.321 315.464H444.465V316.758H443.155C442.409 316.758 441.762 316.376 441.315 315.829C440.917 316.376 440.286 316.758 439.358 316.758H438.015L437.451 316.542V315.68L438.015 315.464H439.374C440.27 315.464 440.684 314.867 440.701 314.104L440.684 308.914H441.978V314.071C441.978 314.851 442.409 315.464 443.321 315.464ZM439.789 318.283C440.253 318.283 440.618 318.665 440.618 319.113C440.618 319.577 440.253 319.958 439.789 319.958C439.341 319.958 438.96 319.577 438.96 319.113C438.96 318.665 439.341 318.283 439.789 318.283ZM442.475 318.283C442.923 318.283 443.305 318.665 443.305 319.113C443.305 319.577 442.923 319.958 442.475 319.958C442.028 319.958 441.646 319.577 441.646 319.113C441.646 318.665 442.028 318.283 442.475 318.283ZM446.361 307.703C445.913 307.703 445.532 307.322 445.532 306.874C445.532 306.426 445.913 306.028 446.361 306.028C446.808 306.028 447.19 306.426 447.19 306.874C447.19 307.322 446.808 307.703 446.361 307.703ZM443.359 316.758V315.464H445.067C445.465 315.464 445.847 315.182 445.847 314.652V308.897H447.14V315.05C447.14 316.028 446.394 316.758 445.432 316.758H443.359ZM456.224 315.464V316.758H455.229V317.504C455.229 319.826 453.355 320.887 449.64 320.257V319.046C452.841 319.461 453.935 318.864 453.935 317.239V316.741H451.564C449.773 316.725 448.33 315.199 448.33 313.375V311.783C448.33 309.859 449.756 308.4 451.696 308.4H451.862C453.802 308.4 455.229 309.859 455.229 311.783V315.464H456.224ZM451.597 315.448H453.935V311.783C453.935 310.556 453.073 309.693 451.862 309.693H451.696C450.469 309.693 449.623 310.556 449.623 311.783V313.375C449.623 314.519 450.519 315.448 451.597 315.448ZM455.258 316.758V315.464H457.828C458.243 315.464 458.608 315.182 458.608 314.652V308.897H459.901V315.05C459.901 316.028 459.172 316.758 458.21 316.758H455.258ZM456.651 320.008C456.203 320.008 455.822 319.643 455.822 319.179C455.822 318.731 456.203 318.35 456.651 318.35C457.115 318.35 457.48 318.731 457.48 319.179C457.48 319.643 457.115 320.008 456.651 320.008ZM459.337 320.008C458.89 320.008 458.492 319.643 458.492 319.179C458.492 318.731 458.89 318.35 459.337 318.35C459.785 318.35 460.167 318.731 460.167 319.179C460.167 319.643 459.785 320.008 459.337 320.008Z" fill="#808D9E"/>
<path d="M501.738 315.464V316.758H500.743V317.504C500.743 319.826 498.869 320.887 495.155 320.257V319.046C498.355 319.461 499.45 318.864 499.45 317.239V316.741H497.078C495.287 316.725 493.845 315.199 493.845 313.375V311.783C493.845 309.859 495.271 308.4 497.211 308.4H497.377C499.317 308.4 500.743 309.859 500.743 311.783V315.464H501.738ZM497.112 315.448H499.45V311.783C499.45 310.556 498.588 309.693 497.377 309.693H497.211C495.984 309.693 495.138 310.556 495.138 311.783V313.375C495.138 314.519 496.034 315.448 497.112 315.448ZM506.245 315.464H507.389V316.758H506.079C505.333 316.758 504.686 316.376 504.239 315.829C503.841 316.376 503.21 316.758 502.282 316.758H500.939L500.375 316.542V315.68L500.939 315.464H502.298C503.194 315.464 503.608 314.867 503.625 314.104L503.608 308.914H504.902V314.071C504.902 314.851 505.333 315.464 506.245 315.464ZM502.713 318.283C503.177 318.283 503.542 318.665 503.542 319.113C503.542 319.577 503.177 319.958 502.713 319.958C502.265 319.958 501.884 319.577 501.884 319.113C501.884 318.665 502.265 318.283 502.713 318.283ZM505.399 318.283C505.847 318.283 506.229 318.665 506.229 319.113C506.229 319.577 505.847 319.958 505.399 319.958C504.952 319.958 504.57 319.577 504.57 319.113C504.57 318.665 504.952 318.283 505.399 318.283ZM508.373 305.216H509.666V315.05C509.666 316.028 508.92 316.758 507.958 316.758H506.515L505.968 316.542V315.68L506.515 315.464H507.593C507.991 315.464 508.373 315.182 508.373 314.652V305.216ZM518.872 315.464V316.758H517.877V317.504C517.877 319.826 516.003 320.887 512.289 320.257V319.046C515.489 319.461 516.584 318.864 516.584 317.239V316.741H514.212C512.421 316.725 510.979 315.199 510.979 313.375V311.783C510.979 309.859 512.405 308.4 514.345 308.4H514.511C516.451 308.4 517.877 309.859 517.877 311.783V315.464H518.872ZM514.246 315.448H516.584V311.783C516.584 310.556 515.721 309.693 514.511 309.693H514.345C513.118 309.693 512.272 310.556 512.272 311.783V313.375C512.272 314.519 513.168 315.448 514.246 315.448ZM517.907 316.758V315.464H520.477C520.892 315.464 521.256 315.182 521.256 314.652V308.897H522.55V315.05C522.55 316.028 521.82 316.758 520.858 316.758H517.907ZM519.3 320.008C518.852 320.008 518.47 319.643 518.47 319.179C518.47 318.731 518.852 318.35 519.3 318.35C519.764 318.35 520.129 318.731 520.129 319.179C520.129 319.643 519.764 320.008 519.3 320.008ZM521.986 320.008C521.538 320.008 521.14 319.643 521.14 319.179C521.14 318.731 521.538 318.35 521.986 318.35C522.434 318.35 522.815 318.731 522.815 319.179C522.815 319.643 522.434 320.008 521.986 320.008Z" fill="#808D9E"/>
</g>
<defs>
<filter id="filter0_d_721_5512" x="0.0835724" y="0.722382" width="682.11" height="515.462" filterUnits="userSpaceOnUse" color-interpolation-filters="sRGB">
<feFlood flood-opacity="0" result="BackgroundImageFix"/>
<feColorMatrix in="SourceAlpha" type="matrix" values="0 0 0 0 0 0 0 0 0 0 0 0 0 0 0 0 0 0 127 0" result="hardAlpha"/>
<feOffset dx="27.6388" dy="55.2776"/>
<feGaussianBlur stdDeviation="55.2776"/>
<feComposite in2="hardAlpha" operator="out"/>
<feColorMatrix type="matrix" values="0 0 0 0 0.178125 0 0 0 0 0.200292 0 0 0 0 0.316667 0 0 0 0.12 0"/>
<feBlend mode="multiply" in2="BackgroundImageFix" result="effect1_dropShadow_721_5512"/>
<feBlend mode="normal" in="SourceGraphic" in2="effect1_dropShadow_721_5512" result="shape"/>
</filter>
<linearGradient id="paint0_linear_721_5512" x1="320.2" y1="136.825" x2="320.2" y2="288.456" gradientUnits="userSpaceOnUse">
<stop stop-color="#4832D9"/>
<stop offset="1" stop-color="white" stop-opacity="0"/>
</linearGradient>
</defs>
</svg>
