<svg width="43" height="49" viewBox="0 0 43 49" fill="none" xmlns="http://www.w3.org/2000/svg">
<g clip-path="url(#clip0_603_5187)">
<path d="M10.4296 40.6619C13.1192 40.6619 15.2996 38.4815 15.2996 35.7919C15.2996 33.1022 13.1192 30.9219 10.4296 30.9219C7.73994 30.9219 5.55957 33.1022 5.55957 35.7919C5.55957 38.4815 7.73994 40.6619 10.4296 40.6619Z" fill="#F2B705" stroke="#F2B705" stroke-miterlimit="10"/>
<path d="M31.8298 18.6908C33.8014 18.6908 35.3998 17.0924 35.3998 15.1208C35.3998 13.1491 33.8014 11.5508 31.8298 11.5508C29.8581 11.5508 28.2598 13.1491 28.2598 15.1208C28.2598 17.0924 29.8581 18.6908 31.8298 18.6908Z" fill="white" stroke="#4832D9" stroke-width="2" stroke-miterlimit="10"/>
<path d="M37.5297 32.1406L30.2197 39.4506" stroke="#4832D9" stroke-width="2" stroke-miterlimit="10"/>
<path d="M30.2197 32.1406L37.5297 39.4506" stroke="#4832D9" stroke-width="2" stroke-miterlimit="10"/>
<path d="M18.3496 36.3008H27.7896" stroke="#4832D9" stroke-width="2" stroke-miterlimit="10"/>
<path d="M16.7295 30.22L26.9595 20" stroke="#4832D9" stroke-width="2" stroke-miterlimit="10"/>
<path d="M39.9998 3.76953H3.08984C1.98527 3.76953 1.08984 4.66496 1.08984 5.76953V45.3495C1.08984 46.4541 1.98527 47.3495 3.08984 47.3495H39.9998C41.1044 47.3495 41.9998 46.4541 41.9998 45.3495V5.76953C41.9998 4.66496 41.1044 3.76953 39.9998 3.76953Z" stroke="#4832D9" stroke-width="2" stroke-miterlimit="10"/>
<path d="M13.5397 12.4609H9.21973C8.94358 12.4609 8.71973 12.6848 8.71973 12.9609V17.2809C8.71973 17.5571 8.94358 17.7809 9.21973 17.7809H13.5397C13.8159 17.7809 14.0397 17.5571 14.0397 17.2809V12.9609C14.0397 12.6848 13.8159 12.4609 13.5397 12.4609Z" stroke="#4832D9" stroke-width="1.5" stroke-miterlimit="10"/>
<path d="M15.4297 0.75H27.6597C28.2097 0.75 28.6597 1.2 28.6597 1.75V6.82H14.4297V1.75C14.4297 1.2 14.8797 0.75 15.4297 0.75Z" fill="white" stroke="#4832D9" stroke-width="1.5" stroke-miterlimit="10"/>
</g>
<defs>
<clipPath id="clip0_603_5187">
<rect width="42.91" height="48.35" fill="white" transform="translate(0.0898438)"/>
</clipPath>
</defs>
</svg>
