<svg width="53" height="53" viewBox="0 0 53 53" fill="none" xmlns="http://www.w3.org/2000/svg">
<g clip-path="url(#clip0_603_5168)">
<path d="M18.7062 23.9727H15.6162C15.3401 23.9727 15.1162 24.1965 15.1162 24.4727V35.1727C15.1162 35.4488 15.3401 35.6727 15.6162 35.6727H18.7062C18.9824 35.6727 19.2062 35.4488 19.2062 35.1727V24.4727C19.2062 24.1965 18.9824 23.9727 18.7062 23.9727Z" stroke="#4832D9" stroke-width="2" stroke-miterlimit="10"/>
<path d="M27.4764 27.4609H24.8164C24.5403 27.4609 24.3164 27.6848 24.3164 27.9609V35.1709C24.3164 35.4471 24.5403 35.6709 24.8164 35.6709H27.4764C27.7525 35.6709 27.9764 35.4471 27.9764 35.1709V27.9609C27.9764 27.6848 27.7525 27.4609 27.4764 27.4609Z" fill="#F2B705" stroke="#F2B705" stroke-width="2" stroke-miterlimit="10"/>
<path d="M37.3566 15.7109H33.5566C33.2805 15.7109 33.0566 15.9348 33.0566 16.2109V35.1709C33.0566 35.4471 33.2805 35.6709 33.5566 35.6709H37.3566C37.6328 35.6709 37.8566 35.4471 37.8566 35.1709V16.2109C37.8566 15.9348 37.6328 15.7109 37.3566 15.7109Z" stroke="#4832D9" stroke-width="2" stroke-miterlimit="10"/>
<path d="M46.3857 26.1914H52.6657" stroke="#4832D9" stroke-width="2" stroke-miterlimit="10"/>
<path d="M0.295898 26.1914H6.5859" stroke="#4832D9" stroke-width="2" stroke-miterlimit="10"/>
<path d="M26.4863 46.0898V52.3698" stroke="#4832D9" stroke-width="2" stroke-miterlimit="10"/>
<path d="M26.4863 0V6.29" stroke="#4832D9" stroke-width="2" stroke-miterlimit="10"/>
<path d="M45.3066 18.6094C46.2566 20.9494 46.7766 23.5094 46.7766 26.1894C46.7766 28.5794 46.3666 30.8594 45.6066 32.9894" stroke="#4832D9" stroke-width="2" stroke-miterlimit="10"/>
<path d="M19.2959 7.21063C21.5259 6.36063 23.9559 5.89062 26.4859 5.89062C29.5059 5.89062 32.3659 6.55063 34.9359 7.73063" stroke="#4832D9" stroke-width="2" stroke-miterlimit="10"/>
<path d="M7.36629 32.9894C6.60629 30.8594 6.19629 28.5694 6.19629 26.1894C6.19629 23.5094 6.71629 20.9494 7.66629 18.6094" stroke="#4832D9" stroke-width="2" stroke-miterlimit="10"/>
<path d="M34.9359 44.6406C32.3659 45.8306 29.5059 46.4806 26.4859 46.4806C23.9559 46.4806 21.5259 46.0206 19.2959 45.1606" stroke="#4832D9" stroke-width="2" stroke-miterlimit="10"/>
</g>
<defs>
<clipPath id="clip0_603_5168">
<rect width="52.37" height="52.37" fill="white" transform="translate(0.295898)"/>
</clipPath>
</defs>
</svg>
