<svg width="46" height="47" viewBox="0 0 46 47" fill="none" xmlns="http://www.w3.org/2000/svg">
<g clip-path="url(#clip0_603_5156)">
<path d="M35.5832 7.81828L38.1533 3.98828C39.0133 2.70828 38.0932 0.988281 36.5532 0.988281H18.3832C16.8432 0.988281 15.9233 2.70828 16.7833 3.98828L19.3533 7.80828C20.7633 9.90828 20.1732 12.7483 18.0732 14.1683C13.2832 17.3883 10.2332 22.9883 10.6432 29.2783C11.1832 37.7283 18.1832 44.5983 26.6332 44.9983C36.3232 45.4583 44.3232 37.7483 44.3232 28.1583C44.3232 22.3083 41.3332 17.1483 36.8032 14.1283C34.7232 12.7383 34.1732 9.88828 35.5732 7.80828L35.5832 7.81828Z" stroke="#4832D9" stroke-width="2" stroke-miterlimit="10"/>
<path d="M27.4735 36.6306C32.3723 36.6306 36.3435 32.6594 36.3435 27.7606C36.3435 22.8619 32.3723 18.8906 27.4735 18.8906C22.5747 18.8906 18.6035 22.8619 18.6035 27.7606C18.6035 32.6594 22.5747 36.6306 27.4735 36.6306Z" fill="#F2B705" stroke="#F2B705" stroke-width="2" stroke-miterlimit="10"/>
<path d="M25.173 31.1202C24.643 30.6102 24.293 29.9902 24.123 29.2702L25.773 28.6402C25.853 29.0602 26.013 29.4402 26.273 29.7702C26.523 30.1102 26.863 30.3302 27.283 30.4402V28.0102L27.003 27.9602C26.493 27.8602 26.053 27.7102 25.693 27.5002C25.333 27.2902 25.053 26.9902 24.853 26.6202C24.653 26.2502 24.553 25.7802 24.553 25.2302C24.553 24.7902 24.653 24.3702 24.863 23.9802C25.073 23.5902 25.383 23.2702 25.803 23.0002C26.213 22.7402 26.713 22.5802 27.293 22.5202V21.4102H28.483V22.5402C29.003 22.6202 29.463 22.7702 29.833 23.0002C30.213 23.2302 30.523 23.5102 30.753 23.8402C30.983 24.1702 31.163 24.5302 31.273 24.9102L29.703 25.5402C29.633 25.3202 29.543 25.1202 29.433 24.9302C29.323 24.7402 29.193 24.5802 29.023 24.4502C28.863 24.3102 28.673 24.2102 28.463 24.1402V26.3902L28.803 26.4702C29.553 26.6402 30.163 26.9502 30.643 27.3902C31.123 27.8302 31.353 28.4402 31.353 29.2302C31.353 29.9702 31.113 30.6002 30.623 31.1202C30.133 31.6402 29.413 31.9502 28.463 32.0402V33.1502H27.273V32.0202C26.403 31.9202 25.703 31.6202 25.173 31.1102V31.1202ZM27.273 25.4302V24.0802C26.963 24.1502 26.723 24.2802 26.573 24.4802C26.423 24.6802 26.343 24.8902 26.343 25.1102C26.343 25.4002 26.423 25.6202 26.583 25.7902C26.743 25.9602 26.973 26.0802 27.273 26.1602V25.4302ZM29.063 30.2302C29.223 30.1202 29.343 29.9802 29.413 29.8302C29.493 29.6802 29.533 29.5102 29.533 29.3102C29.533 29.1102 29.493 28.9602 29.403 28.8102C29.313 28.6602 29.193 28.5402 29.033 28.4402C28.873 28.3402 28.683 28.2602 28.453 28.2102V30.4602C28.693 30.4202 28.893 30.3402 29.053 30.2202L29.063 30.2302Z" fill="#4832D9"/>
<path d="M7.49262 20.1308L7.43262 8.30078" stroke="#4832D9" stroke-width="2" stroke-miterlimit="10"/>
<path d="M1.41309 8.29984L7.43309 1.33984L13.4531 8.29984H1.41309Z" fill="white" stroke="#4832D9" stroke-width="2" stroke-linejoin="round"/>
</g>
<defs>
<clipPath id="clip0_603_5156">
<rect width="44.92" height="46.03" fill="white" transform="translate(0.413086)"/>
</clipPath>
</defs>
</svg>
